<svg width="65" height="65" viewBox="0 0 65 65" fill="none" xmlns="http://www.w3.org/2000/svg">
<path d="M29.108 39.8195L30.1025 40.2317L30.7176 42.7969H34.5949L35.21 40.2317L36.2044 39.8195L38.4612 41.2024L41.2023 38.4612L39.8195 36.2045L40.2317 35.21L42.7969 34.5949V30.7176L40.2317 30.1025L39.8195 29.1081L41.2024 26.8513L38.4612 24.1102L36.2045 25.493L35.21 25.0808L34.5949 22.5156H30.7176L30.1025 25.0808L29.1081 25.493L26.8513 24.1101L24.1102 26.8513L25.493 29.108L25.0808 30.1025L22.5156 30.7176V34.5949L25.0808 35.21L25.493 36.2044L24.1101 38.4612L26.8513 41.2023L29.108 39.8195ZM26.4245 33.6361L24.3594 33.1409V32.1716L26.4245 31.6764L27.556 28.9458L26.4417 27.1273L27.1273 26.4416L28.9458 27.556L31.6764 26.4245L32.1716 24.3594H33.1409L33.6361 26.4245L36.3667 27.556L38.1853 26.4417L38.8709 27.1273L37.7565 28.9458L38.888 31.6764L40.9531 32.1716V33.1409L38.888 33.6361L37.7565 36.3667L38.8708 38.1853L38.1852 38.8709L36.3667 37.7565L33.6361 38.888L33.1409 40.9531H32.1716L31.6764 38.888L28.9458 37.7565L27.1273 38.8708L26.4416 38.1852L27.556 36.3667L26.4245 33.6361Z" fill="#66BB6A"/>
<path d="M32.6562 36.3438C33.3856 36.3438 34.0985 36.1275 34.7049 35.7223C35.3113 35.3171 35.784 34.7412 36.0631 34.0674C36.3422 33.3936 36.4152 32.6522 36.2729 31.9369C36.1306 31.2216 35.7794 30.5645 35.2637 30.0488C34.748 29.5331 34.091 29.1819 33.3756 29.0396C32.6603 28.8973 31.9189 28.9703 31.2451 29.2494C30.5713 29.5285 29.9954 30.0012 29.5902 30.6076C29.185 31.214 28.9688 31.9269 28.9688 32.6563C28.9699 33.6339 29.3587 34.5712 30.05 35.2625C30.7413 35.9538 31.6786 36.3426 32.6562 36.3438ZM32.6562 30.8125C33.0209 30.8125 33.3774 30.9206 33.6806 31.1232C33.9838 31.3258 34.2201 31.6138 34.3597 31.9507C34.4992 32.2876 34.5357 32.6583 34.4646 33.016C34.3934 33.3736 34.2178 33.7021 33.96 33.96C33.7021 34.2178 33.3736 34.3934 33.0159 34.4646C32.6583 34.5357 32.2876 34.4992 31.9507 34.3597C31.6138 34.2201 31.3258 33.9838 31.1232 33.6806C30.9206 33.3774 30.8125 33.0209 30.8125 32.6563C30.8131 32.1674 31.0075 31.6988 31.3531 31.3531C31.6988 31.0075 32.1674 30.8131 32.6562 30.8125Z" fill="#66BB6A"/>
<path d="M54.7812 43.1838L47.4062 38.9695L40.0312 43.1838V53.8594H54.7812V43.1838ZM49.25 48.3281H45.5625V46.4844H49.25V48.3281ZM45.5625 50.1719H49.25V52.0156H45.5625V50.1719ZM52.9375 52.0156H51.0938V44.6406H43.7188V52.0156H41.875V44.2537L47.4062 41.093L52.9375 44.2537V52.0156Z" fill="#66BB6A"/>
<path d="M17.9063 30.8125H20.6719V28.9688H17.9063C15.7183 28.9688 13.5795 28.32 11.7603 27.1044C9.94104 25.8888 8.52313 24.1611 7.68584 22.1397C6.84854 20.1183 6.62947 17.894 7.05632 15.7481C7.48317 13.6022 8.53677 11.631 10.0839 10.0839C11.631 8.53677 13.6022 7.48317 15.7481 7.05632C17.894 6.62947 20.1183 6.84854 22.1397 7.68584C24.1611 8.52313 25.8888 9.94104 27.1044 11.7603C28.32 13.5795 28.9688 15.7183 28.9688 17.9063V20.6719H30.8125V17.9063C30.8125 15.3536 30.0556 12.8583 28.6374 10.7359C27.2193 8.61351 25.2036 6.95928 22.8453 5.98244C20.487 5.00559 17.8919 4.75001 15.3884 5.248C12.8848 5.74599 10.5851 6.97519 8.78016 8.78016C6.97519 10.5851 5.74599 12.8848 5.248 15.3884C4.75001 17.8919 5.00559 20.487 5.98244 22.8453C6.95928 25.2036 8.61351 27.2193 10.7359 28.6374C12.8583 30.0556 15.3536 30.8125 17.9063 30.8125Z" fill="#66BB6A"/>
<path d="M36.3438 17.9063C36.3438 15.7183 36.9926 13.5795 38.2081 11.7603C39.4237 9.94104 41.1514 8.52313 43.1728 7.68584C45.1942 6.84854 47.4185 6.62947 49.5644 7.05632C51.7104 7.48317 53.6815 8.53677 55.2286 10.0839C56.7757 11.631 57.8293 13.6022 58.2562 15.7481C58.683 17.894 58.464 20.1183 57.6267 22.1397C56.7894 24.1611 55.3715 25.8888 53.5522 27.1044C51.733 28.32 49.5942 28.9688 47.4062 28.9688H44.6406V30.8125H47.4062C49.9589 30.8125 52.4542 30.0556 54.5766 28.6374C56.699 27.2193 58.3532 25.2036 59.3301 22.8453C60.3069 20.487 60.5625 17.8919 60.0645 15.3884C59.5665 12.8848 58.3373 10.5851 56.5323 8.78016C54.7274 6.97519 52.4277 5.74599 49.9241 5.248C47.4206 4.75001 44.8256 5.00559 42.4672 5.98244C40.1089 6.95928 38.0933 8.61351 36.6751 10.7359C35.2569 12.8583 34.5 15.3536 34.5 17.9063V20.6719H36.3438V17.9063Z" fill="#66BB6A"/>
<path d="M28.9688 47.4062C28.9688 49.5942 28.32 51.733 27.1044 53.5522C25.8888 55.3715 24.1611 56.7894 22.1397 57.6267C20.1183 58.464 17.894 58.683 15.7481 58.2562C13.6022 57.8293 11.631 56.7757 10.0839 55.2286C8.53677 53.6815 7.48317 51.7104 7.05632 49.5644C6.62947 47.4185 6.84854 45.1942 7.68584 43.1728C8.52313 41.1514 9.94104 39.4237 11.7603 38.2081C13.5795 36.9926 15.7183 36.3438 17.9063 36.3438H20.6719V34.5H17.9063C15.3536 34.5 12.8583 35.2569 10.7359 36.6751C8.61351 38.0933 6.95928 40.1089 5.98244 42.4672C5.00559 44.8256 4.75001 47.4206 5.248 49.9241C5.74599 52.4277 6.97519 54.7274 8.78016 56.5323C10.5851 58.3373 12.8848 59.5665 15.3884 60.0645C17.8919 60.5625 20.487 60.3069 22.8453 59.3301C25.2036 58.3532 27.2193 56.699 28.6374 54.5766C30.0556 52.4542 30.8125 49.9589 30.8125 47.4062V44.6406H28.9688V47.4062Z" fill="#66BB6A"/>
<path d="M47.4062 34.5H44.6406V36.3438H47.4062C49.5942 36.3437 51.733 36.9926 53.5522 38.2081C55.3715 39.4237 56.7894 41.1514 57.6267 43.1728C58.464 45.1942 58.683 47.4185 58.2562 49.5644C57.8293 51.7104 56.7757 53.6815 55.2286 55.2286C53.6815 56.7757 51.7104 57.8293 49.5644 58.2562C47.4185 58.683 45.1942 58.464 43.1728 57.6267C41.1514 56.7894 39.4237 55.3715 38.2081 53.5522C36.9926 51.733 36.3438 49.5942 36.3438 47.4062V44.6406H34.5V47.4062C34.5 49.9589 35.2569 52.4542 36.6751 54.5766C38.0933 56.699 40.1089 58.3532 42.4672 59.3301C44.8256 60.3069 47.4206 60.5625 49.9241 60.0645C52.4277 59.5665 54.7274 58.3373 56.5323 56.5323C58.3373 54.7274 59.5665 52.4277 60.0645 49.9241C60.5625 47.4206 60.3069 44.8256 59.3301 42.4672C58.3532 40.1089 56.699 38.0933 54.5766 36.6751C52.4542 35.2569 49.9589 34.5 47.4062 34.5Z" fill="#66BB6A"/>
<path d="M11.4531 49.25V52.9375C11.454 53.6707 11.7456 54.3737 12.2641 54.8922C12.7826 55.4106 13.4855 55.7023 14.2188 55.7031H21.5938C22.327 55.7023 23.0299 55.4106 23.5484 54.8922C24.0669 54.3737 24.3585 53.6707 24.3594 52.9375V49.25C24.3583 48.8208 24.2579 48.3977 24.066 48.0139C23.874 47.63 23.5958 47.2958 23.2531 47.0375L20.8347 45.2237L21.4046 43.5142C21.53 43.1382 21.5938 42.7444 21.5938 42.3481V41.875C21.5938 40.897 21.2052 39.9591 20.5137 39.2675C19.8222 38.576 18.8842 38.1875 17.9062 38.1875C16.9283 38.1875 15.9903 38.576 15.2988 39.2675C14.6073 39.9591 14.2188 40.897 14.2188 41.875V42.3481C14.2187 42.7445 14.2826 43.1383 14.4079 43.5143L14.9778 45.2237L12.5594 47.0375C12.2167 47.2958 11.9384 47.63 11.7465 48.0138C11.5545 48.3977 11.4541 48.8208 11.4531 49.25ZM13.2969 49.25C13.2972 49.107 13.3307 48.9659 13.3947 48.838C13.4587 48.71 13.5514 48.5987 13.6656 48.5126L17.1472 45.9013L16.1571 42.9312C16.0944 42.7432 16.0624 42.5463 16.0625 42.3481V41.875C16.0625 41.386 16.2568 40.917 16.6025 40.5713C16.9483 40.2255 17.4173 40.0312 17.9062 40.0312C18.3952 40.0312 18.8642 40.2255 19.21 40.5713C19.5557 40.917 19.75 41.386 19.75 41.875V42.3481C19.7501 42.5463 19.7181 42.7431 19.6554 42.9311L18.6653 45.9013L22.1469 48.5126C22.2611 48.5987 22.3538 48.71 22.4178 48.838C22.4818 48.9659 22.5153 49.107 22.5156 49.25V52.9375C22.5153 53.1819 22.4181 53.4162 22.2453 53.5891C22.0725 53.7619 21.8382 53.8591 21.5938 53.8594H14.2188C13.9743 53.8591 13.74 53.7619 13.5672 53.5891C13.3944 53.4162 13.2972 53.1819 13.2969 52.9375V49.25Z" fill="#66BB6A"/>
<path d="M54.7812 21.5938V14.2188C54.7804 13.4855 54.4888 12.7826 53.9703 12.2641C53.4518 11.7456 52.7489 11.454 52.0156 11.4531H42.7969C42.0636 11.454 41.3607 11.7456 40.8422 12.2641C40.3237 12.7826 40.0321 13.4855 40.0312 14.2188V21.5938C40.0321 22.327 40.3237 23.0299 40.8422 23.5484C41.3607 24.0669 42.0636 24.3585 42.7969 24.3594H52.0156C52.7489 24.3585 53.4518 24.0669 53.9703 23.5484C54.4888 23.0299 54.7804 22.327 54.7812 21.5938ZM45.5625 13.2969H47.4062V16.9844H45.5625V13.2969ZM41.875 21.5938V14.2188C41.8753 13.9743 41.9725 13.74 42.1453 13.5672C42.3181 13.3944 42.5525 13.2972 42.7969 13.2969H43.7188V18.8281H49.25V13.2969H52.0156C52.26 13.2972 52.4944 13.3944 52.6672 13.5672C52.84 13.74 52.9372 13.9743 52.9375 14.2188V21.5938C52.9372 21.8382 52.84 22.0725 52.6672 22.2453C52.4944 22.4181 52.26 22.5153 52.0156 22.5156H42.7969C42.5525 22.5153 42.3181 22.4181 42.1453 22.2453C41.9725 22.0725 41.8753 21.8382 41.875 21.5938Z" fill="#66BB6A"/>
<path d="M14.2188 9.60938V13.5543L11.4531 14.4762V21.5938H10.5312V23.4375H25.2812V21.5938H24.3594V12.0178L22.5156 12.6324V9.60938H20.6719V13.247L18.8281 13.8615V12.0178L16.0625 12.9397V9.60938H14.2188ZM22.5156 14.5759V21.5938H18.8281V15.8051L22.5156 14.5759ZM16.9844 21.5938H13.2969V15.805L16.9844 14.5759V21.5938Z" fill="#66BB6A"/>
</svg>
