<svg width="65" height="65" viewBox="0 0 65 65" fill="none" xmlns="http://www.w3.org/2000/svg">
<path d="M51.8837 23.4363L49.6719 20.3345V16.3125C49.6719 16.0846 49.5813 15.866 49.4202 15.7048C49.259 15.5437 49.0404 15.4531 48.8125 15.4531H43.6562C43.4283 15.4531 43.2097 15.5437 43.0486 15.7048C42.8874 15.866 42.7969 16.0846 42.7969 16.3125V20.3345L40.5859 23.4351C40.3439 23.7731 40.1209 24.1244 39.918 24.4873L41.4185 25.3252C41.5903 25.0177 41.7792 24.72 41.9842 24.4336L44.3559 21.1078C44.4597 20.9623 44.5155 20.7881 44.5156 20.6094V17.1719H47.9531V20.6094C47.9532 20.7883 48.009 20.9627 48.113 21.1084L50.487 24.4376C50.9701 25.1116 51.3607 25.8473 51.6484 26.625H45.375V28.3438H52.0996C52.1938 28.8686 52.2441 29.4004 52.25 29.9336V30.0625H45.375V31.7812H52.25V33.5H45.375V35.2188H51.9162L51.7096 35.8494C51.2848 37.1116 51.2843 38.4781 51.7083 39.7406L52.0193 40.6893C52.1712 41.142 52.2491 41.6162 52.25 42.0938H45.375V43.8125H52.25V45.5312H45.375V47.25H52.25V48.9688H45.375V50.6875H52.25V54.125C52.2495 54.5807 52.0683 55.0176 51.7461 55.3398C51.4239 55.6621 50.9869 55.8433 50.5312 55.8438H48.6665C48.5527 55.8438 48.4399 55.8213 48.3348 55.7775C48.2297 55.7337 48.1344 55.6695 48.0542 55.5886C47.5657 55.1175 46.9134 54.8542 46.2347 54.8542C45.556 54.8542 44.9037 55.1175 44.4152 55.5886L45.6304 56.8039C45.7916 56.6453 46.0086 56.5565 46.2347 56.5565C46.4608 56.5565 46.6778 56.6453 46.8389 56.8039C47.0783 57.0449 47.3631 57.236 47.6768 57.3662C47.9905 57.4964 48.3269 57.5631 48.6665 57.5625H50.5312C51.4426 57.5615 52.3164 57.199 52.9608 56.5545C53.6052 55.9101 53.9677 55.0364 53.9687 54.125V42.0938C53.968 41.433 53.8607 40.7767 53.6511 40.1501L53.3401 39.2013C53.032 38.289 53.0325 37.3007 53.3414 36.3887L53.6529 35.4386C53.7521 35.1273 53.8314 34.81 53.8904 34.4886C53.9412 34.1615 53.9674 33.831 53.9687 33.5V29.9336C53.9674 29.0401 53.8612 28.1499 53.6524 27.2811C53.3173 25.8971 52.7166 24.5913 51.8837 23.4363Z" fill="#66BB6A"/>
<path d="M11 24.9062V50.9023C11.002 52.6681 11.7043 54.361 12.9529 55.6096C14.2015 56.8582 15.8944 57.5605 17.6602 57.5625C19.1026 57.5669 20.5068 57.0986 21.6579 56.2294C22.0543 55.9323 22.5363 55.7718 23.0317 55.7718C23.5271 55.7718 24.0091 55.9323 24.4055 56.2294C25.4898 57.0462 26.799 57.51 28.1556 57.5579L28.2194 55.84C27.2137 55.8052 26.2431 55.4616 25.4395 54.856C24.7445 54.3358 23.8998 54.0546 23.0317 54.0546C22.1636 54.0546 21.3189 54.3358 20.6239 54.856C19.7705 55.5003 18.7295 55.8472 17.6602 55.8438C16.3501 55.8422 15.0941 55.3211 14.1678 54.3948C13.2414 53.4684 12.7203 52.2124 12.7188 50.9023V46.3906H28.1875V44.6719H12.7188V27.4844H31.625V25.7656H12.7188V24.9062C12.7149 22.7249 13.4044 20.5988 14.6877 18.8349C15.9711 17.071 17.7819 15.7606 19.8586 15.093C20.0314 15.0372 20.182 14.928 20.2889 14.7811C20.3957 14.6343 20.4532 14.4573 20.4531 14.2757V12.0156H25.6094V14.2757C25.6093 14.4573 25.6668 14.6343 25.7737 14.7811C25.8805 14.928 26.0312 15.0372 26.204 15.093C28.1525 15.7174 29.8702 16.9095 31.1369 18.5164C32.4035 20.1233 33.1615 22.0718 33.3136 24.1123L35.0273 23.9815C34.8584 21.7079 34.0443 19.5297 32.6805 17.7028C31.3167 15.8758 29.4599 14.476 27.3281 13.6677V12.0156H29.0469V10.2969H27.3281V6.85938C27.3281 6.63145 27.2376 6.41287 27.0764 6.25171C26.9153 6.09054 26.6967 6 26.4688 6H19.5938C19.3659 6 19.1473 6.09054 18.9861 6.25171C18.8249 6.41287 18.7344 6.63145 18.7344 6.85938V10.2969H17.0156V12.0156H18.7344V13.6677C16.4564 14.5338 14.4962 16.0732 13.1145 18.0808C11.7329 20.0884 10.9954 22.4691 11 24.9062ZM20.4531 7.71875H25.6094V10.2969H20.4531V7.71875Z" fill="#66BB6A"/>
<path d="M18.2578 17.7583L19.2096 19.1892C19.7376 18.8387 20.3113 18.5623 20.9145 18.3676L20.3857 16.7319C19.6328 16.9751 18.9168 17.3205 18.2578 17.7583Z" fill="#66BB6A"/>
<path d="M16.197 24.1413C16.3648 22.641 17.021 21.2374 18.0647 20.1465L16.8251 18.9551C15.5199 20.3197 14.6988 22.0753 14.4883 23.9519L16.197 24.1413Z" fill="#66BB6A"/>
<path d="M16.1562 29.2031H14.4375V30.9219H16.1562V29.2031Z" fill="#66BB6A"/>
<path d="M16.1562 32.6406H14.4375V40.375H16.1562V32.6406Z" fill="#66BB6A"/>
<path d="M35.0625 34.3594H33.3438V36.9375H35.0625V34.3594Z" fill="#66BB6A"/>
<path d="M36.7813 24.9062C34.8536 24.9062 33.3438 26.0388 33.3438 27.4844V30.3914L31.335 31.3994C30.9051 31.6121 30.5434 31.941 30.2909 32.3487C30.0384 32.7565 29.9051 33.2268 29.9063 33.7065V37.7969C29.9062 37.9303 29.9373 38.0619 29.9969 38.1812L30.6641 39.5156L29.9969 40.85C29.9373 40.9694 29.9062 41.101 29.9063 41.2344V42.9531C29.9062 43.0865 29.9373 43.2181 29.9969 43.3375L30.6641 44.6719L29.9969 46.0063C29.9373 46.1256 29.9062 46.2572 29.9063 46.3906V48.1094C29.9062 48.2428 29.9373 48.3744 29.9969 48.4937L30.6641 49.8281L29.9969 51.1625C29.9373 51.2819 29.9062 51.4135 29.9063 51.5469V54.9844C29.9073 55.6678 30.1793 56.323 30.6625 56.8062C31.1458 57.2895 31.8009 57.5614 32.4844 57.5625H41.0781C41.2747 57.5616 41.4705 57.5395 41.6623 57.4966C42.2299 57.3653 42.7361 57.0453 43.0983 56.589C43.4605 56.1327 43.6572 55.567 43.6563 54.9844V51.5469C43.6563 51.4135 43.6252 51.2819 43.5656 51.1625L42.8984 49.8281L43.5656 48.4937C43.6252 48.3744 43.6563 48.2428 43.6563 48.1094V46.3906C43.6563 46.2572 43.6252 46.1256 43.5656 46.0063L42.8984 44.6719L43.5656 43.3375C43.6252 43.2181 43.6563 43.0865 43.6563 42.9531V41.2344C43.6563 41.101 43.6252 40.9694 43.5656 40.85L42.8984 39.5156L43.5656 38.1812C43.6252 38.0619 43.6563 37.9303 43.6563 37.7969V33.7065C43.6575 33.227 43.5244 32.7568 43.272 32.3492C43.0196 31.9416 42.658 31.6128 42.2283 31.4002L40.2188 30.3914V27.4844C40.2188 26.0388 38.7089 24.9062 36.7813 24.9062ZM36.7813 26.625C37.8303 26.625 38.5 27.134 38.5 27.4844C38.5 27.8348 37.8303 28.3438 36.7813 28.3438C35.7322 28.3438 35.0625 27.8348 35.0625 27.4844C35.0625 27.134 35.7322 26.625 36.7813 26.625ZM41.4587 32.9369C41.6025 33.0076 41.7236 33.1172 41.8082 33.2532C41.8928 33.3892 41.9376 33.5463 41.9375 33.7065V37.5942L41.4063 38.6562H34.2031V40.375H41.4063L41.9375 41.4371V42.7504L41.4063 43.8125H34.2031V45.5312H41.4063L41.9375 46.5933V47.9067L41.4063 48.9688H34.2031V50.6875H41.4063L41.9375 51.7496V54.9844C41.9363 55.1759 41.8718 55.3618 41.754 55.5128C41.6362 55.6639 41.4718 55.7719 41.2863 55.8198C41.2179 55.835 41.1482 55.843 41.0781 55.8438H32.4844C32.3517 55.8432 32.221 55.8121 32.1024 55.7527C31.9838 55.6934 31.8804 55.6075 31.8004 55.5017C31.6863 55.3535 31.6246 55.1715 31.625 54.9844V51.7496L32.3937 50.2125C32.4533 50.0931 32.4844 49.9615 32.4844 49.8281C32.4844 49.6947 32.4533 49.5631 32.3937 49.4438L31.625 47.9067V46.5933L32.3937 45.0562C32.4533 44.9369 32.4844 44.8053 32.4844 44.6719C32.4844 44.5385 32.4533 44.4069 32.3937 44.2875L31.625 42.7504V41.4371L32.3937 39.9C32.4533 39.7806 32.4844 39.649 32.4844 39.5156C32.4844 39.3822 32.4533 39.2506 32.3937 39.1313L31.625 37.5942V33.7065C31.625 33.5461 31.6699 33.3889 31.7547 33.2527C31.8395 33.1165 31.9607 33.0068 32.1046 32.936L34.5883 31.6899C34.7309 31.6186 34.8508 31.5089 34.9345 31.3733C35.0183 31.2376 35.0626 31.0813 35.0625 30.9219V29.7149C35.6065 29.9443 36.1909 30.0625 36.7813 30.0625C37.3716 30.0625 37.956 29.9443 38.5 29.7149V30.9219C38.5 31.0813 38.5443 31.2375 38.628 31.3731C38.7118 31.5088 38.8316 31.6184 38.9742 31.6897L41.4587 32.9369Z" fill="#66BB6A"/>
</svg>
