<svg width="65" height="65" viewBox="0 0 65 65" fill="none" xmlns="http://www.w3.org/2000/svg">
<path d="M60.8179 34.1304L47.4053 11.6285C47.2598 11.3852 47.0381 11.1965 46.7747 11.0916C46.5113 10.9867 46.2207 10.9714 45.9477 11.0482L20.301 18.2895C20.0387 18.3633 19.8067 18.5186 19.6386 18.733L6.27444 35.7237C6.16297 35.8662 6.08265 36.0306 6.0387 36.2061C5.99476 36.3816 5.98815 36.5643 6.01932 36.7426L8.62365 51.602C8.65359 51.7716 8.717 51.9335 8.81019 52.0783C8.90338 52.2231 9.02448 52.3479 9.16643 52.4454L17.3578 58.0419C17.572 58.1877 17.8253 58.2656 18.0846 58.2651H18.1034L50.2134 57.7646C50.5133 57.7591 50.802 57.6496 51.0301 57.4549L60.5466 49.3135C60.6888 49.1925 60.803 49.0421 60.8813 48.8726C60.9596 48.7031 61 48.5187 60.9998 48.332V34.7909C60.9997 34.5584 60.9368 34.3302 60.8179 34.1304ZM46.6965 13.7962L58.622 33.8031L48.9116 33.5143L42.2487 26.6778L46.6965 13.7962ZM47.4793 34.5073L38.9576 50.0302L23.7664 47.9824L25.9992 35.8723L41.0953 27.9566L47.4793 34.5073ZM45.1308 13.0647L40.5626 26.2951L25.7544 34.0599L21.4751 19.7439L45.1308 13.0647ZM20.0527 20.9864L24.3472 35.3532L22.1728 47.1463L8.23696 36.0087L20.0527 20.9864ZM17.548 56.09L10.2856 51.1283L7.98611 38.0085L21.6463 48.9257L17.548 56.09ZM19.2776 56.5277L23.2161 49.6429L39.1656 51.7925L47.4938 56.0879L19.2776 56.5277ZM50.4578 55.6827L42.2788 51.4644L57.6761 49.5073L50.4578 55.6827ZM59.2811 47.5705L40.9925 49.895L49.0393 35.2375L59.2811 35.5422V47.5705Z" fill="#66BB6A"/>
</svg>
