<svg width="65" height="65" viewBox="0 0 65 65" fill="none" xmlns="http://www.w3.org/2000/svg">
<path d="M35.1568 7.44473L33.5169 6.62432C32.1588 5.94483 30.5071 6.49474 29.8273 7.85265L29.4176 8.67215C28.8295 8.37583 28.1267 8.42362 27.5842 8.79682C24.7866 7.53732 13.1816 2.91365 5.70339 9.30373C5.11481 9.75559 4.86416 10.5225 5.07229 11.2348C5.28043 11.947 5.90462 12.4583 6.64389 12.5222C12.5071 12.8525 18.2413 14.3753 23.4959 16.9973C23.5376 17.6438 23.9184 18.2199 24.4969 18.5117L10.3243 46.8477C9.7262 48.0208 9.80305 49.4245 10.5257 50.5253C11.2483 51.6261 12.5057 52.2549 13.8199 52.1726C15.1341 52.0904 16.3033 51.3098 16.8831 50.1275L31.0556 21.7924C31.6352 22.0856 32.3275 22.045 32.8688 21.6861C38.1179 24.3174 42.775 27.9917 46.5556 32.4844C47.0504 33.0368 47.8335 33.2291 48.528 32.9685C49.2224 32.708 49.6858 32.0481 49.6951 31.3065C50.3231 21.4917 39.6677 14.9788 36.9801 13.4993C36.9538 12.8394 36.5686 12.2468 35.9763 11.9547L36.387 11.1352C36.7134 10.4827 36.7672 9.72727 36.5365 9.03511C36.3058 8.34295 35.8095 7.77085 35.1568 7.44473ZM31.4672 8.67765C31.5753 8.45855 31.7664 8.29166 31.9981 8.21404C32.2297 8.13642 32.4828 8.15449 32.7011 8.26423L34.341 9.08923C34.5585 9.19799 34.7239 9.38872 34.8007 9.61943C34.8775 9.85015 34.8596 10.1019 34.7507 10.3194L34.3401 11.138L31.0575 9.49348L31.4672 8.67765ZM6.89414 10.6943C13.2402 5.27407 23.5491 9.06907 26.531 10.346L24.0844 15.2447C18.713 12.6024 12.8694 11.0556 6.89414 10.6943ZM15.2431 49.3052C14.7806 50.1924 13.6922 50.5448 12.7974 50.0973C11.9026 49.6498 11.5319 48.5675 11.9642 47.6653L26.1368 19.3321L29.4157 20.9729L15.2431 49.3052ZM31.8761 20.1525L31.0566 19.7427L25.3182 16.8717L28.599 10.3139L35.1568 13.5937L31.8761 20.1534V20.1525ZM47.8655 31.1901C43.9938 26.6267 39.2531 22.8791 33.9193 20.1653L36.3677 15.2657C39.1801 16.8837 48.3999 22.8484 47.8655 31.1901Z" fill="#66BB6A"/>
<path d="M58.8103 15.2336C57.0455 15.8888 55.6038 17.2033 54.7889 18.9003C53.765 19.0259 51.8006 19.486 50.9463 21.192C50.7997 21.4857 50.8214 21.8353 51.0031 22.1086C53.0988 25.775 53.4027 30.1984 51.8281 34.117C51.7321 34.3783 51.7583 34.669 51.8996 34.909C52.1297 35.2995 54.0446 38.7892 50.3816 40.9874C50.1821 41.1068 50.0358 41.298 49.9728 41.5218C49.5995 42.6652 48.7701 43.6035 47.6811 44.1141C46.2639 44.6568 44.4104 44.2278 42.1738 42.8308C42.0273 42.737 41.8572 42.6867 41.6833 42.686C41.6063 42.686 34.229 42.7712 31.0702 49.8149C28.4891 49.0826 25.7564 50.3194 24.6031 52.7418C22.4618 52.7134 15.8893 53.1671 14.2108 59.8808C14.1426 60.1545 14.2042 60.4445 14.3778 60.6669C14.5515 60.8892 14.8179 61.0192 15.1 61.0193H58.1833C59.1959 61.0193 60.0167 60.1985 60.0167 59.186V16.1026C60.0165 15.8081 59.8748 15.5317 59.6358 15.3595C59.3969 15.1874 59.0898 15.1406 58.8103 15.2336ZM58.1833 59.186H16.3586C18.4816 53.961 24.7974 54.565 25.0843 54.5971C25.4935 54.6417 25.8822 54.4082 26.0349 54.026C26.3946 53.0077 27.1639 52.1864 28.1566 51.7611C29.1493 51.3359 30.2746 51.3454 31.2599 51.7875C31.489 51.8795 31.7454 51.8752 31.9712 51.7757C32.1971 51.6761 32.3732 51.4897 32.4598 51.2586C33.8427 47.4234 37.3739 44.7778 41.4432 44.5285C44.0933 46.1271 46.4115 46.5635 48.3374 45.8219C49.8557 45.1715 51.0397 43.9255 51.6118 42.3761C54.5983 40.4227 55.0648 37.274 53.6853 34.3709C55.2068 30.1966 54.9045 25.5751 52.852 21.6347C53.5799 21.0348 54.4902 20.7002 55.4333 20.686C55.8281 20.6861 56.1785 20.4335 56.3033 20.059C56.6532 19.0676 57.3123 18.2148 58.1833 17.6261V59.186Z" fill="#66BB6A"/>
<path d="M51.6373 50.4235L49.891 49.8735C48.9264 49.5673 47.8961 50.1007 47.5893 51.0652L47.0393 52.8133C46.7337 53.7776 47.2669 54.8073 48.2309 55.1141C50.1156 55.7099 50.1624 55.7558 50.5336 55.7558C51.3316 55.7526 52.0359 55.2337 52.2753 54.4724L52.8253 52.7244C53.1312 51.7611 52.5998 50.7319 51.6373 50.4235ZM50.5373 53.9197L48.7892 53.3697L49.3392 51.6216L51.0873 52.1716L50.5373 53.9197Z" fill="#66BB6A"/>
<path d="M39.8961 52.6658C39.5893 51.7018 38.5597 51.1685 37.5953 51.4741L35.8481 52.0241C34.8841 52.3309 34.3508 53.3605 34.6565 54.3249L35.2065 56.0721C35.5133 57.0366 36.5436 57.57 37.5082 57.2638L39.2563 56.7138C40.2203 56.4069 40.7536 55.3773 40.448 54.4129L39.8961 52.6658ZM36.9527 55.5193L36.4027 53.7722L38.1508 53.2222L38.7008 54.9703L36.9527 55.5193Z" fill="#66BB6A"/>
<path d="M43.5182 48.186C43.012 48.186 42.6016 48.5964 42.6016 49.1027V50.0194C42.6016 50.5256 43.012 50.936 43.5182 50.936C44.0245 50.936 44.4349 50.5256 44.4349 50.0194V49.1027C44.4349 48.5964 44.0245 48.186 43.5182 48.186Z" fill="#66BB6A"/>
<path d="M28.2052 54.8711L27.2886 55.7878C26.9412 56.1474 26.9461 56.7192 27.2997 57.0728C27.6533 57.4263 28.2251 57.4313 28.5847 57.0839L29.5014 56.1673C29.8488 55.8076 29.8438 55.2358 29.4902 54.8823C29.1366 54.5287 28.5649 54.5237 28.2052 54.8711Z" fill="#66BB6A"/>
<path d="M55.1668 44.7879C54.8071 44.4405 54.2354 44.4455 53.8818 44.7991C53.5282 45.1527 53.5232 45.7244 53.8706 46.0841C54.8423 47.0566 54.9587 47.2693 55.4354 47.2693C55.806 47.2692 56.1402 47.0459 56.2821 46.7034C56.4239 46.3609 56.3455 45.9667 56.0834 45.7046L55.1668 44.7879Z" fill="#66BB6A"/>
<path d="M35.2695 36.988C35.2695 39.8251 37.1184 41.5567 40.1389 40.563C41.1288 40.3376 41.9642 39.6774 42.4122 38.7663C42.9539 37.4564 42.2289 36.0264 41.5872 34.7642C40.1957 32.0298 35.2695 34.2848 35.2695 36.988ZM40.7182 38.0697C40.4753 38.6554 38.5356 39.3759 37.7509 38.803C37.2738 38.3257 37.0359 37.6596 37.1029 36.988C37.1029 36.0063 39.5577 34.821 39.9519 35.5993C40.4139 36.5086 40.9382 37.5389 40.7182 38.0697Z" fill="#66BB6A"/>
</svg>
