<svg width="65" height="65" viewBox="0 0 65 65" fill="none" xmlns="http://www.w3.org/2000/svg">
<g clip-path="url(#clip0_37_2353)">
<path d="M35.25 5H29.75V6.83337H35.25V5Z" fill="#66BB6A"/>
<path d="M54.0236 40.9216C53.9705 40.8326 53.9145 40.7474 53.8586 40.6722C53.3032 39.8958 52.4772 39.3825 51.5349 39.2275C50.5971 39.0726 49.6465 39.2935 48.8729 39.8491L38.6245 47.1669H27.9179C27.4128 47.1669 27.0012 46.7562 27.0012 46.2502C27.0012 45.7443 27.4128 45.3336 27.9179 45.3336H33.8762C35.6454 45.3336 37.0846 43.8945 37.0846 42.1252C37.0846 42.1151 37.0836 42.0308 37.0828 42.0217C37.0259 40.2534 35.5345 38.8747 33.803 38.917H21.8781C20.8211 38.9261 19.7917 39.3048 18.9805 39.9812L14.498 43.7121C14.2889 43.8872 14.168 44.1448 14.168 44.417V55.417C14.168 55.9239 14.5786 56.3336 15.0846 56.3336H37.8281C39.3167 56.3318 40.7669 55.8074 41.9128 54.8587L53.0256 45.6765C54.5352 44.601 54.9734 42.5129 54.0236 40.9216ZM51.9108 44.2234L40.7448 53.446C39.9253 54.1244 38.8885 54.4983 37.827 54.5001H16.0012V44.8466L20.1546 41.389C20.6423 40.9829 21.2592 40.7555 21.8862 40.75L33.8322 40.7491C34.5921 40.7482 35.2264 41.323 35.2512 42.1251C35.2512 42.8832 34.6343 43.5001 33.8762 43.5001H27.9179C26.4017 43.5001 25.1679 44.734 25.1679 46.2501C25.1679 47.7663 26.4017 49.0001 27.9179 49.0001H38.9179C39.1085 49.0001 39.2946 48.9405 39.4523 48.8296L49.9407 41.3395C50.3184 41.0682 50.7777 40.9628 51.2379 41.0361C51.6971 41.1121 52.0986 41.3615 52.3745 41.7465C52.402 41.7841 52.4267 41.8225 52.4505 41.8619C52.9145 42.6385 52.699 43.6587 51.9108 44.2234Z" fill="#66BB6A"/>
<path d="M15.0559 42.5834H5V44.4167H14.1391V58.1667H5V60H15.0559C15.5618 60 15.9725 59.5903 15.9725 59.0834V43.5C15.9725 42.9931 15.5618 42.5834 15.0559 42.5834Z" fill="#66BB6A"/>
<path d="M9.58203 50.8335C8.06588 50.8335 6.83203 52.0673 6.83203 53.5835C6.83203 55.0996 8.06588 56.3335 9.58203 56.3335C11.0982 56.3335 12.332 55.0996 12.332 53.5835C12.332 52.0673 11.0982 50.8335 9.58203 50.8335ZM9.58203 54.5001C9.07693 54.5001 8.6654 54.0895 8.6654 53.5835C8.6654 53.0775 9.07693 52.6669 9.58203 52.6669C10.0871 52.6669 10.4987 53.0775 10.4987 53.5835C10.4987 54.0895 10.0871 54.5001 9.58203 54.5001Z" fill="#66BB6A"/>
<path d="M59.0834 33.4166H5.91663C5.41067 33.4166 5 33.8263 5 34.3333C5 37.8707 7.87837 40.7499 11.4166 40.7499H53.5833C57.1207 40.7499 59.9999 37.8707 59.9999 34.3333C60 33.8264 59.5903 33.4166 59.0834 33.4166ZM53.5834 38.9166H11.4166C9.20288 38.9166 7.35125 37.339 6.92586 35.25H58.074C57.6488 37.339 55.7971 38.9166 53.5834 38.9166Z" fill="#66BB6A"/>
<path d="M32.5013 9.5835C19.36 9.5835 8.66797 20.2755 8.66797 33.4169V34.3335C8.66797 34.8404 9.07864 35.2501 9.5846 35.2501H55.418C55.9249 35.2501 56.3346 34.8404 56.3346 34.3335V33.4169C56.3347 20.2754 45.6435 9.5835 32.5013 9.5835ZM10.5013 33.4168C10.5013 21.2865 20.371 11.4168 32.5013 11.4168C44.6316 11.4168 54.5013 21.2865 54.5013 33.4168H10.5013Z" fill="#66BB6A"/>
<path d="M17.4217 20.0397C16.781 20.7602 16.187 21.5311 15.6562 22.3323L17.1843 23.3452C17.6684 22.6154 18.2091 21.9124 18.7921 21.257L17.4217 20.0397Z" fill="#66BB6A"/>
<path d="M32.4996 13.25C27.3516 13.2528 22.4502 15.1979 18.6992 18.7243L19.9551 20.0599C23.3651 16.8534 27.8209 15.0861 32.5006 15.0834L32.4996 13.25Z" fill="#66BB6A"/>
<path d="M33.4154 5.9165H31.582V10.4999H33.4154V5.9165Z" fill="#66BB6A"/>
</g>
<defs>
<clipPath id="clip0_37_2353">
<rect width="55" height="55" fill="white" transform="translate(5 5)"/>
</clipPath>
</defs>
</svg>
