<svg width="65" height="65" viewBox="0 0 65 65" fill="none" xmlns="http://www.w3.org/2000/svg">
<path d="M31.0771 3C31.842 3.00008 32.5753 3.30399 33.1162 3.84473C33.6572 4.3857 33.9619 5.11972 33.9619 5.88477V13.5771C33.9619 13.8321 33.86 14.0766 33.6797 14.2568C33.4994 14.4371 33.255 14.5381 33 14.5381H32.0381V22.2305H33.9619C35.2364 22.2321 36.4582 22.7394 37.3594 23.6406C38.2606 24.5418 38.7679 25.7636 38.7695 27.0381V29.9229H45.5C46.265 29.9229 46.9991 30.2266 47.54 30.7676C48.081 31.3085 48.3847 32.0426 48.3848 32.8076V35.6924H49.3457V33.7695C49.3457 33.5145 49.4476 33.2692 49.6279 33.0889C49.8082 32.9087 50.0528 32.8076 50.3076 32.8076H54.1543C54.4091 32.8077 54.6538 32.9087 54.834 33.0889C55.0143 33.2692 55.1152 33.5145 55.1152 33.7695V35.6924C55.8803 35.6924 56.6143 35.9961 57.1553 36.5371C57.6962 37.0781 58 37.8121 58 38.5771V55.8848C58 56.6498 57.6962 57.3839 57.1553 57.9248C56.6143 58.4657 55.8802 58.7695 55.1152 58.7695V61.6543C55.1151 61.9091 55.0142 62.1538 54.834 62.334C54.6538 62.5142 54.4092 62.6151 54.1543 62.6152H48.3848C48.1299 62.6152 47.8854 62.5141 47.7051 62.334C47.5249 62.1538 47.423 61.9091 47.4229 61.6543V58.7695H35.8848V61.6543C35.8846 61.9091 35.7828 62.1538 35.6025 62.334C35.4222 62.5141 35.1777 62.6152 34.9229 62.6152H29.1533C28.8985 62.6151 28.6539 62.5142 28.4736 62.334C28.2934 62.1538 28.1925 61.9091 28.1924 61.6543V58.7695H18.3994C18.5132 59.0773 18.5739 59.4023 18.5771 59.7305C18.5771 60.4955 18.2724 61.2295 17.7314 61.7705C17.1905 62.3113 16.4572 62.6152 15.6924 62.6152C14.9273 62.6152 14.1933 62.3115 13.6523 61.7705C13.1114 61.2295 12.8076 60.4955 12.8076 59.7305C12.8108 59.4024 12.8706 59.0773 12.9844 58.7695H12.8076C11.533 58.768 10.3105 58.2607 9.40918 57.3594C8.50813 56.4582 8.00163 55.2363 8 53.9619V27.0381C8.00163 25.7637 8.50814 24.5418 9.40918 23.6406C10.3105 22.7393 11.533 22.232 12.8076 22.2305H14.7305V14.5381H13.7695C13.5145 14.5381 13.2692 14.4372 13.0889 14.2568C12.9087 14.0766 12.8077 13.832 12.8076 13.5771V5.88477C12.8076 5.11972 13.1114 4.3857 13.6523 3.84473C14.1933 3.30378 14.9273 3 15.6924 3H31.0771ZM30.1152 58.7695V60.6924H33.9619V58.7695H30.1152ZM49.3457 58.7695V60.6924H53.1924V58.7695H49.3457ZM15.6924 58.7695C15.5022 58.7695 15.3163 58.826 15.1582 58.9316C15.0001 59.0373 14.8765 59.1876 14.8037 59.3633C14.7311 59.5387 14.7121 59.7317 14.749 59.918C14.7861 60.1045 14.8782 60.2767 15.0127 60.4111C15.1471 60.5454 15.3186 60.6368 15.5049 60.6738C15.6913 60.7109 15.8849 60.6919 16.0605 60.6191C16.2361 60.5463 16.3856 60.4227 16.4912 60.2646C16.5969 60.1065 16.6533 59.9206 16.6533 59.7305C16.6532 59.4756 16.5523 59.231 16.3721 59.0508C16.1918 58.8705 15.9473 58.7696 15.6924 58.7695ZM12.8076 24.1543C12.0426 24.1543 11.3086 24.4581 10.7676 24.999C10.2269 25.5399 9.92295 26.2733 9.92285 27.0381V53.9619C9.92295 54.7267 10.2269 55.4601 10.7676 56.001C11.3086 56.5419 12.0426 56.8457 12.8076 56.8457H25.4844C25.3706 56.5379 25.3108 56.2129 25.3076 55.8848V38.5771C25.3076 37.8121 25.6114 37.0781 26.1523 36.5371C26.6933 35.9961 27.4273 35.6924 28.1924 35.6924V33.7695C28.1924 33.5145 28.2933 33.2692 28.4736 33.0889C28.6538 32.9087 28.8985 32.8077 29.1533 32.8076H31.0771V28H33V32.8076C33.2549 32.8076 33.4994 32.9088 33.6797 33.0889C33.86 33.2692 33.9619 33.5145 33.9619 33.7695V35.6924H34.9229V32.8076C34.9253 32.2132 35.1118 31.6341 35.4561 31.1494C35.8002 30.6648 36.2853 30.2978 36.8457 30.0996V27.0381C36.8456 26.2732 36.5418 25.5399 36.001 24.999C35.4601 24.4582 34.7268 24.1544 33.9619 24.1543H12.8076ZM27.2305 53V55.8848C27.2305 56.1397 27.3324 56.3842 27.5127 56.5645C27.693 56.7447 27.9374 56.8457 28.1924 56.8457H55.1152C55.3702 56.8457 55.6146 56.7447 55.7949 56.5645C55.9752 56.3842 56.0771 56.1397 56.0771 55.8848V53H27.2305ZM15.6924 53.9619H13.7695V28H15.6924V53.9619ZM21.4619 53.9619H19.5381V28H21.4619V53.9619ZM27.2305 49.1543V51.0771H56.0771V49.1543H27.2305ZM28.1924 37.6152C27.9374 37.6152 27.693 37.7171 27.5127 37.8975C27.3324 38.0778 27.2305 38.3221 27.2305 38.5771V47.2305H56.0771V38.5771C56.0771 38.3221 55.9752 38.0778 55.7949 37.8975C55.6146 37.7171 55.3703 37.6152 55.1152 37.6152H50.3076V39.1406L51.9492 40.7812C52.1296 40.9615 52.2304 41.2069 52.2305 41.4619V44.3457C52.2305 44.6007 52.1295 44.846 51.9492 45.0264C51.769 45.2065 51.5244 45.3075 51.2695 45.3076H47.4229C47.168 45.3076 46.9234 45.2065 46.7432 45.0264C46.5628 44.846 46.4619 44.6007 46.4619 44.3457V41.4619C46.462 41.2069 46.5628 40.9615 46.7432 40.7812L48.3848 39.1406V37.6152H28.1924ZM48.3848 41.8594V43.3848H50.3076V41.8594L49.3457 40.8984L48.3848 41.8594ZM30.1152 34.7305V35.6924H32.0381V34.7305H30.1152ZM37.8076 31.8457C37.5526 31.8457 37.3082 31.9476 37.1279 32.1279C36.9476 32.3082 36.8457 32.5526 36.8457 32.8076V35.6924H46.4619V32.8076C46.4619 32.5526 46.36 32.3082 46.1797 32.1279C45.9994 31.9476 45.755 31.8457 45.5 31.8457H37.8076ZM51.2695 34.7305V35.6924H53.1924V34.7305H51.2695ZM27.2314 32.8076H25.3076V28H27.2314V32.8076ZM18.5771 8.76953V13.5771C18.5771 13.8321 18.4752 14.0766 18.2949 14.2568C18.1146 14.4371 17.8702 14.5381 17.6152 14.5381H16.6533V22.2305H30.1152V14.5381H29.1533C28.8985 14.538 28.6539 14.4371 28.4736 14.2568C28.2934 14.0766 28.1924 13.832 28.1924 13.5771V8.76953H18.5771ZM15.6924 4.92285C15.4374 4.92285 15.193 5.02478 15.0127 5.20508C14.8324 5.3854 14.7305 5.62975 14.7305 5.88477V12.6152H16.6533V7.80762C16.6533 7.55263 16.7552 7.30824 16.9355 7.12793C17.1159 6.94763 17.3602 6.84571 17.6152 6.8457H29.1533C29.4083 6.8457 29.6537 6.94761 29.834 7.12793C30.0142 7.30821 30.1152 7.55273 30.1152 7.80762V12.6152H32.0381V5.88477C32.0381 5.62985 31.937 5.38538 31.7568 5.20508C31.5766 5.02482 31.3321 4.92293 31.0771 4.92285H15.6924Z" fill="#66BB6A"/>
</svg>
