<svg width="65" height="65" viewBox="0 0 65 65" fill="none" xmlns="http://www.w3.org/2000/svg">
<path d="M59.9741 46.9193L59.7643 45.7869C59.6306 45.0633 58.9987 44.5381 58.2619 44.5381C58.1694 44.5381 58.0762 44.5466 57.9844 44.5635L53.7134 45.3481L55.6476 44.055C56.1545 43.7162 56.4107 43.1102 56.3002 42.5089C56.2695 42.3443 56.2119 42.1862 56.1285 42.0383L55.5432 41.0018C55.3426 40.6457 55.0006 40.3811 54.6058 40.2763C54.4125 40.2247 54.2103 40.2132 54.0131 40.2389C54.2285 39.0502 54.3395 37.8361 54.3395 36.6002C54.3395 36.0518 54.0097 35.5799 53.5387 35.3703C54.1542 33.9064 54.1962 32.2304 53.5878 30.6956C53.5385 30.5708 53.4652 30.4594 53.3704 30.3644C53.2763 30.2703 53.1662 30.1976 53.0412 30.1474C52.3122 29.857 51.5459 29.7099 50.7638 29.7099C50.6638 29.7099 50.5642 29.7125 50.4649 29.7172C50.3533 27.4685 48.4923 25.6734 46.2203 25.6734C45.9211 25.6734 45.6294 25.7052 45.3476 25.7645C45.5433 24.5936 45.4281 23.3687 44.9721 22.2186C44.9231 22.0922 44.8495 21.9788 44.7495 21.8771C44.6532 21.7809 44.5403 21.7067 44.4151 21.6569C43.6297 21.3441 42.8043 21.1856 41.9617 21.1856C40.6924 21.1856 39.4782 21.5424 38.43 22.2058C38.047 21.0965 37.4155 20.0551 36.5331 19.1706C36.2747 18.9118 35.9309 18.7691 35.5652 18.7691C35.1994 18.7691 34.8556 18.9118 34.5969 19.1709L30.6961 23.0806C29.9742 22.4367 29.0243 22.0518 27.9932 22.0518C27.7593 22.0518 27.5231 22.0723 27.2911 22.1127C26.4508 22.259 25.6774 22.6703 25.0846 23.2728C24.3244 22.9059 23.4535 22.7808 22.6166 22.9264C22.4325 22.9584 22.2538 23.0036 22.0804 23.0586V20.0458C22.0804 17.9711 20.4129 16.2802 18.3502 16.2445V14.5358C18.9817 14.4266 19.4638 13.8763 19.4638 13.2141V9.34277C19.4638 8.60242 18.8614 8 18.121 8H11.5693C10.8288 8 10.2265 8.60242 10.2265 9.34277V13.2141C10.2265 13.8763 10.7086 14.4266 11.34 14.5358V16.2443C9.27731 16.2798 7.60991 17.9708 7.60991 20.0456V43.5597C6.00138 45.0124 5 47.0393 5 49.2808C5 53.69 8.86986 57.2772 13.6267 57.2772L45.8732 57.2678C46.9739 57.2673 48.009 56.7836 48.713 55.9408C49.3988 55.1203 49.6902 54.0546 49.5223 53.0036L55.963 54.161C56.0521 54.177 56.1435 54.1852 56.234 54.1852C56.5552 54.1852 56.863 54.0866 57.1236 53.9003C57.4586 53.661 57.6854 53.2905 57.7459 52.8841L57.9203 51.7135C57.9455 51.5459 57.9427 51.377 57.912 51.2115C57.8012 50.6129 57.3454 50.138 56.7508 50.0018L54.4807 49.481L58.7476 48.6972C59.15 48.6232 59.4991 48.3973 59.7307 48.061C59.9619 47.7255 60.0482 47.3201 59.9741 46.9193ZM50.7638 31.321C51.2488 31.321 51.7256 31.3978 52.1841 31.5491C52.5938 32.7967 52.4404 34.1424 51.7989 35.254H49.6286L50.3211 34.5598C50.6354 34.2449 50.6348 33.7347 50.3197 33.4204C50.0046 33.1061 49.4945 33.1066 49.1804 33.4217L48.814 33.789C48.6422 33.2234 48.3423 32.717 47.9481 32.3016C48.7477 31.6667 49.7293 31.321 50.7638 31.321ZM46.2203 27.2845C47.6753 27.2845 48.859 28.4717 48.859 29.9311C48.859 29.9581 48.8577 29.9849 48.857 30.0117C48.0077 30.2879 47.2249 30.7493 46.5573 31.3759C46.451 31.3356 46.3433 31.2982 46.2326 31.2676C45.997 29.9944 45.139 28.9739 44.0056 28.4973C44.476 27.7686 45.2922 27.2845 46.2203 27.2845ZM41.9616 22.7967C42.5088 22.7967 43.0465 22.8852 43.5647 23.0603C43.9812 24.2986 43.8961 25.6288 43.3655 26.781C42.9292 27.1784 42.5753 27.665 42.3334 28.212C42.1895 28.2204 42.0457 28.2363 41.9036 28.261C41.2722 28.3709 40.6836 28.6448 40.1909 29.042C40.0229 28.7348 39.8172 28.4513 39.5815 28.1961L41.4291 26.3444C41.7434 26.0294 41.7428 25.5193 41.4277 25.205C41.1127 24.8907 40.6026 24.8913 40.2883 25.2063L38.269 27.2303C37.8847 27.0486 37.4694 26.9223 37.033 26.8632C37.2215 25.9018 37.688 24.9959 38.4097 24.2725C39.3592 23.3208 40.6206 22.7967 41.9616 22.7967ZM35.7881 35.254H35.0897C34.9721 34.9547 34.6813 34.7426 34.3402 34.7426C33.9992 34.7426 33.7084 34.9548 33.5908 35.254H32.7692C32.96 34.9433 32.9214 34.5317 32.6521 34.2629C32.3371 33.9486 31.827 33.9492 31.5127 34.2641L30.7533 35.0251C30.6851 35.0934 30.6327 35.1713 30.5941 35.254H28.9543C28.3402 34.3116 27.9654 33.1992 27.9211 32.0026H40.7027C40.6583 33.1992 40.2835 34.3116 39.6694 35.254H37.963C37.9246 35.1713 37.8719 35.0933 37.8038 35.025L37.0446 34.264C36.7301 33.9492 36.2202 33.9483 35.9053 34.2627C35.6357 34.5315 35.5972 34.9432 35.7881 35.254ZM33.9143 30.3913C34.218 29.2658 35.2446 28.4353 36.4613 28.4353C37.678 28.4353 38.7047 29.2659 39.0083 30.3913H33.9143ZM35.5618 20.4847C36.3282 21.313 36.8349 22.2963 37.0833 23.3299C36.672 23.7769 36.3303 24.2708 36.0608 24.7964C35.9384 24.7214 35.795 24.6775 35.6411 24.6775H34.5675C34.1226 24.6775 33.7619 25.0382 33.7619 25.4832C33.7619 25.9281 34.1226 26.2888 34.5675 26.2888H35.5093C35.4563 26.5113 35.4152 26.7365 35.3853 26.9633C35.0654 27.0473 34.7599 27.167 34.474 27.3193C33.937 26.3926 33.0477 25.702 31.9942 25.4249C31.9938 25.4227 31.9934 25.4204 31.993 25.4182C31.9298 25.0536 31.8196 24.7077 31.6693 24.3862L35.5618 20.4847ZM20.9978 27.7546C20.9506 27.6225 20.9148 27.4869 20.8913 27.3509C20.6602 26.0188 21.5583 24.746 22.8928 24.5137C23.0335 24.4892 23.1765 24.4767 23.3176 24.4767C23.8484 24.4767 24.3556 24.646 24.7843 24.9663C24.9617 25.0988 25.186 25.1524 25.4043 25.1146C25.6226 25.0767 25.8156 24.9507 25.938 24.766C26.3163 24.1955 26.895 23.817 27.5674 23.6999C27.7085 23.6753 27.8518 23.6629 27.9932 23.6629C29.1869 23.6629 30.2014 24.5169 30.4053 25.6937C30.4287 25.8285 30.4407 25.969 30.4409 26.1114C30.4417 26.5284 30.7606 26.876 31.1761 26.9125C32.0769 26.9917 32.8436 27.5585 33.1991 28.3571C32.7232 28.9283 32.3933 29.6257 32.2681 30.3913H27.6734C27.1022 30.3913 26.612 30.7439 26.4076 31.243C25.3968 30.5545 24.2055 30.1836 22.957 30.1836C22.1749 30.1836 21.4086 30.3309 20.679 30.6213C20.5553 30.6708 20.4446 30.7437 20.3503 30.838C20.2547 30.9336 20.1813 31.0457 20.1332 31.1686C19.9478 31.6362 19.8242 32.1169 19.7573 32.6006C19.4686 32.2719 19.2651 31.8631 19.1856 31.4044C18.9962 30.3113 19.5684 29.2229 20.5768 28.7576C20.9557 28.5827 21.1385 28.1474 20.9978 27.7546ZM23.3996 35.0337L23.6194 35.254H21.6844C21.25 34.2462 21.184 33.099 21.5367 32.0231C21.9958 31.8715 22.4724 31.7948 22.957 31.7948C24.171 31.7948 25.313 32.2693 26.1724 33.1307C26.2867 33.2453 26.3932 33.3654 26.4932 33.4895C26.6297 34.1076 26.8395 34.6981 27.1098 35.2539H25.8956L24.5403 33.8954C24.2259 33.5806 23.7157 33.5797 23.401 33.8942C23.0859 34.2086 23.0853 34.7187 23.3996 35.0337ZM19.9685 35.254H17.0964C17.2245 34.4736 17.6939 33.8083 18.3455 33.416C18.7313 33.9328 19.2347 34.3507 19.8148 34.6338C19.8558 34.8428 19.9062 35.05 19.9685 35.254ZM11.8378 9.61132H17.8524V12.9456H11.8378V9.61132ZM16.7389 14.5569V16.2427H12.9514V14.5569H16.7389ZM9.22134 23.3129H14.4531C14.8981 23.3129 15.2587 22.9522 15.2587 22.5073C15.2587 22.0623 14.8981 21.7016 14.4531 21.7016H9.22134V20.0456C9.22134 18.8371 10.2015 17.854 11.4062 17.854H18.2842C19.489 17.854 20.4691 18.8371 20.4691 20.0456V21.7016H18.9648C18.5197 21.7016 18.1591 22.0623 18.1591 22.5073C18.1591 22.9522 18.5197 23.3129 18.9648 23.3129H20.4691V24.028C19.546 24.9331 19.0666 26.2603 19.3034 27.6255C19.3038 27.6282 19.3043 27.6309 19.3048 27.6337C18.0123 28.5205 17.3236 30.097 17.5978 31.6797C17.6139 31.772 17.6339 31.8629 17.6559 31.9528C17.2533 32.1748 16.8919 32.4614 16.5821 32.7967H9.22134V23.3129ZM9.22123 34.408H15.6465C15.561 34.6795 15.5007 34.9621 15.4712 35.254H15.3354C14.5939 35.254 13.9905 35.8578 13.9905 36.6C13.9905 37.8793 14.1094 39.1351 14.3399 40.3638C14.1084 40.3452 13.871 40.3353 13.6295 40.3353C12.6552 40.3353 11.7268 40.4898 11.0158 40.7706C9.92817 41.2001 9.6275 41.8099 9.56187 42.2319C9.4466 42.2892 9.33338 42.3498 9.22123 42.4118V34.408ZM19.4232 44.3052C19.7133 44.5374 19.8907 44.7347 19.9935 44.877C19.9838 44.8771 19.9737 44.8772 19.9635 44.8772C19.5075 44.8772 18.6882 44.6935 17.7565 44.1777C17.4096 43.9855 17.0901 43.7684 16.8323 43.5501C16.5317 43.2954 16.0909 43.2956 15.7906 43.5502C15.5328 43.7688 15.2133 43.9858 14.8668 44.1775C13.9349 44.6934 13.1156 44.8772 12.6597 44.8772C12.6493 44.8772 12.6393 44.8771 12.6295 44.877C12.7322 44.7347 12.9095 44.5373 13.1998 44.305C13.4534 44.102 13.5603 43.7664 13.4708 43.4541C13.3812 43.1417 13.1129 42.9137 12.7901 42.8759C12.0039 42.7837 11.5067 42.5836 11.2739 42.4379C11.5656 42.2563 12.3029 41.9466 13.6298 41.9466C14.7287 41.9466 15.5319 42.1776 15.9171 42.394C16.1622 42.5315 16.4609 42.5315 16.7059 42.3941C17.0914 42.1777 17.8947 41.9467 18.9936 41.9467C20.3206 41.9467 21.0578 42.2565 21.3493 42.438C21.1167 42.5838 20.6194 42.7838 19.833 42.876C19.5102 42.9139 19.2417 43.1419 19.1522 43.4543C19.0624 43.7667 19.1693 44.1023 19.4232 44.3052ZM17.8115 54.1113L17.8392 54.2606C17.935 54.7781 18.1371 55.253 18.4194 55.6659H13.6267C9.75845 55.6659 6.61132 52.8016 6.61132 49.2808C6.61132 46.8746 8.08171 44.7761 10.2469 43.6879C10.4956 43.8735 10.8056 44.0336 11.1734 44.1627C11.0275 44.4118 10.9259 44.6797 10.9019 44.9591C10.8702 45.3306 10.9838 45.6833 11.2223 45.9525C11.5373 46.3083 12.021 46.4887 12.6597 46.4887C13.5109 46.4887 14.6278 46.1517 15.6472 45.5873C15.8819 45.4574 16.1038 45.3203 16.3116 45.177C16.5192 45.3201 16.7412 45.4573 16.976 45.5874C17.9954 46.1517 19.1123 46.4886 19.9635 46.4887H19.9636C20.6021 46.4887 21.0857 46.3083 21.4007 45.9526C21.6393 45.6834 21.753 45.3307 21.7211 44.9591C21.6972 44.6797 21.5955 44.4118 21.4497 44.1627C21.8175 44.0335 22.1276 43.8734 22.3763 43.6879C24.0934 44.5509 25.3729 46.0495 25.8291 47.8331L20.131 49.9977C18.463 50.6315 17.4875 52.3614 17.8115 54.1113ZM47.4764 54.9077C47.0791 55.3834 46.4944 55.6562 45.8725 55.6565L45.0268 55.6568L44.4985 52.8042C44.4174 52.3667 43.9973 52.0774 43.5596 52.1587C43.1222 52.2397 42.8331 52.66 42.9141 53.0976L43.3882 55.6573L40.6161 55.6584L40.2589 53.7294C40.1778 53.2919 39.7576 53.0029 39.32 53.0839C38.8826 53.1649 38.5935 53.5853 38.6745 54.0228L38.9774 55.659L32.5294 55.6615L32.0441 53.0417C31.9629 52.6042 31.5429 52.3152 31.1051 52.3963C30.6676 52.4773 30.3786 52.8978 30.4596 53.3353L30.8907 55.6621L21.4759 55.6658C21.4757 55.6658 21.4754 55.6658 21.4752 55.6658C20.4685 55.6658 19.6057 54.9514 19.4233 53.9668L19.3955 53.8175C19.2135 52.834 19.7633 51.861 20.7029 51.504L23.8693 50.3011L24.1052 51.5742C24.1771 51.9621 24.5157 52.2333 24.8964 52.2333C24.9452 52.2333 24.9946 52.2287 25.0442 52.2196C25.4816 52.1385 25.7706 51.7182 25.6895 51.2806L25.4002 49.7195L30.1004 47.9339C30.5164 47.7759 30.7255 47.3106 30.5675 46.8946C30.4095 46.4786 29.9436 46.2695 29.5283 46.4276L27.3411 47.2585C26.7275 45.0861 25.1512 43.2714 23.0609 42.2318C22.9952 41.8098 22.6946 41.2 21.607 40.7705C20.896 40.4897 19.9677 40.3351 18.9934 40.3351C18.3228 40.3351 17.6825 40.4092 17.1172 40.544V40.0574C17.1172 39.6124 16.7566 39.2517 16.3116 39.2517C16.1235 39.2517 15.951 39.3166 15.8138 39.4246C15.6867 38.5843 15.6156 37.7307 15.6038 36.8651H41.8456C42.2906 36.8651 42.6512 36.5044 42.6512 36.0595C42.6512 35.6145 42.2906 35.2538 41.8456 35.2538H41.5159C42.0289 34.1972 42.3187 33.0125 42.3187 31.7606C42.3187 31.0497 41.7749 30.4642 41.0818 30.3977C41.3835 30.1131 41.7602 29.9213 42.18 29.8481C42.303 29.8268 42.4278 29.8159 42.5511 29.8159C43.5913 29.8159 44.4751 30.56 44.6527 31.585C44.6732 31.7037 44.6837 31.8262 44.6838 31.9492C44.6844 32.3664 45.0034 32.7142 45.419 32.7508C46.3819 32.8353 47.1696 33.5594 47.3347 34.5116C47.3785 34.7648 47.373 35.0147 47.3291 35.2538H46.4647C46.0196 35.2538 45.659 35.6145 45.659 36.0595C45.659 36.5044 46.0196 36.8651 46.4647 36.8651H52.7265C52.7065 38.343 52.5162 39.7867 52.1611 41.1873L47.7949 43.7648C47.5278 42.8354 46.9071 42.047 46.052 41.5683C45.0928 41.0316 43.9529 40.9477 42.9249 41.3381L33.9326 44.7544C33.5165 44.9124 33.3075 45.3777 33.4655 45.7937C33.6235 46.2097 34.0893 46.4185 34.5047 46.2607L35.6893 45.8107L36.0571 47.7966C36.129 48.1845 36.4676 48.4558 36.8484 48.4558C36.8971 48.4558 36.9465 48.4513 36.9961 48.4421C37.4335 48.3611 37.7226 47.9408 37.6416 47.5033L37.2204 45.2292L43.4969 42.8447C44.0785 42.6239 44.7228 42.6712 45.265 42.9747C45.8062 43.2775 46.1811 43.7996 46.2937 44.4067L47.9236 53.2062C48.0359 53.813 47.873 54.4331 47.4764 54.9077ZM50.351 48.6014C49.9751 48.6705 49.6996 48.9941 49.6911 49.3762C49.6827 49.7583 49.9439 50.0936 50.3164 50.179L56.3148 51.5549L56.1649 52.5602L49.2111 51.3106L48.1241 45.4417L54.181 41.8663L54.6855 42.7598L49.5768 46.1748C49.2591 46.3872 49.1343 46.7934 49.278 47.1475C49.4217 47.5016 49.7944 47.7061 50.1702 47.637L58.1952 46.1629L58.374 47.1275L50.351 48.6014Z" fill="#66BB6A"/>
</svg>
