<svg width="65" height="65" viewBox="0 0 65 65" fill="none" xmlns="http://www.w3.org/2000/svg">
<path d="M30.2217 3.5791C31.6265 2.8068 33.3725 2.80687 34.7773 3.5791L55.126 14.7598C56.1746 15.3352 56.7763 16.2901 56.7764 17.3799V19.3115C56.7764 20.4112 55.7837 21.3057 54.5645 21.3057H53.6826V45.2832H54.4902C55.4286 45.2834 56.1903 46.0464 56.1904 46.9834V49.9092H58.167C59.1772 49.9093 60 50.732 60 51.7422V54.4482C60 55.4582 59.1772 56.2811 58.167 56.2812H42.8721C40.324 58.8755 36.9712 60.7872 32.7588 62.0586C32.5884 62.1096 32.4112 62.1094 32.2412 62.0586C28.0287 60.787 24.676 58.8756 22.1279 56.2812H6.83203C5.82251 56.2812 5 55.4583 5 54.4482V51.7422C5 50.7321 5.82251 49.9092 6.83203 49.9092H8.80859V46.9834C8.80882 46.0463 9.57195 45.2842 10.5098 45.2842H11.3174V21.3057H10.4346C9.216 21.3057 8.22363 20.4112 8.22363 19.3115V17.3799C8.22369 16.2901 8.82457 15.335 9.87305 14.7598L30.2217 3.5791ZM32.502 25.2139C28.4901 28.786 22.8837 31.3842 17.5205 32.1543C17.2792 44.533 18.45 55.894 32.5 60.2637C46.5496 55.8937 47.72 44.5328 47.4785 32.1543C42.089 31.3854 36.5975 28.8409 32.502 25.2139ZM6.83203 51.7002C6.81247 51.7002 6.79004 51.7206 6.79004 51.7422V54.4482C6.79004 54.4698 6.81247 54.4902 6.83203 54.4902H20.5791C19.9191 53.6225 19.331 52.6932 18.8135 51.7002H6.83203ZM46.1855 51.7002C45.6687 52.6935 45.08 53.6224 44.4199 54.4902H58.167C58.1872 54.4901 58.209 54.4697 58.209 54.4482V51.7422C58.209 51.7207 58.1873 51.7004 58.167 51.7002H46.1855ZM32.5 31.2324C38.2765 31.2326 42.9765 35.9328 42.9766 41.709C42.9766 47.4853 38.2765 52.1844 32.5 52.1846C26.724 52.1846 22.0234 47.4854 22.0234 41.709C22.0235 35.9327 26.7241 31.2324 32.5 31.2324ZM32.5 33.0234C27.7111 33.0234 23.8155 36.9201 23.8154 41.709C23.8154 46.498 27.711 50.3936 32.5 50.3936C37.289 50.3934 41.1855 46.4979 41.1855 41.709C41.1855 36.9202 37.2888 33.0236 32.5 33.0234ZM10.5996 47.0742V49.9092H17.9844C17.5986 48.9702 17.2976 48.0652 17.0254 47.0742H10.5996ZM47.9746 47.0742C47.7035 48.0606 47.3997 48.9742 47.0156 49.9092H54.4004V47.0742H47.9746ZM36.2314 39.0381C36.5988 38.7076 37.1647 38.736 37.4951 39.1025C37.8278 39.47 37.7972 40.0362 37.4307 40.3682L31.9102 45.3467C31.5577 45.6648 31.0142 45.6525 30.6777 45.3164L27.5352 42.1738C27.1858 41.8236 27.1858 41.2581 27.5352 40.9082C27.8852 40.5584 28.4524 40.5583 28.8018 40.9082L31.3418 43.4473L36.2314 39.0381ZM13.1074 21.3057V45.2832H16.5938C15.6365 40.707 15.6415 35.7769 15.7471 31.3418C15.7579 30.8927 16.0972 30.5215 16.543 30.4727C16.9728 30.4246 17.4043 30.3628 17.8379 30.29V21.3057H13.1074ZM47.1621 21.3057V30.291C47.5926 30.3637 48.0254 30.4246 48.4561 30.4727C48.9011 30.5215 49.2414 30.8928 49.2529 31.3418C49.3578 35.7769 49.3626 40.7069 48.4053 45.2832H51.8916V21.3057H47.1621ZM19.6289 21.3057V29.9209C24.1597 28.8141 28.6576 26.4326 31.8809 23.3496C32.2264 23.02 32.7682 23.0196 33.1152 23.3467C36.4298 26.4832 40.8508 28.8323 45.3711 29.9258V21.3057H19.6289ZM33.916 5.14844C33.0434 4.6694 31.9553 4.66926 31.083 5.14844L10.7354 16.3291C10.4071 16.5094 10.0147 16.838 10.0146 17.3799V19.3115C10.0148 19.3617 10.1636 19.5146 10.4346 19.5146H54.5645C54.8361 19.5146 54.9844 19.3617 54.9844 19.3115V17.3799C54.9843 16.8381 54.5928 16.5094 54.2646 16.3291L33.916 5.14844ZM32.5 8.94238C34.6337 8.94254 36.3682 10.679 36.3682 12.8125C36.368 14.9444 34.6336 16.6805 32.5 16.6807C30.3664 16.6807 28.6311 14.9445 28.6309 12.8125C28.6309 10.6789 30.3661 8.94238 32.5 8.94238ZM32.5 10.7334C31.354 10.7334 30.4229 11.6663 30.4229 12.8125C30.423 13.9572 31.354 14.8896 32.5 14.8896C33.6459 14.8895 34.5768 13.957 34.5771 12.8125C34.5771 11.6664 33.646 10.7336 32.5 10.7334Z" fill="#66BB6A"/>
</svg>
