<svg width="65" height="65" viewBox="0 0 65 65" fill="none" xmlns="http://www.w3.org/2000/svg">
<path d="M41.3812 13.7344C43.012 13.7727 44.632 13.4598 46.1313 12.8171C47.4336 12.254 48.8427 11.9805 50.2611 12.0156C51.6794 11.9805 53.0884 12.254 54.3906 12.8171C55.8899 13.4598 57.5098 13.7727 59.1406 13.7344C59.3685 13.7344 59.5871 13.6438 59.7483 13.4827C59.9095 13.3215 60 13.1029 60 12.875C60 12.6471 59.9095 12.4285 59.7483 12.2673C59.5871 12.1062 59.3685 12.0156 59.1406 12.0156C57.7222 12.0508 56.3131 11.7773 55.0108 11.2142L54.9468 11.1895C55.4844 9.81075 55.7415 8.33867 55.7031 6.85938C55.7031 6.63145 55.6126 6.41287 55.4514 6.25171C55.2903 6.09054 55.0717 6 54.8438 6C54.6158 6 54.3972 6.09054 54.2361 6.25171C54.0749 6.41287 53.9844 6.63145 53.9844 6.85938C54.0202 8.15247 53.7929 9.43937 53.3161 10.6419C52.5413 10.4479 51.7479 10.3373 50.9495 10.312C51.2762 9.19101 51.4302 8.02677 51.4062 6.85938C51.4063 6.63145 51.3157 6.41287 51.1545 6.25171C50.9934 6.09054 50.7748 6 50.5469 6C50.319 6 50.1004 6.09054 49.9392 6.25171C49.778 6.41287 49.6875 6.63145 49.6875 6.85938C49.7197 8.04298 49.5311 9.22223 49.1315 10.3368C47.8842 10.425 46.6604 10.7216 45.5111 11.2142C44.3207 11.73 43.0386 12.0011 41.7413 12.0113C41.7917 11.8768 41.8433 11.7436 41.8952 11.6094C42.538 10.1102 42.8508 8.49018 42.8125 6.85938C42.8125 6.63145 42.722 6.41287 42.5608 6.25171C42.3996 6.09054 42.181 6 41.9531 6C41.7252 6 41.5066 6.09054 41.3455 6.25171C41.1843 6.41287 41.0938 6.63145 41.0938 6.85938C41.1289 8.2778 40.8555 9.68693 40.2923 10.9892C39.6496 12.4884 39.3367 14.1082 39.375 15.7389C39.3367 17.3697 39.6495 18.9896 40.2923 20.4889C40.8554 21.7913 41.1289 23.2004 41.0938 24.6188C41.0938 24.718 41.0904 24.8083 41.0887 24.9027C40.2186 24.9009 39.3529 24.7817 38.5148 24.5482C38.5438 22.9411 38.2315 21.3462 37.5983 19.8688C37.0352 18.5664 36.7618 17.1573 36.7969 15.7389C36.7617 14.3206 37.0352 12.9116 37.5983 11.6094C38.2411 10.1101 38.5539 8.49017 38.5156 6.85938C38.5156 6.63145 38.4251 6.41287 38.2639 6.25171C38.1028 6.09054 37.8842 6 37.6562 6C37.4283 6 37.2097 6.09054 37.0486 6.25171C36.8874 6.41287 36.7969 6.63145 36.7969 6.85938C36.8332 8.20562 36.5865 9.54449 36.0726 10.7893C34.9159 10.4368 33.7106 10.2706 32.5017 10.2969C31.4402 10.2785 30.3811 10.4027 29.3528 10.6664C29.7602 9.4396 29.9527 8.15168 29.9219 6.85938C29.9219 6.63145 29.8313 6.41287 29.6702 6.25171C29.509 6.09054 29.2904 6 29.0625 6C28.8346 6 28.616 6.09054 28.4548 6.25171C28.2937 6.41287 28.2031 6.63145 28.2031 6.85938C28.2383 8.2778 27.9648 9.68693 27.4017 10.9892C27.3482 11.1272 27.2949 11.2668 27.2418 11.4079C26.3842 11.7355 25.4814 11.9298 24.5649 11.9841C24.612 11.8589 24.6594 11.7343 24.7077 11.6094C25.3505 10.1101 25.6633 8.49018 25.625 6.85938C25.625 6.63145 25.5345 6.41287 25.3733 6.25171C25.2121 6.09054 24.9935 6 24.7656 6C24.5377 6 24.3191 6.09054 24.158 6.25171C23.9968 6.41287 23.9062 6.63145 23.9062 6.85938C23.9414 8.2778 23.668 9.68693 23.1048 10.9892C22.9806 11.3101 22.8562 11.6371 22.7399 11.988C21.6203 11.9209 20.5211 11.659 19.4915 11.2142C18.5504 10.8144 17.5602 10.542 16.547 10.404C16.8936 9.25522 17.057 8.05901 17.0312 6.85938C17.0313 6.63145 16.9407 6.41287 16.7795 6.25171C16.6184 6.09054 16.3998 6 16.1719 6C15.944 6 15.7254 6.09054 15.5642 6.25171C15.403 6.41287 15.3125 6.63145 15.3125 6.85938C15.3477 8.2778 15.0742 9.68693 14.511 10.9892C13.8683 12.4884 13.5555 14.1082 13.5938 15.7389C13.5554 17.3697 13.8683 18.9896 14.511 20.4889C14.8796 21.3521 15.1236 22.2633 15.2355 23.1952C15.0758 23.1905 14.9121 23.1875 14.7406 23.1875C14.0512 23.1829 13.3626 23.2308 12.6805 23.3307C12.5788 22.1381 12.2874 20.9694 11.8171 19.8688C11.254 18.5664 10.9805 17.1573 11.0156 15.7389C10.9805 14.3206 11.254 12.9116 11.8171 11.6094C12.4598 10.1101 12.7727 8.49017 12.7344 6.85938C12.7344 6.63145 12.6438 6.41287 12.4827 6.25171C12.3215 6.09054 12.1029 6 11.875 6C11.6471 6 11.4285 6.09054 11.2673 6.25171C11.1062 6.41287 11.0156 6.63145 11.0156 6.85938C11.0508 8.2778 10.7773 9.68693 10.2142 10.9892C10.1931 11.0436 10.172 11.0982 10.151 11.1529C10.0977 11.1734 10.043 11.1937 9.99009 11.2142C8.68748 11.7773 7.27807 12.0508 5.85938 12.0156C5.63145 12.0156 5.41287 12.1062 5.25171 12.2673C5.09054 12.4285 5 12.6471 5 12.875C5 13.1029 5.09054 13.3215 5.25171 13.4827C5.41287 13.6438 5.63145 13.7344 5.85938 13.7344C7.10019 13.7624 8.33717 13.5863 9.52087 13.2132C9.36266 14.0456 9.28762 14.8916 9.29688 15.7389C9.29687 15.7498 9.29724 15.7597 9.29727 15.7706C8.19418 16.1603 7.02886 16.344 5.85938 16.3125C5.63145 16.3125 5.41287 16.403 5.25171 16.5642C5.09054 16.7254 5 16.944 5 17.1719C5 17.3998 5.09054 17.6184 5.25171 17.7795C5.41287 17.9407 5.63145 18.0312 5.85938 18.0312C7.05923 18.0571 8.25566 17.8938 9.40473 17.5475C9.54294 18.5595 9.81513 19.5487 10.2141 20.4889C10.6587 21.5191 10.9204 22.6188 10.9873 23.7387C10.6363 23.8553 10.3112 23.9804 9.9901 24.1048C8.68748 24.6679 7.27808 24.9414 5.85938 24.9062C5.63145 24.9062 5.41287 24.9968 5.25171 25.158C5.09054 25.3191 5 25.5377 5 25.7656C5 25.9935 5.09054 26.2121 5.25171 26.3733C5.41287 26.5345 5.63145 26.625 5.85938 26.625C7.49045 26.6633 9.11069 26.3505 10.6103 25.7077C11.9127 25.1446 13.322 24.8711 14.7406 24.9062C16.1593 24.8711 17.5687 25.1446 18.8713 25.7077C20.3707 26.3505 21.9908 26.6633 23.6217 26.625C23.665 26.625 23.7053 26.6238 23.7476 26.6235C23.608 27.3522 23.3925 28.0643 23.1048 28.7483C23.0487 28.8931 22.9923 29.0386 22.9367 29.1869C21.7497 29.1398 20.5816 28.8736 19.4915 28.4017C17.9919 27.7589 16.3716 27.4461 14.7406 27.4844C13.1096 27.4461 11.4895 27.7589 9.99009 28.4017C8.68748 28.9648 7.27807 29.2383 5.85938 29.2031C5.63145 29.2031 5.41287 29.2937 5.25171 29.4548C5.09054 29.616 5 29.8346 5 30.0625C5 30.2904 5.09054 30.509 5.25171 30.6702C5.41287 30.8313 5.63145 30.9219 5.85938 30.9219C7.15128 30.9527 8.43881 30.7603 9.66532 30.3533C9.40244 31.3805 9.27852 32.4382 9.29688 33.4983C9.2705 34.7084 9.43699 35.9149 9.79011 37.0726C8.545 37.5865 7.20587 37.8332 5.85938 37.7969C5.63145 37.7969 5.41287 37.8874 5.25171 38.0486C5.09054 38.2097 5 38.4283 5 38.6562C5 38.8842 5.09054 39.1028 5.25171 39.2639C5.41287 39.4251 5.63145 39.5156 5.85938 39.5156C7.40784 39.5549 8.94763 39.2727 10.3815 38.6866C10.6645 39.4119 10.8523 40.1709 10.9399 40.9446C10.6084 41.0562 10.2955 41.174 9.99008 41.2923C8.68747 41.8554 7.27807 42.1289 5.85938 42.0938C5.63145 42.0938 5.41287 42.1843 5.25171 42.3455C5.09054 42.5066 5 42.7252 5 42.9531C5 43.181 5.09054 43.3996 5.25171 43.5608C5.41287 43.722 5.63145 43.8125 5.85938 43.8125C7.49045 43.8508 9.11069 43.5379 10.6103 42.8952C10.7432 42.8438 10.8778 42.7951 11.0112 42.7451C11.0002 44.0403 10.7292 45.3201 10.2142 46.5085C9.72171 47.6588 9.4253 48.8834 9.33721 50.1316C8.22249 50.5311 7.04311 50.7197 5.85938 50.6875C5.63145 50.6875 5.41287 50.778 5.25171 50.9392C5.09054 51.1004 5 51.319 5 51.5469C5 51.7748 5.09054 51.9934 5.25171 52.1545C5.41287 52.3157 5.63145 52.4062 5.85938 52.4062C7.49045 52.4445 9.11069 52.1317 10.6103 51.489C11.9127 50.9258 13.322 50.6524 14.7406 50.6875C16.1593 50.6523 17.5687 50.9258 18.8713 51.489C19.9387 51.943 21.0695 52.2304 22.2242 52.341C22.2773 53.23 22.4439 54.1087 22.7199 54.9555C21.6072 54.8864 20.5149 54.625 19.4915 54.1829C17.9919 53.5402 16.3716 53.2273 14.7406 53.2656C13.1096 53.2273 11.4895 53.5402 9.99009 54.1829C8.68748 54.7461 7.27807 55.0195 5.85938 54.9844C5.63145 54.9844 5.41287 55.0749 5.25171 55.2361C5.09054 55.3972 5 55.6158 5 55.8438C5 56.0717 5.09054 56.2903 5.25171 56.4514C5.41287 56.6126 5.63145 56.7031 5.85938 56.7031C7.33882 56.7415 8.81107 56.4844 10.19 55.9469C10.198 55.9678 10.2061 55.9891 10.2142 56.0099C10.7773 57.3125 11.0508 58.7219 11.0156 60.1406C11.0156 60.3685 11.1062 60.5871 11.2673 60.7483C11.4285 60.9095 11.6471 61 11.875 61C12.1029 61 12.3215 60.9095 12.4827 60.7483C12.6438 60.5871 12.7344 60.3685 12.7344 60.1406C12.7727 58.5096 12.4598 56.8893 11.8171 55.3897L11.8065 55.362C12.5661 55.1416 13.3507 55.019 14.1413 54.9972C14.2591 55.3534 14.3851 55.6848 14.511 56.0099C15.0742 57.3125 15.3477 58.7219 15.3125 60.1406C15.3125 60.3685 15.403 60.5871 15.5642 60.7483C15.7254 60.9095 15.944 61 16.1719 61C16.3998 61 16.6184 60.9095 16.7795 60.7483C16.9407 60.5871 17.0312 60.3685 17.0312 60.1406C17.0695 58.5096 16.7567 56.8893 16.114 55.3897C16.0689 55.2732 16.0249 55.1567 15.9808 55.0402C16.9769 55.139 17.9518 55.3905 18.8713 55.7858C20.2905 56.3942 21.8193 56.7053 23.3634 56.6999C23.7538 57.8038 23.9378 58.9701 23.9062 60.1406C23.9062 60.3685 23.9968 60.5871 24.158 60.7483C24.3191 60.9095 24.5377 61 24.7656 61C24.9935 61 25.2121 60.9095 25.3733 60.7483C25.5345 60.5871 25.625 60.3685 25.625 60.1406C25.6633 58.5096 25.3505 56.8893 24.7077 55.3897C24.1446 54.0873 23.8711 52.678 23.9062 51.2594C23.9062 51.0425 23.9116 50.8365 23.92 50.6357C23.9212 50.6085 23.9218 50.5797 23.9231 50.5529C23.9319 50.3695 23.9455 50.1936 23.9618 50.0214C23.9653 49.9851 23.9682 49.9473 23.972 49.9118C23.9895 49.7448 24.0114 49.583 24.0365 49.4242C24.0413 49.3933 24.0456 49.361 24.0508 49.3307C24.079 49.1628 24.1118 48.9989 24.1488 48.8376C24.2917 48.2547 24.4786 47.6834 24.7077 47.1287C25.174 46.034 25.4643 44.8723 25.5679 43.6869C26.4684 43.5544 27.3492 43.3121 28.1907 42.9652C28.1543 44.1856 27.8865 45.388 27.4017 46.5085C26.8625 47.7641 26.558 49.1079 26.5032 50.4732C26.5027 50.4835 26.5025 50.4943 26.502 50.5046C26.491 50.7433 26.4844 50.9929 26.4844 51.2594C26.4461 52.8904 26.7589 54.5105 27.4017 56.0099C27.9648 57.3125 28.2383 58.7219 28.2031 60.1406C28.2031 60.3685 28.2937 60.5871 28.4548 60.7483C28.616 60.9095 28.8346 61 29.0625 61C29.2904 61 29.509 60.9095 29.6702 60.7483C29.8313 60.5871 29.9219 60.3685 29.9219 60.1406C29.9611 58.5597 29.6668 56.9882 29.0582 55.5285C30.1629 55.1372 31.3302 54.9528 32.5017 54.9844C33.619 54.9555 34.7327 55.1217 35.7929 55.4756C35.8598 55.6568 35.9273 55.8349 35.9954 56.0099C36.5586 57.3125 36.832 58.7219 36.7969 60.1406C36.7969 60.3685 36.8874 60.5871 37.0486 60.7483C37.2097 60.9095 37.4283 61 37.6562 61C37.8842 61 38.1028 60.9095 38.2639 60.7483C38.4251 60.5871 38.5156 60.3685 38.5156 60.1406C38.5481 58.8161 38.345 57.4964 37.9159 56.243C38.7704 56.4985 39.6535 56.6461 40.5447 56.6824C40.9394 57.7914 41.1256 58.9639 41.0938 60.1406C41.0938 60.3685 41.1843 60.5871 41.3455 60.7483C41.5066 60.9095 41.7252 61 41.9531 61C42.181 61 42.3996 60.9095 42.5608 60.7483C42.722 60.5871 42.8125 60.3685 42.8125 60.1406C42.8368 58.9682 42.6816 57.7991 42.3522 56.6736C43.654 56.6002 44.9329 56.2998 46.1312 55.7858C46.9057 55.4583 47.7176 55.2277 48.5485 55.0992C48.6568 55.4176 48.7719 55.7151 48.886 56.0099C49.4492 57.3125 49.7226 58.7219 49.6875 60.1406C49.6875 60.3685 49.778 60.5871 49.9392 60.7483C50.1004 60.9095 50.319 61 50.5469 61C50.7748 61 50.9934 60.9095 51.1545 60.7483C51.3157 60.5871 51.4062 60.3685 51.4062 60.1406C51.4445 58.5096 51.1317 56.8893 50.489 55.3897C49.9258 54.0873 49.6524 52.678 49.6875 51.2594C49.6523 49.8407 49.9258 48.4313 50.489 47.1287C51.1317 45.6293 51.4445 44.0092 51.4062 42.3783C51.4063 42.2955 51.4034 42.2199 51.4021 42.1404C52.2861 42.2119 53.1548 42.4133 53.9801 42.7381C53.9699 44.0357 53.6988 45.3179 53.1829 46.5085C52.5402 48.0081 52.2273 49.6284 52.2656 51.2594C52.2273 52.8904 52.5402 54.5105 53.1829 56.0099C53.7461 57.3125 54.0195 58.7219 53.9844 60.1406C53.9844 60.3685 54.0749 60.5871 54.2361 60.7483C54.3972 60.9095 54.6158 61 54.8438 61C55.0717 61 55.2903 60.9095 55.4514 60.7483C55.6126 60.5871 55.7031 60.3685 55.7031 60.1406C55.739 58.739 55.5096 57.3432 55.0269 56.0268C56.3433 56.5096 57.739 56.739 59.1406 56.7031C59.3685 56.7031 59.5871 56.6126 59.7483 56.4514C59.9095 56.2903 60 56.0717 60 55.8438C60 55.6158 59.9095 55.3972 59.7483 55.2361C59.5871 55.0749 59.3685 54.9844 59.1406 54.9844C57.7222 55.0195 56.3131 54.7461 55.0108 54.1829C54.7748 54.0915 54.5325 54.0014 54.2837 53.9124C54.0747 53.0693 53.9744 52.2028 53.9853 51.3342C54.1209 51.385 54.2554 51.4366 54.3906 51.489C55.8899 52.1317 57.5098 52.4446 59.1406 52.4062C59.3685 52.4062 59.5871 52.3157 59.7483 52.1545C59.9095 51.9934 60 51.7748 60 51.5469C60 51.319 59.9095 51.1004 59.7483 50.9392C59.5871 50.778 59.3685 50.6875 59.1406 50.6875C57.7222 50.7227 56.3131 50.4492 55.0108 49.886C54.7155 49.7717 54.4148 49.6573 54.0955 49.549C54.2244 48.7167 54.4563 47.9038 54.7858 47.1287C55.2994 45.9311 55.5998 44.6529 55.6734 43.3519C56.7989 43.6815 57.9682 43.8368 59.1406 43.8125C59.3685 43.8125 59.5871 43.722 59.7483 43.5608C59.9095 43.3996 60 43.181 60 42.9531C60 42.7252 59.9095 42.5066 59.7483 42.3455C59.5871 42.1843 59.3685 42.0938 59.1406 42.0938C57.7222 42.1289 56.3131 41.8555 55.0108 41.2923C53.5116 40.6496 51.8918 40.3367 50.2611 40.375C48.6303 40.3367 47.0104 40.6495 45.5111 41.2923C44.6491 41.6614 43.739 41.9058 42.808 42.0181C42.8 41.1623 42.6985 40.3099 42.5054 39.4761C43.7546 39.3884 44.9802 39.0917 46.1312 38.5984C47.4336 38.0352 48.8427 37.7618 50.2611 37.7969C51.6794 37.7617 53.0884 38.0352 54.3906 38.5983C55.8899 39.2411 57.5098 39.5539 59.1406 39.5156C59.3685 39.5156 59.5871 39.4251 59.7483 39.2639C59.9095 39.1028 60 38.8842 60 38.6562C60 38.4283 59.9095 38.2097 59.7483 38.0486C59.5871 37.8874 59.3685 37.7969 59.1406 37.7969C57.7222 37.832 56.3131 37.5586 55.0108 36.9954C54.8357 36.9276 54.6592 36.8597 54.4785 36.7929C54.1229 35.7319 53.9556 34.6169 53.9844 33.4983C53.9528 32.3278 54.1369 31.1614 54.5275 30.0575C55.9874 30.6666 57.5593 30.9611 59.1406 30.9219C59.3685 30.9219 59.5871 30.8313 59.7483 30.6702C59.9095 30.509 60 30.2904 60 30.0625C60 29.8346 59.9095 29.616 59.7483 29.4548C59.5871 29.2937 59.3685 29.2031 59.1406 29.2031C57.7642 29.2392 56.3959 28.9813 55.1271 28.4466C55.3819 27.7031 55.55 26.9326 55.628 26.1505C56.7671 26.4901 57.9522 26.6502 59.1406 26.625C59.3685 26.625 59.5871 26.5345 59.7483 26.3733C59.9095 26.2121 60 25.9935 60 25.7656C60 25.5377 59.9095 25.3191 59.7483 25.158C59.5871 24.9968 59.3685 24.9062 59.1406 24.9062C57.9701 24.9378 56.8038 24.7537 55.7 24.3632C55.7057 22.8183 55.3946 21.2886 54.7858 19.8687C54.3906 18.9496 54.1391 17.9752 54.0402 16.9796C54.1573 17.0238 54.2736 17.0687 54.3906 17.114C55.8898 17.7567 57.5098 18.0696 59.1406 18.0312C59.3685 18.0312 59.5871 17.9407 59.7483 17.7795C59.9095 17.6184 60 17.3998 60 17.1719C60 16.944 59.9095 16.7254 59.7483 16.5642C59.5871 16.403 59.3685 16.3125 59.1406 16.3125C57.7222 16.3477 56.3131 16.0742 55.0108 15.511C54.5596 15.3363 54.1016 15.1597 53.5725 15.0084C53.4382 14.9247 53.2833 14.8801 53.125 14.8795C53.1132 14.8795 53.1022 14.8825 53.0905 14.883C52.1617 14.6775 51.2123 14.5804 50.2611 14.5938C48.6303 14.5554 47.0104 14.8683 45.5111 15.511C44.2087 16.0742 42.7996 16.3476 41.3812 16.3125C41.285 16.3125 41.1966 16.3096 41.1055 16.3077C41.0984 16.1264 41.0938 15.939 41.0938 15.7389C41.0872 15.0667 41.1404 14.3952 41.2527 13.7325C41.2962 13.7329 41.3368 13.7344 41.3812 13.7344ZM36.7805 23.9247C35.4165 23.4001 33.9625 23.1496 32.5017 23.1875C31.621 23.1772 30.7417 23.2596 29.8783 23.4331C29.7851 22.205 29.4899 21.0007 29.0046 19.8687C28.6336 19.002 28.3887 18.0866 28.2774 17.1504L28.3718 17.114C29.6741 16.5508 31.0833 16.2774 32.5017 16.3125C33.3766 16.2975 34.2498 16.3938 35.1004 16.5993C35.1627 17.939 35.4659 19.2566 35.9954 20.4889C36.4663 21.5761 36.7325 22.7409 36.7805 23.9247ZM35.3801 36.3798C34.436 36.1654 33.4697 36.0642 32.5017 36.0781C31.1941 36.0465 29.8911 36.2439 28.6516 36.6614C28.3284 35.6391 28.1768 34.5702 28.2031 33.4983C28.1683 32.2465 28.3808 31.0001 28.8285 29.8305C29.9996 29.3815 31.2479 29.1683 32.5017 29.2031C33.5726 29.1769 34.6405 29.3283 35.662 29.6511C35.2443 30.8896 35.0467 32.1917 35.0781 33.4983C35.0641 34.4674 35.1655 35.4347 35.3801 36.3798ZM27.0402 37.2615C26.3034 37.5255 25.5347 37.6901 24.7543 37.751C24.7387 37.7105 24.7233 37.6685 24.7077 37.6282C24.1446 36.3259 23.8711 34.9167 23.9062 33.4983C23.8711 32.0799 24.1445 30.6708 24.7077 29.3685C25.3504 27.8693 25.6633 26.2495 25.625 24.6188C25.6633 22.988 25.3505 21.368 24.7077 19.8687C24.4602 19.2713 24.2638 18.654 24.1206 18.0234C24.9613 18.0079 25.7977 17.9 26.6147 17.7016C26.7605 18.6598 27.0248 19.596 27.4017 20.4889C27.5518 20.8769 27.6986 21.2575 27.825 21.6835C27.8843 21.8831 27.9357 22.0846 27.9805 22.2899C27.9859 22.3149 27.9914 22.3397 27.9967 22.365C28.0397 22.5715 28.0757 22.7825 28.1048 23.0004C28.1086 23.0288 28.1119 23.0587 28.1155 23.0877C28.1415 23.2968 28.1615 23.5127 28.1756 23.7372C28.1776 23.7684 28.1798 23.7988 28.1815 23.8305C28.1953 24.0818 28.2031 24.3423 28.2031 24.6188C28.2383 26.0371 27.9648 27.4461 27.4017 28.7483C26.7589 30.2475 26.4461 31.8675 26.4844 33.4983C26.4545 34.7752 26.6424 36.0478 27.0402 37.2615ZM15.9385 12.0698C16.9489 12.1651 17.9384 12.4172 18.8713 12.8171C20.3707 13.4598 21.9908 13.7727 23.6217 13.7344C25.2526 13.7727 26.8725 13.4598 28.3718 12.8171C29.6741 12.254 31.0833 11.9805 32.5017 12.0156C33.5146 11.9929 34.5249 12.1268 35.4969 12.4128C35.2737 13.2022 35.1416 14.0146 35.1033 14.834C34.2467 14.6642 33.3749 14.5837 32.5017 14.5938C30.8709 14.5554 29.2509 14.8683 27.7516 15.511C26.4493 16.0742 25.0402 16.3476 23.6217 16.3125C22.2032 16.3476 20.7939 16.0742 19.4915 15.511C18.183 14.9522 16.7804 14.6463 15.3581 14.6095C15.427 13.7392 15.6225 12.8836 15.9385 12.0698ZM23.6217 24.9062C22.2032 24.9414 20.7939 24.6679 19.4915 24.1048C18.6838 23.7652 17.8415 23.5149 16.9796 23.3583C16.8802 22.1562 16.5879 20.9779 16.114 19.8688C15.6293 18.7488 15.3615 17.547 15.325 16.3272C16.5461 16.3635 17.7494 16.6304 18.8713 17.114C19.9808 17.5892 21.1598 17.8823 22.3627 17.9818C22.5187 18.8419 22.7675 19.6825 23.1048 20.4889C23.6679 21.7913 23.9414 23.2004 23.9062 24.6188C23.9062 24.7155 23.9046 24.8076 23.9029 24.8997C23.8082 24.9015 23.7214 24.9062 23.6217 24.9062ZM14.511 46.5085C14.1751 47.3094 13.9266 48.1441 13.7698 48.9983C12.8772 49.0434 11.9939 49.2018 11.1412 49.4695C11.2733 48.6653 11.5001 47.8796 11.8171 47.1287C12.4598 45.6293 12.7727 44.0092 12.7344 42.3783C12.7727 40.7474 12.4598 39.1275 11.8171 37.6282C11.254 36.3259 10.9805 34.9167 11.0156 33.4983C10.9793 32.1654 11.2212 30.8396 11.7258 29.6054C12.5725 29.3512 13.4509 29.2177 14.3349 29.2088C13.8076 30.5758 13.5557 32.0336 13.5938 33.4983C13.5554 35.1291 13.8683 36.7491 14.511 38.2484C15.0742 39.5507 15.3476 40.9598 15.3125 42.3783C15.3476 43.7968 15.0742 45.2061 14.511 46.5085ZM16.114 29.3685C16.1257 29.3382 16.137 29.306 16.1487 29.2757C17.0865 29.3869 18.0034 29.6324 18.8713 30.0046C20.0023 30.4882 21.2052 30.7826 22.4318 30.8761C22.259 31.7392 22.1771 32.6181 22.1875 33.4983C22.1496 34.9604 22.4005 36.4155 22.9259 37.7804C21.7425 37.7322 20.5782 37.4661 19.4915 36.9954C18.2582 36.4673 16.9401 36.1649 15.5999 36.1027C15.3939 35.2503 15.2973 34.3751 15.3125 33.4983C15.2773 32.0799 15.5508 30.6708 16.114 29.3685ZM23.1048 46.5085C22.5655 47.7643 22.261 49.1082 22.2063 50.4737L22.2052 50.5043C22.2036 50.5395 22.2024 50.5762 22.2011 50.612C21.2679 50.5002 20.3555 50.2557 19.4915 49.886C18.2353 49.3466 16.8909 49.0421 15.5249 48.9875C15.6678 48.3523 15.8649 47.7304 16.114 47.1287C16.7567 45.6293 17.0695 44.0092 17.0312 42.3783C17.0312 42.3548 17.0305 42.3331 17.0304 42.3099C17.6594 42.4528 18.2752 42.6486 18.8712 42.8952C20.3707 43.538 21.9908 43.8508 23.6217 43.8125C23.6926 43.8125 23.7592 43.8108 23.8281 43.81C23.7155 44.7391 23.472 45.6476 23.1048 46.5085ZM27.7516 41.2923C26.4493 41.8554 25.0402 42.1289 23.6217 42.0938C22.2032 42.1289 20.7939 41.8554 19.4915 41.2923C18.665 40.9454 17.8023 40.6923 16.9195 40.5378C16.7963 39.6258 16.5583 38.7329 16.2112 37.8805C17.1269 37.9954 18.0221 38.237 18.8713 38.5983C20.3707 39.2411 21.9908 39.5539 23.6217 39.5156C25.2526 39.5539 26.8725 39.2411 28.3718 38.5983C29.6741 38.0352 31.0833 37.7618 32.5017 37.7969C33.7088 37.7636 34.9112 37.9603 36.0448 38.3763C36.4093 39.2436 36.6426 40.1604 36.7372 41.0964C35.3858 40.5826 33.947 40.3376 32.5017 40.375C30.8709 40.3367 29.2509 40.6495 27.7516 41.2923ZM29.9218 42.3751C30.7666 42.1735 31.6333 42.079 32.5017 42.0938C33.9201 42.0586 35.3292 42.332 36.6315 42.8952C36.6823 42.9149 36.7339 42.9344 36.7849 42.9541C36.7497 44.1783 36.4818 45.3846 35.9954 46.5085C35.6282 47.3824 35.3676 48.2974 35.2193 49.2337C34.3259 49.046 33.4145 48.9572 32.5017 48.9688C31.0688 48.9317 29.6423 49.1723 28.3008 49.6772C28.3134 49.5803 28.324 49.481 28.3391 49.3871C28.3414 49.3727 28.3434 49.3574 28.3458 49.3431C28.3746 49.1688 28.4084 49.0002 28.4462 48.8355C28.5891 48.2533 28.7757 47.6828 29.0046 47.1287C29.6473 45.6293 29.9602 44.0092 29.9219 42.3783L29.9218 42.3751ZM45.5111 54.1829C44.2087 54.746 42.7996 55.0195 41.3812 54.9844C39.9629 55.0195 38.5539 54.746 37.2517 54.1829C35.7525 53.5402 34.1325 53.2273 32.5017 53.2656C31.1401 53.2315 29.7837 53.4474 28.5 53.9026C28.3087 53.1336 28.2102 52.3445 28.2066 51.5521C28.2614 51.531 28.3173 51.51 28.3718 51.489C29.6741 50.9258 31.0833 50.6524 32.5017 50.6875C33.9201 50.6523 35.3292 50.9258 36.6315 51.489C38.1307 52.1317 39.7505 52.4445 41.3812 52.4062C43.012 52.4446 44.632 52.1317 46.1313 51.489C46.7276 51.2423 47.3438 51.0466 47.9732 50.9038C47.9708 51.02 47.9688 51.1372 47.9688 51.2594C47.9633 51.9834 48.0165 52.7067 48.1278 53.4221C47.2293 53.5747 46.3513 53.83 45.5111 54.1829ZM40.2923 38.2484C40.8554 39.5507 41.1289 40.9598 41.0938 42.3783C41.1289 43.7968 40.8554 45.2061 40.2923 46.5085C39.749 47.7835 39.4453 49.1476 39.3966 50.5326C38.6608 50.3934 37.9419 50.1767 37.2517 49.886C37.1304 49.839 37.008 49.7921 36.8847 49.7452C37.0025 48.8446 37.2426 47.9644 37.5983 47.1287C38.2411 45.6293 38.5539 44.0092 38.5156 42.3783C38.5539 40.7474 38.2411 39.1275 37.5983 37.6282C37.0352 36.3259 36.7618 34.9167 36.7969 33.4983C36.7689 32.3955 36.9306 31.2961 37.2748 30.248C38.0356 30.5311 38.8271 30.7235 39.6329 30.8214C39.4506 31.7018 39.3642 32.5993 39.375 33.4983C39.3367 35.1291 39.6495 36.7491 40.2923 38.2484ZM42.7527 43.7478C43.9161 43.6394 45.0557 43.3519 46.1312 42.8952C47.2538 42.4094 48.4586 42.1415 49.6813 42.1059C49.6831 42.1973 49.6875 42.2819 49.6875 42.3782C49.7226 43.7968 49.4491 45.2061 48.886 46.5085C48.5322 47.3491 48.2762 48.2276 48.1231 49.1267C47.2263 49.2793 46.3499 49.5341 45.5111 49.886C44.2087 50.4491 42.7996 50.7226 41.3812 50.6875C41.2864 50.6875 41.1962 50.6858 41.1058 50.6842C41.1409 49.4597 41.4088 48.253 41.8952 47.1287C42.3549 46.0531 42.6442 44.9125 42.7527 43.7478ZM48.2353 36.2161C47.2991 36.3649 46.3844 36.6266 45.5111 36.9954C44.3868 37.4819 43.1802 37.7499 41.9557 37.7849C41.9356 37.7326 41.9154 37.6804 41.8952 37.6282C41.3321 36.3259 41.0586 34.9167 41.0938 33.4983C41.0793 32.631 41.1743 31.7654 41.3765 30.9218L41.3812 30.9219C43.012 30.9602 44.632 30.6473 46.1313 30.0046C46.9449 29.6585 47.8008 29.4213 48.6765 29.2993C48.1721 30.6403 47.9317 32.0661 47.9688 33.4983C47.9573 34.4113 48.0467 35.3227 48.2353 36.2161ZM50.489 19.8688C50.0038 18.7478 49.736 17.5449 49.6998 16.324C49.8788 16.3171 50.0637 16.3125 50.2611 16.3125C50.9384 16.3058 51.6149 16.3599 52.2826 16.4742C52.3319 17.8566 52.6372 19.2178 53.1829 20.4889C53.746 21.7913 54.0195 23.2004 53.9844 24.6188C54.0195 26.0371 53.746 27.4461 53.1829 28.7483C52.5402 30.2475 52.2273 31.8675 52.2656 33.4983C52.2536 34.4251 52.3459 35.3504 52.541 36.2565C51.7876 36.1312 51.0248 36.0715 50.2611 36.0781C50.161 36.0781 50.0659 36.0801 49.9699 36.0817C49.7675 35.2359 49.6727 34.3679 49.6875 33.4983C49.6523 32.0799 49.9258 30.6708 50.489 29.3685C51.1317 27.8693 51.4445 26.2495 51.4062 24.6188C51.4446 22.988 51.1317 21.368 50.489 19.8688ZM41.3812 18.0312C43.012 18.0696 44.632 17.7567 46.1313 17.114C46.732 16.8643 47.353 16.6667 47.9875 16.5232C48.0421 17.8889 48.3466 19.2331 48.886 20.4889C49.2568 21.3536 49.5018 22.2669 49.6137 23.2011C48.2014 23.241 46.8094 23.5476 45.511 24.1048C44.6494 24.4741 43.7396 24.7187 42.8089 24.8312C42.8099 24.7598 42.8125 24.6926 42.8125 24.6188C42.8508 22.988 42.538 21.368 41.8952 19.8687C41.6481 19.2735 41.4518 18.6585 41.3083 18.0302C41.3332 18.0303 41.356 18.0312 41.3812 18.0312ZM41.3812 26.625C43.012 26.6633 44.632 26.3505 46.1313 25.7077C47.2546 25.2215 48.4603 24.9536 49.6839 24.9183C49.682 25.7969 49.5598 26.6711 49.3208 27.5166C48.0089 27.5871 46.7196 27.8866 45.5111 28.4017C44.2087 28.9648 42.7996 29.2382 41.3812 29.2031C39.9629 29.2383 38.5539 28.9648 37.2517 28.4017C35.7525 27.7589 34.1325 27.4461 32.5017 27.4844C31.5053 27.4693 30.5109 27.5779 29.5412 27.8077C29.7673 26.9536 29.8915 26.0758 29.9111 25.1926C30.759 24.9878 31.6295 24.8916 32.5017 24.9062C33.9201 24.8711 35.3292 25.1445 36.6315 25.7077C38.1307 26.3504 39.7505 26.6633 41.3812 26.625Z" fill="#66BB6A"/>
</svg>
