<svg width="65" height="65" viewBox="0 0 65 65" fill="none" xmlns="http://www.w3.org/2000/svg">
<path d="M22.3927 11.9373C22.3222 11.8588 22.2359 11.796 22.1395 11.753C22.0431 11.7101 21.9388 11.6879 21.8333 11.6879C21.7277 11.6879 21.6234 11.7101 21.527 11.753C21.4306 11.796 21.3444 11.8588 21.2739 11.9373C19.6574 13.7359 18.6919 15.3977 18.4041 16.8767C18.1413 18.2271 18.4614 19.4192 19.3052 20.2337C19.9997 20.8647 20.9041 21.2148 21.8425 21.2161C22.7809 21.2174 23.6863 20.8697 24.3826 20.2406C25.2249 19.4279 25.5416 18.2359 25.2748 16.8841C24.9827 15.405 24.013 13.7407 22.3927 11.9373ZM23.338 19.158C22.5717 19.8976 21.1195 19.8941 20.3498 19.1512C19.4972 18.3282 19.4868 16.4549 21.8333 13.5933C24.19 16.4651 24.1869 18.3388 23.338 19.158ZM31.9245 23.6946C32.0233 23.6946 32.1211 23.6752 32.2123 23.6374C32.3035 23.5996 32.3864 23.5442 32.4563 23.4744C32.5261 23.4046 32.5815 23.3217 32.6193 23.2304C32.657 23.1392 32.6765 23.0414 32.6765 22.9427V9.9614C32.6765 9.76197 32.5973 9.5707 32.4563 9.42969C32.3152 9.28867 32.124 9.20944 31.9245 9.20944H11.7568C11.5574 9.20944 11.3661 9.28867 11.2251 9.42969C11.0841 9.5707 11.0049 9.76197 11.0049 9.9614V22.9427C11.0049 23.1421 11.0841 23.3334 11.2251 23.4744C11.3661 23.6154 11.5574 23.6946 11.7568 23.6946H31.9245ZM12.5088 10.7136H31.1724V22.1907H12.5088V10.7136ZM31.4247 28.8347H12.2565C12.057 28.8347 11.8658 28.7554 11.7247 28.6144C11.5837 28.4734 11.5045 28.2821 11.5045 28.0827C11.5045 27.8833 11.5837 27.692 11.7247 27.551C11.8658 27.41 12.057 27.3308 12.2565 27.3308H31.4251C31.6246 27.3308 31.8158 27.41 31.9568 27.551C32.0979 27.692 32.1771 27.8833 32.1771 28.0827C32.1771 28.2821 32.0979 28.4734 31.9568 28.6144C31.8158 28.7554 31.6246 28.8347 31.4251 28.8347H31.4247ZM58.2182 39.1239H55.4391C54.7011 37.5396 53.9219 35.9857 53.1044 34.6053C51.9169 32.6021 49.9229 31.3793 47.6337 31.2507C43.714 31.0307 39.785 31.0307 35.8652 31.2507C35.8488 31.2516 35.833 31.2532 35.8162 31.2541V19.9218H37.4513C37.8848 19.9223 38.3004 20.0947 38.607 20.4012C38.9136 20.7078 39.086 21.1234 39.0865 21.5569V26.6087C39.0865 27.8084 39.6286 28.537 40.0834 28.9369C40.676 29.4452 41.4333 29.7203 42.2138 29.7109C43.7799 29.7109 45.3655 28.6391 45.3655 26.5904V17.3647L46.5059 16.7059C46.5914 16.6565 46.6664 16.5908 46.7266 16.5124C46.7867 16.434 46.8308 16.3446 46.8564 16.2492C46.8819 16.1537 46.8884 16.0542 46.8755 15.9563C46.8626 15.8583 46.8305 15.7639 46.7811 15.6784L43.5503 10.0843C43.5009 9.99876 43.4352 9.92379 43.3568 9.86367C43.2785 9.80356 43.189 9.75946 43.0936 9.7339C42.9982 9.70834 42.8988 9.70183 42.8008 9.71473C42.7029 9.72763 42.6085 9.75968 42.523 9.80907L41.6574 10.3086L41.0558 9.27046C40.9697 9.12183 40.8352 9.00719 40.6748 8.94561L38.8878 8.25812C38.7017 8.18643 38.4947 8.19164 38.3123 8.2726C38.13 8.35355 37.9873 8.50362 37.9156 8.68979C37.8439 8.87596 37.8491 9.08298 37.9301 9.2653C38.0111 9.44763 38.1611 9.59033 38.3473 9.66201L39.8872 10.2548L40.3723 11.092C40.2721 11.2007 40.2062 11.3364 40.1828 11.4824L39.8784 13.4036C39.8514 13.5737 39.8836 13.7479 39.9697 13.8971L42.4422 18.1839C42.4916 18.2695 42.5573 18.3446 42.6357 18.4047C42.7141 18.4649 42.8036 18.5091 42.899 18.5347C42.9945 18.5602 43.0941 18.5668 43.192 18.5538C43.29 18.5409 43.3845 18.5088 43.47 18.4593L43.8612 18.2337V26.5904C43.8612 27.8663 42.8257 28.2066 42.2138 28.2066C41.4651 28.2066 40.5908 27.7882 40.5908 26.6087V21.5569C40.5899 20.7246 40.2588 19.9266 39.6702 19.338C39.0817 18.7494 38.2837 18.4184 37.4513 18.4174H35.8162V9.8457C35.815 8.82613 35.4094 7.84867 34.6885 7.12773C33.9675 6.40679 32.9901 6.00122 31.9705 6H11.7114C10.6918 6.00125 9.71439 6.40682 8.99346 7.12776C8.27252 7.8487 7.86694 8.82614 7.86569 9.8457V45.8105H5.75195C5.55252 45.8105 5.36126 45.8898 5.22024 46.0308C5.07922 46.1718 5 46.3631 5 46.5625V50.7864C5 50.9859 5.07922 51.1771 5.22024 51.3181C5.36126 51.4592 5.55252 51.5384 5.75195 51.5384H24.6741V53.0335C24.6744 53.4921 24.7956 53.9425 25.0255 54.3394C25.2554 54.7362 25.5859 55.0654 25.9836 55.2938V57.4915C25.9845 57.8422 26.1244 58.1783 26.3728 58.426C26.6211 58.6736 26.9575 58.8128 27.3082 58.8128H31.5406C31.8909 58.8123 32.2267 58.6729 32.4743 58.4252C32.722 58.1775 32.8614 57.8418 32.8619 57.4915V55.6404H50.6364V57.4918C50.6373 57.8425 50.7772 58.1786 51.0255 58.4263C51.2738 58.674 51.6103 58.8131 51.961 58.8131H56.1934C56.5441 58.8131 56.8805 58.674 57.1288 58.4263C57.3772 58.1786 57.5171 57.8425 57.518 57.4918V55.2932C57.9156 55.0649 58.246 54.7359 58.4759 54.3392C58.7058 53.9425 58.827 53.4923 58.8274 53.0338V47.5222C58.831 47.0351 58.7276 46.5531 58.5245 46.1104C58.2539 45.5041 57.9811 44.8786 57.6986 44.2276C58.365 44.0199 58.9476 43.6048 59.3616 43.0428C59.7756 42.4808 59.9992 41.8012 60 41.1032V40.9053C59.9995 40.433 59.8117 39.9802 59.4778 39.6462C59.1438 39.3122 58.6909 39.1243 58.2186 39.1239H58.2182ZM43.3693 16.7808L41.4053 13.3758L41.6124 12.0716L42.6237 11.488L45.1023 15.7796L43.3693 16.7808ZM9.36971 9.8457C9.37039 9.22483 9.61733 8.62958 10.0564 8.19056C10.4954 7.75153 11.0906 7.50459 11.7115 7.50391H31.9702C32.5911 7.50456 33.1863 7.75149 33.6254 8.19052C34.0644 8.62956 34.3113 9.22482 34.312 9.8457V31.5183C32.6612 32.0105 31.2609 33.1148 30.3975 34.6055C29.5801 35.986 28.8005 37.5396 28.062 39.1239H25.2833C24.811 39.1243 24.3581 39.3122 24.0241 39.6461C23.6901 39.9801 23.5023 40.433 23.5018 40.9053V41.1032C23.5025 41.8008 23.7258 42.48 24.1393 43.0418C24.5527 43.6036 25.1348 44.0188 25.8006 44.2268C25.5643 44.7712 25.3347 45.2973 25.1071 45.8109H9.36971V9.8457ZM25.0063 41.1032V40.9053C25.0072 40.8321 25.0366 40.7622 25.0884 40.7104C25.1402 40.6586 25.2101 40.6291 25.2833 40.6282H27.375C27.042 41.3707 26.7197 42.1092 26.4057 42.8312C26.0099 42.7468 25.6551 42.5292 25.4003 42.2148C25.1456 41.9003 25.0065 41.5079 25.0063 41.1032ZM6.50391 50.0345V47.3152H24.6797C24.6759 47.3834 24.6736 47.4522 24.6736 47.5222V50.0345H6.50391ZM31.3581 57.3091H27.4879V55.6404H31.3581V57.3091ZM35.756 54.1361C35.9678 53.5921 36.4045 53.2257 36.9215 53.2257H46.5804C47.0973 53.2257 47.5437 53.5985 47.7542 54.1361H35.756ZM56.014 57.3091H52.1407V55.6404H56.014V57.3091ZM57.3234 53.0337C57.3231 53.2682 57.2481 53.4965 57.1094 53.6856C56.9706 53.8747 56.7753 54.0146 56.5516 54.0853L56.5393 54.0887C56.4361 54.12 56.3289 54.1359 56.2211 54.136H49.317C49.0322 52.7552 47.9136 51.721 46.5804 51.721H36.9215C35.5777 51.721 34.483 52.7347 34.1911 54.1357H27.2777C27.1729 54.1356 27.0686 54.1204 26.9681 54.0905C26.9598 54.0878 26.9513 54.0855 26.9429 54.0831C26.7209 54.0114 26.5273 53.8712 26.39 53.6826C26.2527 53.494 26.1787 53.2668 26.1785 53.0335V47.5222C26.1752 47.2467 26.233 46.9739 26.3476 46.7234C26.7081 45.9158 27.0707 45.079 27.4546 44.1931C28.7166 41.2811 30.1469 37.9806 31.6914 35.3723C32.1266 34.6153 32.7441 33.9791 33.4879 33.5215C34.2316 33.064 35.0778 32.7996 35.9497 32.7525C37.8747 32.644 39.8127 32.5899 41.7505 32.5899C43.6883 32.5899 45.6258 32.6436 47.5493 32.7525C48.4216 32.7993 49.2683 33.0635 50.0125 33.521C50.7567 33.9784 51.3748 34.6147 51.8104 35.3719C53.3516 37.9744 54.7776 41.2675 56.0359 44.1728C56.4226 45.066 56.7879 45.9095 57.1522 46.7257C57.2685 46.9749 57.3271 47.2472 57.3235 47.5222L57.3234 53.0337ZM58.4961 41.1032C58.4958 41.5083 58.3564 41.901 58.1013 42.2157C57.8461 42.5303 57.4906 42.7478 57.0943 42.8317C56.781 42.1099 56.4581 41.3708 56.1256 40.6282H58.2191C58.2922 40.6292 58.3622 40.6587 58.4139 40.7105C58.4657 40.7622 58.4951 40.8322 58.4961 40.9053V41.1032ZM52.0266 46.0225C51.0037 46.3689 49.2874 47.1158 49.2874 48.2257C49.2874 48.7891 49.5666 49.3014 50.0731 49.6681C50.7421 50.1521 51.7528 50.3476 52.6184 50.3476C53.0263 50.3557 53.4331 50.3021 53.8251 50.1887C54.7673 49.8788 55.4515 49.3907 55.9168 48.6965C56.605 47.6711 56.7145 46.8381 56.2422 46.2209C55.3501 45.0551 52.9961 45.6937 52.0262 46.0225H52.0266ZM54.6683 47.8583C54.393 48.2691 53.976 48.5553 53.3557 48.7594C52.8331 48.9313 51.5228 48.8591 50.9559 48.4489C50.9 48.4126 50.8523 48.365 50.8156 48.3093C51.1193 48.0016 52.3069 47.3881 53.6768 47.1411C54.4744 46.9971 54.8841 47.0702 55.0205 47.127C55.0076 47.2167 54.9475 47.4415 54.6679 47.8583H54.6683ZM31.4779 46.0232C30.5065 45.6941 28.1513 45.0546 27.2582 46.2209C26.7856 46.838 26.8945 47.6711 27.5817 48.6962L27.5831 48.698C28.0511 49.3917 28.7359 49.8797 29.6766 50.1886C30.0686 50.3021 30.4755 50.3557 30.8835 50.3476C31.7491 50.3476 32.7597 50.1521 33.4287 49.6681C33.9354 49.3014 34.2145 48.7891 34.2145 48.2257C34.2145 47.1164 32.5 46.3696 31.4779 46.0232ZM32.5468 48.4494C31.98 48.8595 30.6696 48.9321 30.1468 48.7597C29.5268 48.5556 29.1085 48.269 28.8304 47.8574C28.5516 47.4411 28.4921 47.2168 28.4802 47.1281C28.6158 47.071 29.0244 46.9976 29.8229 47.1412C31.1944 47.3883 32.3834 48.0018 32.6875 48.3098C32.6507 48.3655 32.6028 48.413 32.5468 48.4494ZM45.2162 45.2267H38.2856C36.4621 45.2267 34.9787 46.53 34.9787 48.1317V48.4149C34.9787 49.5869 36.0484 50.5403 37.3634 50.5403H46.1392C47.4524 50.5403 48.5207 49.5869 48.5207 48.4149V48.1317C48.5203 46.5295 47.0379 45.2263 45.2162 45.2263V45.2267ZM47.0158 48.4149C47.0158 48.7517 46.6143 49.036 46.1388 49.036H37.363C36.8942 49.036 36.4831 48.746 36.4831 48.4149V48.1317C36.4831 47.3725 37.3085 46.731 38.2856 46.731H45.2162C46.1918 46.731 47.0158 47.3725 47.0158 48.1317V48.4149ZM30.944 42.2274H52.5579C52.6838 42.2275 52.8077 42.1959 52.9182 42.1357C53.0288 42.0754 53.1224 41.9884 53.1906 41.8825C53.2587 41.7767 53.2992 41.6554 53.3083 41.5299C53.3174 41.4043 53.2949 41.2785 53.2427 41.1639C52.3023 39.0935 51.4756 37.473 50.6409 36.0639C49.9375 34.8777 48.8118 34.1841 47.4729 34.1102C43.6608 33.8933 39.8395 33.8933 36.0274 34.1102C34.6888 34.1841 33.5643 34.8779 32.8607 36.0644C31.8999 37.7153 31.0312 39.4181 30.2588 41.1651C30.2069 41.2796 30.1846 41.4054 30.1939 41.5308C30.2032 41.6562 30.2437 41.7772 30.3119 41.8829C30.3801 41.9885 30.4737 42.0754 30.5841 42.1356C30.6945 42.1957 30.8183 42.2272 30.944 42.2272V42.2274ZM34.1549 36.8316C34.6005 36.0796 35.2767 35.6583 36.1118 35.6123C39.8677 35.3984 43.6328 35.3984 47.3887 35.6123C48.2242 35.6582 48.9013 36.0797 49.3468 36.8312C50.0058 37.9435 50.6624 39.1986 51.3813 40.7229H32.1192C32.828 39.2171 33.4853 37.9614 34.1549 36.831V36.8316Z" fill="#FFA726"/>
</svg>
