<svg width="65" height="65" viewBox="0 0 65 65" fill="none" xmlns="http://www.w3.org/2000/svg">
<path d="M59.9998 14.8056C59.9998 14.7996 59.9991 14.7936 59.9989 14.7874C59.9982 14.7635 59.9968 14.7399 59.994 14.7164C59.993 14.7078 59.9913 14.6992 59.9901 14.6907C59.9868 14.6691 59.9829 14.6478 59.9779 14.6269C59.976 14.6187 59.9738 14.6105 59.9716 14.6022C59.9653 14.5796 59.9583 14.5573 59.9501 14.5354C59.9486 14.5312 59.9476 14.5269 59.946 14.5229L57.7605 8.92812C57.5402 8.36437 57.0066 8 56.4013 8H52.422C51.9882 8 51.6366 8.35159 51.6366 8.78536C51.6366 9.21913 51.9882 9.57072 52.422 9.57072H56.3253L58.0645 14.0232H41.6211L40.5908 9.57072H46.6636C47.0974 9.57072 47.449 9.21913 47.449 8.78536C47.449 8.35159 47.0974 8 46.6636 8H39.6029H31.6895H14.891C14.2856 8 13.7521 8.36437 13.5318 8.92834L11.3463 14.5229C11.3447 14.527 11.3438 14.5313 11.3422 14.5354C11.3341 14.5572 11.327 14.5795 11.3207 14.6022C11.3185 14.6105 11.3163 14.6187 11.3144 14.6269C11.3095 14.6479 11.3055 14.6692 11.3023 14.6907C11.301 14.6992 11.2994 14.7078 11.2983 14.7164C11.2956 14.7399 11.2941 14.7635 11.2935 14.7874C11.2933 14.7935 11.2926 14.7995 11.2925 14.8056C11.2925 14.8066 11.2924 14.8075 11.2924 14.8085V26.3467C11.2924 26.7804 11.644 27.132 12.0777 27.132C12.5115 27.132 12.8631 26.7804 12.8631 26.3467V15.594H29.5104V27.5315C29.5104 27.9984 29.7854 28.4238 30.2112 28.6153C30.367 28.6854 30.533 28.7197 30.6979 28.7197C30.9832 28.7197 31.2654 28.6172 31.4867 28.4211L35.6462 24.7361L39.8056 28.421C40.1549 28.7307 40.6557 28.8068 41.0814 28.6153C41.507 28.4237 41.782 27.9984 41.782 27.5315V15.594H58.4292V50.82C58.4292 51.3835 57.9706 51.8421 57.4071 51.8421H43.0069C43.0069 51.8332 43.0058 51.8243 43.0057 51.8154C43.0049 51.7449 43.0023 51.6745 42.9963 51.6047C44.3484 51.9632 45.7931 51.2683 46.3349 49.9395C46.6199 49.2405 46.6157 48.4724 46.323 47.7767C46.2954 47.7112 46.265 47.6476 46.233 47.585C46.2271 47.5735 46.2214 47.5619 46.2155 47.5505C46.184 47.4908 46.1505 47.4325 46.1152 47.3756C46.1083 47.3646 46.1012 47.3538 46.0942 47.3429C46.0568 47.2845 46.018 47.2273 45.9767 47.1722C45.9759 47.1711 45.9751 47.1701 45.9743 47.1692C45.9333 47.1147 45.8899 47.0623 45.8451 47.011C45.8369 47.0017 45.8289 46.9922 45.8206 46.9829C45.7762 46.9335 45.7302 46.8857 45.6825 46.8396C45.6731 46.8306 45.6637 46.8219 45.6542 46.8131C45.6043 46.7661 45.5531 46.7205 45.4998 46.6774C45.498 46.676 45.4962 46.6746 45.4944 46.6732C45.4419 46.631 45.3875 46.591 45.3319 46.5526C45.322 46.5456 45.3121 46.5385 45.3019 46.5316C45.2463 46.4942 45.1894 46.4589 45.131 46.4253C45.1261 46.4225 45.1217 46.4193 45.1168 46.4165C45.4487 46.1292 45.7107 45.7657 45.8813 45.3474C46.1663 44.6484 46.1621 43.8803 45.8694 43.1846C45.6133 42.5758 45.1631 42.0862 44.5864 41.7824C44.504 41.739 44.4191 41.6994 44.3317 41.6638L32.1085 36.6798L37.7982 34.9187C39.1519 34.4996 39.9142 33.0559 39.4977 31.7005C39.3422 31.1946 39.034 30.7679 38.6359 30.4561C38.0435 29.9919 37.2517 29.7823 36.4664 29.9472C36.4627 29.9481 36.459 29.9487 36.4553 29.9497C36.4118 29.9595 32.05 30.9402 27.4946 31.8285C27.2925 31.8679 27.0956 31.9059 26.9015 31.9433C26.7462 31.9732 26.593 32.0026 26.4427 32.0312C26.3995 32.0395 26.3562 32.0476 26.3134 32.0558C26.048 32.1062 25.791 32.1544 25.5411 32.2008C25.4406 32.2195 25.3409 32.238 25.2428 32.256C19.5218 33.3099 17.9147 33.3288 17.4687 33.2685C17.467 33.2683 17.4655 33.268 17.4638 33.2677C17.457 33.2668 17.4503 33.2658 17.4441 33.2648C17.4396 33.2641 17.4354 33.2633 17.4312 33.2627C17.4282 33.2621 17.425 33.2616 17.4221 33.2612C17.3942 33.2561 17.3726 33.2509 17.3558 33.2458L17.2271 33.1934L17.3875 32.8001C17.5452 32.4134 17.5428 31.9884 17.3809 31.6035C17.3404 31.5073 17.2911 31.4164 17.234 31.3318C17.0625 31.0779 16.8201 30.8803 16.53 30.762L12.3118 29.0421C11.9252 28.8843 11.5001 28.8867 11.1152 29.0486C10.7302 29.2105 10.4315 29.5127 10.2738 29.8993L5.11574 42.5496C4.79025 43.3478 5.17493 44.262 5.97318 44.5876L10.1915 46.3076C10.3841 46.3862 10.5834 46.4233 10.7797 46.4233C11.3966 46.4233 11.9825 46.0557 12.2294 45.4502L12.2682 45.3551L13.2408 45.7516C13.2413 45.7518 13.2419 45.7522 13.2425 45.7524C14.1728 46.1317 15.0299 46.6729 15.7718 47.3445C15.9067 47.4666 16.0377 47.593 16.1648 47.7236C16.2919 47.8541 16.4148 47.9888 16.5335 48.1274C16.5928 48.1966 16.6511 48.267 16.7081 48.3382C17.7891 49.6862 19.2062 50.7435 20.8061 51.3959L21.9003 51.842H13.8853C13.3218 51.842 12.8632 51.3834 12.8632 50.8199V48.8327C12.8632 48.3989 12.5116 48.0473 12.0778 48.0473C11.6441 48.0473 11.2925 48.3989 11.2925 48.8327V50.8199C11.2925 52.2496 12.4555 53.4127 13.8853 53.4127H25.7525L35.8696 57.5379C36.2179 57.6799 36.5781 57.7473 36.933 57.7472C38.0479 57.7472 39.1069 57.0828 39.5532 55.9883C39.7362 55.5394 39.795 55.0701 39.7457 54.6191C40.2719 54.6946 40.8175 54.6253 41.3121 54.4117C41.8147 54.1946 42.2313 53.8489 42.5272 53.4126H57.4072C58.8369 53.4126 60 52.2496 60 50.8198V14.8086C59.9999 14.8075 59.9998 14.8067 59.9998 14.8056ZM32.3138 9.57072H38.9785L40.0088 14.0232H31.2835L32.3138 9.57072ZM29.6714 14.0232H13.2278L14.9671 9.57072H30.7016L29.6714 14.0232ZM40.2115 26.6819L36.4342 23.3357C36.2096 23.1368 35.9279 23.0373 35.6464 23.0373C35.3647 23.0373 35.0829 23.1368 34.8583 23.3357L31.0813 26.6819V15.594H40.2115V26.6819ZM10.7777 44.8504L6.57291 43.1359L11.7255 30.4994L15.9303 32.2139L10.7777 44.8504ZM42.154 49.5899L41.2526 49.2223C41.2522 49.2221 41.2517 49.222 41.2513 49.2218C41.251 49.2217 41.2507 49.2215 41.2503 49.2213C41.2502 49.2213 41.2501 49.2212 41.25 49.2212L31.8629 45.3937C31.4613 45.23 31.003 45.4227 30.8391 45.8245C30.6753 46.2261 30.8681 46.6845 31.2699 46.8483L40.6573 50.6759C40.6965 50.6919 40.7344 50.7097 40.771 50.7291C40.7813 50.7346 40.7909 50.7413 40.801 50.7469C40.8268 50.7616 40.8527 50.7762 40.8771 50.7924C40.8888 50.8002 40.8995 50.8093 40.9109 50.8174C40.9325 50.8329 40.9545 50.8481 40.9749 50.8649C40.9873 50.875 40.9984 50.8863 41.0104 50.8968C41.0286 50.913 41.0473 50.9287 41.0645 50.9459C41.0764 50.9577 41.0871 50.9707 41.0985 50.983C41.1142 50.9999 41.1305 51.0166 41.1453 51.0344C41.1566 51.0481 41.1665 51.0626 41.1772 51.0766C41.1906 51.0942 41.2046 51.1115 41.2169 51.1298C41.2274 51.1451 41.2363 51.1612 41.2459 51.1767C41.2571 51.1948 41.2689 51.2125 41.2791 51.2311C41.2884 51.2479 41.2961 51.2654 41.3046 51.2824C41.3136 51.3008 41.3234 51.3189 41.3316 51.3377C41.3394 51.3557 41.3457 51.3744 41.3527 51.3928C41.3598 51.4114 41.3675 51.4296 41.3738 51.4485C41.38 51.4675 41.3847 51.487 41.39 51.5062C41.3953 51.5252 41.4012 51.5439 41.4056 51.5631C41.41 51.5826 41.4128 51.6023 41.4163 51.6219C41.4199 51.6414 41.4239 51.6608 41.4265 51.6805C41.4291 51.7003 41.4301 51.7203 41.4317 51.7402C41.4333 51.7601 41.4356 51.78 41.4363 51.8C41.4369 51.8197 41.436 51.8395 41.4358 51.8593C41.4355 51.8797 41.4359 51.9001 41.4346 51.9206C41.4334 51.9401 41.4305 51.9595 41.4283 51.979C41.4261 51.9999 41.4244 52.0209 41.4209 52.0417C41.4178 52.0608 41.413 52.0798 41.409 52.099C41.4045 52.1201 41.4007 52.1413 41.395 52.1623C41.3901 52.1809 41.3834 52.1994 41.3775 52.2179C41.3709 52.2389 41.3648 52.26 41.3569 52.2807C41.3503 52.295 41.3437 52.3094 41.3376 52.3239C41.3362 52.3272 41.3354 52.3307 41.3341 52.3339C41.2115 52.6172 40.985 52.8422 40.6893 52.9699C40.3638 53.1103 39.9912 53.1153 39.6667 52.9829L38.0035 52.3048C37.9958 52.3017 37.9879 52.2995 37.9802 52.2966C37.9724 52.2931 37.965 52.289 37.957 52.2858L30.3219 49.1726C29.92 49.0089 29.4619 49.2016 29.2982 49.6033C29.1344 50.005 29.3272 50.4634 29.7288 50.6272L37.3639 53.7404C37.3721 53.7437 37.3804 53.7461 37.3886 53.7491C37.3961 53.7523 37.4029 53.7563 37.4106 53.7593C38.0513 54.0206 38.3602 54.7545 38.0989 55.3953C37.8376 56.0363 37.104 56.3452 36.4629 56.0837L26.2047 51.9009C26.2042 51.9007 26.2038 51.9004 26.2034 51.9002L21.3995 49.9414C20.5538 49.5966 19.7686 49.118 19.0754 48.5292C18.6595 48.1759 18.2767 47.7831 17.9338 47.3555C17.596 46.9343 17.2254 46.5415 16.8266 46.1805C15.9493 45.3863 14.9358 44.7464 13.8359 44.2978C13.8358 44.2978 13.8357 44.2977 13.8356 44.2977L12.8617 43.9006L14.8014 39.1435L16.6345 34.648L16.7697 34.7031C16.897 34.755 17.0785 34.8287 17.5671 34.8471C18.1775 34.8748 19.1872 34.8111 20.9962 34.5555C22.2267 34.3817 23.7361 34.1303 25.4981 33.8061C25.5415 33.7982 25.5846 33.7902 25.6284 33.7822C25.7108 33.7669 25.7941 33.7514 25.8777 33.736C25.9427 33.7239 26.008 33.7117 26.0738 33.6993C26.1488 33.6853 26.2241 33.6712 26.2999 33.6569C26.3804 33.6418 26.4618 33.6264 26.5437 33.6108C26.6092 33.5984 26.6746 33.586 26.7408 33.5734C26.8406 33.5544 26.9421 33.535 27.0439 33.5154C27.0964 33.5053 27.1482 33.4955 27.2011 33.4854C27.3571 33.4553 27.5151 33.4248 27.676 33.3935C32.2158 32.5105 36.5975 31.5277 36.7944 31.4835C36.814 31.4794 36.8337 31.477 36.8534 31.4741C37.3578 31.3994 37.8521 31.6912 37.9968 32.1619C38.0476 32.3274 38.0535 32.4961 38.0215 32.6549C37.9511 33.0043 37.6972 33.3059 37.3342 33.4181L29.548 35.828C29.231 35.9262 29.01 36.2127 28.9957 36.5442C28.9813 36.8756 29.1766 37.1803 29.4838 37.3056L43.7391 43.1183C44.0495 43.2448 44.2921 43.4847 44.4221 43.7938C44.5521 44.1028 44.554 44.444 44.4273 44.7543C44.3007 45.0648 44.0609 45.3073 43.7519 45.4373C43.5974 45.5022 43.4349 45.5351 43.2721 45.536C43.2698 45.536 43.2674 45.5357 43.265 45.5357C43.2268 45.5357 43.1887 45.5342 43.1505 45.5307C43.1392 45.5296 43.1281 45.5272 43.1168 45.5259C43.0877 45.5224 43.0586 45.5191 43.0297 45.5135C43.0114 45.5099 42.9934 45.5046 42.9752 45.5003C42.9535 45.4951 42.9317 45.4907 42.9102 45.4844C42.888 45.4778 42.8662 45.4691 42.8443 45.4613C42.8269 45.455 42.8091 45.4499 42.792 45.4429L33.4037 41.6148C33.0021 41.451 32.5438 41.6438 32.38 42.0456C32.2162 42.4472 32.409 42.9056 32.8108 43.0694L44.1926 47.7104C44.2703 47.7419 44.3437 47.7807 44.4121 47.8258C44.6174 47.9612 44.7782 48.154 44.8756 48.3858C44.9894 48.6562 45.0051 48.9512 44.9223 49.2287C44.9105 49.2683 44.8967 49.3076 44.8809 49.3464C44.8645 49.3865 44.8464 49.4252 44.8265 49.4626C44.7802 49.5496 44.7238 49.6283 44.6609 49.6999C44.6218 49.7444 44.58 49.7858 44.5355 49.8239C44.5284 49.8299 44.522 49.8368 44.5148 49.8426C44.2282 50.077 43.845 50.1777 43.4706 50.1021C43.3947 50.0867 43.3192 50.0649 43.2448 50.0346L42.154 49.5899Z" fill="#FFA726"/>
</svg>
