<svg width="65" height="65" viewBox="0 0 65 65" fill="none" xmlns="http://www.w3.org/2000/svg">
<path d="M35.4552 35.314C33.4752 35.3131 31.5298 35.8331 29.8143 36.8219C29.7165 36.8784 29.6308 36.9536 29.562 37.0432C29.4933 37.1329 29.4429 37.2352 29.4137 37.3443C29.3845 37.4534 29.377 37.5672 29.3918 37.6792C29.4066 37.7911 29.4433 37.8991 29.4998 37.9969C29.5563 38.0947 29.6315 38.1805 29.7211 38.2492C29.8107 38.3179 29.913 38.3684 30.0222 38.3976C30.1313 38.4268 30.2451 38.4342 30.357 38.4194C30.469 38.4047 30.577 38.368 30.6748 38.3115C32.7815 37.0935 35.2727 36.7228 37.6427 37.2746C40.0127 37.8265 42.084 39.2595 43.4359 41.2829C44.7878 43.3062 45.3191 45.7682 44.9219 48.169C44.5248 50.5698 43.2289 52.7294 41.2974 54.2096C39.3659 55.6897 36.9435 56.3794 34.522 56.1386C32.1005 55.8978 29.8614 54.7445 28.2593 52.913C26.6571 51.0814 25.812 48.7088 25.8954 46.2768C25.9788 43.8448 26.9846 41.5357 28.7086 39.8182C28.7908 39.7392 28.8565 39.6445 28.9018 39.5397C28.947 39.435 28.971 39.3223 28.9722 39.2082C28.9735 39.0941 28.952 38.9809 28.909 38.8752C28.8661 38.7695 28.8025 38.6734 28.722 38.5926C28.6415 38.5117 28.5457 38.4477 28.4402 38.4042C28.3347 38.3607 28.2216 38.3387 28.1075 38.3394C27.9934 38.3401 27.8806 38.3636 27.7757 38.4083C27.6707 38.4531 27.5758 38.5183 27.4963 38.6002C25.6451 40.4423 24.4902 42.8695 24.2286 45.468C23.9671 48.0664 24.6149 50.6751 26.0618 52.8492C27.5087 55.0234 29.665 56.6283 32.1629 57.3902C34.6608 58.1522 37.3457 58.0241 39.7598 57.0277C42.1738 56.0313 44.1674 54.2283 45.4006 51.9263C46.6339 49.6242 47.0304 46.9657 46.5225 44.404C46.0147 41.8423 44.6339 39.5361 42.6157 37.8786C40.5975 36.2212 38.0668 35.3152 35.4552 35.3151V35.314Z" fill="#FFA726"/>
<path d="M36.3865 49.9947H34.2289C34.0621 49.995 33.8968 49.9625 33.7426 49.8989C33.5884 49.8353 33.4482 49.7419 33.3301 49.6241C33.212 49.5063 33.1182 49.3664 33.0542 49.2123C32.9902 49.0583 32.9572 48.8931 32.957 48.7263C32.957 48.4984 32.8665 48.2798 32.7053 48.1186C32.5442 47.9575 32.3256 47.8669 32.0977 47.8669C31.8697 47.8669 31.6512 47.9575 31.49 48.1186C31.3288 48.2798 31.2383 48.4984 31.2383 48.7263C31.2392 49.5183 31.5542 50.2776 32.1142 50.8376C32.6742 51.3976 33.4335 51.7126 34.2255 51.7135H34.4466V53.3612C34.4466 53.5891 34.5372 53.8077 34.6983 53.9689C34.8595 54.13 35.0781 54.2206 35.306 54.2206C35.5339 54.2206 35.7525 54.13 35.9137 53.9689C36.0748 53.8077 36.1654 53.5891 36.1654 53.3612V51.7135H36.3842C37.1765 51.7135 37.9363 51.3988 38.4965 50.8386C39.0567 50.2784 39.3714 49.5186 39.3714 48.7263C39.3714 47.9341 39.0567 47.1743 38.4965 46.614C37.9363 46.0538 37.1765 45.7391 36.3842 45.7391H34.2289C33.8989 45.7292 33.5858 45.5912 33.3559 45.3543C33.126 45.1174 32.9975 44.8002 32.9975 44.4701C32.9975 44.14 33.126 43.8229 33.3559 43.586C33.5858 43.3491 33.8989 43.211 34.2289 43.2011H36.3865C36.7228 43.2014 37.0453 43.3351 37.2831 43.573C37.5209 43.8108 37.6546 44.1332 37.6549 44.4695C37.6549 44.6975 37.7455 44.916 37.9067 45.0772C38.0678 45.2384 38.2864 45.3289 38.5143 45.3289C38.7422 45.3289 38.9608 45.2384 39.122 45.0772C39.2832 44.916 39.3737 44.6975 39.3737 44.4695C39.3728 43.6776 39.0578 42.9183 38.4978 42.3583C37.9378 41.7983 37.1785 41.4833 36.3865 41.4824H36.1654V39.8335C36.1654 39.6056 36.0748 39.387 35.9137 39.2258C35.7525 39.0647 35.5339 38.9741 35.306 38.9741C35.0781 38.9741 34.8595 39.0647 34.6983 39.2258C34.5372 39.387 34.4466 39.6056 34.4466 39.8335V41.4824H34.2289C33.4466 41.4977 32.7016 41.8192 32.1538 42.3778C31.606 42.9365 31.2991 43.6877 31.2991 44.4701C31.2991 45.2525 31.606 46.0037 32.1538 46.5624C32.7016 47.121 33.4466 47.4426 34.2289 47.4579H36.3865C36.7229 47.4579 37.0456 47.5915 37.2834 47.8294C37.5213 48.0673 37.6549 48.3899 37.6549 48.7263C37.6549 49.0627 37.5213 49.3854 37.2834 49.6232C37.0456 49.8611 36.7229 49.9947 36.3865 49.9947Z" fill="#FFA726"/>
<path d="M55.8922 22.9176C55.6751 22.8644 55.4458 22.8978 55.253 23.0109C55.0602 23.1239 54.919 23.3076 54.8593 23.523C54.7997 23.7384 54.8263 23.9686 54.9336 24.1647C55.0409 24.3608 55.2203 24.5074 55.4339 24.5733C57.7587 25.2196 58.2824 25.9483 58.2824 26.1454C58.2824 26.8627 54.9194 28.5448 48.3996 28.5448C41.8798 28.5448 38.5156 26.8627 38.5156 26.1454C38.5156 25.4281 41.8775 23.7461 48.3996 23.7461C49.942 23.7405 51.4828 23.8489 53.0093 24.0703C53.2316 24.0968 53.4554 24.0356 53.6333 23.8997C53.8112 23.7638 53.9291 23.5639 53.9621 23.3425C53.995 23.1211 53.9404 22.8955 53.8098 22.7137C53.6792 22.5319 53.4829 22.4082 53.2625 22.3688C51.6521 22.1357 50.0268 22.0208 48.3996 22.025C42.8114 22.025 36.7969 23.3141 36.7969 26.1431V32.8291C36.7969 35.6581 42.8114 36.9472 48.3996 36.9472C52.1556 36.9472 56.0973 36.3617 58.2824 35.1196V36.1715C58.2824 36.8888 54.9194 38.5708 48.3996 38.5708C47.6514 38.5708 46.9226 38.5479 46.2225 38.5021C45.995 38.4888 45.7715 38.5655 45.6 38.7155C45.4285 38.8656 45.3229 39.077 45.3058 39.3042C45.2979 39.4171 45.3124 39.5305 45.3485 39.6378C45.3846 39.7451 45.4415 39.8443 45.5161 39.9295C45.5906 40.0147 45.6813 40.0843 45.7829 40.1343C45.8845 40.1843 45.9949 40.2137 46.1079 40.2208C46.847 40.269 47.6135 40.2942 48.3996 40.2942C52.1556 40.2942 56.0973 39.7087 58.2824 38.4608V39.5127C58.2824 40.23 54.9194 41.919 48.3996 41.919C48.3996 41.919 48.0409 41.9258 47.8817 41.919C47.6563 41.9205 47.4398 42.0072 47.2758 42.1617C47.1117 42.3162 47.0121 42.5271 46.9971 42.752C46.9906 42.98 47.0748 43.2012 47.2311 43.3672C47.3875 43.5333 47.6033 43.6305 47.8312 43.6377H48.4042C52.1602 43.6377 56.1019 43.0511 58.287 41.8044V42.8563C58.287 43.5736 54.924 45.2556 48.4042 45.2556C48.1762 45.2556 47.9577 45.3462 47.7965 45.5073C47.6353 45.6685 47.5448 45.8871 47.5448 46.115C47.5448 46.3429 47.6353 46.5615 47.7965 46.7227C47.9577 46.8838 48.1762 46.9744 48.4042 46.9744C52.1602 46.9744 56.1019 46.3877 58.287 45.1468V46.2823C58.287 46.9996 54.924 48.6817 48.4042 48.6817H48.0959C47.8718 48.6914 47.6592 48.7835 47.4989 48.9405C47.3386 49.0974 47.2419 49.308 47.2274 49.5319C47.2253 49.7597 47.3136 49.9791 47.4729 50.1419C47.6323 50.3047 47.8498 50.3977 48.0776 50.4004H48.4042C53.9832 50.4039 59.9977 49.1148 59.9977 46.2857V26.1454C59.9977 25.1944 59.285 23.8629 55.8922 22.9176ZM48.3961 30.2636C52.1522 30.2636 56.0939 29.678 58.279 28.436V29.4878C58.279 30.2051 54.9159 31.8941 48.3961 31.8941C41.8764 31.8941 38.5122 30.2108 38.5122 29.4878V28.436C40.6973 29.678 44.6435 30.2636 48.3961 30.2636ZM48.3961 35.2307C41.8741 35.2307 38.5122 33.5487 38.5122 32.8314V31.7795C40.6973 33.0216 44.6378 33.6128 48.3961 33.6128C52.1545 33.6128 56.0939 33.0273 58.279 31.7795V32.8314C58.279 33.5487 54.9159 35.2307 48.3961 35.2307Z" fill="#FFA726"/>
<path d="M23.1042 51.1542C22.8017 51.1656 22.4969 51.1725 22.1875 51.1725C13.0781 51.1725 6.71875 45.9463 6.71875 38.4641C6.71875 32.3625 10.8438 23.3391 16.9957 19.6323C17.0794 19.5807 17.1493 19.5177 17.2249 19.4604H24.25C24.4779 19.4604 24.6965 19.3699 24.8577 19.2087C25.0188 19.0475 25.1094 18.829 25.1094 18.601C25.1094 18.3731 25.0188 18.1545 24.8577 17.9934C24.6965 17.8322 24.4779 17.7417 24.25 17.7417H18.3089C18.4261 17.0957 18.2925 16.4294 17.9353 15.8785C15.0306 11.3789 14.4657 9.35416 14.5711 8.82937C14.5822 8.83585 14.5951 8.83866 14.6078 8.83739C15.8983 8.84638 17.1807 9.04166 18.4154 9.41718C19.61 9.78026 20.8497 9.97313 22.0981 9.9901C23.5095 9.95548 24.9113 9.74846 26.2724 9.37364C27.3511 9.07662 28.4586 8.89683 29.5758 8.83739C29.5449 9.48479 28.9032 11.3972 26.6838 15.1853H20.125C19.8971 15.1853 19.6785 15.2758 19.5173 15.437C19.3562 15.5982 19.2656 15.8168 19.2656 16.0447C19.2656 16.2726 19.3562 16.4912 19.5173 16.6524C19.6785 16.8135 19.8971 16.9041 20.125 16.9041H25.9252C25.8829 17.2244 25.9015 17.5498 25.9802 17.8631C26.0723 18.2191 26.2346 18.5531 26.4575 18.8455C26.6804 19.1379 26.9595 19.3828 27.2784 19.5658C30.3719 21.5806 32.8806 24.3741 34.5522 27.6657C34.6045 27.7678 34.6766 27.8584 34.7645 27.9321C34.8523 28.0058 34.954 28.0612 35.0636 28.0951C35.1731 28.1289 35.2884 28.1404 35.4025 28.129C35.5166 28.1176 35.6272 28.0835 35.728 28.0287C35.8287 27.9739 35.9174 27.8994 35.9889 27.8098C36.0604 27.7201 36.1132 27.6171 36.1443 27.5067C36.1754 27.3963 36.184 27.2808 36.1698 27.167C36.1555 27.0532 36.1186 26.9435 36.0613 26.8442C34.2419 23.2804 31.5148 20.2596 28.155 18.0866C28.0318 18.0181 27.9235 17.9258 27.8364 17.815C27.7492 17.7043 27.685 17.5773 27.6474 17.4415C27.6181 17.3274 27.6122 17.2086 27.6301 17.0922C27.6481 16.9758 27.6894 16.8642 27.7517 16.7643C32.0646 9.58906 31.3679 8.35729 31.0746 7.82677C30.9439 7.60075 30.7541 7.41463 30.5256 7.28845C30.297 7.16226 30.0384 7.10078 29.7775 7.11062C28.4601 7.14851 27.152 7.3451 25.8817 7.69614C24.6492 8.04004 23.3794 8.23243 22.1004 8.26906C21.0005 8.24951 19.9088 8.07477 18.8577 7.75C17.479 7.33828 16.0489 7.12379 14.6101 7.11291C14.3027 7.093 13.996 7.16044 13.7253 7.30744C13.4547 7.45443 13.2311 7.67499 13.0804 7.94364C12.7917 8.47416 12.024 9.88354 16.4939 16.8067C16.5611 16.9064 16.6069 17.019 16.6284 17.1373C16.6499 17.2557 16.6466 17.3772 16.6188 17.4942C16.5832 17.6337 16.5198 17.7646 16.4324 17.879C16.345 17.9934 16.2353 18.089 16.11 18.1599C9.46875 22.1669 5 31.8938 5 38.4641C5 46.8229 12.2302 52.8958 22.1875 52.8958C22.5175 52.8958 22.8452 52.889 23.1706 52.8752C23.2835 52.8708 23.3944 52.8441 23.4969 52.7969C23.5995 52.7496 23.6917 52.6825 23.7684 52.5996C23.8451 52.5167 23.9046 52.4194 23.9437 52.3135C23.9828 52.2075 24.0006 52.0949 23.9962 51.982C23.9918 51.8692 23.9651 51.7583 23.9178 51.6557C23.8706 51.5532 23.8035 51.4609 23.7206 51.3843C23.6377 51.3076 23.5404 51.248 23.4345 51.2089C23.3285 51.1698 23.2159 51.152 23.103 51.1565L23.1042 51.1542Z" fill="#FFA726"/>
</svg>
