<svg width="65" height="65" viewBox="0 0 65 65" fill="none" xmlns="http://www.w3.org/2000/svg">
<path d="M32.5762 11C32.7932 11.001 33.0081 11.046 33.207 11.1328L59.0098 22.041C59.3042 22.1677 59.5555 22.3786 59.7314 22.6465C59.9072 22.9142 60.0005 23.2276 60 23.5479C59.9994 23.8684 59.9045 24.182 59.7275 24.4492C59.5505 24.7164 59.2988 24.9262 59.0039 25.0518L55.8594 26.3857V40.416C56.3889 40.7786 56.817 41.2709 57.1025 41.8457C57.3881 42.4205 57.5213 43.0591 57.4902 43.7002C57.4974 44.4121 57.3317 45.1155 57.0068 45.749L58.8408 52.207C58.8968 52.4045 58.8898 52.6145 58.8203 52.8076C58.7508 53.0007 58.623 53.1676 58.4541 53.2842C58.2851 53.4007 58.0832 53.4617 57.8779 53.458C57.6729 53.4543 57.4741 53.386 57.3096 53.2637C56.5939 52.7242 55.7214 52.4318 54.8252 52.4316C53.9291 52.4315 53.0576 52.7236 52.3418 53.2627C52.1812 53.3826 51.9874 53.4502 51.7871 53.457C51.5866 53.4637 51.3881 53.4088 51.2197 53.2998C51.0516 53.1909 50.9206 53.0331 50.8447 52.8477C50.7688 52.6621 50.7513 52.4574 50.7949 52.2617L52.2412 45.7783C51.9045 45.1379 51.7322 44.4238 51.7393 43.7002C51.6848 42.9617 51.8633 42.2243 52.25 41.5928C52.6367 40.9614 53.2121 40.4678 53.8945 40.1807V27.2129L49.3457 29.1348V40.8428C49.3389 41.3665 49.204 41.8806 48.9521 42.3398C48.7003 42.7991 48.3393 43.1892 47.9014 43.4766C47.2405 43.9255 46.5426 44.3519 45.8203 44.748C45.7074 44.8107 45.5834 44.8506 45.4551 44.8652C45.3265 44.8798 45.1956 44.8689 45.0713 44.833C44.9472 44.7971 44.8313 44.7369 44.7305 44.6562C44.6295 44.5755 44.5456 44.4756 44.4834 44.3623C44.4211 44.249 44.3812 44.1247 44.3672 43.9961C44.3532 43.8675 44.365 43.7374 44.4014 43.6133C44.4378 43.4892 44.4988 43.3731 44.5801 43.2725C44.6613 43.172 44.7615 43.0881 44.875 43.0264C45.5435 42.6595 46.1868 42.266 46.7891 41.8564C46.9627 41.7482 47.1078 41.5996 47.2109 41.4229C47.314 41.2462 47.373 41.0471 47.3818 40.8428V29.9658L33.1973 35.9619C33.0005 36.0478 32.7879 36.0914 32.5732 36.0908C32.3515 36.0909 32.1319 36.045 31.9287 35.9561L17.7568 29.9756V40.8525C17.7639 41.0495 17.8191 41.242 17.917 41.4131C18.0149 41.5841 18.1531 41.7291 18.3193 41.835C21.6176 44.0783 25.3994 45.5105 29.3564 46.0137C33.3136 46.5169 37.334 46.077 41.0889 44.7305C41.3342 44.643 41.6045 44.656 41.8398 44.7676C42.0751 44.8792 42.2562 45.08 42.3438 45.3252C42.4312 45.5705 42.4182 45.8408 42.3066 46.0762C42.195 46.3115 41.9944 46.4935 41.749 46.5811C38.7924 47.6399 35.6747 48.1798 32.5342 48.1787C32.2917 48.1787 32.0501 48.1766 31.8066 48.1699C26.5888 48.016 21.5224 46.3787 17.2012 43.4502C16.7747 43.1627 16.424 42.7763 16.1787 42.3242C15.9334 41.872 15.8004 41.3669 15.792 40.8525V29.1465L5.99121 25.0098C5.69833 24.8866 5.44769 24.6804 5.27148 24.416C5.09533 24.1517 5.00096 23.8411 5 23.5234C4.99623 23.202 5.08719 22.8861 5.26172 22.6162C5.43624 22.3464 5.68687 22.1343 5.98145 22.0059L22.4941 15.0859C22.7344 14.9852 23.005 14.9844 23.2461 15.083C23.4872 15.1817 23.6795 15.372 23.7803 15.6123C23.881 15.8526 23.8819 16.1232 23.7832 16.3643C23.6845 16.6053 23.4941 16.7977 23.2539 16.8984L7.48145 23.5068L32.5693 34.0947L47.624 27.7305C47.7138 27.6208 47.8263 27.5319 47.9541 27.4707C48.0818 27.4095 48.2217 27.3773 48.3633 27.376C48.387 27.376 48.4074 27.388 48.4307 27.3896L51.3066 26.1738L33.0947 23.3535C32.8373 23.3136 32.606 23.1732 32.4521 22.9629C32.2984 22.7527 32.2345 22.4898 32.2744 22.2324C32.3143 21.975 32.4549 21.7436 32.665 21.5898C32.8752 21.4361 33.1382 21.3723 33.3955 21.4121L54.7559 24.7197L57.5234 23.5459L32.5684 12.9951L27.1816 15.248C27.0628 15.2977 26.9354 15.3228 26.8066 15.3232C26.6777 15.3237 26.55 15.2989 26.4307 15.25C26.3114 15.2011 26.2028 15.129 26.1113 15.0381C26.0199 14.9473 25.9472 14.8396 25.8975 14.7207C25.8477 14.6017 25.8217 14.4737 25.8213 14.3447C25.8209 14.2159 25.8456 14.088 25.8945 13.9688C25.9435 13.8495 26.0156 13.7409 26.1064 13.6494C26.1972 13.5581 26.305 13.4853 26.4238 13.4355L31.9443 11.127C32.144 11.042 32.3592 10.999 32.5762 11ZM55.3779 47.2031C54.9129 47.38 54.4006 47.391 53.9287 47.2334L53.1553 50.7041C53.6597 50.5584 54.1811 50.4793 54.7061 50.4688C55.2641 50.462 55.8207 50.5281 56.3613 50.667L55.3779 47.2031ZM54.6152 42.0205C54.1941 42.0205 53.7031 42.7544 53.7031 43.7002C53.7032 44.646 54.1941 45.3799 54.6152 45.3799C55.0362 45.3794 55.5263 44.6457 55.5264 43.7002C55.5264 42.7547 55.0362 42.021 54.6152 42.0205ZM20.7129 37.5254C20.9734 37.5254 21.223 37.6293 21.4072 37.8135C21.5914 37.9977 21.6953 38.2474 21.6953 38.5078C21.7672 39.2213 22.116 39.8779 22.667 40.3369C23.218 40.7959 23.9269 41.0202 24.6416 40.9619H24.835C25.0953 40.962 25.3452 41.0659 25.5293 41.25C25.7134 41.4342 25.8164 41.6839 25.8164 41.9443C25.8164 42.2047 25.7133 42.4545 25.5293 42.6387C25.3452 42.8228 25.0953 42.9267 24.835 42.9268H24.6416C23.4057 42.9871 22.1962 42.5562 21.2764 41.7285C20.3565 40.9008 19.8005 39.7433 19.7305 38.5078C19.7305 38.2473 19.8344 37.9977 20.0186 37.8135C20.2028 37.6293 20.4524 37.5254 20.7129 37.5254Z" fill="#FFA726"/>
</svg>
