<svg width="65" height="65" viewBox="0 0 65 65" fill="none" xmlns="http://www.w3.org/2000/svg">
<mask id="mask0_37_2925" style="mask-type:luminance" maskUnits="userSpaceOnUse" x="5" y="5" width="55" height="55">
<path d="M59 59V6H6V59H59Z" fill="white" stroke="white" stroke-width="2"/>
</mask>
<g mask="url(#mask0_37_2925)">
<path d="M21.2797 9.32635H43.4126C44.5113 9.32635 45.4111 10.2241 45.4111 11.3203C45.4111 12.4167 44.5113 13.3144 43.4126 13.3144H21.2797C20.181 13.3144 19.2812 12.4167 19.2812 11.3203C19.2812 10.2241 20.181 9.32635 21.2797 9.32635Z" stroke="#FFA726" stroke-width="2" stroke-miterlimit="10" stroke-linecap="round" stroke-linejoin="round"/>
<path d="M46.3281 41.5419H53.5475V36.9523H46.3281V41.5419Z" stroke="#FFA726" stroke-width="2" stroke-miterlimit="10" stroke-linecap="round" stroke-linejoin="round"/>
<path d="M46.3281 51.1884H53.5475V46.6019H46.3281V51.1884Z" stroke="#FFA726" stroke-width="2" stroke-miterlimit="10" stroke-linecap="round" stroke-linejoin="round"/>
<path d="M42.6705 13.3142V55.6738H22.3281V13.3142" stroke="#FFA726" stroke-width="2" stroke-miterlimit="10" stroke-linecap="round" stroke-linejoin="round"/>
<path d="M22.3282 55.6738H7.78516V22.7286" stroke="#FFA726" stroke-width="2" stroke-miterlimit="10" stroke-linecap="round" stroke-linejoin="round"/>
<path d="M22.3278 22.7285H7.80306C6.70445 22.7285 5.80469 21.8307 5.80469 20.7345C5.80469 19.6382 6.70445 18.7404 7.80306 18.7404H22.3278" stroke="#FFA726" stroke-width="2" stroke-miterlimit="10" stroke-linecap="round" stroke-linejoin="round"/>
<path d="M57.215 36.8239V22.7285M42.6719 55.6737H57.215V40.5554" stroke="#FFA726" stroke-width="2" stroke-miterlimit="10" stroke-linecap="round" stroke-linejoin="round"/>
<path d="M42.6719 22.7285H57.1966C58.2952 22.7285 59.195 21.8307 59.195 20.7345C59.195 19.6382 58.2952 18.7404 57.1966 18.7404H42.6719" stroke="#FFA726" stroke-width="2" stroke-miterlimit="10" stroke-linecap="round" stroke-linejoin="round"/>
<path d="M34.0844 13.3144H43.4126C44.5112 13.3144 45.411 12.4167 45.411 11.3204C45.411 10.2242 44.5112 9.32635 43.4126 9.32635H21.2797C20.181 9.32635 19.2812 10.2242 19.2812 11.3204C19.2812 12.4167 20.181 13.3144 21.2797 13.3144H30.3447" stroke="#FFA726" stroke-width="2" stroke-miterlimit="10" stroke-linecap="round" stroke-linejoin="round"/>
<path d="M11.4492 31.8954H18.6656V27.3058H11.4492V31.8954Z" stroke="#FFA726" stroke-width="2" stroke-miterlimit="10" stroke-linecap="round" stroke-linejoin="round"/>
<path d="M11.4492 41.5419H18.6656V36.9523H11.4492V41.5419Z" stroke="#FFA726" stroke-width="2" stroke-miterlimit="10" stroke-linecap="round" stroke-linejoin="round"/>
<path d="M11.4492 51.1884H18.6656V46.6019H11.4492V51.1884Z" stroke="#FFA726" stroke-width="2" stroke-miterlimit="10" stroke-linecap="round" stroke-linejoin="round"/>
<path d="M46.3281 31.8954H53.5475V27.3058H46.3281V31.8954Z" stroke="#FFA726" stroke-width="2" stroke-miterlimit="10" stroke-linecap="round" stroke-linejoin="round"/>
<path d="M26.5898 55.6738V43.4014H38.406V55.6738" stroke="#FFA726" stroke-width="2" stroke-miterlimit="10" stroke-linecap="round" stroke-linejoin="round"/>
<path d="M32.4961 43.4014V55.6738" stroke="#FFA726" stroke-width="2" stroke-miterlimit="10" stroke-linecap="round" stroke-linejoin="round"/>
<path d="M30.83 18.853H34.1658C34.3249 18.853 34.4565 18.9843 34.4565 19.1431V22.212H37.5322C37.6913 22.212 37.823 22.3433 37.823 22.502V25.8305C37.823 25.9893 37.6913 26.1175 37.5322 26.1175H34.4565V29.1895C34.4565 29.3482 34.3249 29.4765 34.1658 29.4765H30.83C30.6709 29.4765 30.5423 29.3482 30.5423 29.1895V26.1175H27.4666C27.3044 26.1175 27.1758 25.9893 27.1758 25.8305V22.502C27.1758 22.3433 27.3044 22.212 27.4666 22.212H30.5423V19.1431C30.5423 18.9843 30.6709 18.853 30.83 18.853Z" stroke="#FFA726" stroke-width="2" stroke-miterlimit="10" stroke-linecap="round" stroke-linejoin="round"/>
<path d="M29.0938 33.6357H35.9031" stroke="#FFA726" stroke-width="2" stroke-miterlimit="10" stroke-linecap="round" stroke-linejoin="round"/>
<path d="M29.0938 37.4404H35.9031" stroke="#FFA726" stroke-width="2" stroke-miterlimit="10" stroke-linecap="round" stroke-linejoin="round"/>
</g>
</svg>
