<svg width="65" height="65" viewBox="0 0 65 65" fill="none" xmlns="http://www.w3.org/2000/svg">
<g clip-path="url(#clip0_37_2964)">
<path d="M60 28.0645H58.0066L55.0356 29.6278C54.7012 29.4432 54.3534 29.2869 53.9783 29.1929L50.2411 28.2577V27.8328C51.8944 26.6789 52.9032 24.7726 52.9032 22.7419V21.1912C52.9032 17.7451 50.203 14.8612 46.8841 14.7607C46.7156 14.7563 46.5497 14.7624 46.383 14.7706L47.3519 12.5022L42.6544 7.80596L39.8853 9.60831C38.8331 9.01576 37.7204 8.55445 36.5647 8.23089L35.8808 5H29.1201L28.4362 8.23175C27.2805 8.55532 26.1669 9.01663 25.1156 9.60918L22.3465 7.80683L17.6528 12.5005L18.6053 14.7706C18.5689 14.7689 18.5343 14.7624 18.4979 14.7615C16.7991 14.7122 15.199 15.332 13.9836 16.5119C12.7664 17.6909 12.0968 19.2732 12.0968 20.9677V22.7419C12.0968 24.7726 13.1047 26.678 14.7581 27.8319V28.2577L12.3203 28.8671L7.90169 26.2903H5V44.672L13.7272 47.5806H15.4269L15.6391 46.8374L18.3142 48.4431C18.358 49.8976 19.5245 51.068 20.9777 51.1191C21.0288 52.5662 22.1918 53.7293 23.639 53.7804C23.6901 55.2275 24.8531 56.3905 26.3003 56.4417C26.3531 57.9226 27.566 59.1129 29.059 59.1129C29.6135 59.1129 30.1571 58.9401 30.6141 58.6321L31.3998 59.326C31.8923 59.7596 32.5264 60 33.1848 60H33.349C34.8252 60 36.0263 58.8067 36.0449 57.3352C37.5051 57.3166 38.6876 56.1341 38.7062 54.674C40.1672 54.6553 41.3506 53.4711 41.3675 52.0101C42.842 51.9754 44.0323 50.7708 44.0323 49.2881C44.0323 49.1989 44.0279 49.111 44.0188 49.0222L60 41.0322V28.0645ZM51.129 21.1912V22.7419C51.129 24.3164 50.2783 25.7874 48.9087 26.5805L48.4651 26.837L48.4686 29.6442L52.9006 30.7514L43.1452 35.886V33.4963C43.1452 32.3038 42.6635 31.2118 41.8747 30.4048L44.9194 29.6442V26.8348L44.4767 26.5788C43.1079 25.7874 42.2581 24.3164 42.2581 22.7419V20.9677C42.2581 19.7579 42.7363 18.6266 43.6056 17.7841C44.4741 16.942 45.6263 16.4881 46.8309 16.5349C49.2006 16.6059 51.129 18.695 51.129 21.1912ZM33.8376 35.1886L29.8218 33.9051C27.9917 33.3187 26.0109 33.2312 24.1376 33.6461L23.629 33.7587V33.4963C23.629 32.273 24.4585 31.2109 25.6445 30.9138L30.7258 29.6442V26.8348L30.2831 26.5788C28.9144 25.7874 28.0645 24.3164 28.0645 22.7419V20.9677C28.0645 19.7579 28.5427 18.6266 29.4121 17.7841C30.2805 16.942 31.4401 16.4881 32.6373 16.5349C35.0071 16.6059 36.9355 18.695 36.9355 21.1912V22.7419C36.9355 24.3164 36.0848 25.7874 34.7151 26.5805L34.2716 26.837L34.2751 29.6442L39.3555 30.9138C40.5415 31.2109 41.371 32.273 41.371 33.4963V36.8203L41.1518 36.9355H40.6082L35.1544 35.377C34.7247 35.2553 34.282 35.2055 33.8376 35.1886ZM23.8279 18.277C25.4938 15.0491 28.8468 12.9839 32.5 12.9839C36.1186 12.9839 39.4573 15.0214 41.1358 18.2055C40.7134 19.0523 40.4839 19.9901 40.4839 20.9677V22.7419C40.4839 24.7726 41.4918 26.678 43.1452 27.8319V28.2577L39.5968 29.1461L36.0475 28.2577V27.8328C37.7009 26.6789 38.7097 24.7726 38.7097 22.7419V21.1912C38.7097 17.7451 36.0094 14.8612 32.6906 14.7607C30.9926 14.7109 29.3917 15.3311 28.1763 16.511C26.96 17.6909 26.2903 19.2732 26.2903 20.9677V22.7419C26.2903 24.7726 27.2983 26.678 28.9516 27.8319V28.2577L25.4032 29.1461L21.854 28.2577V27.8328C23.5073 26.6789 24.5161 24.7726 24.5161 22.7419V21.1912C24.5161 20.1474 24.2649 19.1563 23.8279 18.277ZM19.748 12.912L22.5821 10.0778L25.0766 11.7013L25.554 11.4085C26.7499 10.6756 28.0424 10.1389 29.3952 9.81536L29.9409 9.68455L30.5582 6.77419H34.4427L35.0582 9.68368L35.604 9.81406C36.9567 10.1381 38.2492 10.6747 39.4452 11.4076L39.9225 11.7004L42.417 10.077L45.2477 12.9085L44.2415 15.2644C43.5567 15.559 42.9217 15.9735 42.369 16.5093C42.3326 16.5448 42.3014 16.5829 42.2659 16.6193C40.1759 13.297 36.4811 11.2097 32.5 11.2097C28.4903 11.2097 24.7851 13.3165 22.7004 16.6726C22.1425 16.0887 21.4789 15.6157 20.7434 15.2852L19.748 12.912ZM16.5323 29.6442V26.8348L16.0896 26.5788C14.7208 25.7874 13.871 24.3164 13.871 22.7419V20.9677C13.871 19.7579 14.3492 18.6266 15.2185 17.7841C16.087 16.942 17.2418 16.4881 18.4438 16.5349C20.8135 16.6059 22.7419 18.695 22.7419 21.1912V22.7419C22.7419 24.3164 21.8912 25.7874 20.5216 26.5805L20.078 26.837L20.0815 29.6442L23.1253 30.4048C22.3365 31.2118 21.8548 32.3038 21.8548 33.4963V34.1533L19.0879 34.7684L19.1598 34.5172L19.1935 32.8777L14.5151 30.1484L16.5323 29.6442ZM6.77419 28.0645H7.42089L13.8008 31.7857L10.5816 44.6621L6.77419 43.3925V28.0645ZM14.0148 45.8065L12.2687 45.2247L15.3961 32.7166L17.4194 33.8965V34.1499L14.0893 45.8065H14.0148ZM20.0806 48.3603C20.0806 48.0987 20.1863 47.8423 20.3717 47.6569L21.9311 46.0975C22.1165 45.9121 22.3729 45.8065 22.6345 45.8065C23.1829 45.8065 23.629 46.2526 23.629 46.801C23.629 47.0626 23.5233 47.319 23.338 47.5044L21.7786 49.0638C21.5932 49.2492 21.3368 49.3548 21.0752 49.3548C20.5268 49.3548 20.0806 48.9087 20.0806 48.3603ZM22.7419 51.0216C22.7419 50.76 22.8476 50.5036 23.033 50.3182L24.5924 48.7588C24.7778 48.5734 25.0342 48.4677 25.2958 48.4677C25.8442 48.4677 26.2903 48.9139 26.2903 49.4623C26.2903 49.7239 26.1846 49.9803 25.9992 50.1657L24.4399 51.7251C24.2545 51.9104 23.9981 52.0161 23.7365 52.0161C23.1881 52.0161 22.7419 51.57 22.7419 51.0216ZM25.4032 53.6829C25.4032 53.4213 25.5089 53.1649 25.6943 52.9795L27.2537 51.4201C27.439 51.2347 27.6955 51.129 27.9571 51.129C28.5055 51.129 28.9516 51.5752 28.9516 52.1236C28.9516 52.3852 28.8459 52.6416 28.6605 52.827L27.1012 54.3863C26.9158 54.5717 26.6594 54.6774 26.3977 54.6774C25.8494 54.6774 25.4032 54.2313 25.4032 53.6829ZM29.059 57.3387C28.5107 57.3387 28.0645 56.8926 28.0645 56.3442C28.0645 56.0826 28.1702 55.8261 28.3556 55.6408L29.9149 54.0814C30.1003 53.896 30.3568 53.7903 30.6184 53.7903C31.1668 53.7903 31.6129 54.2365 31.6129 54.7848C31.6129 55.0465 31.5072 55.3029 31.3218 55.4883L29.7625 57.0476C29.5771 57.233 29.3207 57.3387 29.059 57.3387ZM33.349 58.2258H33.1848C32.9587 58.2258 32.7421 58.1435 32.5736 57.9941L31.91 57.4089L32.5762 56.7427C32.814 56.5049 32.9986 56.222 33.135 55.9184L33.9415 56.5898C34.1525 56.7657 34.2742 57.0247 34.2742 57.3006C34.2742 57.8108 33.8592 58.2258 33.349 58.2258ZM41.3043 50.2419H41.1509C40.9283 50.2419 40.7108 50.1631 40.5406 50.0202L35.73 46.0113L34.5934 47.3749L39.265 51.2672C39.4751 51.4431 39.5968 51.7021 39.5968 51.978C39.5968 52.4883 39.1818 52.9032 38.6716 52.9032H38.4779C38.2627 52.9032 38.0522 52.827 37.8863 52.6884L33.0679 48.6735L31.9313 50.0371L36.6028 53.9298C36.8138 54.1044 36.9355 54.3634 36.9355 54.6393C36.9355 55.1496 36.5205 55.5645 36.0103 55.5645C35.6698 55.5645 35.338 55.4437 35.0768 55.2267L33.0969 53.5763C32.6607 52.6849 31.7645 52.0633 30.715 52.0261C30.6639 50.5789 29.5009 49.4159 28.0537 49.3648C28.0026 47.9176 26.8396 46.7546 25.3924 46.7035C25.3404 45.2226 24.1276 44.0323 22.6345 44.0323C21.9055 44.0323 21.1921 44.3277 20.6767 44.8431L19.1173 46.4025C19.0242 46.4956 18.9471 46.6013 18.8687 46.7061L16.1437 45.071L18.5326 36.7102L24.5213 35.3787C26.0924 35.0274 27.7487 35.1037 29.2808 35.594L30.5876 36.012L26.1573 38.2271C25.1451 38.7344 24.5161 39.7527 24.5161 40.885V41.0604C24.5161 42.699 25.8494 44.0323 27.488 44.0323C28.0264 44.0323 28.5561 43.8859 29.0166 43.6082L32.3198 41.6274C32.9834 41.2298 33.874 41.3168 34.447 41.8323L41.9423 48.5778C42.1428 48.7597 42.2581 49.0178 42.2581 49.2881C42.2581 49.8144 41.8305 50.2419 41.3043 50.2419ZM58.2258 39.9355L43.2807 47.4087C43.2322 47.3571 43.1815 47.3082 43.1283 47.2605L35.6343 40.5151C34.9776 39.9225 34.1287 39.5968 33.2442 39.5968C32.5975 39.5968 31.9625 39.7726 31.4063 40.1062L28.1018 42.0878C27.9164 42.1996 27.7046 42.2581 27.488 42.2581C26.827 42.2581 26.2903 41.7214 26.2903 41.0604V40.885C26.2903 40.428 26.5442 40.0182 26.9522 39.8142L31.9005 37.3401C32.7473 36.916 33.7527 36.8211 34.6653 37.0836L40.24 38.6759L41.5901 38.7097L58.2258 29.9539V39.9355Z" fill="#FFA726"/>
</g>
<defs>
<clipPath id="clip0_37_2964">
<rect width="55" height="55" fill="white" transform="translate(5 5)"/>
</clipPath>
</defs>
</svg>
