<svg width="65" height="65" viewBox="0 0 65 65" fill="none" xmlns="http://www.w3.org/2000/svg">
<g clip-path="url(#clip0_37_2732)">
<path d="M27.868 17.4463H19.7178C18.9771 17.4463 18.375 18.0484 18.375 18.7891V32.1022C18.375 32.8424 18.9771 33.445 19.7178 33.445H27.868C28.6086 33.445 29.2108 32.8424 29.2108 32.1022V18.7891C29.2108 18.0484 28.6086 17.4463 27.868 17.4463ZM22.987 31.8337H19.9863V28.5389H22.987V31.8337ZM22.987 26.9275H19.9863V23.9634H22.987V26.9275ZM22.987 22.352H19.9863V19.0576H22.987V22.352ZM27.5994 31.8337H24.5983V28.5389H27.5994V31.8337ZM27.5994 26.9275H24.5983V23.9634H27.5994V26.9275ZM27.5994 22.352H24.5983V19.0576H27.5994V22.352Z" fill="#FFA726"/>
<path d="M38.6729 49.6123C38.2276 49.6123 37.8672 49.9732 37.8672 50.418V52.3524C37.8672 52.7972 38.2276 53.1581 38.6729 53.1581C39.1181 53.1581 39.4785 52.7972 39.4785 52.3524V50.418C39.4785 49.9732 39.1181 49.6123 38.6729 49.6123Z" fill="#FFA726"/>
<path d="M59.9923 41.4756C59.955 41.1928 59.8102 40.9406 59.5849 40.766L42.5161 27.5594C42.1376 27.267 41.6853 27.1121 41.2078 27.1121C40.7298 27.1121 40.2775 27.267 39.8986 27.5599L37.3171 29.5572V27.2435C37.3171 26.7982 36.9566 26.4378 36.5114 26.4378C36.0662 26.4378 35.7058 26.7982 35.7058 27.2435V30.8039L22.8311 40.7656C22.607 40.9385 22.4581 41.1991 22.4228 41.479C22.3863 41.7622 22.4623 42.0433 22.6364 42.2704L23.9427 43.9694C24.1479 44.235 24.4575 44.3873 24.7928 44.3873C25.0286 44.3873 25.2615 44.308 25.4487 44.1632L41.2078 31.97L53.1194 41.1865V57.9728H46.6305V56.4622C46.6305 56.017 46.27 55.6565 45.8248 55.6565C45.3796 55.6565 45.0192 56.017 45.0192 56.4622V57.9728H37.3951V45.6302H45.0192V52.6756C45.0192 53.1208 45.3796 53.4813 45.8248 53.4813C46.27 53.4813 46.6305 53.1208 46.6305 52.6756V45.3617C46.6305 44.6215 46.0279 44.0189 45.2877 44.0189H37.127C36.3864 44.0189 35.7838 44.6215 35.7838 45.3617V57.9728H29.6616V55.7753C29.6616 55.0347 29.0595 54.4325 28.3188 54.4325H27.5476C27.6118 54.1119 27.6466 53.7809 27.6466 53.4418C27.6466 50.6535 25.3778 48.385 22.5894 48.385C21.0758 48.385 19.6596 49.0795 18.7126 50.2057C18.3542 50.0924 17.9732 50.0307 17.5779 50.0307C17.2875 50.0307 17.0022 50.0631 16.7248 50.1277C15.8474 48.6246 14.2101 47.6578 12.4401 47.6578C12.2517 47.6578 12.0654 47.6696 11.8816 47.691V20.7222L23.7937 11.5049L35.7062 20.7222V23.4833C35.7062 23.9285 36.0666 24.2889 36.5119 24.2889C36.9566 24.2889 37.3175 23.9285 37.3175 23.4833V21.9689L39.5532 23.6985C39.74 23.8433 39.9728 23.9226 40.2087 23.9226C40.5448 23.9226 40.8549 23.7699 41.0592 23.5038C41.0622 23.5001 41.0651 23.4959 41.068 23.4921L42.3193 21.8019L42.3273 21.7918C42.41 21.6882 42.6294 21.4133 42.5782 21.0109C42.5409 20.7268 42.3957 20.4746 42.1708 20.3013L25.1025 7.09473C24.724 6.80225 24.2716 6.64742 23.7937 6.64742C23.3158 6.64742 22.8634 6.80225 22.4845 7.09515L17.7982 10.7211V9.70558C18.4318 9.59816 18.9161 9.04678 18.9161 8.38337V6.77246C18.9161 6.03184 18.3135 5.42969 17.5733 5.42969H11.0445C10.3043 5.42969 9.70172 6.03184 9.70172 6.77246V8.38295C9.70172 9.04678 10.186 9.59774 10.8196 9.70558V16.1207L5.41828 20.3001C5.19337 20.4729 5.0444 20.7339 5.00915 21.013C4.97223 21.2967 5.04776 21.5778 5.22232 21.8052L6.52858 23.5043C6.73336 23.7703 7.04303 23.9226 7.37873 23.9226C7.61455 23.9226 7.84702 23.8433 8.03501 23.6985L10.2703 21.9689V48.1647C8.99131 48.7941 8.00647 49.9607 7.64057 51.3836C6.42578 51.8519 5.59116 53.0318 5.59116 54.3713C5.59116 54.519 5.60165 54.6642 5.62095 54.8068C5.36541 55.0515 5.20595 55.3947 5.20595 55.7753V58.2418C5.20595 58.982 5.8081 59.5846 6.54873 59.5846H57.0659C57.5111 59.5846 57.8716 59.2237 57.8716 58.7789C57.8716 58.3337 57.5111 57.9733 57.0659 57.9733H54.7308V42.4332L56.9669 44.1632C57.1536 44.3076 57.3865 44.3873 57.6223 44.3873C57.9584 44.3873 58.2685 44.2346 58.4729 43.9681C58.4758 43.9643 58.4788 43.9606 58.4817 43.9568L59.7334 42.2662L59.7418 42.2557C59.8241 42.1524 60.0431 41.8776 59.9923 41.4756ZM22.5894 49.9963C24.4894 49.9963 26.0353 51.5422 26.0353 53.4418C26.0353 53.7863 25.9833 54.1187 25.8888 54.4325H21.2932C21.328 54.2278 21.3473 54.0171 21.3473 53.8023C21.3473 52.7092 20.8795 51.7239 20.1346 51.034C20.7716 50.3874 21.6528 49.9963 22.5894 49.9963ZM11.3131 7.04102H17.3048V8.1144H11.3131V7.04102ZM16.1869 9.72572V11.9677L12.4309 14.874V9.72572H16.1869ZM7.4765 22.0935L6.82651 21.248L23.4702 8.36952C23.5654 8.29609 23.6741 8.25874 23.7937 8.25874C23.9133 8.25874 24.022 8.29609 24.1168 8.3691L40.7378 21.2299L40.1033 22.0872L24.2867 9.84909C23.9964 9.6246 23.591 9.6246 23.3007 9.84909L7.4765 22.0935ZM28.0503 57.9733H6.81728V56.0439H14.2386C14.6834 56.0439 15.0443 55.6834 15.0443 55.2382C15.0443 54.793 14.6834 54.4325 14.2386 54.4325H7.20459C7.20375 54.412 7.20249 54.3918 7.20249 54.3713C7.20249 53.6113 7.74253 52.9546 8.48735 52.8103C8.82431 52.7448 9.08279 52.4733 9.13147 52.1339C9.36645 50.5011 10.7889 49.2696 12.4401 49.2696C13.8114 49.2696 15.0653 50.1302 15.56 51.4109C15.6406 51.6198 15.8042 51.7856 16.0123 51.8691C16.2205 51.9522 16.4534 51.9446 16.656 51.8489C16.9456 51.7122 17.2561 51.6425 17.5779 51.6425C18.768 51.6425 19.736 52.6114 19.736 53.8027C19.736 54.0221 19.7016 54.2332 19.6403 54.4325H18.1058C17.6606 54.4325 17.3001 54.7934 17.3001 55.2382C17.3001 55.6834 17.6606 56.0439 18.1058 56.0439H28.0503V57.9733ZM57.5174 42.5519L41.7008 30.3142C41.4105 30.0893 41.0051 30.0893 40.7147 30.3142L24.8902 42.5582L24.2402 41.7127L40.8843 28.8346C40.9795 28.7608 41.0882 28.7234 41.2078 28.7234C41.3269 28.7234 41.436 28.7608 41.5309 28.8342L58.1519 41.6946L57.5174 42.5519Z" fill="#FFA726"/>
</g>
<defs>
<clipPath id="clip0_37_2732">
<rect width="55" height="55" fill="white" transform="translate(5 5)"/>
</clipPath>
</defs>
</svg>
