<svg width="123" height="120" viewBox="0 0 123 120" fill="none" xmlns="http://www.w3.org/2000/svg">
<path d="M122.124 93.1568V40.9751L7.45751e-08 26.8433V79.0252C-0.000251094 80.221 0.633951 81.4165 1.9021 82.0997L69.8267 118.978C72.3555 120.341 75.471 120.341 77.9998 118.978L120.222 96.2314C121.49 95.5484 122.124 94.3526 122.124 93.1568Z" fill="url(#paint0_linear_39_3658)"/>
<path d="M1.90204 23.7686L44.124 1.02182C46.6528 -0.340605 49.7683 -0.340605 52.2968 1.02182L120.221 37.9005C122.758 39.2669 122.758 42.6827 120.221 44.0491L77.9995 66.7959C75.4707 68.1583 72.3552 68.1583 69.8264 66.7959L1.90204 29.9172C-0.634013 28.5508 -0.634013 25.135 1.90204 23.7686Z" fill="#5EA8D7"/>
<path d="M37.6309 97.6743L42.0416 100.05V55.7713L37.6309 53.395V97.6743Z" fill="#4BAEED"/>
<path d="M64.0947 67.6519V111.931L68.9707 114.558V70.2787L64.0947 67.6519Z" fill="#4BAEED"/>
<path d="M46.4521 58.1475V102.427L50.8629 104.803V60.5238L46.4521 58.1475Z" fill="#4BAEED"/>
<path d="M28.8086 92.9214L33.2194 95.2977V51.0184L28.8086 48.6421V92.9214Z" fill="#4BAEED"/>
<path d="M55.2734 62.8994V107.178L59.6842 109.555V65.2755L55.2734 62.8994Z" fill="#4BAEED"/>
<path d="M24.3977 46.2662L20.1924 44.0005V88.28L24.3977 90.5457V46.2662Z" fill="#4BAEED"/>
<path d="M6.81886 36.7374L2.61328 34.4717V78.751L6.81886 81.0167V36.7374Z" fill="#4BAEED"/>
<path d="M11.166 83.2842L15.5768 85.6605V41.3812L11.166 39.0049V83.2842Z" fill="#4BAEED"/>
<path d="M6.75513 36.6285L2.5498 34.3628V78.6423L6.75513 80.908V36.6285Z" fill="#4BAEED"/>
<path d="M98.7269 59.4419L78.6924 70.2789V114.558L98.7269 103.721V59.4419Z" fill="#2280BC"/>
<path d="M100.631 58.4144V102.694L118.761 92.9214V48.6421L100.631 58.4144Z" fill="#2280BC"/>
<path d="M103.723 81.4622L95.44 85.9249C94.6054 86.3745 93.9287 85.8973 93.9287 84.859C93.9287 83.8207 94.6054 82.6144 95.44 82.1646L103.723 77.7019C104.558 77.2524 105.235 77.7295 105.235 78.7678C105.235 79.8063 104.558 81.0127 103.723 81.4622Z" fill="#5EA8D7"/>
<defs>
<linearGradient id="paint0_linear_39_3658" x1="69.8925" y1="73.4218" x2="81.9391" y2="73.4218" gradientUnits="userSpaceOnUse">
<stop stop-color="#3F8EC0"/>
<stop offset="1" stop-color="#4BAEED"/>
</linearGradient>
</defs>
</svg>
