<svg width="53" height="50" viewBox="0 0 53 50" fill="none" xmlns="http://www.w3.org/2000/svg">
<path d="M13.883 7.89323C13.883 11.4189 10.9056 14.3099 7.19149 14.3099C3.47734 14.3099 0.5 11.4189 0.5 7.89323C0.5 4.36759 3.47734 1.47656 7.19149 1.47656C10.9056 1.47656 13.883 4.36759 13.883 7.89323Z" stroke="#2D9687"/>
<path d="M33.4025 7.89323C33.4025 11.3877 30.2288 14.3099 26.1974 14.3099C22.1659 14.3099 18.9922 11.3877 18.9922 7.89323C18.9922 4.3988 22.1659 1.47656 26.1974 1.47656C30.2288 1.47656 33.4025 4.3988 33.4025 7.89323Z" stroke="#2D9687"/>
<path d="M51.8947 7.89323C51.8947 11.4189 48.9174 14.3099 45.2032 14.3099C41.4891 14.3099 38.5117 11.4189 38.5117 7.89323C38.5117 4.36759 41.4891 1.47656 45.2032 1.47656C48.9174 1.47656 51.8947 4.36759 51.8947 7.89323Z" stroke="#2D9687"/>
<path d="M13.883 25.6784C13.883 29.204 10.9056 32.0951 7.19149 32.0951C3.47734 32.0951 0.5 29.204 0.5 25.6784C0.5 22.1527 3.47734 19.2617 7.19149 19.2617C10.9056 19.2617 13.883 22.1527 13.883 25.6784Z" stroke="#2D9687"/>
<path d="M33.4025 25.6784C33.4025 29.1728 30.2288 32.0951 26.1974 32.0951C22.1659 32.0951 18.9922 29.1728 18.9922 25.6784C18.9922 22.184 22.1659 19.2617 26.1974 19.2617C30.2288 19.2617 33.4025 22.184 33.4025 25.6784Z" stroke="#2D9687"/>
<path d="M51.8947 25.6784C51.8947 29.204 48.9174 32.0951 45.2032 32.0951C41.4891 32.0951 38.5117 29.204 38.5117 25.6784C38.5117 22.1527 41.4891 19.2617 45.2032 19.2617C48.9174 19.2617 51.8947 22.1527 51.8947 25.6784Z" fill="#2D9687" stroke="#2D9687"/>
<path d="M13.883 42.4772C13.883 46.0029 10.9056 48.8939 7.19149 48.8939C3.47734 48.8939 0.5 46.0029 0.5 42.4772C0.5 38.9516 3.47734 36.0605 7.19149 36.0605C10.9056 36.0605 13.883 38.9516 13.883 42.4772Z" stroke="#2D9687"/>
<path d="M33.4025 42.4772C33.4025 45.9716 30.2288 48.8939 26.1974 48.8939C22.1659 48.8939 18.9922 45.9716 18.9922 42.4772C18.9922 38.9828 22.1659 36.0605 26.1974 36.0605C30.2288 36.0605 33.4025 38.9828 33.4025 42.4772Z" fill="#2D9687" stroke="#2D9687"/>
<path d="M51.8947 42.4772C51.8947 46.0029 48.9174 48.8939 45.2032 48.8939C41.4891 48.8939 38.5117 46.0029 38.5117 42.4772C38.5117 38.9516 41.4891 36.0605 45.2032 36.0605C48.9174 36.0605 51.8947 38.9516 51.8947 42.4772Z" fill="#2D9687" stroke="#2D9687"/>
</svg>
