<svg width="18" height="18" viewBox="0 0 18 18" fill="none" xmlns="http://www.w3.org/2000/svg">
<path d="M17.6287 2.16394C18.1238 1.66892 18.1238 0.866305 17.6287 0.371279C17.1337 -0.12376 16.3311 -0.12376 15.8361 0.371279L9.00002 7.20737L2.16394 0.371279C1.66892 -0.12376 0.866305 -0.12376 0.371279 0.371279C-0.12376 0.866305 -0.12376 1.66892 0.371279 2.16394L7.20737 9.00002L0.371279 15.8361C-0.12376 16.3311 -0.12376 17.1337 0.371279 17.6287C0.866305 18.1238 1.66892 18.1238 2.16394 17.6287L9.00002 10.7927L15.8361 17.6287C16.3311 18.1238 17.1337 18.1238 17.6287 17.6287C18.1238 17.1337 18.1238 16.3311 17.6287 15.8361L10.7927 9.00002L17.6287 2.16394Z" fill="#333333"/>
</svg>
