<svg width="71" height="70" viewBox="0 0 71 70" fill="none" xmlns="http://www.w3.org/2000/svg">
<g clip-path="url(#clip0_4_1540)">
<path d="M60.2487 10.2513C53.6382 3.64061 44.8489 0 35.5 0C26.1511 0 17.3618 3.64061 10.7513 10.2513C4.14076 16.862 0.5 25.6511 0.5 35C0.5 44.3489 4.14061 53.1382 10.7513 59.7487C17.362 66.3592 26.1511 70 35.5 70C44.8489 70 53.6382 66.3594 60.2487 59.7487C66.8592 53.138 70.5 44.3489 70.5 35C70.5 25.6511 66.8594 16.8618 60.2487 10.2513ZM58.6452 58.1452C52.4628 64.3274 44.243 67.7322 35.5 67.7322C26.757 67.7322 18.5372 64.3274 12.3548 58.1452C6.17257 51.9628 2.76782 43.743 2.76782 35C2.76782 26.257 6.17257 18.0372 12.3548 11.8548C18.5372 5.67257 26.757 2.26782 35.5 2.26782C44.243 2.26782 52.4628 5.67257 58.6452 11.8548C64.8274 18.0372 68.2322 26.257 68.2322 35C68.2322 43.743 64.8274 51.9628 58.6452 58.1452Z" fill="#DBAA02"/>
<path d="M35.5 4.83801C18.8686 4.83801 5.33801 18.3686 5.33801 35C5.33801 51.6314 18.8686 65.162 35.5 65.162C52.1314 65.162 65.662 51.6314 65.662 35C65.662 18.3686 52.1314 4.83801 35.5 4.83801ZM36.6339 62.8692V57.9806C36.6339 57.3543 36.1262 56.8467 35.5 56.8467C34.8738 56.8467 34.3661 57.3543 34.3661 57.9806V62.8692C19.8853 62.2872 8.21285 50.6147 7.63078 36.1339H12.5194C13.1457 36.1339 13.6533 35.6262 13.6533 35C13.6533 34.3738 13.1457 33.8661 12.5194 33.8661H7.63078C8.21285 19.3853 19.8853 7.71285 34.3661 7.13078V12.0194C34.3661 12.6457 34.8738 13.1533 35.5 13.1533C36.1262 13.1533 36.6339 12.6457 36.6339 12.0194V7.13078C51.1147 7.71285 62.7872 19.3853 63.3692 33.8661H58.4806C57.8543 33.8661 57.3467 34.3738 57.3467 35C57.3467 35.6262 57.8543 36.1339 58.4806 36.1339H63.3692C62.7872 50.6147 51.1147 62.2872 36.6339 62.8692Z" fill="#DBAA02"/>
<path d="M50.763 18.2402L28.9919 27.9162C28.7354 28.0302 28.5302 28.2354 28.4162 28.4919L18.7402 50.263C18.5497 50.6916 18.6428 51.1936 18.9745 51.5253C19.1918 51.7425 19.4818 51.8574 19.7766 51.8574C19.932 51.8574 20.0888 51.8255 20.2368 51.7598L42.0079 42.0837C42.2644 41.9697 42.4696 41.7646 42.5836 41.508L52.2596 19.7369C52.4501 19.3083 52.357 18.8064 52.0253 18.4747C51.6936 18.1428 51.1916 18.0497 50.763 18.2402ZM29.8182 30.9217L31.4283 32.5318C30.9902 33.2521 30.7376 34.0971 30.7376 35C30.7376 37.626 32.874 39.7624 35.5 39.7624C36.4029 39.7624 37.2479 39.5098 37.9681 39.0716L39.5783 40.6818L22.0099 48.4899L29.8182 30.9217ZM35.5 37.4946C34.1245 37.4946 33.0054 36.3755 33.0054 35C33.0054 33.6245 34.1245 32.5054 35.5 32.5054C36.8755 32.5054 37.9946 33.6245 37.9946 35C37.9946 36.3755 36.8755 37.4946 35.5 37.4946ZM41.1818 39.0783L39.5716 37.4681C40.0098 36.7479 40.2624 35.9029 40.2624 35C40.2624 32.374 38.126 30.2376 35.5 30.2376C34.5971 30.2376 33.7521 30.4902 33.0318 30.9283L31.4217 29.3182L48.99 21.5101L41.1818 39.0783Z" fill="#DBAA02"/>
</g>
<defs>
<clipPath id="clip0_4_1540">
<rect width="70" height="70" fill="white" transform="translate(0.5)"/>
</clipPath>
</defs>
</svg>
