<svg width="21" height="27" viewBox="0 0 21 27" fill="none" xmlns="http://www.w3.org/2000/svg">
<path d="M14.265 4.58643H2.07315C0.929156 4.58643 0 5.51558 0 6.65957V24.1524C0 25.2964 0.929156 26.2256 2.07315 26.2256H14.265C15.409 26.2256 16.3381 25.2964 16.3381 24.1524V6.65957C16.3327 5.51558 15.4036 4.58643 14.265 4.58643ZM14.8826 24.147C14.8826 24.4908 14.6033 24.7701 14.2596 24.7701H2.06778C1.72404 24.7701 1.44476 24.4908 1.44476 24.147V6.65957C1.44476 6.31584 1.72404 6.03655 2.06778 6.03655H14.2596C14.6033 6.03655 14.8826 6.31584 14.8826 6.65957V24.147Z" fill="#005DAA"/>
<path d="M18.9271 0H6.73526C5.59127 0 4.66211 0.929156 4.66211 2.07315C4.66211 2.47596 4.98436 2.79821 5.38717 2.79821C5.78999 2.79821 6.11224 2.47596 6.11224 2.07315C6.11224 1.72941 6.39152 1.45013 6.73526 1.45013H18.9271C19.2708 1.45013 19.5501 1.72941 19.5501 2.07315V19.566C19.5501 19.9097 19.2708 20.189 18.9271 20.189C18.5243 20.189 18.202 20.5113 18.202 20.9141C18.202 21.3169 18.5243 21.6391 18.9271 21.6391C20.0711 21.6391 21.0002 20.71 21.0002 19.566V2.07315C21.0002 0.929156 20.0711 0 18.9271 0Z" fill="#005DAA"/>
</svg>
