<svg width="120" height="120" viewBox="0 0 120 120" fill="none" xmlns="http://www.w3.org/2000/svg">
<rect width="120" height="120" fill="#D680AD"/>
<path d="M12.832 21.4023H14.3789C15.1367 21.4023 15.7617 21.2773 16.2539 21.0273C16.7539 20.7695 17.125 20.4219 17.3672 19.9844C17.6172 19.5391 17.7422 19.0391 17.7422 18.4844C17.7422 17.8281 17.6328 17.2773 17.4141 16.832C17.1953 16.3867 16.8672 16.0508 16.4297 15.8242C15.9922 15.5977 15.4375 15.4844 14.7656 15.4844C14.1562 15.4844 13.6172 15.6055 13.1484 15.8477C12.6875 16.082 12.3242 16.418 12.0586 16.8555C11.8008 17.293 11.6719 17.8086 11.6719 18.4023H9.50391C9.50391 17.5352 9.72266 16.7461 10.1602 16.0352C10.5977 15.3242 11.2109 14.7578 12 14.3359C12.7969 13.9141 13.7188 13.7031 14.7656 13.7031C15.7969 13.7031 16.6992 13.8867 17.4727 14.2539C18.2461 14.6133 18.8477 15.1523 19.2773 15.8711C19.707 16.582 19.9219 17.4688 19.9219 18.5312C19.9219 18.9609 19.8203 19.4219 19.6172 19.9141C19.4219 20.3984 19.1133 20.8516 18.6914 21.2734C18.2773 21.6953 17.7383 22.043 17.0742 22.3164C16.4102 22.582 15.6133 22.7148 14.6836 22.7148H12.832V21.4023ZM12.832 23.1836V21.8828H14.6836C15.7695 21.8828 16.668 22.0117 17.3789 22.2695C18.0898 22.5273 18.6484 22.8711 19.0547 23.3008C19.4688 23.7305 19.7578 24.2031 19.9219 24.7188C20.0938 25.2266 20.1797 25.7344 20.1797 26.2422C20.1797 27.0391 20.043 27.7461 19.7695 28.3633C19.5039 28.9805 19.125 29.5039 18.6328 29.9336C18.1484 30.3633 17.5781 30.6875 16.9219 30.9062C16.2656 31.125 15.5508 31.2344 14.7773 31.2344C14.0352 31.2344 13.3359 31.1289 12.6797 30.918C12.0312 30.707 11.457 30.4023 10.957 30.0039C10.457 29.5977 10.0664 29.1016 9.78516 28.5156C9.50391 27.9219 9.36328 27.2461 9.36328 26.4883H11.5312C11.5312 27.082 11.6602 27.6016 11.918 28.0469C12.1836 28.4922 12.5586 28.8398 13.043 29.0898C13.5352 29.332 14.1133 29.4531 14.7773 29.4531C15.4414 29.4531 16.0117 29.3398 16.4883 29.1133C16.9727 28.8789 17.3438 28.5273 17.6016 28.0586C17.8672 27.5898 18 27 18 26.2891C18 25.5781 17.8516 24.9961 17.5547 24.543C17.2578 24.082 16.8359 23.7422 16.2891 23.5234C15.75 23.2969 15.1133 23.1836 14.3789 23.1836H12.832Z" fill="white"/>
<path d="M32.2573 24.3672L34.0996 18.1797H35.8936L33.1704 26H31.9888L32.2573 24.3672ZM30.5601 18.1797L32.397 24.3672L32.6763 26H31.4839L28.7769 18.1797H30.5601ZM39.3955 19.5171L37.2686 26H35.5552L38.4609 18.1797H39.5513L39.3955 19.5171ZM41.1626 26L39.0303 19.5171L38.8584 18.1797H39.9595L42.8813 26H41.1626ZM41.0659 23.0889V24.3511H36.9355V23.0889H41.0659ZM48.6338 24.7432V26H44.6968V24.7432H48.6338ZM45.2178 18.1797V26H43.6064V18.1797H45.2178ZM53.6934 18.1797H55.2993V23.3467C55.2993 23.9482 55.1704 24.4549 54.9126 24.8667C54.6584 25.2785 54.3057 25.5882 53.8545 25.7959C53.4069 26.0036 52.8913 26.1074 52.3076 26.1074C51.724 26.1074 51.2048 26.0036 50.75 25.7959C50.2988 25.5882 49.9443 25.2785 49.6865 24.8667C49.4323 24.4549 49.3052 23.9482 49.3052 23.3467V18.1797H50.9165V23.3467C50.9165 23.6976 50.972 23.984 51.083 24.2061C51.194 24.4281 51.3534 24.591 51.561 24.6948C51.7723 24.7987 52.0212 24.8506 52.3076 24.8506C52.6012 24.8506 52.8501 24.7987 53.0542 24.6948C53.2619 24.591 53.4194 24.4281 53.5269 24.2061C53.6379 23.984 53.6934 23.6976 53.6934 23.3467V18.1797ZM61.8735 24.7432V26H57.7109V24.7432H61.8735ZM58.2373 18.1797V26H56.626V18.1797H58.2373ZM61.3311 21.3647V22.5894H57.7109V21.3647H61.3311ZM61.8682 18.1797V19.4419H57.7109V18.1797H61.8682ZM70.0859 23.4058H71.6919C71.6597 23.9321 71.5146 24.3994 71.2568 24.8076C71.0026 25.2158 70.6463 25.5345 70.188 25.7637C69.7332 25.9928 69.1854 26.1074 68.5444 26.1074C68.0431 26.1074 67.5938 26.0215 67.1963 25.8496C66.7988 25.6742 66.4587 25.4235 66.1758 25.0977C65.8965 24.7718 65.6834 24.3779 65.5366 23.916C65.3898 23.4541 65.3164 22.9367 65.3164 22.3638V21.8213C65.3164 21.2484 65.3916 20.731 65.542 20.269C65.696 19.8035 65.9144 19.4079 66.1973 19.082C66.4837 18.7562 66.8257 18.5055 67.2231 18.3301C67.6206 18.1546 68.0646 18.0669 68.5552 18.0669C69.2069 18.0669 69.7565 18.1851 70.2041 18.4214C70.6553 18.6577 71.0044 18.9836 71.2515 19.3989C71.5021 19.8143 71.6525 20.2869 71.7026 20.8169H70.0913C70.0734 20.5018 70.0107 20.235 69.9033 20.0166C69.7959 19.7946 69.633 19.6281 69.4146 19.5171C69.1997 19.4025 68.9132 19.3452 68.5552 19.3452C68.2866 19.3452 68.0521 19.3953 67.8516 19.4956C67.651 19.5959 67.4827 19.748 67.3467 19.9521C67.2106 20.1562 67.1086 20.4141 67.0405 20.7256C66.9761 21.0335 66.9438 21.3952 66.9438 21.8105V22.3638C66.9438 22.7684 66.9743 23.1247 67.0352 23.4326C67.096 23.737 67.1891 23.9948 67.3145 24.2061C67.4434 24.4137 67.6081 24.5713 67.8086 24.6787C68.0127 24.7826 68.258 24.8345 68.5444 24.8345C68.881 24.8345 69.1585 24.7808 69.377 24.6733C69.5954 24.5659 69.7619 24.4066 69.8765 24.1953C69.9946 23.984 70.0645 23.7209 70.0859 23.4058ZM77.9653 21.3647V22.6216H73.8833V21.3647H77.9653ZM74.3613 18.1797V26H72.75V18.1797H74.3613ZM79.1147 18.1797V26H77.5088V18.1797H79.1147ZM83.793 19.5171L81.666 26H79.9526L82.8584 18.1797H83.9487L83.793 19.5171ZM85.5601 26L83.4277 19.5171L83.2559 18.1797H84.3569L87.2788 26H85.5601ZM85.4634 23.0889V24.3511H81.333V23.0889H85.4634ZM89.7173 18.1797V26H88.1113V18.1797H89.7173ZM97.5913 18.1797V26H95.98L92.8379 20.7578V26H91.2266V18.1797H92.8379L95.9854 23.4272V18.1797H97.5913ZM103.064 23.9536C103.064 23.814 103.043 23.6886 103 23.5776C102.961 23.4631 102.885 23.3592 102.774 23.2661C102.663 23.1694 102.508 23.0745 102.307 22.9814C102.107 22.8883 101.847 22.7917 101.528 22.6914C101.174 22.5768 100.837 22.4479 100.519 22.3047C100.203 22.1615 99.9242 21.995 99.6807 21.8052C99.4408 21.6118 99.251 21.388 99.1113 21.1338C98.9753 20.8796 98.9072 20.5841 98.9072 20.2476C98.9072 19.9217 98.9788 19.6263 99.1221 19.3613C99.2653 19.0928 99.4658 18.8636 99.7236 18.6738C99.9814 18.4805 100.286 18.3319 100.637 18.228C100.991 18.1242 101.38 18.0723 101.802 18.0723C102.379 18.0723 102.882 18.1761 103.312 18.3838C103.741 18.5915 104.074 18.8761 104.311 19.2378C104.55 19.5994 104.67 20.013 104.67 20.4785H103.07C103.07 20.2493 103.021 20.0488 102.925 19.877C102.832 19.7015 102.688 19.5636 102.495 19.4634C102.305 19.3631 102.065 19.313 101.775 19.313C101.496 19.313 101.263 19.356 101.077 19.4419C100.891 19.5243 100.751 19.637 100.658 19.7803C100.565 19.9199 100.519 20.0775 100.519 20.2529C100.519 20.3854 100.551 20.5054 100.615 20.6128C100.683 20.7202 100.784 20.8205 100.916 20.9136C101.049 21.0067 101.211 21.0944 101.405 21.1768C101.598 21.2591 101.822 21.3397 102.076 21.4185C102.502 21.5474 102.876 21.6924 103.199 21.8535C103.525 22.0146 103.797 22.1955 104.015 22.396C104.234 22.5965 104.398 22.8239 104.509 23.0781C104.62 23.3324 104.676 23.6206 104.676 23.9429C104.676 24.283 104.61 24.5874 104.477 24.856C104.345 25.1245 104.153 25.3519 103.902 25.5381C103.652 25.7243 103.353 25.8657 103.005 25.9624C102.658 26.0591 102.27 26.1074 101.84 26.1074C101.453 26.1074 101.072 26.0573 100.696 25.957C100.32 25.8532 99.9779 25.6974 99.6699 25.4897C99.3656 25.2821 99.1221 25.0171 98.9395 24.6948C98.7568 24.3726 98.6655 23.9912 98.6655 23.5508H100.282C100.282 23.7943 100.32 24.0002 100.395 24.1685C100.47 24.3368 100.576 24.4728 100.712 24.5767C100.852 24.6805 101.016 24.7557 101.206 24.8022C101.399 24.8488 101.611 24.8721 101.84 24.8721C102.119 24.8721 102.348 24.8327 102.527 24.7539C102.71 24.6751 102.844 24.5659 102.93 24.4263C103.02 24.2866 103.064 24.1291 103.064 23.9536Z" fill="white"/>
<path d="M67.3635 74C67.3635 81.6566 66.3544 88.5475 64.7497 93.4902C63.9455 95.967 63.0094 97.899 62.0179 99.1907C61.0153 100.497 60.0785 101 59.2725 101C58.4666 101 57.5298 100.497 56.5272 99.1907C55.5357 97.899 54.5996 95.967 53.7954 93.4902C52.1907 88.5475 51.1816 81.6566 51.1816 74C51.1816 66.3434 52.1907 59.4525 53.7954 54.5098C54.5996 52.033 55.5357 50.101 56.5272 48.8093C57.5298 47.5032 58.4666 47 59.2725 47C60.0785 47 61.0153 47.5032 62.0179 48.8093C63.0094 50.101 63.9455 52.033 64.7497 54.5098C66.3544 59.4525 67.3635 66.3434 67.3635 74Z" stroke="white" stroke-width="2"/>
<line x1="34.9102" y1="64.6367" x2="86.5465" y2="64.6367" stroke="white" stroke-width="2"/>
<line x1="34.9102" y1="64.6367" x2="86.5465" y2="64.6367" stroke="white" stroke-width="2"/>
<circle cx="51.6364" cy="64.9098" r="2.63636" fill="#D680AD" stroke="white" stroke-width="2"/>
<line x1="34.9082" y1="82.0918" x2="86.5446" y2="82.0918" stroke="white" stroke-width="2"/>
<circle cx="66.9098" cy="82.3629" r="2.63636" fill="#D680AD" stroke="white" stroke-width="2"/>
<path fill-rule="evenodd" clip-rule="evenodd" d="M86 74C86 88.3594 74.3594 100 60 100C45.6406 100 34 88.3594 34 74C34 67.6616 36.2681 61.8529 40.037 57.3413L38.4879 56.076C34.4372 60.9324 32 67.1816 32 74C32 89.464 44.536 102 60 102C75.464 102 88 89.464 88 74C88 58.536 75.464 46 60 46C53.5988 46 47.6993 48.148 42.983 51.7626L44.1531 53.3859C48.54 50.0084 54.0355 48 60 48C74.3594 48 86 59.6406 86 74ZM42.477 54.7918L41.3002 53.1593C40.8363 53.5759 40.3863 54.0077 39.9511 54.4541L41.5066 55.7245C41.822 55.4054 42.1456 55.0944 42.477 54.7918Z" fill="white"/>
<circle cx="78.5446" cy="54.7282" r="2.63636" fill="#D680AD" stroke="white" stroke-width="2"/>
<circle cx="39.9996" cy="91.818" r="2.63636" fill="#D680AD" stroke="white" stroke-width="2"/>
</svg>
