<svg width="120" height="120" viewBox="0 0 120 120" fill="none" xmlns="http://www.w3.org/2000/svg">
<rect width="120" height="120" fill="#C0BA80"/>
<path d="M11.7734 21.6094L12.7578 12.9375H22.3203V15.7617H15.5352L15.1133 19.4297C15.918 19 16.7734 18.7852 17.6797 18.7852C19.3047 18.7852 20.5781 19.2891 21.5 20.2969C22.4219 21.3047 22.8828 22.7148 22.8828 24.5273C22.8828 25.6289 22.6484 26.6172 22.1797 27.4922C21.7188 28.3594 21.0547 29.0352 20.1875 29.5195C19.3203 29.9961 18.2969 30.2344 17.1172 30.2344C16.0859 30.2344 15.1289 30.0273 14.2461 29.6133C13.3633 29.1914 12.6641 28.6016 12.1484 27.8438C11.6406 27.0859 11.3711 26.2227 11.3398 25.2539H14.6914C14.7617 25.9648 15.0078 26.5195 15.4297 26.918C15.8594 27.3086 16.418 27.5039 17.1055 27.5039C17.8711 27.5039 18.4609 27.2305 18.875 26.6836C19.2891 26.1289 19.4961 25.3477 19.4961 24.3398C19.4961 23.3711 19.2578 22.6289 18.7812 22.1133C18.3047 21.5977 17.6289 21.3398 16.7539 21.3398C15.9492 21.3398 15.2969 21.5508 14.7969 21.9727L14.4688 22.2773L11.7734 21.6094Z" fill="white"/>
<path d="M36.2397 12.1797L38.7964 18.5605L41.353 12.1797H42.6904V20H41.6592V16.9546L41.7559 13.6675L39.1885 20H38.3989L35.8369 13.6836L35.939 16.9546V20H34.9077V12.1797H36.2397ZM50.5269 16.3423C50.5269 17.1086 50.3979 17.7782 50.1401 18.3511C49.8823 18.9204 49.5171 19.3555 49.0444 19.6562C48.5718 19.957 48.0203 20.1074 47.3901 20.1074C46.7743 20.1074 46.2282 19.957 45.752 19.6562C45.2757 19.3519 44.9051 18.9204 44.6401 18.3618C44.3787 17.7996 44.2445 17.1497 44.2373 16.4121V15.8481C44.2373 15.0962 44.368 14.432 44.6294 13.8555C44.8908 13.279 45.2596 12.8385 45.7358 12.5342C46.2157 12.2262 46.7635 12.0723 47.3794 12.0723C48.006 12.0723 48.5575 12.2244 49.0337 12.5288C49.5135 12.8296 49.8823 13.2682 50.1401 13.8447C50.3979 14.4176 50.5269 15.0854 50.5269 15.8481V16.3423ZM49.501 15.8374C49.501 14.91 49.3148 14.1992 48.9424 13.7051C48.57 13.2074 48.049 12.9585 47.3794 12.9585C46.7277 12.9585 46.2139 13.2074 45.8379 13.7051C45.4655 14.1992 45.2739 14.8867 45.2632 15.7676V16.3423C45.2632 17.241 45.4512 17.9482 45.8271 18.4639C46.2067 18.9759 46.7277 19.2319 47.3901 19.2319C48.0562 19.2319 48.5718 18.9902 48.937 18.5068C49.3022 18.0199 49.4902 17.3234 49.501 16.4175V15.8374ZM54.5444 18.6304L56.7788 12.1797H57.9067L55.0063 20H54.0933L51.1982 12.1797H52.3208L54.5444 18.6304ZM63.3799 16.3853H59.9907V19.1567H63.9277V20H58.9595V12.1797H63.874V13.0283H59.9907V15.542H63.3799V16.3853ZM66.5435 12.1797L69.1001 18.5605L71.6567 12.1797H72.9941V20H71.9629V16.9546L72.0596 13.6675L69.4922 20H68.7026L66.1406 13.6836L66.2427 16.9546V20H65.2114V12.1797H66.5435ZM79.2354 16.3853H75.8462V19.1567H79.7832V20H74.8149V12.1797H79.7295V13.0283H75.8462V15.542H79.2354V16.3853ZM87.0771 20H86.0405L82.1035 13.9736V20H81.0669V12.1797H82.1035L86.0513 18.2329V12.1797H87.0771V20ZM94.1509 13.0283H91.6372V20H90.6113V13.0283H88.103V12.1797H94.1509V13.0283ZM103.84 16.3423C103.84 17.1086 103.711 17.7782 103.454 18.3511C103.196 18.9204 102.831 19.3555 102.358 19.6562C101.885 19.957 101.334 20.1074 100.704 20.1074C100.088 20.1074 99.5417 19.957 99.0654 19.6562C98.5892 19.3519 98.2186 18.9204 97.9536 18.3618C97.6922 17.7996 97.5579 17.1497 97.5508 16.4121V15.8481C97.5508 15.0962 97.6815 14.432 97.9429 13.8555C98.2043 13.279 98.5731 12.8385 99.0493 12.5342C99.5291 12.2262 100.077 12.0723 100.693 12.0723C101.319 12.0723 101.871 12.2244 102.347 12.5288C102.827 12.8296 103.196 13.2682 103.454 13.8447C103.711 14.4176 103.84 15.0854 103.84 15.8481V16.3423ZM102.814 15.8374C102.814 14.91 102.628 14.1992 102.256 13.7051C101.883 13.2074 101.362 12.9585 100.693 12.9585C100.041 12.9585 99.5273 13.2074 99.1514 13.7051C98.779 14.1992 98.5874 14.8867 98.5767 15.7676V16.3423C98.5767 17.241 98.7646 17.9482 99.1406 18.4639C99.5202 18.9759 100.041 19.2319 100.704 19.2319C101.37 19.2319 101.885 18.9902 102.25 18.5068C102.616 18.0199 102.804 17.3234 102.814 16.4175V15.8374ZM109.7 16.5464H106.418V20H105.387V12.1797H110.232V13.0283H106.418V15.7031H109.7V16.5464ZM35.939 29.9385V33H34.9077V25.1797H37.792C38.6478 25.1797 39.3174 25.3981 39.8008 25.835C40.2878 26.2718 40.5312 26.8501 40.5312 27.5698C40.5312 28.3289 40.2931 28.9144 39.8169 29.3262C39.3442 29.7344 38.6657 29.9385 37.7812 29.9385H35.939ZM35.939 29.0952H37.792C38.3434 29.0952 38.766 28.9663 39.0596 28.7085C39.3532 28.4471 39.5 28.0711 39.5 27.5806C39.5 27.1151 39.3532 26.7427 39.0596 26.4634C38.766 26.1841 38.3631 26.0391 37.8511 26.0283H35.939V29.0952ZM46.2676 29.3853H42.8784V32.1567H46.8154V33H41.8472V25.1797H46.7617V26.0283H42.8784V28.542H46.2676V29.3853ZM54.1147 29.3423C54.1147 30.1086 53.9858 30.7782 53.728 31.3511C53.4702 31.9204 53.105 32.3555 52.6323 32.6562C52.1597 32.957 51.6082 33.1074 50.978 33.1074C50.3621 33.1074 49.8161 32.957 49.3398 32.6562C48.8636 32.3519 48.493 31.9204 48.228 31.3618C47.9666 30.7996 47.8324 30.1497 47.8252 29.4121V28.8481C47.8252 28.0962 47.9559 27.432 48.2173 26.8555C48.4787 26.279 48.8475 25.8385 49.3237 25.5342C49.8035 25.2262 50.3514 25.0723 50.9673 25.0723C51.5939 25.0723 52.1453 25.2244 52.6216 25.5288C53.1014 25.8296 53.4702 26.2682 53.728 26.8447C53.9858 27.4176 54.1147 28.0854 54.1147 28.8481V29.3423ZM53.0889 28.8374C53.0889 27.91 52.9027 27.1992 52.5303 26.7051C52.1579 26.2074 51.6369 25.9585 50.9673 25.9585C50.3156 25.9585 49.8018 26.2074 49.4258 26.7051C49.0534 27.1992 48.8618 27.8867 48.8511 28.7676V29.3423C48.8511 30.241 49.0391 30.9482 49.415 31.4639C49.7946 31.9759 50.3156 32.2319 50.978 32.2319C51.644 32.2319 52.1597 31.9902 52.5249 31.5068C52.8901 31.0199 53.0781 30.3234 53.0889 29.4175V28.8374ZM56.6929 29.9385V33H55.6616V25.1797H58.5459C59.4017 25.1797 60.0713 25.3981 60.5547 25.835C61.0417 26.2718 61.2852 26.8501 61.2852 27.5698C61.2852 28.3289 61.047 28.9144 60.5708 29.3262C60.0981 29.7344 59.4196 29.9385 58.5352 29.9385H56.6929ZM56.6929 29.0952H58.5459C59.0973 29.0952 59.5199 28.9663 59.8135 28.7085C60.1071 28.4471 60.2539 28.0711 60.2539 27.5806C60.2539 27.1151 60.1071 26.7427 59.8135 26.4634C59.5199 26.1841 59.117 26.0391 58.605 26.0283H56.6929V29.0952ZM63.6377 32.1567H67.3438V33H62.6011V25.1797H63.6377V32.1567ZM72.9404 29.3853H69.5513V32.1567H73.4883V33H68.52V25.1797H73.4346V26.0283H69.5513V28.542H72.9404V29.3853Z" fill="white"/>
<path d="M83.8236 52.2896C82.2215 51.8596 80.6212 51.4316 79.0224 51.0057C72.9903 49.3872 66.9581 47.7684 60.9259 46.1491C58.7457 45.5681 56.6418 46.7265 56.009 48.9018C55.3578 51.1423 54.7841 53.4038 54.1858 55.659C53.8928 56.767 53.9015 56.767 52.7714 56.767H52.2186C45.8877 56.767 39.5564 56.767 33.2246 56.767C32.5759 56.767 32.017 56.9357 31.5602 57.4096C31.1035 57.8836 31.0186 58.4486 31.0198 59.0678C31.0247 65.6154 31.0247 72.1626 31.0198 78.7094C31.0198 85.2414 31.0481 91.7746 31.0001 98.3054C30.989 99.8947 31.8815 100.804 33.5065 100.793C40.8818 100.743 48.2583 100.771 55.6348 100.771C55.8798 100.762 56.125 100.786 56.3636 100.843C60.8693 102.054 65.3753 103.261 69.8818 104.464C72.2873 105.107 74.39 103.892 75.0313 101.494C75.9226 98.1576 76.8151 94.8215 77.7089 91.4853C79.37 85.2882 81.0303 79.0918 82.6898 72.8963C84.0686 67.7521 85.4477 62.6076 86.8273 57.4626C87.4749 55.0263 86.2635 52.9458 83.8236 52.2896ZM33.6149 98.7793C33.0141 98.7793 33.0129 98.7793 33.0129 98.1921V78.7832C33.0129 72.2997 33.01 65.8161 33.0043 59.3325C33.0043 58.9017 33.0978 58.7625 33.5533 58.7625C43.2639 58.7757 52.9749 58.7794 62.6863 58.7736C64.2534 58.7736 65.0081 59.527 65.0081 61.0868C65.0081 72.8746 65.0138 84.6615 65.0253 96.4477C65.0253 97.9804 63.9974 98.8039 62.6555 98.799C52.977 98.7658 43.2947 98.7793 33.6149 98.7793ZM84.9167 56.8002C83.716 61.3248 82.5076 65.8473 81.2913 70.3677C79.0549 78.7307 76.8184 87.0933 74.582 95.4555C74.0896 97.3094 73.5922 99.1622 73.09 101.014C72.76 102.234 71.7838 102.871 70.5687 102.565C68.3664 102.01 66.18 101.397 63.9863 100.806C63.91 100.776 63.8356 100.741 63.7635 100.702C65.8674 100.151 67.0221 98.6587 67.0233 96.5252C67.0233 91.5148 67.0233 86.5044 67.0233 81.494C67.0233 80.9056 67.0381 80.8662 67.5687 81.0656C67.9872 81.2232 68.0857 81.0656 68.1743 80.7062C68.4206 79.7078 68.6926 78.7155 68.9708 77.7258C69.0546 77.4279 69.0004 77.2703 68.6803 77.2087C68.1719 77.1102 67.6955 76.8874 67.1637 76.8714C67.0602 76.8714 67.0307 76.8505 67.0282 76.7618C67.0258 76.6732 67.0282 76.5464 67.0282 76.4393C67.0282 71.5971 67.0254 66.755 67.0196 61.9128C67.0196 61.4844 67.1058 61.4524 67.5268 61.5017C68.7185 61.6408 69.27 62.2477 69.5531 63.4258C70.0259 65.3955 70.7066 67.3086 71.2877 69.2487C71.3751 69.5417 71.5019 69.73 71.8257 69.7793C72.1137 69.8269 72.3968 69.9006 72.6714 69.9996C73.0099 70.1227 73.0998 70.0156 73.0887 69.671C73.0383 68.0706 73.0075 66.4702 72.9656 64.8784C72.9533 64.3712 72.9509 63.8628 72.9225 63.3569C72.9041 63.0429 73.0284 62.9875 73.3042 63.0651C74.0592 63.2744 74.8155 63.4763 75.573 63.6708C75.6691 63.6955 75.7584 63.7415 75.8343 63.8055C75.9101 63.8694 75.9706 63.9496 76.0113 64.0401C76.3018 64.5805 76.6477 65.0939 76.9075 65.6491C77.1537 66.1747 77.6461 66.1415 78.0684 66.2462C78.285 66.3028 78.2222 66.0763 78.2161 65.9519C78.173 65.201 78.1435 64.4476 78.0696 63.6979C78.028 63.3474 78.1237 62.9944 78.3367 62.713C78.7627 62.111 79.1418 61.482 79.5678 60.8738C79.782 60.5697 79.697 60.5156 79.3745 60.3999C79.1564 60.3087 78.9175 60.2791 78.6837 60.3142C78.45 60.3494 78.2303 60.448 78.0487 60.5993C77.9022 60.7088 77.7151 60.7679 77.5772 60.8861C76.8385 61.5152 76.0396 61.5915 75.1544 61.2136C74.766 61.0677 74.3651 60.9577 73.9566 60.8849C73.6353 60.8123 73.5159 60.7384 73.7351 60.3925C74.8135 58.6579 75.8635 56.9061 76.9235 55.1605C77.2251 54.668 77.2029 54.7161 76.6945 54.5031C75.8734 54.1596 75.3169 54.38 74.694 55.0041C73.1651 56.5368 71.5388 57.9734 69.9631 59.4593C69.8784 59.5554 69.7668 59.6237 69.6427 59.6554C69.5186 59.687 69.3879 59.6805 69.2675 59.6366C68.4723 59.4052 67.6672 59.1934 66.867 58.9915C66.7637 58.9698 66.6659 58.9271 66.5797 58.8661C66.4936 58.8051 66.4208 58.7272 66.3659 58.637C65.5682 57.4059 64.4319 56.7805 62.9682 56.7732C60.8175 56.7645 58.6595 56.7732 56.5138 56.7732H55.9561C56.2639 55.6283 56.5581 54.5339 56.8511 53.4407C57.1896 52.1813 57.5257 50.9195 57.8679 49.6601C58.2249 48.3453 59.2147 47.7754 60.5393 48.1287C65.3889 49.4213 70.2368 50.7164 75.0831 52.0139C77.8554 52.7525 80.6265 53.499 83.3964 54.2532C84.6275 54.577 85.243 55.5704 84.9167 56.799V56.8002Z" fill="white"/>
<path d="M48.9909 62.7685C47.4125 62.7709 45.85 63.0851 44.3933 63.6931C42.9366 64.3011 41.6143 65.1908 40.5025 66.3113C39.3906 67.4317 38.511 68.7608 37.9143 70.2221C37.3175 71.6834 37.0153 73.2483 37.0251 74.8267C37.0381 78.0063 38.3129 81.0507 40.5692 83.2909C42.8256 85.5311 45.8791 86.784 49.0587 86.7741C52.2387 86.7592 55.2829 85.4832 57.5233 83.2262C59.7636 80.9693 61.017 77.9157 61.0085 74.7356C61.001 71.5553 59.7309 68.5081 57.4773 66.264C55.2238 64.0199 52.1713 62.7626 48.9909 62.7685ZM46.5891 69.8963C47.0176 68.2049 47.6208 66.5873 48.5391 65.0952C48.8235 64.636 49.2113 64.6336 49.4895 65.0854C50.4042 66.5774 51.0087 68.1962 51.442 69.8865C51.5232 70.2029 51.4247 70.2878 51.1108 70.2792C50.4202 70.2595 49.7296 70.273 49.0377 70.273C48.3459 70.273 47.6245 70.2657 46.9178 70.273C46.6335 70.2817 46.4981 70.2546 46.5891 69.8963ZM40.3108 69.9456C41.5902 67.7067 43.4475 66.1675 45.8825 65.3279C45.9687 65.3084 46.0558 65.2936 46.1435 65.2836C45.566 66.4668 45.1058 67.7037 44.7696 68.9767C44.7586 69.0211 44.7401 69.0641 44.7278 69.1085C44.6232 69.4778 44.6872 69.964 44.4126 70.1881C44.1381 70.4122 43.6469 70.262 43.2542 70.2669C42.3482 70.2792 41.4433 70.2669 40.5373 70.273C40.28 70.2767 40.1322 70.2484 40.3058 69.9456H40.3108ZM39.2927 76.9503C38.9523 75.5276 38.9523 74.0446 39.2927 72.6219C39.3579 72.3412 39.4786 72.2526 39.7592 72.2526C41.0937 72.2649 42.4282 72.2649 43.7626 72.2526C44.0556 72.2526 44.1812 72.3215 44.1443 72.6416C43.9805 74.0604 43.9805 75.4933 44.1443 76.9121C44.1775 77.2051 44.0679 77.2815 43.791 77.2815C43.1016 77.2667 42.4109 77.2815 41.7203 77.2815C41.0605 77.2815 40.4006 77.2741 39.742 77.2815C39.4823 77.2839 39.353 77.2248 39.2878 76.9503H39.2927ZM41.9825 81.8068C41.3301 81.1558 40.7705 80.418 40.3194 79.6143C40.1803 79.3681 40.1963 79.2598 40.5102 79.261C41.7228 79.2684 42.9354 79.261 44.1467 79.261C44.3326 79.261 44.4767 79.2844 44.5161 79.5072C44.8621 81.164 45.4116 82.7716 46.1521 84.2936C44.5783 83.8215 43.1459 82.9671 41.9825 81.8068ZM51.4383 79.6439C51.0062 81.3329 50.3993 82.9505 49.4895 84.445C49.2273 84.8746 48.8174 84.8832 48.5564 84.461C47.6195 82.9455 47.0077 81.2984 46.5768 79.5761C46.5079 79.2992 46.6224 79.2598 46.8514 79.2622C47.5728 79.2684 48.2942 79.2622 49.0168 79.2622C49.7394 79.2622 50.4301 79.2721 51.1355 79.2622C51.4432 79.2573 51.5085 79.3743 51.4383 79.6488V79.6439ZM51.4481 77.2753C50.6344 77.2593 49.8194 77.2753 49.0057 77.2753C48.192 77.2753 47.3475 77.2667 46.5178 77.2753C46.2715 77.2753 46.1755 77.2137 46.1484 76.9528C45.9865 75.5013 45.9865 74.0364 46.1484 72.585C46.1755 72.3326 46.2715 72.2501 46.5178 72.2526C48.1764 72.2608 49.835 72.2608 51.4937 72.2526C51.7928 72.2526 51.8827 72.3621 51.9098 72.6502C52.0403 74.058 52.0403 75.4748 51.9098 76.8826C51.8778 77.2137 51.746 77.2864 51.4481 77.2802V77.2753ZM57.6625 79.7005C56.6317 81.4998 55.0647 82.9321 53.1802 83.7974C52.7684 84.0105 52.3294 84.1663 51.8753 84.2603C52.6213 82.7508 53.1703 81.1517 53.5089 79.5023C53.5631 79.2413 53.7478 79.2647 53.9312 79.2647C55.0995 79.2647 56.2702 79.277 57.4348 79.2573C57.8829 79.2548 57.8386 79.4075 57.6625 79.7054V79.7005ZM58.7446 72.5936C59.0893 74.0179 59.0893 75.5038 58.7446 76.9281C58.6769 77.2162 58.5366 77.2827 58.2657 77.2753C57.5899 77.2593 56.9116 77.2753 56.2382 77.2753C55.5648 77.2753 54.9173 77.2642 54.2562 77.2753C53.9644 77.2827 53.8475 77.2187 53.8869 76.8875C54.0469 75.4821 54.0469 74.063 53.8869 72.6576C53.8549 72.3597 53.9201 72.2464 54.2414 72.2501C55.5931 72.2649 56.9448 72.2649 58.2965 72.2501C58.5772 72.2514 58.6843 72.3498 58.7446 72.5985V72.5936ZM57.4397 70.2755C56.2739 70.2558 55.1081 70.2669 53.9423 70.2693C53.733 70.2693 53.5606 70.2693 53.5052 69.9911C53.1822 68.4142 52.6627 66.884 51.959 65.4362C51.9458 65.3789 51.94 65.3202 51.9418 65.2614C53.1826 65.6338 54.3359 66.2517 55.3334 67.0784C56.2722 67.8503 57.0644 68.7848 57.6724 69.8372C57.841 70.1376 57.8866 70.2878 57.4397 70.2804V70.2755Z" fill="white"/>
<path d="M58.5389 92.7558C55.3738 92.7718 52.21 92.7644 49.0462 92.7644H39.6901C39.0081 92.7644 39.0081 92.7644 39.0081 93.4686C39.0261 93.7144 39.0261 93.9613 39.0081 94.2072C38.9343 94.6996 39.1509 94.7846 39.599 94.7833C45.8971 94.7694 52.1948 94.7665 58.4921 94.7747C58.5536 94.771 58.6153 94.771 58.6767 94.7747C58.9328 94.808 59.0338 94.7082 59.0215 94.4423C58.9962 94.0435 58.9962 93.6434 59.0215 93.2445C59.0498 92.8616 58.9267 92.7533 58.5389 92.7558Z" fill="white"/>
<path d="M72.4167 86.4957C72.0699 86.4312 71.7292 86.3368 71.3986 86.2138C70.9862 86.055 70.8274 86.1818 70.7179 86.6004C70.0383 89.2114 69.3341 91.8151 68.6374 94.4225C68.2053 96.0364 67.7756 97.6528 67.3386 99.2642C67.282 99.4723 67.2598 99.62 67.5134 99.684C67.9886 99.8071 68.4613 99.9364 68.9353 100.063C69.2566 100.159 69.2443 99.8859 69.2898 99.716C69.6715 98.3114 70.0395 96.9018 70.4162 95.4947C71.1709 92.6633 71.923 89.8319 72.6925 87.0091C72.7749 86.7038 72.7454 86.561 72.4167 86.4957Z" fill="white"/>
<path d="M74.5957 78.803C74.1353 78.6799 73.6785 78.5568 73.2206 78.4337C73.0236 78.3808 72.9116 78.4337 72.8512 78.6529C72.5669 79.751 72.269 80.8454 71.9748 81.941C71.9366 82.0814 71.9033 82.2303 72.088 82.282C72.5903 82.4224 73.095 82.5504 73.5985 82.6833C73.8817 82.7584 73.8866 82.543 73.9334 82.367C74.2153 81.3156 74.4935 80.2643 74.7852 79.2155C74.8493 78.9976 74.8382 78.8646 74.5957 78.803Z" fill="white"/>
<path d="M70.0887 74.2322C70.2118 73.7558 70.3349 73.2818 70.458 72.8066C70.4937 72.6688 70.4704 72.5604 70.3177 72.5186C69.8142 72.3831 69.3107 72.2514 68.8626 72.1332C68.6435 72.0963 68.5844 72.201 68.5511 72.3278C68.428 72.8017 68.3049 73.2769 68.1818 73.7521C68.1326 73.938 68.1953 74.0303 68.3898 74.0771C68.8379 74.1821 69.2824 74.3003 69.7231 74.4316C69.9299 74.4956 70.037 74.4366 70.0887 74.2322Z" fill="white"/>
<path d="M72.1714 75.09C72.6183 75.1946 73.0627 75.3128 73.5059 75.4359C73.7041 75.4913 73.8321 75.4568 73.8863 75.2402C74.0094 74.765 74.1325 74.2898 74.2642 73.7629C74.306 73.6398 74.2285 73.5499 74.0672 73.5081C73.608 73.385 73.1464 73.2717 72.6909 73.1388C72.4668 73.0735 72.3831 73.1782 72.3339 73.3677C72.2194 73.8134 72.1 74.2578 71.9806 74.7022C71.935 74.8943 71.935 75.0358 72.1714 75.09Z" fill="white"/>
<path d="M77.863 74.5188C77.3853 74.4018 76.9126 74.2726 76.3155 74.1076C76.2047 74.0621 76.1764 74.2418 76.1358 74.3871C76.0127 74.8302 75.9068 75.2783 75.7763 75.7203C75.7062 75.9591 75.7997 76.0576 76.0225 76.1105C76.4546 76.2139 76.8843 76.3247 77.3139 76.4466C77.522 76.5057 77.6365 76.4466 77.6832 76.241C77.7977 75.7794 77.9135 75.3177 78.0378 74.8586C78.0907 74.68 78.0685 74.5705 77.863 74.5188Z" fill="white"/>
</svg>
