<svg width="120" height="120" viewBox="0 0 120 120" fill="none" xmlns="http://www.w3.org/2000/svg">
<rect width="120" height="120" fill="#88643A"/>
<path d="M15.2891 23.5781H17.2227V26.3086H15.2891V30H11.9023V26.3086H4.90625L4.75391 24.1758L11.8672 12.9375H15.2891V23.5781ZM8.12891 23.5781H11.9023V17.5547L11.6797 17.9414L8.12891 23.5781Z" fill="white"/>
<path d="M23.0142 25H21.9829V17.1797H23.0142V25ZM30.915 25H29.8784L25.9414 18.9736V25H24.9048V17.1797H25.9414L29.8892 23.2329V17.1797H30.915V25ZM37.0596 21.5464H33.7778V25H32.7466V17.1797H37.5913V18.0283H33.7778V20.7031H37.0596V21.5464ZM41.6948 21.8364H39.8579V25H38.8213V17.1797H41.4102C42.291 17.1797 42.9678 17.3802 43.4404 17.7812C43.9167 18.1823 44.1548 18.766 44.1548 19.5322C44.1548 20.0192 44.0223 20.4435 43.7573 20.8052C43.4959 21.1668 43.1307 21.4372 42.6616 21.6162L44.4985 24.9355V25H43.3921L41.6948 21.8364ZM39.8579 20.9932H41.4424C41.9544 20.9932 42.3608 20.8607 42.6616 20.5957C42.966 20.3307 43.1182 19.9762 43.1182 19.5322C43.1182 19.0488 42.9731 18.6782 42.6831 18.4204C42.3966 18.1626 41.9813 18.0319 41.437 18.0283H39.8579V20.9932ZM49.9233 22.959H46.647L45.9111 25H44.8477L47.834 17.1797H48.7363L51.728 25H50.6699L49.9233 22.959ZM46.9585 22.1104H49.6172L48.2852 18.4526L46.9585 22.1104ZM55.085 21.5142C54.2005 21.2599 53.556 20.9484 53.1514 20.5796C52.7503 20.2072 52.5498 19.7489 52.5498 19.2046C52.5498 18.5887 52.7951 18.0802 53.2856 17.6792C53.7798 17.2746 54.4207 17.0723 55.2085 17.0723C55.7456 17.0723 56.2236 17.1761 56.6426 17.3838C57.0651 17.5915 57.391 17.8779 57.6201 18.2432C57.8529 18.6084 57.9692 19.0076 57.9692 19.4409H56.9326C56.9326 18.9683 56.7822 18.5977 56.4814 18.3291C56.1807 18.057 55.7563 17.9209 55.2085 17.9209C54.7 17.9209 54.3026 18.0337 54.0161 18.2593C53.7332 18.4813 53.5918 18.791 53.5918 19.1885C53.5918 19.5072 53.7261 19.7775 53.9946 19.9995C54.2668 20.2179 54.7269 20.4185 55.375 20.6011C56.0267 20.7837 56.5352 20.986 56.9004 21.208C57.2692 21.4264 57.5413 21.6825 57.7168 21.9761C57.8958 22.2697 57.9854 22.6152 57.9854 23.0127C57.9854 23.6465 57.7383 24.1549 57.2441 24.5381C56.75 24.9176 56.0894 25.1074 55.2622 25.1074C54.7251 25.1074 54.2238 25.0054 53.7583 24.8013C53.2928 24.5936 52.9329 24.3107 52.6787 23.9526C52.4281 23.5946 52.3027 23.1882 52.3027 22.7334H53.3394C53.3394 23.2061 53.513 23.5802 53.8604 23.856C54.2113 24.1281 54.6785 24.2642 55.2622 24.2642C55.8065 24.2642 56.2236 24.1532 56.5137 23.9312C56.8037 23.7091 56.9487 23.4066 56.9487 23.0234C56.9487 22.6403 56.8145 22.3449 56.5459 22.1372C56.2773 21.9259 55.7904 21.7183 55.085 21.5142ZM64.7153 18.0283H62.2017V25H61.1758V18.0283H58.6675V17.1797H64.7153V18.0283ZM68.7437 21.8364H66.9067V25H65.8701V17.1797H68.459C69.3398 17.1797 70.0166 17.3802 70.4893 17.7812C70.9655 18.1823 71.2036 18.766 71.2036 19.5322C71.2036 20.0192 71.0711 20.4435 70.8062 20.8052C70.5448 21.1668 70.1795 21.4372 69.7104 21.6162L71.5474 24.9355V25H70.4409L68.7437 21.8364ZM66.9067 20.9932H68.4912C69.0033 20.9932 69.4097 20.8607 69.7104 20.5957C70.0148 20.3307 70.167 19.9762 70.167 19.5322C70.167 19.0488 70.022 18.6782 69.7319 18.4204C69.4455 18.1626 69.0301 18.0319 68.4858 18.0283H66.9067V20.9932ZM78.1592 17.1797V22.4971C78.1556 23.2347 77.9229 23.8381 77.4609 24.3071C77.0026 24.7762 76.3796 25.0394 75.5918 25.0967L75.3179 25.1074C74.4621 25.1074 73.7799 24.8765 73.2715 24.4146C72.763 23.9526 72.5052 23.3171 72.498 22.5078V17.1797H73.5186V22.4756C73.5186 23.0413 73.6743 23.4818 73.9858 23.7969C74.2974 24.1084 74.7414 24.2642 75.3179 24.2642C75.9015 24.2642 76.3473 24.1084 76.6553 23.7969C76.9668 23.4854 77.1226 23.0467 77.1226 22.481V17.1797H78.1592ZM85.5391 22.5186C85.4424 23.3457 85.1362 23.9849 84.6206 24.436C84.1086 24.8836 83.4264 25.1074 82.5742 25.1074C81.6504 25.1074 80.9092 24.7762 80.3506 24.1138C79.7956 23.4513 79.5181 22.5651 79.5181 21.4551V20.7031C79.5181 19.9762 79.647 19.3371 79.9048 18.7856C80.1662 18.2342 80.535 17.8117 81.0112 17.5181C81.4875 17.2209 82.0389 17.0723 82.6655 17.0723C83.4963 17.0723 84.1623 17.305 84.6636 17.7705C85.1649 18.2324 85.4567 18.8734 85.5391 19.6934H84.5024C84.4129 19.0703 84.2178 18.6191 83.917 18.3398C83.6198 18.0605 83.2026 17.9209 82.6655 17.9209C82.0067 17.9209 81.4893 18.1644 81.1133 18.6514C80.7409 19.1383 80.5547 19.8312 80.5547 20.73V21.4873C80.5547 22.3359 80.7319 23.0109 81.0864 23.5122C81.4409 24.0135 81.9368 24.2642 82.5742 24.2642C83.1471 24.2642 83.5858 24.1353 83.8901 23.8774C84.1981 23.616 84.4022 23.1631 84.5024 22.5186H85.5391ZM92.1938 18.0283H89.6802V25H88.6543V18.0283H86.146V17.1797H92.1938V18.0283ZM98.8594 17.1797V22.4971C98.8558 23.2347 98.623 23.8381 98.1611 24.3071C97.7028 24.7762 97.0798 25.0394 96.292 25.0967L96.0181 25.1074C95.1623 25.1074 94.4801 24.8765 93.9717 24.4146C93.4632 23.9526 93.2054 23.3171 93.1982 22.5078V17.1797H94.2188V22.4756C94.2188 23.0413 94.3745 23.4818 94.686 23.7969C94.9976 24.1084 95.4416 24.2642 96.0181 24.2642C96.6017 24.2642 97.0475 24.1084 97.3555 23.7969C97.667 23.4854 97.8228 23.0467 97.8228 22.481V17.1797H98.8594ZM103.355 21.8364H101.518V25H100.481V17.1797H103.07C103.951 17.1797 104.628 17.3802 105.101 17.7812C105.577 18.1823 105.815 18.766 105.815 19.5322C105.815 20.0192 105.682 20.4435 105.417 20.8052C105.156 21.1668 104.791 21.4372 104.322 21.6162L106.159 24.9355V25H105.052L103.355 21.8364ZM101.518 20.9932H103.103C103.615 20.9932 104.021 20.8607 104.322 20.5957C104.626 20.3307 104.778 19.9762 104.778 19.5322C104.778 19.0488 104.633 18.6782 104.343 18.4204C104.057 18.1626 103.641 18.0319 103.097 18.0283H101.518V20.9932ZM111.686 21.3853H108.296V24.1567H112.233V25H107.265V17.1797H112.18V18.0283H108.296V20.542H111.686V21.3853Z" fill="white"/>
<path d="M88.3232 85.5235C88.3232 84.3958 87.8494 83.8426 86.7218 83.6922C86.4553 83.6579 86.4174 83.5465 86.4209 83.3238C86.4304 82.8204 86.4375 82.317 86.4209 81.8148C86.3854 80.8968 85.7422 80.2749 84.823 80.2631C84.4238 80.2548 84.0246 80.2477 83.6255 80.2631C83.5163 80.2692 83.4071 80.2503 83.3063 80.2078C83.2055 80.1653 83.1157 80.1003 83.0439 80.0179C80.8944 77.8597 78.7397 75.7062 76.58 73.5575C76.5053 73.4885 76.4466 73.404 76.4081 73.3098C76.3697 73.2157 76.3523 73.1142 76.3573 73.0127C76.3636 70.1438 76.3636 67.2749 76.3573 64.406C76.3573 64.0945 76.4473 64.0056 76.7553 64.008C78.1897 64.0222 79.6242 64.008 81.0586 64.0175C81.4922 64.0175 81.8641 63.9192 82.0572 63.5058C82.2502 63.0924 82.0678 62.7666 81.8203 62.4468C80.8442 61.2019 79.8575 59.9665 78.9158 58.6978C78.525 58.1719 78.0938 57.9161 77.4245 57.9611C76.9034 57.9966 76.3585 58.0712 75.8456 57.8651L68.1913 54.8233C61.9765 52.3524 55.7606 49.8839 49.5435 47.4177C49.123 47.2507 48.7215 47.0032 48.2406 47.0032C47.6045 47.0032 46.9684 46.9961 46.3323 47.0032C45.7318 47.0115 45.4273 47.2874 45.374 47.8785C45.2449 49.2916 45.1265 50.7059 45.0045 52.1202C44.8465 53.931 44.6918 55.7425 44.5401 57.5548C44.5176 57.8189 44.4726 57.9848 44.1339 57.9812C42.4625 57.9646 40.7912 57.9705 39.1198 57.9812C38.8829 57.9812 38.7882 57.9149 38.7408 57.6721C38.5489 56.7008 37.8382 56.0374 36.8799 56.0137C35.5651 55.9758 34.2467 55.9735 32.9319 56.0137C32.4288 56.0268 31.9498 56.2322 31.5933 56.5875C31.2369 56.9429 31.0301 57.4212 31.0154 57.9244C30.9949 60.0091 30.9949 62.0942 31.0154 64.1798C31.0237 65.1274 31.8138 66.0004 32.7554 66.0596C34.1729 66.1419 35.5939 66.1419 37.0114 66.0596C37.4442 66.0288 37.8528 65.8482 38.1669 65.5488C38.481 65.2494 38.681 64.8499 38.7325 64.419C38.7775 64.0554 38.9327 64.0045 39.2442 64.0068C40.7083 64.0198 42.1735 64.0293 43.6364 64.0068C44.0581 63.9985 44.1481 64.1253 44.135 64.5292C44.0087 68.2407 43.893 71.9521 43.788 75.6636C43.5811 82.6546 43.3746 89.6456 43.1685 96.6366C43.146 97.3935 43.1436 97.3935 42.3737 97.4006C40.803 97.416 39.5178 98.5436 39.3816 100.106C39.3082 100.942 39.3579 101.79 39.352 102.633C39.352 102.91 39.4811 103.006 39.7654 103C40.5341 102.981 41.3052 103 42.0716 102.993C42.5253 102.993 42.6532 102.827 42.5229 102.394C42.4873 102.273 42.4251 102.162 42.3409 102.068C42.2567 101.974 42.1525 101.9 42.0361 101.851C41.8445 101.77 41.6343 101.743 41.4284 101.773C41.1098 101.805 41.0127 101.673 41.0328 101.369C41.0577 101.013 41.0245 100.658 41.0553 100.303C41.0736 99.9728 41.2181 99.6627 41.459 99.4366C41.6998 99.2105 42.0185 99.0859 42.3488 99.0885C45.9268 99.079 49.5056 99.079 53.0852 99.0885C53.4305 99.0878 53.7621 99.223 54.0086 99.4648C54.255 99.7066 54.3965 100.036 54.4024 100.381C54.419 100.705 54.3834 101.033 54.4142 101.356C54.4474 101.698 54.3207 101.776 53.9937 101.774C51.7894 101.76 49.5862 101.767 47.3818 101.767C46.6427 101.767 45.9035 101.76 45.1644 101.767C44.6515 101.774 44.2819 102.101 44.2499 102.552C44.2322 102.819 44.289 102.994 44.6325 102.993C48.3156 102.983 51.9982 102.983 55.6805 102.993C55.9944 102.993 56.0986 102.874 56.0951 102.579C56.0856 101.84 56.0951 101.101 56.0891 100.361C56.0809 99.6898 55.8483 99.0411 55.4284 98.5179C55.0084 97.9947 54.4254 97.6272 53.7722 97.474C53.1444 97.3212 52.5048 97.3935 51.877 97.4053C51.4944 97.4124 51.3902 97.32 51.3795 96.9232C51.2326 91.5135 51.0633 86.1039 50.8998 80.6954C50.7363 75.2869 50.5752 69.8773 50.4035 64.4676C50.3928 64.1324 50.4603 64.0009 50.8299 64.008C52.1013 64.0301 53.373 64.0301 54.6452 64.008C55.0077 64.0021 55.087 64.1265 55.0823 64.4617C55.0657 65.7038 55.0657 66.946 55.0823 68.1881C55.0953 69.4911 56.0299 70.4115 57.3388 70.415C59.4385 70.4221 61.5387 70.4221 63.6392 70.415C65.0085 70.415 65.9407 69.4674 65.9466 68.091C65.9466 66.8485 65.9537 65.6035 65.9466 64.3645C65.9466 64.1004 66.0142 64.0092 66.2925 64.0092C68.9695 64.0195 71.6465 64.0195 74.3235 64.0092C74.6244 64.0092 74.6883 64.1099 74.6871 64.3894C74.6777 67.2425 74.6777 70.0964 74.6871 72.9511C74.6918 73.0445 74.6756 73.1379 74.6398 73.2243C74.6039 73.3108 74.5493 73.3882 74.4799 73.4509C72.6 75.3142 70.6894 77.1513 68.8771 79.0774C68.074 79.929 67.2674 80.4988 66.0568 80.2619C66.0422 80.2601 66.0275 80.2601 66.013 80.2619C65.0594 80.282 64.4151 80.9276 64.3973 81.8918C64.389 82.3798 64.3831 82.8678 64.3973 83.3558C64.4068 83.6129 64.3132 83.6993 64.0656 83.6792C63.9034 83.6685 63.7405 83.6721 63.5788 83.6898C62.6134 83.7775 62.0449 84.3674 62.0129 85.3375C61.9963 85.8693 61.9927 86.4036 62.0129 86.9342C62.0567 87.8309 62.675 88.4551 63.5729 88.4919C64.3108 88.5215 65.0523 88.5108 65.7915 88.4919C66.3553 88.4812 66.732 88.1164 66.7213 87.6307C66.7118 87.1628 66.3423 86.8252 65.7998 86.8075C65.4006 86.7956 65.0014 86.8075 64.6022 86.8075C63.6866 86.8075 63.7103 86.8075 63.6795 85.9061C63.6641 85.4702 63.7979 85.3695 64.2255 85.3707C71.4116 85.3841 78.5976 85.3872 85.7836 85.3801C86.646 85.3801 86.646 85.3801 86.646 86.233C86.646 86.8063 86.646 86.8075 86.0798 86.8075H69.8413C69.634 86.8075 69.4255 86.7992 69.2206 86.8181C68.7338 86.862 68.4163 87.2007 68.4187 87.6556C68.4211 88.1104 68.7362 88.4433 69.2242 88.4942C69.3699 88.5084 69.5191 88.5037 69.6672 88.5037H86.3498C86.4979 88.5037 86.646 88.5037 86.7928 88.4942C87.2114 88.4748 87.6057 88.2925 87.8915 87.9861C88.1772 87.6797 88.3318 87.2737 88.3221 86.8549C88.3268 86.4154 88.3244 85.9724 88.3232 85.5235ZM37.0943 63.873C37.0943 64.2781 36.932 64.4167 36.5364 64.4107C35.4443 64.3942 34.3518 64.3942 33.2589 64.4107C32.8395 64.4167 32.6785 64.2591 32.6879 63.8363C32.7081 62.9064 32.6938 61.9766 32.6938 61.0467C32.6938 60.1169 32.6938 59.2167 32.6938 58.301C32.6938 57.7858 32.778 57.6957 33.2743 57.6934C34.3522 57.6934 35.4301 57.7028 36.5068 57.6934C36.9154 57.6934 37.099 57.8249 37.099 58.2548C37.084 60.1248 37.0825 61.9975 37.0943 63.873ZM76.3573 75.7998L80.7684 80.2334C80.7554 80.2879 80.6713 80.2631 80.605 80.2631C79.3067 80.2631 78.0081 80.2631 76.7091 80.2631C76.5362 80.2631 76.3537 80.3045 76.3537 80.0167C76.362 78.6355 76.3573 77.2532 76.3573 75.7998ZM46.2707 56.882C46.491 54.4135 46.7007 51.9426 46.9151 49.474C46.9281 49.3118 46.9613 49.1519 46.9648 48.9896C46.9708 48.761 47.0833 48.6887 47.3012 48.6935C47.5192 48.6982 47.5654 48.8012 47.582 48.9931C47.7229 50.6846 47.8734 52.3749 48.0214 54.0652C48.1209 55.2118 48.1991 56.3608 48.3318 57.5003C48.3815 57.9172 48.2654 58.0321 47.8769 57.9848C47.6706 57.9723 47.4637 57.9723 47.2574 57.9848C46.1617 57.9824 46.1724 57.9836 46.2695 56.882H46.2707ZM44.9073 96.7349C44.9073 96.113 44.8955 95.5255 44.9073 94.9391C44.9441 93.4194 44.9914 91.8997 45.04 90.38C45.04 90.2615 44.976 90.085 45.1348 90.0246C45.2532 89.982 45.3421 90.1134 45.4356 90.181C46.3556 90.8459 47.2756 91.5116 48.1956 92.1781C48.346 92.287 48.494 92.3688 48.314 92.5903C47.2089 93.9524 46.112 95.3229 45.0104 96.6899C44.9974 96.7112 44.9618 96.7135 44.9062 96.7349H44.9073ZM45.7045 70.877C45.8372 70.8095 45.913 70.9504 46.003 71.0156C46.6509 71.4799 47.2953 71.9513 47.9433 72.4157C48.0901 72.5199 48.192 72.6005 48.0463 72.7983C47.2325 73.9046 46.4294 75.018 45.6204 76.1279C45.5779 76.1645 45.5309 76.1955 45.4806 76.2203C45.4806 75.9834 45.4747 75.7844 45.4806 75.5854C45.5265 74.1222 45.575 72.6613 45.6263 71.2027C45.6311 71.089 45.5754 70.941 45.7033 70.877H45.7045ZM49.1041 77.1975C49.1218 78.2304 49.1621 79.2621 49.1894 80.295C49.1894 80.3922 49.2391 80.5118 49.1408 80.5817C49.0425 80.6516 48.975 80.5556 48.9039 80.5071C48.0202 79.8674 47.1402 79.2231 46.2541 78.587C46.099 78.4744 46.0824 78.382 46.1949 78.2316C47.1046 76.9824 48.0104 75.7307 48.9122 74.4767L49.0981 74.5111C49.1005 75.403 49.0863 76.3009 49.1029 77.1975H49.1041ZM49.3114 84.121C49.3777 86.3988 49.4428 88.6754 49.5115 91.0445C48.2749 90.1502 47.1319 89.3198 45.9829 88.4966C45.8099 88.3781 45.8431 88.268 45.9497 88.1353C47.0308 86.7929 48.1111 85.4473 49.1905 84.0985L49.3114 84.121ZM48.3235 70.5986C47.7344 70.1761 47.1477 69.7525 46.5633 69.3276C46.4212 69.2246 46.2589 69.1476 46.4366 68.9178C47.1674 67.9702 47.884 67.0119 48.6078 66.0596C48.6208 66.0418 48.6599 66.043 48.7653 66.0146C48.8151 67.6646 48.8636 69.2838 48.9122 70.9421C48.6516 70.8876 48.494 70.7277 48.3235 70.5986ZM47.8248 64.2864C47.1733 65.1428 46.5218 66.0015 45.8313 66.9195C45.8313 65.9601 45.8313 65.08 45.8313 64.1952C45.8313 64.008 45.9841 64.0092 46.1227 64.0092C46.6391 64.0092 47.1567 64.0092 47.6744 64.0092C47.9101 64.0163 47.9883 64.0767 47.8248 64.2911V64.2864ZM47.293 81.4156C47.6163 81.6525 47.9338 81.8894 48.2583 82.1192C48.4017 82.2199 48.4597 82.3099 48.327 82.4745C47.3249 83.7135 46.326 84.9541 45.3302 86.1963C45.3148 86.214 45.2769 86.2129 45.1679 86.2436C45.2319 84.1873 45.2959 82.1571 45.3622 80.0309C46.0575 80.5331 46.6758 80.9761 47.293 81.4203V81.4156ZM49.3303 97.4065C48.4656 97.3828 47.5997 97.3982 46.6249 97.3982L49.476 93.8447C49.5945 93.8707 49.6027 93.9276 49.6039 93.988C49.6359 94.9913 49.6596 95.9957 49.7058 96.999C49.7188 97.2904 49.6632 97.416 49.3303 97.4077V97.4065ZM64.2552 68.014C64.2552 68.5494 64.0739 68.7306 63.5373 68.7318C61.5142 68.7318 59.4903 68.7318 57.4655 68.7318C56.9207 68.7318 56.7619 68.566 56.7548 68.0117C56.7548 66.8153 56.7667 65.6189 56.7454 64.4226C56.7382 64.0732 56.8638 64.0068 57.1789 64.0116C58.2864 64.0293 59.3939 64.0187 60.5026 64.0187C61.6113 64.0187 62.7177 64.0293 63.8264 64.0187C64.1426 64.0187 64.2646 64.0838 64.2587 64.4321C64.2398 65.6237 64.2552 66.8188 64.248 68.0152L64.2552 68.014ZM39.3911 62.3284C38.7846 62.3284 38.7846 62.3284 38.7846 61.7361C38.7846 61.1439 38.7976 60.5824 38.7846 60.0067C38.7751 59.726 38.8806 59.6514 39.14 59.6608C40.2344 59.6727 41.3289 59.6608 42.4222 59.6608H55.5525C55.7003 59.667 55.8482 59.6642 55.9956 59.6526C56.211 59.6304 56.4099 59.5266 56.5513 59.3625C56.6927 59.1985 56.7659 58.9865 56.756 58.7701C56.748 58.5531 56.6542 58.3481 56.4952 58.2002C56.3361 58.0523 56.1249 57.9735 55.9079 57.9812C54.1181 57.9717 52.3295 57.9646 50.5409 57.9812C50.1654 57.9812 50.0458 57.8936 50.015 57.5074C49.7935 54.7972 49.5412 52.0906 49.3043 49.3817C49.3069 49.3022 49.3152 49.223 49.3291 49.1448L71.2959 57.8651C71.2864 57.9007 71.2781 57.9362 71.2686 57.9717H59.7469C59.5834 57.9717 59.4212 57.9717 59.2589 57.9717C59.0428 57.9793 58.8379 58.0695 58.6865 58.2239C58.535 58.3782 58.4486 58.5847 58.4451 58.8009C58.4491 59.0094 58.5284 59.2095 58.6684 59.364C58.8084 59.5186 58.9997 59.6173 59.2068 59.6419C59.3837 59.6557 59.5613 59.6589 59.7386 59.6514C65.489 59.6514 71.2402 59.649 76.9922 59.6443C77.3535 59.6443 77.5845 59.7378 77.8024 60.0363C78.2857 60.7068 78.8116 61.3464 79.3162 62.0014C79.3743 62.0772 79.4951 62.1578 79.4122 62.2632C79.3731 62.313 79.2546 62.3059 79.1753 62.3142C79.0959 62.3224 78.9976 62.3142 78.9087 62.3142L39.3911 62.3284ZM74.6717 75.8199V79.364C74.6717 80.2666 74.6717 80.2666 73.7845 80.2666H70.186L74.6717 75.8199ZM84.7401 83.2468C84.7804 83.6129 84.6216 83.6887 84.2864 83.6875C81.3157 83.6756 78.3437 83.6804 75.3718 83.6804C72.4449 83.6804 69.5179 83.6721 66.591 83.691C66.1598 83.691 66.007 83.5726 66.0615 83.1485C66.1089 82.7707 65.9052 82.2732 66.1373 82.0363C66.3908 81.7769 66.8942 81.9522 67.2875 81.9522C72.9353 81.9451 78.5818 81.9522 84.226 81.938C84.6287 81.938 84.7875 82.0363 84.7365 82.4497C84.7069 82.7146 84.7081 82.9821 84.7401 83.2468Z" fill="white"/>
</svg>
