<svg width="120" height="120" viewBox="0 0 120 120" fill="none" xmlns="http://www.w3.org/2000/svg">
<rect width="120" height="120" fill="#EA3B46"/>
<path d="M30.9077 20V12.1797H33.1152C33.7956 12.1797 34.3971 12.3301 34.9199 12.6309C35.4427 12.9316 35.8455 13.3595 36.1284 13.9146C36.4149 14.4696 36.5599 15.1069 36.5635 15.8267V16.3262C36.5635 17.0638 36.4202 17.7101 36.1338 18.2651C35.8509 18.8201 35.4445 19.2463 34.9146 19.5435C34.3882 19.8407 33.7741 19.9928 33.0723 20H30.9077ZM31.939 13.0283V19.1567H33.0239C33.8188 19.1567 34.4365 18.9097 34.877 18.4155C35.321 17.9214 35.543 17.2178 35.543 16.3047V15.8481C35.543 14.9601 35.3335 14.2708 34.9146 13.7803C34.4992 13.2861 33.9084 13.0355 33.1421 13.0283H31.939ZM39.2329 20H38.2017V12.1797H39.2329V20ZM46.8975 18.9741C46.6325 19.3537 46.2619 19.6383 45.7856 19.8281C45.313 20.0143 44.7616 20.1074 44.1313 20.1074C43.494 20.1074 42.9282 19.9588 42.4341 19.6616C41.9399 19.3608 41.5568 18.9347 41.2847 18.3833C41.0161 17.8319 40.8783 17.1927 40.8711 16.4658V15.7837C40.8711 14.6056 41.145 13.6925 41.6929 13.0444C42.2443 12.3963 43.0177 12.0723 44.0132 12.0723C44.8296 12.0723 45.4867 12.2817 45.9844 12.7007C46.4821 13.116 46.7865 13.7069 46.8975 14.4731H45.8662C45.6729 13.4383 45.057 12.9209 44.0186 12.9209C43.3275 12.9209 42.8029 13.1644 42.4448 13.6514C42.0903 14.1348 41.9113 14.8366 41.9077 15.7568V16.396C41.9077 17.2733 42.1082 17.9715 42.5093 18.4907C42.9103 19.0063 43.4528 19.2642 44.1367 19.2642C44.5234 19.2642 44.8618 19.2212 45.1519 19.1353C45.4419 19.0493 45.6818 18.9043 45.8716 18.7002V16.9438H44.0615V16.106H46.8975V18.9741ZM49.728 20H48.6968V12.1797H49.728V20ZM56.8608 13.0283H54.3472V20H53.3213V13.0283H50.813V12.1797H56.8608V13.0283ZM61.9097 17.959H58.6333L57.8975 20H56.834L59.8203 12.1797H60.7227L63.7144 20H62.6562L61.9097 17.959ZM58.9448 17.1104H61.6035L60.2715 13.4526L58.9448 17.1104ZM65.8037 19.1567H69.5098V20H64.7671V12.1797H65.8037V19.1567ZM35.3281 29.3853H31.939V32.1567H35.876V33H30.9077V25.1797H35.8223V26.0283H31.939V28.542H35.3281V29.3853ZM42.9121 30.5186C42.8154 31.3457 42.5093 31.9849 41.9937 32.436C41.4816 32.8836 40.7995 33.1074 39.9473 33.1074C39.0234 33.1074 38.2822 32.7762 37.7236 32.1138C37.1686 31.4513 36.8911 30.5651 36.8911 29.4551V28.7031C36.8911 27.9762 37.02 27.3371 37.2778 26.7856C37.5392 26.2342 37.908 25.8117 38.3843 25.5181C38.8605 25.2209 39.4119 25.0723 40.0386 25.0723C40.8693 25.0723 41.5353 25.305 42.0366 25.7705C42.5379 26.2324 42.8298 26.8734 42.9121 27.6934H41.8755C41.786 27.0703 41.5908 26.6191 41.29 26.3398C40.9928 26.0605 40.5757 25.9209 40.0386 25.9209C39.3797 25.9209 38.8623 26.1644 38.4863 26.6514C38.1139 27.1383 37.9277 27.8312 37.9277 28.73V29.4873C37.9277 30.3359 38.105 31.0109 38.4595 31.5122C38.814 32.0135 39.3099 32.2642 39.9473 32.2642C40.5202 32.2642 40.9588 32.1353 41.2632 31.8774C41.5711 31.616 41.7752 31.1631 41.8755 30.5186H42.9121ZM50.3403 29.3423C50.3403 30.1086 50.2114 30.7782 49.9536 31.3511C49.6958 31.9204 49.3306 32.3555 48.8579 32.6562C48.3853 32.957 47.8338 33.1074 47.2036 33.1074C46.5877 33.1074 46.0417 32.957 45.5654 32.6562C45.0892 32.3519 44.7186 31.9204 44.4536 31.3618C44.1922 30.7996 44.0579 30.1497 44.0508 29.4121V28.8481C44.0508 28.0962 44.1815 27.432 44.4429 26.8555C44.7043 26.279 45.0731 25.8385 45.5493 25.5342C46.0291 25.2262 46.577 25.0723 47.1929 25.0723C47.8195 25.0723 48.3709 25.2244 48.8472 25.5288C49.327 25.8296 49.6958 26.2682 49.9536 26.8447C50.2114 27.4176 50.3403 28.0854 50.3403 28.8481V29.3423ZM49.3145 28.8374C49.3145 27.91 49.1283 27.1992 48.7559 26.7051C48.3835 26.2074 47.8625 25.9585 47.1929 25.9585C46.5412 25.9585 46.0273 26.2074 45.6514 26.7051C45.279 27.1992 45.0874 27.8867 45.0767 28.7676V29.3423C45.0767 30.241 45.2646 30.9482 45.6406 31.4639C46.0202 31.9759 46.5412 32.2319 47.2036 32.2319C47.8696 32.2319 48.3853 31.9902 48.7505 31.5068C49.1157 31.0199 49.3037 30.3234 49.3145 29.4175V28.8374ZM57.8975 33H56.8608L52.9238 26.9736V33H51.8872V25.1797H52.9238L56.8716 31.2329V25.1797H57.8975V33ZM65.7446 29.3423C65.7446 30.1086 65.6157 30.7782 65.3579 31.3511C65.1001 31.9204 64.7349 32.3555 64.2622 32.6562C63.7896 32.957 63.2381 33.1074 62.6079 33.1074C61.992 33.1074 61.446 32.957 60.9697 32.6562C60.4935 32.3519 60.1229 31.9204 59.8579 31.3618C59.5965 30.7996 59.4622 30.1497 59.4551 29.4121V28.8481C59.4551 28.0962 59.5858 27.432 59.8472 26.8555C60.1086 26.279 60.4774 25.8385 60.9536 25.5342C61.4334 25.2262 61.9813 25.0723 62.5972 25.0723C63.2238 25.0723 63.7752 25.2244 64.2515 25.5288C64.7313 25.8296 65.1001 26.2682 65.3579 26.8447C65.6157 27.4176 65.7446 28.0854 65.7446 28.8481V29.3423ZM64.7188 28.8374C64.7188 27.91 64.5326 27.1992 64.1602 26.7051C63.7878 26.2074 63.2668 25.9585 62.5972 25.9585C61.9455 25.9585 61.4316 26.2074 61.0557 26.7051C60.6833 27.1992 60.4917 27.8867 60.481 28.7676V29.3423C60.481 30.241 60.6689 30.9482 61.0449 31.4639C61.4245 31.9759 61.9455 32.2319 62.6079 32.2319C63.2739 32.2319 63.7896 31.9902 64.1548 31.5068C64.52 31.0199 64.708 30.3234 64.7188 29.4175V28.8374ZM68.6235 25.1797L71.1802 31.5605L73.7368 25.1797H75.0742V33H74.043V29.9546L74.1396 26.6675L71.5723 33H70.7827L68.2207 26.6836L68.3228 29.9546V33H67.2915V25.1797H68.6235ZM79.1294 29.106L81.1704 25.1797H82.3413L79.645 30.0835V33H78.6138V30.0835L75.9175 25.1797H77.0991L79.1294 29.106Z" fill="white"/>
<path d="M94.0007 71.87C94.0007 69.7716 92.6727 68.4479 90.5857 68.4451C87.4644 68.4451 84.3473 68.4451 81.2344 68.4451C78.0989 68.4451 74.9639 68.4451 71.8293 68.4451C69.8104 68.4451 68.454 69.7915 68.4526 71.7991C68.4469 75.9448 68.4469 80.09 68.4526 84.2348C68.4526 86.2438 69.8104 87.5874 71.8265 87.5931C73.4027 87.5931 74.9804 87.6044 76.5553 87.5931C76.8788 87.5931 76.9937 87.6668 76.9809 88.0017C76.9511 88.4784 76.9639 88.9579 76.9809 89.4361C76.9809 89.6645 76.9114 89.7482 76.6787 89.7411C76.2361 89.7255 75.7891 89.7695 75.3507 89.7269C74.9123 89.6844 74.8045 89.8688 74.8385 90.2647C74.869 90.6533 74.869 91.0437 74.8385 91.4323C74.8088 91.7941 74.9464 91.8721 75.2869 91.8693C76.7738 91.8509 78.2663 91.8693 79.7504 91.8537C80.0668 91.8537 80.176 91.9204 80.176 92.2595C80.159 93.8712 80.176 95.4844 80.1647 97.0961C80.1647 97.8353 79.7476 98.2411 79.0041 98.2439C77.0377 98.2439 75.0712 98.2439 73.1062 98.2539C72.7756 98.2539 72.6522 98.1602 72.6011 97.8282C71.9541 93.474 69.6216 90.3356 65.5937 88.6061C64.4856 88.1294 64.0912 87.6668 64.1749 86.4779C64.2771 84.9768 63.1364 83.7467 61.6069 83.4091C60.252 83.1097 58.7693 83.8773 58.1337 85.1825C57.7904 85.8848 57.7861 86.6269 57.84 87.3661C57.8783 87.9009 57.6896 88.0982 57.1874 88.2883C52.7891 89.9511 50.1899 93.1122 49.4422 97.763C49.384 98.129 49.2918 98.2681 48.8945 98.2638C46.6983 98.2425 44.4963 98.2539 42.3057 98.2539C41.1039 98.2539 40.8245 97.9502 40.789 96.7528C40.7734 96.2363 40.8755 95.9554 41.4558 95.9852C41.7033 95.9738 41.9484 95.9309 42.1851 95.8575C47.3395 94.7665 51.2497 90.1696 51.4313 84.9867C51.691 77.609 45.5334 71.9438 38.2025 72.822C31.6761 73.6052 26.97 80.0111 28.1944 86.4424C29.1336 91.3756 32.8764 95.0885 37.7769 95.9611C38.6651 96.1186 38.665 96.1186 38.6679 96.994C38.6778 99.0427 40.0157 100.375 42.073 100.378C44.1302 100.381 46.2173 100.378 48.2901 100.378C49.3017 100.378 49.3017 100.378 49.4989 101.379C50.7347 107.658 56.2453 111.667 62.5958 110.908C67.7034 110.299 71.9995 105.995 72.5968 100.873C72.6465 100.447 72.8139 100.366 73.1984 100.369C75.1294 100.386 77.059 100.382 78.9899 100.369C80.9209 100.357 82.2915 99.0044 82.3028 97.055C82.3113 95.4943 82.3184 93.9336 82.3028 92.373C82.3028 91.9672 82.3879 91.8282 82.8221 91.8367C84.292 91.8665 85.7632 91.8367 87.2317 91.8565C87.5637 91.8565 87.6573 91.7629 87.6446 91.4394C87.614 91.0333 87.614 90.6254 87.6446 90.2192C87.6758 89.8277 87.5623 89.6886 87.1508 89.7127C86.6244 89.7454 85.9094 89.9057 85.6114 89.6375C85.2666 89.3282 85.5547 88.6004 85.4922 88.0598C85.444 87.6342 85.6341 87.5746 86.0058 87.5803C87.5467 87.5987 89.0875 87.5902 90.6283 87.5803C92.677 87.5803 94.0192 86.2395 94.0234 84.1851C94.014 80.0848 94.0064 75.9798 94.0007 71.87ZM30.1424 84.3724C30.1514 81.8377 31.1655 79.41 32.9622 77.6221C34.759 75.8341 37.1916 74.8319 39.7263 74.8353C40.986 74.8377 42.2328 75.0884 43.3955 75.5731C44.5582 76.0578 45.6139 76.7669 46.5023 77.6599C47.3907 78.5529 48.0943 79.6123 48.573 80.7775C49.0516 81.9427 49.2959 83.1908 49.2918 84.4504C49.2804 89.7298 44.9503 94.0145 39.644 93.9932C34.3902 93.9634 30.1324 89.6532 30.1424 84.3724ZM59.937 86.7574C59.937 85.9785 60.3399 85.4933 60.9769 85.4805C61.6381 85.4677 62.0637 85.9657 62.0637 86.7659C62.0637 90.171 62.0637 93.5723 62.0637 96.9699C62.0637 97.7502 61.6665 98.2297 61.0224 98.2468C60.3782 98.2638 59.9384 97.7701 59.937 96.9613C59.937 95.2787 59.937 93.596 59.937 91.9133C59.9389 90.1899 59.9398 88.4689 59.9398 86.7503L59.937 86.7574ZM59.5695 100.027C61.6466 101.097 64.1323 99.6017 64.1863 97.2621C64.2019 96.5783 64.1863 95.893 64.1863 95.1155C66.008 96.4336 66.7401 98.8654 66.0491 100.984C65.6934 102.049 65.0111 102.975 64.0991 103.631C63.187 104.286 62.0916 104.638 60.9684 104.636C59.8455 104.627 58.7539 104.265 57.849 103.6C56.9441 102.935 56.2721 102.002 55.9289 100.933C55.2507 98.8412 56.0041 96.4052 57.806 95.1155C57.806 95.8575 57.7903 96.5343 57.806 97.2082C57.8485 98.478 58.4402 99.4371 59.5724 100.02L59.5695 100.027ZM63.5691 108.54C58.0684 110.123 52.2883 106.344 51.5235 100.664C51.2283 98.5802 51.6274 96.4567 52.6593 94.6219C53.6911 92.7872 55.2984 91.3432 57.2328 90.5129C57.8003 90.2647 57.8003 90.2647 57.8003 90.9088V91.6281C57.9833 92.2765 57.6428 92.6894 56.9575 93.115C54.4902 94.6445 53.1963 97.6551 53.6007 100.304C53.8198 101.82 54.4941 103.234 55.5343 104.359C56.5746 105.483 57.9317 106.266 59.4262 106.602C63.5322 107.538 67.7134 104.655 68.3334 100.479C68.8016 97.316 67.3402 94.3337 64.5523 92.8071C64.287 92.6652 64.1565 92.5234 64.1749 92.2013C64.2047 91.7236 64.2047 91.2446 64.1749 90.7669C64.148 90.32 64.3069 90.3171 64.6573 90.4661C66.3386 91.1577 67.7838 92.3211 68.8186 93.8159C72.6139 99.3066 69.9678 106.697 63.5719 108.537L63.5691 108.54ZM70.5793 71.9041C70.5793 70.9549 70.9539 70.5733 71.8875 70.5733C78.1207 70.5733 84.3534 70.5733 90.5857 70.5733C91.454 70.5733 91.8711 70.9734 91.8725 71.8218C91.8725 74.8013 91.8726 77.7722 91.8867 80.7474C91.8867 81.1844 91.7193 81.2213 91.3604 81.2199C87.978 81.2085 84.5956 81.2199 81.2146 81.2199C77.8336 81.2199 74.4853 81.2113 71.1213 81.2298C70.6815 81.2298 70.5652 81.1163 70.568 80.675C70.5907 77.7452 70.5808 74.8225 70.5822 71.9012L70.5793 71.9041ZM82.9327 89.7397C82.3652 89.717 81.7977 89.7397 81.2373 89.7397C80.6769 89.7397 80.0696 89.7198 79.4879 89.7468C79.1474 89.7638 79.0623 89.6375 79.0822 89.3212C79.1057 88.8958 79.1057 88.4696 79.0822 88.0442C79.0651 87.7179 79.1389 87.5803 79.5078 87.5888C80.6556 87.6144 81.8048 87.6115 82.9526 87.5888C83.3002 87.5888 83.3683 87.708 83.3527 88.0145C83.3258 88.4558 83.3258 88.8983 83.3527 89.3396C83.3839 89.6815 83.2463 89.751 82.9356 89.7369L82.9327 89.7397ZM91.8782 83.8248C91.8704 83.9306 91.8704 84.0368 91.8782 84.1426C91.8782 85.0761 91.4838 85.4706 90.5602 85.472C88.029 85.472 85.4979 85.472 82.9668 85.472H71.9229C70.8461 85.472 70.1906 84.4788 70.5879 83.4857C70.673 83.2672 70.8517 83.3438 70.9922 83.3438C72.3911 83.3367 73.7886 83.3438 75.1876 83.3438H81.2401C84.6211 83.3438 88.0021 83.3509 91.3816 83.3353C91.7718 83.3282 91.9506 83.4119 91.8811 83.8219L91.8782 83.8248Z" fill="white"/>
<path d="M63.2086 73.6648C63.4923 73.9585 64.0811 73.7499 64.5337 73.7599C65.2601 73.7769 65.2616 73.7599 65.2616 73.0377C65.2616 68.0246 65.2616 63.0116 65.2616 57.9985C65.2616 57.1926 65.639 56.7315 66.3597 56.7216C68.3772 56.706 70.3962 56.7216 72.4151 56.7088C72.6861 56.7088 72.7911 56.8096 72.8138 57.072C72.8647 57.5295 72.9563 57.9816 73.0876 58.4227C74.6071 64.0241 80.3774 67.4264 85.922 65.9877C91.6369 64.5051 95.0746 58.82 93.697 53.1306C92.5052 48.206 87.9182 44.7811 82.8248 45.0109C77.7994 45.2393 73.5501 49.1013 72.8351 54.1153C72.7783 54.5069 72.6407 54.6005 72.2676 54.5977C70.355 54.5807 68.4368 54.5849 66.53 54.5977C64.4713 54.6048 63.1348 55.9356 63.1249 57.9829C63.1249 60.48 63.1249 62.9771 63.1249 65.4741C63.1249 67.7754 63.1249 70.0781 63.1249 72.3794C63.1362 72.822 62.9447 73.3952 63.2086 73.6648ZM86.6924 63.485C86.6172 63.5176 86.4994 63.5502 86.4484 63.5148C86.3405 63.441 86.4115 63.3218 86.4484 63.231C86.6862 62.6413 86.8658 62.0297 86.9847 61.405C87.0485 61.1028 87.1734 60.9652 87.5167 60.9794C88.2885 61.0092 89.0632 60.9879 89.9755 60.9879C89.1002 62.0746 87.9733 62.9316 86.6924 63.485V63.485ZM91.7334 57.1004C91.7149 57.1685 91.7178 57.2423 91.705 57.3104C91.4085 58.8611 91.4085 58.8611 89.8478 58.8611C89.1767 58.8611 88.5056 58.8498 87.8345 58.8611C87.5281 58.8697 87.4089 58.7689 87.4628 58.4639C87.4954 58.2539 87.494 58.0382 87.5153 57.8297C87.6274 56.7131 87.6288 56.7131 88.7809 56.7131H89.6818C90.2493 56.7131 90.8168 56.7273 91.3772 56.7131C91.6837 56.706 91.8142 56.7869 91.7334 57.1018V57.1004ZM90.8821 52.461C90.9947 52.446 91.1088 52.4749 91.2007 52.5417C91.2926 52.6086 91.3553 52.7082 91.3758 52.8199C91.5461 53.3406 91.8979 53.955 91.6965 54.3806C91.4524 54.8956 90.7303 54.4898 90.228 54.5877C90.052 54.6041 89.8748 54.6041 89.6988 54.5877C89.1171 54.5877 88.534 54.5778 87.9523 54.5877C87.687 54.5877 87.5735 54.5111 87.565 54.2316C87.5508 53.7734 87.5181 53.3137 87.4585 52.8597C87.4131 52.5135 87.5508 52.434 87.8657 52.4454C88.8731 52.478 89.8804 52.4766 90.8849 52.4624L90.8821 52.461ZM89.9812 50.3328C89.1881 50.3328 88.5113 50.2973 87.8416 50.3441C87.2741 50.3853 86.9903 50.2335 86.9052 49.6149C86.8201 48.9963 86.5732 48.433 86.3604 47.7222C87.8218 48.2741 88.944 49.1055 89.9812 50.3342V50.3328ZM75.7677 58.8626C75.6711 58.8752 75.5733 58.8505 75.4942 58.7936C75.4151 58.7367 75.3607 58.6517 75.3421 58.5561C75.1941 58.086 75.07 57.6086 74.9703 57.126C74.8937 56.7698 75.0385 56.7003 75.3548 56.7145C75.9224 56.7344 76.4899 56.7145 77.0489 56.7145C77.6079 56.7145 78.1839 56.7259 78.7443 56.7145C79.0125 56.7074 79.1217 56.7925 79.1302 57.0692C79.1473 57.5459 79.187 58.0212 79.2395 58.488C79.2721 58.7718 79.1657 58.8597 78.8905 58.8569C77.8547 58.8555 76.8119 58.8583 75.7705 58.864L75.7677 58.8626ZM80.2837 63.4935C80.1958 63.6013 80.0879 63.5162 80 63.4765C78.7232 62.9221 77.5993 62.0674 76.724 60.9851C77.7001 60.9851 78.54 60.9851 79.38 60.9851C79.5587 60.9851 79.6197 61.0759 79.6637 61.2305C79.8425 61.9286 80 62.6337 80.2837 63.3005C80.2978 63.3309 80.3054 63.3639 80.3059 63.3974C80.3063 63.4309 80.2998 63.4641 80.2866 63.4949L80.2837 63.4935ZM84.8239 61.3086C84.594 62.1598 84.3244 63.004 83.8307 63.7489C83.4717 64.2909 83.2504 64.2965 82.8929 63.7702C82.3807 63.0168 82.1069 62.1598 81.8799 61.2844C81.8118 61.0205 81.9338 60.9808 82.1466 60.9837C82.5538 60.9837 82.9596 60.9837 83.3653 60.9837C83.7711 60.9837 84.1428 60.9908 84.5316 60.9837C84.7756 60.9766 84.9005 61.0234 84.8239 61.31V61.3086ZM83.6888 58.8611C83.0688 58.8611 82.4488 58.8498 81.8302 58.8611C81.5308 58.8611 81.3705 58.8001 81.3634 58.461C81.3521 58.0014 81.3067 57.5431 81.2556 57.0848C81.2244 56.8011 81.3294 56.7046 81.6074 56.7103C82.1906 56.723 82.7751 56.7103 83.3597 56.7103C83.9442 56.7103 84.4947 56.7216 85.0622 56.7103C85.3573 56.7017 85.4552 56.7897 85.4495 57.1033C85.4183 58.8626 85.4268 58.8626 83.6959 58.8626L83.6888 58.8611ZM81.9267 49.7922C82.1849 49.0034 82.4233 48.2089 82.9071 47.5222C83.2419 47.0469 83.4491 47.044 83.7825 47.5222C84.3159 48.2841 84.5912 49.158 84.821 50.049C84.8763 50.2604 84.8068 50.3328 84.5926 50.3328C84.1882 50.3257 83.7825 50.3328 83.3767 50.3328C83.0418 50.3328 82.7042 50.3073 82.3722 50.3328C81.9224 50.3853 81.782 50.259 81.9338 49.7937L81.9267 49.7922ZM81.257 54.2132C81.257 54.1947 81.257 54.1777 81.257 54.1593C81.3038 53.6159 81.1364 52.8398 81.4741 52.5872C81.9593 52.224 82.7325 52.5191 83.2532 52.4681C83.8931 52.4681 84.4067 52.4823 84.9189 52.4681C85.2183 52.4567 85.3218 52.5716 85.3318 52.8639C85.3474 53.3222 85.3871 53.7804 85.4368 54.2373C85.468 54.5211 85.3602 54.6104 85.0835 54.6076C83.9362 54.5982 82.7874 54.5982 81.6372 54.6076C81.362 54.6062 81.2031 54.531 81.2641 54.2146L81.257 54.2132ZM80.0326 47.8286C80.1064 47.796 80.1986 47.7364 80.2752 47.8201C80.3518 47.9038 80.2951 47.9889 80.2624 48.0656C79.9971 48.687 79.851 49.3425 79.6807 49.9909C79.6424 50.1327 79.6538 50.3285 79.4211 50.3285H76.7254C77.6059 49.2341 78.7449 48.376 80.0397 47.8315L80.0326 47.8286ZM74.9845 54.1068C74.9889 54.0895 74.9917 54.072 74.993 54.0543C75.2768 52.4681 75.2768 52.4681 76.8715 52.4681C77.544 52.4681 78.218 52.4766 78.889 52.4681C79.1728 52.4681 79.2693 52.5532 79.2367 52.8384C79.1827 53.3137 79.1416 53.7904 79.1274 54.2671C79.1189 54.565 78.9728 54.609 78.7231 54.6034C78.1555 54.5906 77.588 54.6034 77.0205 54.6034C76.453 54.6034 75.9209 54.5792 75.3747 54.6119C74.9675 54.6317 74.8966 54.4558 74.9916 54.1096L74.9845 54.1068Z" fill="white"/>
<path d="M28.01 67.1836C28.01 69.228 29.3592 70.5645 31.4151 70.5674C34.8343 70.5674 38.2527 70.5674 41.6701 70.5674C43.6777 70.5674 45.034 69.2039 45.0369 67.1935C45.0369 64.59 45.0468 61.9865 45.0369 59.3816C45.0369 58.9829 45.1135 58.8482 45.5476 58.8496C48.8236 58.8709 52.101 58.8609 55.3784 58.8624C56.3957 58.8624 56.7518 59.2185 56.7518 60.2343C56.7518 64.2381 56.7518 68.2415 56.7518 72.2444C56.7518 72.6345 56.7674 73.0247 56.7518 73.4135C56.7362 73.6972 56.8426 73.7838 57.1179 73.771C57.5245 73.7412 57.9328 73.7412 58.3395 73.771C58.7835 73.815 58.8942 73.6646 58.8914 73.2234C58.8743 68.9003 58.8829 64.5787 58.8814 60.2556C58.8814 58.0281 57.5832 56.7257 55.3586 56.7228C52.1166 56.7228 48.8747 56.71 45.6342 56.7356C45.1291 56.7356 45.034 56.5838 45.0383 56.117C45.061 53.5632 45.0511 51.0093 45.0482 48.4654C45.0482 46.3444 43.7188 45.0121 41.6006 45.0093C38.2352 45.0093 34.8698 45.0093 31.5044 45.0093C29.3379 45.0093 28.0213 46.3217 28.0185 48.4754C28.0185 51.5759 28.0185 54.676 28.0185 57.7756C28.0109 60.912 28.0081 64.048 28.01 67.1836ZM42.9073 66.7664C42.898 66.9432 42.898 67.1203 42.9073 67.2971C42.8846 67.988 42.4646 68.4321 41.7722 68.4392C38.2725 68.4477 34.7686 68.4477 31.2604 68.4392C30.5624 68.4392 30.158 68.005 30.1353 67.3042C30.1027 66.311 30.1027 66.311 31.0703 66.311H36.4929C38.4792 66.311 40.457 66.3195 42.4391 66.3039C42.7994 66.2982 42.9669 66.3834 42.9129 66.7664H42.9073ZM42.9073 57.8195C42.9073 59.786 42.8988 61.751 42.9158 63.7175C42.9158 64.0863 42.8193 64.1942 42.4447 64.1927C38.4948 64.1804 34.5459 64.1804 30.5978 64.1927C30.2148 64.1927 30.1311 64.0707 30.1325 63.7104C30.1438 59.7604 30.1438 55.811 30.1325 51.862C30.1325 51.4946 30.2275 51.3853 30.6035 51.3853C34.5515 51.3995 38.5005 51.3995 42.4504 51.3853C42.8307 51.3853 42.9186 51.5059 42.9158 51.8677C42.9002 53.8526 42.9087 55.8361 42.9087 57.8195H42.9073ZM30.1381 48.7818C30.1474 48.6401 30.1474 48.4979 30.1381 48.3562C30.1509 47.5546 30.5439 47.1488 31.347 47.146C33.522 47.146 35.6984 47.146 37.8734 47.146C39.129 47.146 40.3847 47.146 41.6403 47.146C42.5015 47.146 42.8945 47.5532 42.903 48.4229C42.9115 49.2926 42.9115 49.2742 42.0844 49.2742H36.5114C34.5478 49.2742 32.5841 49.2628 30.6205 49.2841C30.2261 49.2855 30.0757 49.1777 30.1381 48.7818Z" fill="white"/>
<path d="M57.806 82.2726C58.8715 82.2726 58.8715 82.2726 58.8715 81.1986C58.8715 80.1473 58.8715 80.1473 57.8415 80.1473C56.7462 80.1473 56.7462 80.1473 56.7462 81.1887C56.7462 82.2726 56.7462 82.2726 57.806 82.2726Z" fill="white"/>
<path d="M63.1308 81.2029C63.1308 82.2726 63.1308 82.274 64.1935 82.274C65.2562 82.274 65.2619 82.274 65.2619 81.2128C65.2619 80.1515 65.2619 80.1473 64.2034 80.1473C63.145 80.1473 63.1308 80.1473 63.1308 81.2029Z" fill="white"/>
<path d="M64.2304 75.8909C63.1308 75.8909 63.1308 75.8909 63.1308 76.9308C63.1308 78.0162 63.1308 78.0162 64.1921 78.0162C65.2533 78.0162 65.2619 78.0162 65.2619 76.9422C65.2619 75.8909 65.2619 75.8909 64.2304 75.8909Z" fill="white"/>
<path d="M58.8715 76.9408C58.8715 75.8909 58.8715 75.8909 57.8415 75.8909C56.7462 75.8909 56.7462 75.8909 56.7462 76.9323C56.7462 78.0162 56.7462 78.0162 57.806 78.0162C58.8659 78.0162 58.8715 78.0162 58.8715 76.9408Z" fill="white"/>
<path d="M46.5477 81.739C46.962 81.6369 47.2472 81.0736 47.6274 80.76C48.0076 80.4465 47.8956 80.262 47.5849 79.9868C45.3304 77.9891 42.6971 77.0073 39.7106 76.9478C36.7155 77.0045 34.1021 78.0005 31.8547 79.9698C31.5256 80.2535 31.4092 80.4734 31.8221 80.7827C32.0772 80.9747 32.3041 81.2015 32.496 81.4567C32.8067 81.8681 33.0266 81.8142 33.4012 81.4822C35.0379 80.0349 37.1209 79.1918 39.3034 79.0931C41.486 78.9945 43.6366 79.6464 45.3971 80.9402C45.783 81.2254 46.0951 81.8511 46.5477 81.739Z" fill="white"/>
<path d="M39.756 85.4735C39.3353 85.468 38.9177 85.5459 38.5272 85.7024C38.1367 85.859 37.781 86.0913 37.4806 86.3859C37.1803 86.6805 36.9411 87.0316 36.7769 87.4189C36.6127 87.8063 36.5268 88.2223 36.524 88.6431C36.5183 89.4837 36.8449 90.2926 37.4327 90.8937C38.0204 91.4947 38.8218 91.8393 39.6624 91.8524C40.0832 91.8572 40.5008 91.7791 40.8914 91.6223C41.282 91.4656 41.6378 91.2334 41.9385 90.939C42.2393 90.6446 42.479 90.2938 42.644 89.9066C42.809 89.5195 42.896 89.1036 42.9001 88.6828C42.9028 87.842 42.5745 87.034 41.9861 86.4334C41.3978 85.8329 40.5966 85.488 39.756 85.4735V85.4735ZM39.7291 89.7298C39.5879 89.7308 39.448 89.7038 39.3173 89.6505C39.1866 89.5972 39.0677 89.5185 38.9675 89.4191C38.8673 89.3197 38.7878 89.2015 38.7334 89.0712C38.6791 88.9409 38.651 88.8012 38.6508 88.6601C38.655 88.384 38.7654 88.1201 38.9591 87.9233C39.1528 87.7265 39.4148 87.6118 39.6908 87.6031C39.9758 87.6038 40.2492 87.7165 40.4519 87.9168C40.6547 88.1172 40.7706 88.3892 40.7747 88.6743C40.7657 88.9485 40.6533 89.2092 40.4602 89.4042C40.2671 89.5991 40.0075 89.7139 39.7333 89.7256L39.7291 89.7298Z" fill="white"/>
<path d="M40.5932 81.2737C38.3458 81.0226 36.3737 81.6738 34.6839 83.1778C34.5207 83.3196 34.4711 83.4317 34.6513 83.6034C35.023 83.9567 35.3848 84.3199 35.7409 84.6888C35.897 84.8505 36.0105 84.8505 36.1807 84.6888C37.1523 83.8205 38.4097 83.3405 39.7128 83.3405C41.0159 83.3405 42.2733 83.8205 43.2449 84.6888C43.4052 84.8307 43.5173 84.8718 43.6833 84.6973C44.0366 84.3256 44.4055 83.9694 44.7658 83.6062C44.8268 83.5452 44.8765 83.4729 44.99 83.3352C44.8481 83.2345 44.7218 83.1465 44.6027 83.043C43.4807 82.0537 42.0802 81.4357 40.5932 81.2737Z" fill="white"/>
<path d="M20.8711 12.9375V14.7539L14.2734 30H10.7109L17.3086 15.5742H8.8125V12.9375H20.8711Z" fill="white"/>
</svg>
