<svg width="120" height="120" viewBox="0 0 120 120" fill="none" xmlns="http://www.w3.org/2000/svg">
<rect width="120" height="120" fill="#64C1E8"/>
<path d="M15.4961 30H12.1094V16.9453L8.06641 18.1992V15.4453L15.1328 12.9141H15.4961V30Z" fill="white"/>
<path d="M36.311 12.0283H33.7974V19H32.7715V12.0283H30.2632V11.1797H36.311V12.0283ZM40.3394 15.8364H38.5024V19H37.4658V11.1797H40.0547C40.9355 11.1797 41.6123 11.3802 42.085 11.7812C42.5612 12.1823 42.7993 12.766 42.7993 13.5322C42.7993 14.0192 42.6668 14.4435 42.4019 14.8052C42.1405 15.1668 41.7752 15.4372 41.3062 15.6162L43.1431 18.9355V19H42.0366L40.3394 15.8364ZM38.5024 14.9932H40.0869C40.599 14.9932 41.0054 14.8607 41.3062 14.5957C41.6105 14.3307 41.7627 13.9762 41.7627 13.5322C41.7627 13.0488 41.6177 12.6782 41.3276 12.4204C41.0412 12.1626 40.6258 12.0319 40.0815 12.0283H38.5024V14.9932ZM48.5679 16.959H45.2915L44.5557 19H43.4922L46.4785 11.1797H47.3809L50.3726 19H49.3145L48.5679 16.959ZM45.603 16.1104H48.2617L46.9297 12.4526L45.603 16.1104ZM51.4253 19V11.1797H53.6328C54.3132 11.1797 54.9147 11.3301 55.4375 11.6309C55.9603 11.9316 56.3631 12.3595 56.646 12.9146C56.9325 13.4696 57.0775 14.1069 57.0811 14.8267V15.3262C57.0811 16.0638 56.9378 16.7101 56.6514 17.2651C56.3685 17.8201 55.9621 18.2463 55.4321 18.5435C54.9058 18.8407 54.2917 18.9928 53.5898 19H51.4253ZM52.4565 12.0283V18.1567H53.5415C54.3364 18.1567 54.9541 17.9097 55.3945 17.4155C55.8385 16.9214 56.0605 16.2178 56.0605 15.3047V14.8481C56.0605 13.9601 55.8511 13.2708 55.4321 12.7803C55.0168 12.2861 54.4259 12.0355 53.6597 12.0283H52.4565ZM63.0645 15.3853H59.6753V18.1567H63.6123V19H58.644V11.1797H63.5586V12.0283H59.6753V14.542H63.0645V15.3853ZM71.9429 16.959H68.6665L67.9307 19H66.8672L69.8535 11.1797H70.7559L73.7476 19H72.6895L71.9429 16.959ZM68.978 16.1104H71.6367L70.3047 12.4526L68.978 16.1104ZM80.8105 19H79.7739L75.8369 12.9736V19H74.8003V11.1797H75.8369L79.7847 17.2329V11.1797H80.8105V19ZM82.6421 19V11.1797H84.8496C85.5299 11.1797 86.1315 11.3301 86.6543 11.6309C87.1771 11.9316 87.5799 12.3595 87.8628 12.9146C88.1493 13.4696 88.2943 14.1069 88.2979 14.8267V15.3262C88.2979 16.0638 88.1546 16.7101 87.8682 17.2651C87.5853 17.8201 87.1789 18.2463 86.6489 18.5435C86.1226 18.8407 85.5085 18.9928 84.8066 19H82.6421ZM83.6733 12.0283V18.1567H84.7583C85.5532 18.1567 86.1709 17.9097 86.6113 17.4155C87.0553 16.9214 87.2773 16.2178 87.2773 15.3047V14.8481C87.2773 13.9601 87.0679 13.2708 86.6489 12.7803C86.2336 12.2861 85.6427 12.0355 84.8765 12.0283H83.6733ZM32.0142 32H30.9829V24.1797H32.0142V32ZM39.915 32H38.8784L34.9414 25.9736V32H33.9048V24.1797H34.9414L38.8892 30.2329V24.1797H39.915V32ZM44.3354 30.6304L46.5698 24.1797H47.6978L44.7974 32H43.8843L40.9893 24.1797H42.1118L44.3354 30.6304ZM53.1709 28.3853H49.7817V31.1567H53.7188V32H48.7505V24.1797H53.665V25.0283H49.7817V27.542H53.1709V28.3853ZM57.3066 28.5142C56.4222 28.2599 55.7777 27.9484 55.373 27.5796C54.972 27.2072 54.7715 26.7489 54.7715 26.2046C54.7715 25.5887 55.0168 25.0802 55.5073 24.6792C56.0015 24.2746 56.6424 24.0723 57.4302 24.0723C57.9673 24.0723 58.4453 24.1761 58.8643 24.3838C59.2868 24.5915 59.6126 24.8779 59.8418 25.2432C60.0745 25.6084 60.1909 26.0076 60.1909 26.4409H59.1543C59.1543 25.9683 59.0039 25.5977 58.7031 25.3291C58.4023 25.057 57.978 24.9209 57.4302 24.9209C56.9217 24.9209 56.5243 25.0337 56.2378 25.2593C55.9549 25.4813 55.8135 25.791 55.8135 26.1885C55.8135 26.5072 55.9478 26.7775 56.2163 26.9995C56.4884 27.2179 56.9486 27.4185 57.5967 27.6011C58.2484 27.7837 58.7568 27.986 59.1221 28.208C59.4909 28.4264 59.763 28.6825 59.9385 28.9761C60.1175 29.2697 60.207 29.6152 60.207 30.0127C60.207 30.6465 59.96 31.1549 59.4658 31.5381C58.9717 31.9176 58.311 32.1074 57.4839 32.1074C56.9468 32.1074 56.4455 32.0054 55.98 31.8013C55.5145 31.5936 55.1546 31.3107 54.9004 30.9526C54.6497 30.5946 54.5244 30.1882 54.5244 29.7334H55.561C55.561 30.2061 55.7347 30.5802 56.082 30.856C56.4329 31.1281 56.9002 31.2642 57.4839 31.2642C58.0282 31.2642 58.4453 31.1532 58.7354 30.9312C59.0254 30.7091 59.1704 30.4066 59.1704 30.0234C59.1704 29.6403 59.0361 29.3449 58.7676 29.1372C58.499 28.9259 58.012 28.7183 57.3066 28.5142ZM66.937 25.0283H64.4233V32H63.3975V25.0283H60.8892V24.1797H66.937V25.0283ZM69.4292 24.1797L71.9858 30.5605L74.5425 24.1797H75.8799V32H74.8486V28.9546L74.9453 25.6675L72.3779 32H71.5884L69.0264 25.6836L69.1284 28.9546V32H68.0972V24.1797H69.4292ZM82.1211 28.3853H78.7319V31.1567H82.6689V32H77.7007V24.1797H82.6152V25.0283H78.7319V27.542H82.1211V28.3853ZM89.9629 32H88.9263L84.9893 25.9736V32H83.9526V24.1797H84.9893L88.937 30.2329V24.1797H89.9629V32ZM97.0366 25.0283H94.5229V32H93.4971V25.0283H90.9888V24.1797H97.0366V25.0283Z" fill="white"/>
<path d="M30.3723 91.5687C31.4399 91.5955 32.4533 92.0447 33.1902 92.8176C33.8029 93.4434 34.4079 94.0783 35.0115 94.7157C37.6355 97.4946 41.8909 97.4074 44.3783 95.0188C45.1173 94.3085 45.7795 93.5293 46.5184 92.8202C48.2408 91.1693 50.5943 91.1537 52.2972 92.8124C52.9958 93.4928 53.6333 94.2331 54.3358 94.907C56.8947 97.358 60.6623 97.4464 63.3448 95.1554C64.2386 94.3931 64.9463 93.4538 65.8062 92.6602C66.488 92.0271 67.3687 91.6508 68.2974 91.5957C69.2261 91.5407 70.1451 91.8103 70.8969 92.3584C71.6969 92.9529 72.3162 93.7348 73.0005 94.449C74.3808 95.8905 75.9927 96.8194 78.0495 96.7907C79.8123 96.7907 81.3617 96.2274 82.6483 95.0058C83.1127 94.5773 83.5543 94.1249 83.9714 93.6503C84.9991 92.4482 86.1674 91.5687 87.8469 91.5258C88.5976 91.505 89.0568 90.8584 88.9943 90.1572C88.9319 89.456 88.3673 88.9864 87.6283 88.9864C85.8695 88.9864 84.3656 89.6251 83.1063 90.8298C82.3257 91.5817 81.6024 92.4039 80.8062 93.1429C79.6249 94.2383 78.229 94.4022 76.7212 93.956C76.3309 93.8415 76.2346 93.6958 76.4077 93.2769C77.2975 91.1225 78.1509 88.9525 79.0174 86.7878C80.5377 82.9829 82.059 79.1789 83.5811 75.3758C84.0351 74.2362 83.667 73.5467 82.4597 73.2657C81.7819 73.1083 81.1015 72.9587 80.4224 72.8065C74.1891 71.4188 67.9567 70.0333 61.7252 68.6499C60.2473 68.3234 58.7759 67.8082 57.2486 68.4314C57.1098 68.4762 56.9675 68.5093 56.8232 68.5302C49.7044 70.1131 42.5865 71.6963 35.4694 73.28C34.3168 73.5402 33.959 74.2401 34.3975 75.3381C36.7843 81.3225 39.178 87.3068 41.5787 93.2912C41.7504 93.7166 41.6216 93.8246 41.2782 93.9352C39.6299 94.4659 38.1728 94.1654 36.9356 92.9347C36.2851 92.2843 35.6555 91.5974 34.9946 90.9495C33.6937 89.6693 32.1325 88.9486 30.2787 88.9864C30.0913 88.9835 29.9056 89.0225 29.7352 89.1005C29.5647 89.1785 29.4139 89.2935 29.2936 89.4373C29.1733 89.581 29.0866 89.7498 29.0398 89.9313C28.9931 90.1127 28.9874 90.3024 29.0232 90.4863C29.1208 91.1355 29.5814 91.5375 30.3723 91.5687ZM57.6922 84.7531V84.0714C57.6922 80.9491 57.6922 77.8312 57.6922 74.7176C57.6922 73.6872 58.5548 73.0471 59.4472 73.3945C59.6468 73.4666 59.8244 73.5891 59.9627 73.75C60.1011 73.9109 60.1955 74.1048 60.2369 74.313C60.2799 74.5358 60.2982 74.7626 60.2915 74.9895C60.2915 81.1473 60.2959 87.3016 60.3045 93.4525C60.3045 93.8753 60.1979 94.0679 59.7647 94.1121C59.2175 94.1765 58.6648 94.1765 58.1176 94.1121C57.7664 94.0653 57.6805 93.9143 57.6818 93.5722C57.7026 90.6307 57.6922 87.6919 57.6922 84.7531Z" fill="white"/>
<path d="M87.6401 94.1837C86.2857 94.1891 84.9668 94.617 83.8673 95.4079C82.8136 96.1638 82.0317 97.1941 81.1093 98.0827C79.2503 99.878 76.9463 99.8689 75.108 98.0515C74.4146 97.3672 73.7655 96.6373 73.0525 95.9699C70.5911 93.6842 67.0122 93.5671 64.3817 95.6577C63.4607 96.3888 62.7243 97.3034 61.9034 98.1295C60.2122 99.8429 57.6103 99.7557 56.1142 98.179C55.4442 97.4712 54.7677 96.77 54.0639 96.0974C51.3709 93.5216 47.4759 93.5085 44.7764 96.0727C44.0934 96.7232 43.4755 97.4361 42.8029 98.0944C41.0232 99.8338 38.7531 99.8559 36.9486 98.1412C36.2891 97.5168 35.6867 96.8312 35.0428 96.1898C33.7587 94.911 32.2223 94.1954 30.3919 94.1707C29.584 94.1603 29.0076 94.7067 29.0037 95.4717C28.9998 96.2366 29.5241 96.7609 30.3333 96.7726C30.8456 96.7721 31.3529 96.8737 31.8256 97.0713C32.2982 97.269 32.7267 97.5589 33.0861 97.924C33.7769 98.6096 34.4521 99.3134 35.1234 100.018C37.6407 102.662 42.1095 102.62 44.6008 100C45.2708 99.2939 45.933 98.577 46.6329 97.9018C47.3737 97.1671 48.3755 96.7558 49.419 96.7583C50.4624 96.7607 51.4623 97.1766 52.1997 97.9149C52.8501 98.5497 53.4629 99.2158 54.1029 99.8663C54.8653 100.634 55.7109 101.316 56.7556 101.623C59.3015 102.368 61.638 102.004 63.6037 100.103C64.3505 99.381 65.0283 98.5874 65.7867 97.8797C67.4168 96.355 69.7559 96.3849 71.3548 97.9318C72.0664 98.62 72.7299 99.3628 73.4363 100.051C74.7464 101.335 76.2984 102.051 78.2186 101.939C79.4688 102.057 80.6332 101.649 81.7038 100.951C82.5521 100.398 83.265 99.6789 83.9155 98.9127C84.9562 97.6989 86.1154 96.7232 87.8612 96.7479C88.5533 96.7583 89.0321 96.1065 88.997 95.4157C88.9774 95.0735 88.8243 94.7526 88.5705 94.5222C88.3167 94.2918 87.9826 94.1702 87.6401 94.1837V94.1837Z" fill="white"/>
<path d="M78.173 60.2355C76.5663 60.2511 74.9597 60.242 73.3595 60.242C71.7593 60.242 70.1462 60.2498 68.5395 60.2355C68.2325 60.2355 68.1297 60.2992 68.131 60.6258C68.1475 62.7515 68.1475 64.8764 68.131 67.0004C68.131 67.3361 68.2442 67.4284 68.5473 67.4948C71.3001 68.0945 74.0503 68.7125 76.8005 69.3252C77.8413 69.5581 78.5685 68.9987 78.5711 67.9306C78.5711 65.4952 78.5711 63.0611 78.5815 60.6258C78.5763 60.3135 78.4891 60.2316 78.173 60.2355Z" fill="white"/>
<path d="M68.5161 49.8058C68.1778 49.8058 68.1258 49.9177 68.1258 50.2182C68.1371 52.56 68.1371 54.8991 68.1258 57.2356C68.1258 57.5569 68.2156 57.6376 68.5304 57.635C70.1215 57.6193 71.7138 57.6271 73.3049 57.6271C74.9285 57.6271 76.5572 57.618 78.1769 57.6363C78.5022 57.6363 78.5763 57.5413 78.5672 57.2304C78.5542 55.2321 78.5672 53.2338 78.5594 51.2356C78.5594 50.3418 78.039 49.8189 77.1284 49.8163C74.265 49.8098 71.3912 49.8202 68.5161 49.8058Z" fill="white"/>
<path d="M58.201 47.2078C60.6364 47.1909 63.0717 47.1987 65.5071 47.1987C67.9755 47.1987 70.4434 47.1987 72.9108 47.1987C73.0903 47.1987 73.3518 47.3171 73.3479 46.9385C73.331 45.6883 73.357 44.4368 73.3193 43.1879C73.2985 42.4697 72.7872 42.017 72.0925 42.017C67.4169 42.017 62.7409 42.0135 58.0644 42.0066C57.76 42.0066 57.6871 42.0899 57.6897 42.3865C57.7053 43.8318 57.7157 45.2772 57.6897 46.7212C57.6754 47.1453 57.8224 47.2104 58.201 47.2078Z" fill="white"/>
<path d="M39.41 64.3361C39.41 65.5382 39.4009 66.7403 39.41 67.9411C39.4204 68.935 40.149 69.5699 41.0531 69.3721C42.985 68.9493 44.9104 68.5031 46.8436 68.0868C47.1546 68.0204 47.2626 67.9124 47.26 67.5846C47.2461 65.2776 47.2461 62.971 47.26 60.6649C47.26 60.3227 47.1676 60.2342 46.828 60.2355C44.5063 60.2512 42.1841 60.2512 39.8615 60.2355C39.5089 60.2355 39.3892 60.3019 39.397 60.6831C39.4269 61.8982 39.41 63.1172 39.41 64.3361Z" fill="white"/>
<path d="M50.256 49.8071C49.9438 49.8071 49.8397 49.8787 49.8449 50.2065C49.8644 51.3578 49.8527 52.5092 49.8527 53.6618C49.8527 54.8457 49.8605 56.0295 49.8527 57.2134C49.8527 57.51 49.8995 57.6388 50.243 57.6362C52.5934 57.6189 54.9451 57.6189 57.298 57.6362C57.6168 57.6362 57.7078 57.5543 57.7065 57.2316C57.6927 54.8951 57.6927 52.559 57.7065 50.2234C57.7065 49.9242 57.6545 49.8045 57.3162 49.8071C54.965 49.8219 52.6116 49.8219 50.256 49.8071Z" fill="white"/>
<path d="M39.851 57.6374C41.0037 57.6101 42.1563 57.627 43.3103 57.627C44.4642 57.627 45.652 57.6179 46.8228 57.6348C47.1442 57.6348 47.2717 57.5749 47.2691 57.2146C47.2534 54.8729 47.2534 52.5346 47.2691 50.1999C47.2691 49.8577 47.1494 49.8096 46.8489 49.8096C44.8519 49.8213 42.8549 49.8096 40.8645 49.8174C39.9421 49.8174 39.4243 50.3469 39.4217 51.2783C39.4217 53.2428 39.4295 55.2072 39.4126 57.1729C39.3996 57.5242 39.479 57.6465 39.851 57.6374Z" fill="white"/>
<path d="M45.0731 47.2064C46.6629 47.1895 48.2513 47.1986 49.8411 47.1986C51.4309 47.1986 53.0193 47.1882 54.6078 47.2064C54.9707 47.2064 55.1021 47.1414 55.0943 46.7407C55.067 45.3097 55.0709 43.8864 55.0943 42.4593C55.0943 42.1067 55.0267 41.9974 54.6507 42C51.7808 42.0183 48.9096 42.0092 46.0397 42.0105C45.1473 42.0105 44.6607 42.4892 44.6542 43.3817C44.6464 44.5161 44.6672 45.6518 44.6425 46.7862C44.6295 47.1453 44.7388 47.2103 45.0731 47.2064Z" fill="white"/>
<path d="M50.2195 67.3347C52.589 66.8039 54.9589 66.2788 57.3292 65.7593C57.5803 65.7046 57.7091 65.6292 57.7052 65.3273C57.6861 63.7549 57.6861 62.1821 57.7052 60.6088C57.7052 60.2966 57.6076 60.2328 57.3149 60.2367C56.131 60.251 54.9472 60.2367 53.7633 60.2367C52.5794 60.2367 51.3956 60.2432 50.213 60.2367C49.9528 60.2367 49.8422 60.2797 49.8435 60.5763C49.854 62.7333 49.854 64.8902 49.8435 67.0472C49.8409 67.3646 49.9619 67.392 50.2195 67.3347Z" fill="white"/>
<path d="M65.1337 49.8045C63.6558 49.8266 62.1792 49.8227 60.7013 49.8045C60.393 49.8045 60.2902 49.8734 60.2928 50.1948C60.3067 52.5365 60.3067 54.8747 60.2928 57.2095C60.2928 57.5087 60.3449 57.631 60.6831 57.6271C62.1575 57.6071 63.6345 57.6071 65.1142 57.6271C65.4316 57.6271 65.5226 57.5477 65.5174 57.2264C65.4979 56.0555 65.5096 54.8847 65.5096 53.7138C65.5096 52.543 65.5018 51.3721 65.5161 50.2013C65.5239 49.9242 65.4758 49.8006 65.1337 49.8045Z" fill="white"/>
<path d="M60.6844 65.7683C62.1718 66.084 63.657 66.4106 65.1401 66.748C65.4354 66.8156 65.5304 66.7688 65.5304 66.4396C65.5083 65.4665 65.5226 64.4882 65.5226 63.5203C65.5226 62.5797 65.5096 61.6391 65.5304 60.6986C65.5382 60.3629 65.4901 60.2237 65.0959 60.2315C63.6375 60.2601 62.1778 60.2497 60.7182 60.2315C60.4255 60.2315 60.2967 60.2757 60.3006 60.6218C60.3214 62.1829 60.3188 63.735 60.3006 65.2922C60.2941 65.6005 60.3968 65.7085 60.6844 65.7683Z" fill="white"/>
</svg>
