<svg width="120" height="120" viewBox="0 0 120 120" fill="none" xmlns="http://www.w3.org/2000/svg">
<rect width="120" height="120" fill="#FDC47D"/>
<path d="M19.457 12.7617V15.5508H19.1289C17.5977 15.5742 16.3633 15.9727 15.4258 16.7461C14.4961 17.5195 13.9375 18.5938 13.75 19.9688C14.6562 19.0469 15.8008 18.5859 17.1836 18.5859C18.668 18.5859 19.8477 19.1172 20.7227 20.1797C21.5977 21.2422 22.0352 22.6406 22.0352 24.375C22.0352 25.4844 21.793 26.4883 21.3086 27.3867C20.832 28.2852 20.1523 28.9844 19.2695 29.4844C18.3945 29.9844 17.4023 30.2344 16.293 30.2344C14.4961 30.2344 13.043 29.6094 11.9336 28.3594C10.832 27.1094 10.2812 25.4414 10.2812 23.3555V22.1367C10.2812 20.2852 10.6289 18.6523 11.3242 17.2383C12.0273 15.8164 13.0312 14.7188 14.3359 13.9453C15.6484 13.1641 17.168 12.7695 18.8945 12.7617H19.457ZM16.1523 21.3047C15.6055 21.3047 15.1094 21.4492 14.6641 21.7383C14.2188 22.0195 13.8906 22.3945 13.6797 22.8633V23.8945C13.6797 25.0273 13.9023 25.9141 14.3477 26.5547C14.793 27.1875 15.418 27.5039 16.2227 27.5039C16.9492 27.5039 17.5352 27.2188 17.9805 26.6484C18.4336 26.0703 18.6602 25.3242 18.6602 24.4102C18.6602 23.4805 18.4336 22.7305 17.9805 22.1602C17.5273 21.5898 16.918 21.3047 16.1523 21.3047Z" fill="white"/>
<path d="M33.7759 16.8364H31.939V20H30.9023V12.1797H33.4912C34.3721 12.1797 35.0488 12.3802 35.5215 12.7812C35.9977 13.1823 36.2358 13.766 36.2358 14.5322C36.2358 15.0192 36.1034 15.4435 35.8384 15.8052C35.577 16.1668 35.2118 16.4372 34.7427 16.6162L36.5796 19.9355V20H35.4731L33.7759 16.8364ZM31.939 15.9932H33.5234C34.0355 15.9932 34.4419 15.8607 34.7427 15.5957C35.047 15.3307 35.1992 14.9762 35.1992 14.5322C35.1992 14.0488 35.0542 13.6782 34.7642 13.4204C34.4777 13.1626 34.0623 13.0319 33.5181 13.0283H31.939V15.9932ZM42.1064 16.3853H38.7173V19.1567H42.6543V20H37.686V12.1797H42.6006V13.0283H38.7173V15.542H42.1064V16.3853ZM49.7119 18.9741C49.4469 19.3537 49.0763 19.6383 48.6001 19.8281C48.1274 20.0143 47.576 20.1074 46.9458 20.1074C46.3084 20.1074 45.7427 19.9588 45.2485 19.6616C44.7544 19.3608 44.3713 18.9347 44.0991 18.3833C43.8306 17.8319 43.6927 17.1927 43.6855 16.4658V15.7837C43.6855 14.6056 43.9595 13.6925 44.5073 13.0444C45.0588 12.3963 45.8322 12.0723 46.8276 12.0723C47.644 12.0723 48.3011 12.2817 48.7988 12.7007C49.2965 13.116 49.6009 13.7069 49.7119 14.4731H48.6807C48.4873 13.4383 47.8714 12.9209 46.833 12.9209C46.1419 12.9209 45.6174 13.1644 45.2593 13.6514C44.9048 14.1348 44.7257 14.8366 44.7222 15.7568V16.396C44.7222 17.2733 44.9227 17.9715 45.3237 18.4907C45.7248 19.0063 46.2673 19.2642 46.9512 19.2642C47.3379 19.2642 47.6763 19.2212 47.9663 19.1353C48.2563 19.0493 48.4963 18.9043 48.686 18.7002V16.9438H46.876V16.106H49.7119V18.9741ZM56.9414 12.1797V17.4971C56.9378 18.2347 56.7051 18.8381 56.2432 19.3071C55.7848 19.7762 55.1618 20.0394 54.374 20.0967L54.1001 20.1074C53.2443 20.1074 52.5622 19.8765 52.0537 19.4146C51.5452 18.9526 51.2874 18.3171 51.2803 17.5078V12.1797H52.3008V17.4756C52.3008 18.0413 52.4565 18.4818 52.7681 18.7969C53.0796 19.1084 53.5236 19.2642 54.1001 19.2642C54.6838 19.2642 55.1296 19.1084 55.4375 18.7969C55.749 18.4854 55.9048 18.0467 55.9048 17.481V12.1797H56.9414ZM59.6055 19.1567H63.3115V20H58.5688V12.1797H59.6055V19.1567ZM68.9136 17.959H65.6372L64.9014 20H63.8379L66.8242 12.1797H67.7266L70.7183 20H69.6602L68.9136 17.959ZM65.9487 17.1104H68.6074L67.2754 13.4526L65.9487 17.1104ZM76.4761 13.0283H73.9624V20H72.9365V13.0283H70.4282V12.1797H76.4761V13.0283ZM83.5015 16.3423C83.5015 17.1086 83.3726 17.7782 83.1147 18.3511C82.8569 18.9204 82.4917 19.3555 82.019 19.6562C81.5464 19.957 80.995 20.1074 80.3647 20.1074C79.7489 20.1074 79.2028 19.957 78.7266 19.6562C78.2503 19.3519 77.8797 18.9204 77.6147 18.3618C77.3534 17.7996 77.2191 17.1497 77.2119 16.4121V15.8481C77.2119 15.0962 77.3426 14.432 77.604 13.8555C77.8654 13.279 78.2342 12.8385 78.7104 12.5342C79.1903 12.2262 79.7381 12.0723 80.354 12.0723C80.9806 12.0723 81.5321 12.2244 82.0083 12.5288C82.4881 12.8296 82.8569 13.2682 83.1147 13.8447C83.3726 14.4176 83.5015 15.0854 83.5015 15.8481V16.3423ZM82.4756 15.8374C82.4756 14.91 82.2894 14.1992 81.917 13.7051C81.5446 13.2074 81.0236 12.9585 80.354 12.9585C79.7023 12.9585 79.1885 13.2074 78.8125 13.7051C78.4401 14.1992 78.2485 14.8867 78.2378 15.7676V16.3423C78.2378 17.241 78.4258 17.9482 78.8018 18.4639C79.1813 18.9759 79.7023 19.2319 80.3647 19.2319C81.0308 19.2319 81.5464 18.9902 81.9116 18.5068C82.2769 18.0199 82.4648 17.3234 82.4756 16.4175V15.8374ZM87.9165 16.8364H86.0796V20H85.043V12.1797H87.6318C88.5127 12.1797 89.1895 12.3802 89.6621 12.7812C90.1383 13.1823 90.3765 13.766 90.3765 14.5322C90.3765 15.0192 90.244 15.4435 89.979 15.8052C89.7176 16.1668 89.3524 16.4372 88.8833 16.6162L90.7202 19.9355V20H89.6138L87.9165 16.8364ZM86.0796 15.9932H87.6641C88.1761 15.9932 88.5825 15.8607 88.8833 15.5957C89.1877 15.3307 89.3398 14.9762 89.3398 14.5322C89.3398 14.0488 89.1948 13.6782 88.9048 13.4204C88.6183 13.1626 88.203 13.0319 87.6587 13.0283H86.0796V15.9932ZM93.9536 16.106L95.9946 12.1797H97.1655L94.4692 17.0835V20H93.438V17.0835L90.7417 12.1797H91.9233L93.9536 16.106ZM36.6602 30.5186C36.5635 31.3457 36.2573 31.9849 35.7417 32.436C35.2297 32.8836 34.5475 33.1074 33.6953 33.1074C32.7715 33.1074 32.0303 32.7762 31.4717 32.1138C30.9167 31.4513 30.6392 30.5651 30.6392 29.4551V28.7031C30.6392 27.9762 30.7681 27.3371 31.0259 26.7856C31.2873 26.2342 31.6561 25.8117 32.1323 25.5181C32.6086 25.2209 33.16 25.0723 33.7866 25.0723C34.6174 25.0723 35.2834 25.305 35.7847 25.7705C36.286 26.2324 36.5778 26.8734 36.6602 27.6934H35.6235C35.534 27.0703 35.3389 26.6191 35.0381 26.3398C34.7409 26.0605 34.3237 25.9209 33.7866 25.9209C33.1278 25.9209 32.6104 26.1644 32.2344 26.6514C31.862 27.1383 31.6758 27.8312 31.6758 28.73V29.4873C31.6758 30.3359 31.853 31.0109 32.2075 31.5122C32.562 32.0135 33.0579 32.2642 33.6953 32.2642C34.2682 32.2642 34.7069 32.1353 35.0112 31.8774C35.3192 31.616 35.5233 31.1631 35.6235 30.5186H36.6602ZM44.0884 29.3423C44.0884 30.1086 43.9595 30.7782 43.7017 31.3511C43.4438 31.9204 43.0786 32.3555 42.606 32.6562C42.1333 32.957 41.5819 33.1074 40.9517 33.1074C40.3358 33.1074 39.7897 32.957 39.3135 32.6562C38.8372 32.3519 38.4666 31.9204 38.2017 31.3618C37.9403 30.7996 37.806 30.1497 37.7988 29.4121V28.8481C37.7988 28.0962 37.9295 27.432 38.1909 26.8555C38.4523 26.279 38.8211 25.8385 39.2974 25.5342C39.7772 25.2262 40.325 25.0723 40.9409 25.0723C41.5675 25.0723 42.119 25.2244 42.5952 25.5288C43.075 25.8296 43.4438 26.2682 43.7017 26.8447C43.9595 27.4176 44.0884 28.0854 44.0884 28.8481V29.3423ZM43.0625 28.8374C43.0625 27.91 42.8763 27.1992 42.5039 26.7051C42.1315 26.2074 41.6105 25.9585 40.9409 25.9585C40.2892 25.9585 39.7754 26.2074 39.3994 26.7051C39.027 27.1992 38.8354 27.8867 38.8247 28.7676V29.3423C38.8247 30.241 39.0127 30.9482 39.3887 31.4639C39.7682 31.9759 40.2892 32.2319 40.9517 32.2319C41.6177 32.2319 42.1333 31.9902 42.4985 31.5068C42.8638 31.0199 43.0518 30.3234 43.0625 29.4175V28.8374ZM51.6509 29.3423C51.6509 30.1086 51.522 30.7782 51.2642 31.3511C51.0063 31.9204 50.6411 32.3555 50.1685 32.6562C49.6958 32.957 49.1444 33.1074 48.5142 33.1074C47.8983 33.1074 47.3522 32.957 46.876 32.6562C46.3997 32.3519 46.0291 31.9204 45.7642 31.3618C45.5028 30.7996 45.3685 30.1497 45.3613 29.4121V28.8481C45.3613 28.0962 45.492 27.432 45.7534 26.8555C46.0148 26.279 46.3836 25.8385 46.8599 25.5342C47.3397 25.2262 47.8875 25.0723 48.5034 25.0723C49.13 25.0723 49.6815 25.2244 50.1577 25.5288C50.6375 25.8296 51.0063 26.2682 51.2642 26.8447C51.522 27.4176 51.6509 28.0854 51.6509 28.8481V29.3423ZM50.625 28.8374C50.625 27.91 50.4388 27.1992 50.0664 26.7051C49.694 26.2074 49.173 25.9585 48.5034 25.9585C47.8517 25.9585 47.3379 26.2074 46.9619 26.7051C46.5895 27.1992 46.3979 27.8867 46.3872 28.7676V29.3423C46.3872 30.241 46.5752 30.9482 46.9512 31.4639C47.3307 31.9759 47.8517 32.2319 48.5142 32.2319C49.1802 32.2319 49.6958 31.9902 50.061 31.5068C50.4263 31.0199 50.6143 30.3234 50.625 29.4175V28.8374ZM54.229 29.9385V33H53.1978V25.1797H56.082C56.9378 25.1797 57.6074 25.3981 58.0908 25.835C58.5778 26.2718 58.8213 26.8501 58.8213 27.5698C58.8213 28.3289 58.5832 28.9144 58.1069 29.3262C57.6343 29.7344 56.9557 29.9385 56.0713 29.9385H54.229ZM54.229 29.0952H56.082C56.6335 29.0952 57.056 28.9663 57.3496 28.7085C57.6432 28.4471 57.79 28.0711 57.79 27.5806C57.79 27.1151 57.6432 26.7427 57.3496 26.4634C57.056 26.1841 56.6532 26.0391 56.1411 26.0283H54.229V29.0952ZM64.5576 29.3853H61.1685V32.1567H65.1055V33H60.1372V25.1797H65.0518V26.0283H61.1685V28.542H64.5576V29.3853ZM69.2573 29.8364H67.4204V33H66.3838V25.1797H68.9727C69.8535 25.1797 70.5303 25.3802 71.0029 25.7812C71.4792 26.1823 71.7173 26.766 71.7173 27.5322C71.7173 28.0192 71.5848 28.4435 71.3198 28.8052C71.0584 29.1668 70.6932 29.4372 70.2241 29.6162L72.061 32.9355V33H70.9546L69.2573 29.8364ZM67.4204 28.9932H69.0049C69.5169 28.9932 69.9233 28.8607 70.2241 28.5957C70.5285 28.3307 70.6807 27.9762 70.6807 27.5322C70.6807 27.0488 70.5356 26.6782 70.2456 26.4204C69.9591 26.1626 69.5438 26.0319 68.9995 26.0283H67.4204V28.9932ZM77.4858 30.959H74.2095L73.4736 33H72.4102L75.3965 25.1797H76.2988L79.2905 33H78.2324L77.4858 30.959ZM74.521 30.1104H77.1797L75.8477 26.4526L74.521 30.1104ZM85.0483 26.0283H82.5347V33H81.5088V26.0283H79.0005V25.1797H85.0483V26.0283ZM87.3149 33H86.2837V25.1797H87.3149V33ZM95.2212 29.3423C95.2212 30.1086 95.0923 30.7782 94.8345 31.3511C94.5767 31.9204 94.2114 32.3555 93.7388 32.6562C93.2661 32.957 92.7147 33.1074 92.0845 33.1074C91.4686 33.1074 90.9225 32.957 90.4463 32.6562C89.9701 32.3519 89.5994 31.9204 89.3345 31.3618C89.0731 30.7996 88.9388 30.1497 88.9316 29.4121V28.8481C88.9316 28.0962 89.0623 27.432 89.3237 26.8555C89.5851 26.279 89.9539 25.8385 90.4302 25.5342C90.91 25.2262 91.4578 25.0723 92.0737 25.0723C92.7004 25.0723 93.2518 25.2244 93.728 25.5288C94.2078 25.8296 94.5767 26.2682 94.8345 26.8447C95.0923 27.4176 95.2212 28.0854 95.2212 28.8481V29.3423ZM94.1953 28.8374C94.1953 27.91 94.0091 27.1992 93.6367 26.7051C93.2643 26.2074 92.7433 25.9585 92.0737 25.9585C91.422 25.9585 90.9082 26.2074 90.5322 26.7051C90.1598 27.1992 89.9683 27.8867 89.9575 28.7676V29.3423C89.9575 30.241 90.1455 30.9482 90.5215 31.4639C90.901 31.9759 91.422 32.2319 92.0845 32.2319C92.7505 32.2319 93.2661 31.9902 93.6313 31.5068C93.9966 31.0199 94.1846 30.3234 94.1953 29.4175V28.8374ZM102.778 33H101.742L97.8047 26.9736V33H96.7681V25.1797H97.8047L101.752 31.2329V25.1797H102.778V33Z" fill="white"/>
<path d="M37.6519 54.104L40.5923 55.6873L46.4733 54.104H58.2918" stroke="white" stroke-width="2"/>
<path d="M29.5092 78.5893C32.9963 71.2193 40.0384 56.3548 40.3098 55.8572H41.2711L52.0152 78.5893H29.5092Z" stroke="white" stroke-width="2"/>
<path d="M82.0418 54.1608L79.1255 55.6311L73.2928 54.1608H57.3304" stroke="white" stroke-width="2"/>
<path d="M90.0717 78.3631C86.6196 71.0664 79.6483 56.3498 79.3796 55.8572H78.428L67.7919 78.3631H90.0717Z" stroke="white" stroke-width="2"/>
<path d="M57.7262 92.9524V53.9911V49.6935L59.875 45L61.9108 49.6935V92.9524" stroke="white" stroke-width="2"/>
<path d="M64.5118 49.863H54.7856" stroke="white" stroke-width="2"/>
<path d="M29 78.8157L31.7143 82.774H49.6399L52.5804 78.8157" stroke="white" stroke-width="2"/>
<path d="M67.2262 78.8157L69.9405 82.774H87.8661L90.8066 78.8157" stroke="white" stroke-width="2"/>
<path d="M65.5299 97.0238L64.176 93.0655L55.2347 93.0655L53.768 97.0238" stroke="white" stroke-width="2"/>
<rect x="45.7201" y="98.0238" width="28.0834" height="2.97619" stroke="white" stroke-width="2"/>
</svg>
