<svg width="120" height="120" viewBox="0 0 120 120" fill="none" xmlns="http://www.w3.org/2000/svg">
<rect width="120" height="120" fill="#D85B63"/>
<path d="M20.9648 30H9.26953V27.6797L14.7891 21.7969C15.5469 20.9688 16.1055 20.2461 16.4648 19.6289C16.832 19.0117 17.0156 18.4258 17.0156 17.8711C17.0156 17.1133 16.8242 16.5195 16.4414 16.0898C16.0586 15.6523 15.5117 15.4336 14.8008 15.4336C14.0352 15.4336 13.4297 15.6992 12.9844 16.2305C12.5469 16.7539 12.3281 17.4453 12.3281 18.3047H8.92969C8.92969 17.2656 9.17578 16.3164 9.66797 15.457C10.168 14.5977 10.8711 13.9258 11.7773 13.4414C12.6836 12.9492 13.7109 12.7031 14.8594 12.7031C16.6172 12.7031 17.9805 13.125 18.9492 13.9688C19.9258 14.8125 20.4141 16.0039 20.4141 17.543C20.4141 18.3867 20.1953 19.2461 19.7578 20.1211C19.3203 20.9961 18.5703 22.0156 17.5078 23.1797L13.6289 27.2695H20.9648V30Z" fill="white"/>
<path d="M40.2207 22.5464H36.939V26H35.9077V18.1797H40.7524V19.0283H36.939V21.7031H40.2207V22.5464ZM43.0942 26H42.063V18.1797H43.0942V26ZM50.9951 26H49.9585L46.0215 19.9736V26H44.9849V18.1797H46.0215L49.9692 24.2329V18.1797H50.9951V26ZM57.2417 23.959H53.9653L53.2295 26H52.166L55.1523 18.1797H56.0547L59.0464 26H57.9883L57.2417 23.959ZM54.2769 23.1104H56.9355L55.6035 19.4526L54.2769 23.1104ZM66.1094 26H65.0728L61.1357 19.9736V26H60.0991V18.1797H61.1357L65.0835 24.2329V18.1797H66.1094V26ZM73.6934 23.5186C73.5967 24.3457 73.2905 24.9849 72.7749 25.436C72.2629 25.8836 71.5807 26.1074 70.7285 26.1074C69.8047 26.1074 69.0635 25.7762 68.5049 25.1138C67.9499 24.4513 67.6724 23.5651 67.6724 22.4551V21.7031C67.6724 20.9762 67.8013 20.3371 68.0591 19.7856C68.3205 19.2342 68.6893 18.8117 69.1655 18.5181C69.6418 18.2209 70.1932 18.0723 70.8198 18.0723C71.6506 18.0723 72.3166 18.305 72.8179 18.7705C73.3192 19.2324 73.611 19.8734 73.6934 20.6934H72.6567C72.5672 20.0703 72.3721 19.6191 72.0713 19.3398C71.7741 19.0605 71.3569 18.9209 70.8198 18.9209C70.161 18.9209 69.6436 19.1644 69.2676 19.6514C68.8952 20.1383 68.709 20.8312 68.709 21.73V22.4873C68.709 23.3359 68.8862 24.0109 69.2407 24.5122C69.5952 25.0135 70.0911 25.2642 70.7285 25.2642C71.3014 25.2642 71.7401 25.1353 72.0444 24.8774C72.3524 24.616 72.5565 24.1631 72.6567 23.5186H73.6934ZM76.2124 26H75.1812V18.1797H76.2124V26ZM82.5181 23.959H79.2417L78.5059 26H77.4424L80.4287 18.1797H81.3311L84.3228 26H83.2646L82.5181 23.959ZM79.5532 23.1104H82.2119L80.8799 19.4526L79.5532 23.1104ZM86.4121 25.1567H90.1182V26H85.3755V18.1797H86.4121V25.1567Z" fill="white"/>
<path d="M91.0081 50.6449C91.0081 50.1749 90.8606 50.0992 90.4363 50.0992C79.9583 50.1097 69.4793 50.1123 58.9995 50.107C48.5197 50.1018 38.0403 50.0988 27.5613 50.0979C27.1227 50.0979 27 50.1984 27 50.6514C27.0139 62.8726 27.0139 75.0939 27 87.3151C27 87.7824 27.1423 87.8621 27.5679 87.8621C48.5266 87.8516 69.485 87.8516 90.4429 87.8621C90.8802 87.8621 91.0081 87.7655 91.0068 87.3086C90.9938 75.0873 90.9942 62.8661 91.0081 50.6449ZM88.148 85.5632C78.4357 85.5519 68.723 85.5489 59.0099 85.5541C49.2968 85.5593 39.5837 85.5628 29.8706 85.5646C29.4294 85.5646 29.3119 85.4601 29.3119 85.0111C29.3267 74.3224 29.3267 63.6332 29.3119 52.9437C29.3119 52.4803 29.4424 52.3967 29.8771 52.3967C49.3025 52.4072 68.7283 52.4072 88.1545 52.3967C88.5944 52.3967 88.7145 52.4972 88.7145 52.9489C88.7006 63.6385 88.7006 74.328 88.7145 85.0176C88.7106 85.4888 88.5696 85.5646 88.148 85.5632Z" fill="#FEFEFE"/>
<path d="M41.5213 45.0917C41.7746 45.371 41.9025 45.328 42.1571 45.0917C47.5092 40.0711 53.8522 37.8206 61.1729 38.4211C65.7419 38.7957 69.8631 40.4001 73.543 43.1362C73.6344 43.2041 73.7845 43.238 73.7845 43.4286C72.9164 43.4286 72.0535 43.4377 71.1933 43.4286C70.9322 43.4286 70.8134 43.4795 70.8251 43.7732C70.8473 44.3267 70.846 44.8815 70.8251 45.435C70.8147 45.7078 70.9257 45.7535 71.1685 45.7535C73.385 45.7457 75.6016 45.7457 77.8182 45.7535C78.0571 45.7535 78.1655 45.7065 78.1642 45.4337C78.1537 43.2015 78.1537 40.9688 78.1642 38.7357C78.1642 38.4511 78.0428 38.4237 77.8143 38.4289C77.2778 38.4393 76.7386 38.4498 76.2021 38.4289C75.894 38.4145 75.8183 38.5137 75.8249 38.8127C75.8431 39.8374 75.8249 40.8635 75.8249 41.96C63.8151 32.3196 48.2703 35.4251 40.1872 43.8085C40.6402 44.2249 41.1075 44.6296 41.5213 45.0917Z" fill="#FEFEFE"/>
<path d="M77.5154 93.8971C77.1445 93.5784 76.7976 93.2328 76.4776 92.8632C76.2609 92.6191 76.1356 92.6021 75.8797 92.8436C72.0105 96.5497 67.4298 98.7884 62.105 99.4672C58.5887 99.9246 55.0149 99.6092 51.633 98.543C48.8845 97.6823 46.318 96.3229 44.0617 94.5328C45.0786 94.5328 45.9558 94.5224 46.8318 94.5328C47.1098 94.5328 47.1973 94.4532 47.1881 94.1764C47.1685 93.6399 47.1685 93.1008 47.1881 92.5642C47.1973 92.2888 47.1111 92.2053 46.8331 92.2066C44.6339 92.217 42.4343 92.217 40.2342 92.2066C39.9327 92.2066 39.8426 92.2901 39.8426 92.5982C39.8556 94.7982 39.8556 96.9974 39.8426 99.1957C39.8426 99.4842 39.9392 99.5521 40.2068 99.543C40.7433 99.5247 41.2825 99.5155 41.819 99.543C42.1492 99.5625 42.1858 99.4229 42.1793 99.1513C42.1636 98.402 42.1675 97.6527 42.1793 96.9034C42.1793 96.628 42.1192 96.3408 42.2302 96.0536C42.2928 96.0954 42.3203 96.111 42.3464 96.1306C42.5148 96.2612 42.6792 96.3917 42.8503 96.5222C49.9108 101.739 57.6871 103.229 66.1792 100.995C70.5132 99.8549 74.2571 97.6253 77.4932 94.5302C77.7334 94.2926 77.8235 94.1542 77.5154 93.8971Z" fill="#FEFEFE"/>
<path d="M52.6408 45.6518C52.9098 45.9337 53.4437 45.6935 53.7831 45.7445C54.1747 45.7445 54.4789 45.7301 54.7869 45.7445C55.048 45.7601 55.1694 45.6883 55.159 45.3959C55.1394 44.8424 55.142 44.2876 55.159 43.7341C55.1668 43.473 55.0611 43.3986 54.8157 43.4091C54.424 43.4247 54.0324 43.4091 53.6408 43.4091C52.5664 43.4091 52.5586 43.4091 52.569 44.4534C52.5782 44.8738 52.4006 45.3946 52.6408 45.6518Z" fill="#FEFEFE"/>
<path d="M52.6592 94.4689C52.9202 94.7143 53.4359 94.5093 53.7661 94.542H54.2792C55.1577 94.542 55.1668 94.542 55.1538 93.6869C55.1473 93.217 55.3561 92.6021 55.0755 92.3176C54.7726 92.0082 54.1512 92.2288 53.6682 92.2223C52.5717 92.2053 52.5626 92.2223 52.5756 93.2953C52.5808 93.6961 52.3942 94.2182 52.6592 94.4689Z" fill="#FEFEFE"/>
<path d="M65.3425 43.4951C65.1062 43.2967 64.5684 43.4547 64.1676 43.4547V43.4181C63.8426 43.4181 63.5149 43.4338 63.1912 43.4181C62.9301 43.4025 62.8518 43.5017 62.8583 43.7523C62.8727 44.3058 62.8779 44.8606 62.8583 45.4128C62.8466 45.713 62.981 45.7639 63.2369 45.7535C63.6285 45.7365 64.0201 45.7535 64.4118 45.7535C65.4469 45.7535 65.4561 45.7535 65.4417 44.7092C65.4339 44.2888 65.6232 43.7327 65.3425 43.4951Z" fill="#FEFEFE"/>
<path d="M65.1597 92.2142C64.7524 92.2247 64.3451 92.2142 63.9378 92.2142C62.8582 92.2142 62.8491 92.2142 62.8634 93.3095C62.8634 93.7102 62.6794 94.2468 62.9561 94.4752C63.1859 94.6671 63.7028 94.5157 64.0931 94.5157V94.5392C64.4352 94.5392 64.7772 94.5313 65.1192 94.5392C65.3333 94.547 65.4495 94.5026 65.4429 94.2494C65.4286 93.6633 65.4325 93.0745 65.4429 92.4897C65.4469 92.2847 65.3698 92.2077 65.1597 92.2142Z" fill="#FEFEFE"/>
<path d="M60.1808 43.4991C59.9119 43.2615 59.2853 43.422 58.8167 43.4207C57.724 43.4207 57.7175 43.4207 57.728 44.4872C57.728 44.8893 57.5543 45.4089 57.7984 45.6621C58.0426 45.9154 58.5699 45.7026 58.8963 45.7431H59.4093C60.2826 45.7431 60.2944 45.7431 60.2787 44.8932C60.2696 44.4128 60.4902 43.7719 60.1808 43.4991Z" fill="#FEFEFE"/>
<path d="M57.8089 94.4623C58.0543 94.6685 58.5791 94.5419 58.9838 94.5602V94.5419H59.4289C60.2892 94.5419 60.2931 94.5419 60.2879 93.6817C60.2879 93.213 60.4472 92.5825 60.2096 92.3162C59.9341 92.0107 59.2958 92.2274 58.8102 92.2209C57.7306 92.2078 57.7228 92.2209 57.7345 93.2992C57.7319 93.6999 57.5452 94.243 57.8089 94.4623Z" fill="#FEFEFE"/>
<path d="M86.5815 60.1327C85.3074 60.1431 84.126 59.8455 83.1039 59.0635C81.5087 57.843 80.8756 56.1916 81.0022 54.2231C81.0296 53.7975 80.916 53.6813 80.48 53.6826C66.1701 53.6957 51.8607 53.6957 37.5517 53.6826C37.1039 53.6826 36.9734 53.8132 37.0295 54.2283C37.0465 54.456 37.0465 54.6846 37.0295 54.9123C37.0277 55.6311 36.8748 56.3415 36.5809 56.9975C36.287 57.6535 35.8585 58.2404 35.3233 58.7202C34.1485 59.8181 32.7125 60.1992 31.146 60.1222C30.7113 60.1013 30.616 60.2253 30.6173 60.6509C30.633 66.1267 30.6365 71.602 30.6278 77.0769C30.6278 77.8314 30.6278 77.851 31.3993 77.8275C32.8809 77.7818 34.1994 78.1969 35.3011 79.1982C36.5021 80.2908 37.0452 81.6784 37.0399 83.2906C37.0399 84.2684 37.0465 84.2684 38.0412 84.2684H80.0884C81.0022 84.2684 81.0283 84.2684 81.0022 83.3546C80.9526 81.728 81.4983 80.3521 82.6836 79.2451C83.7579 78.2439 85.0516 77.8001 86.5189 77.8275C87.4209 77.8444 87.4209 77.8275 87.4209 76.9137C87.4209 71.605 87.4209 66.2929 87.4209 60.9773C87.4039 60.1314 87.4039 60.1261 86.5815 60.1327ZM84.6417 75.7258C81.5518 76.5221 79.5636 78.4371 78.8391 81.5831C78.7713 81.8769 78.6538 81.9591 78.3561 81.9591C65.4482 81.9513 52.5408 81.9513 39.6338 81.9591C39.3179 81.9591 39.2252 81.8403 39.1586 81.5675C38.391 78.4045 36.4107 76.449 33.2477 75.6931C32.9866 75.6318 32.9031 75.5456 32.9031 75.2832C32.9109 71.0798 32.9109 66.8755 32.9031 62.6704C32.9031 62.3519 33.0637 62.3101 33.3078 62.2539C35.557 61.7422 37.254 60.4773 38.3989 58.4774C38.7677 57.8624 39.0207 57.185 39.1456 56.4788C39.2056 56.1016 39.344 55.9893 39.7343 55.9906C46.1552 56.0054 52.5765 56.0084 58.9982 55.9997C65.4026 55.9997 71.8073 55.9971 78.2125 55.9919C78.6198 55.9919 78.7856 56.0767 78.8652 56.5141C79.4057 59.2985 81.882 61.7422 84.6717 62.2579C85.0268 62.3244 85.1038 62.4563 85.1025 62.7944C85.0912 66.9169 85.0912 71.0393 85.1025 75.1618C85.1103 75.5417 84.9941 75.6357 84.6417 75.7258Z" fill="#FEFEFE"/>
<path d="M59.1027 57.5531C53.0874 57.4892 47.8553 62.1834 47.5798 68.3345C47.2822 74.9634 52.2793 80.2464 58.8403 80.4174C64.9757 80.5779 70.2966 75.5234 70.4258 69.3371C70.5668 62.5463 65.1924 57.5714 59.1027 57.5531ZM58.9956 78.1081C53.9045 78.0624 49.8865 74.0222 49.8904 68.9572C49.8904 63.8661 54.0024 59.7906 59.1993 59.8781C64.2421 59.9629 68.1322 64.0554 68.1165 69.1138C68.1022 74.0209 63.917 78.1473 58.9956 78.1029V78.1081Z" fill="#FEFEFE"/>
<path d="M43.8489 68.1439C43.8489 67.9194 43.7967 67.8332 43.5539 67.8345C41.3582 67.8441 39.1616 67.8441 36.9642 67.8345C36.6913 67.8345 36.6417 67.9455 36.6469 68.1818C36.6587 68.704 36.6665 69.2261 36.6469 69.7483C36.6339 70.0485 36.7266 70.1399 37.0294 70.1334C38.1038 70.1151 39.1768 70.1268 40.2512 70.1268C41.3255 70.1268 42.4312 70.119 43.5212 70.1268C43.7719 70.1268 43.8619 70.0668 43.8528 69.8031C43.8306 69.2509 43.8358 68.6974 43.8489 68.1439Z" fill="#FEFEFE"/>
<path d="M80.9447 67.8319C79.886 67.8541 78.826 67.8398 77.7673 67.8398C76.676 67.8398 75.5847 67.8398 74.4934 67.8398C74.2558 67.8398 74.1422 67.8789 74.1526 68.1544C74.1735 68.7065 74.167 69.2613 74.1526 69.8148C74.1526 70.0328 74.1918 70.1307 74.4424 70.1294C76.6408 70.1216 78.8399 70.1216 81.04 70.1294C81.3011 70.1294 81.3755 70.0394 81.3676 69.79C81.352 69.2861 81.3428 68.7796 81.3676 68.2758C81.3898 67.9377 81.2945 67.8241 80.9447 67.8319Z" fill="#FEFEFE"/>
<path d="M59.7788 67.8398C59.2423 67.8398 58.7018 67.8594 58.1692 67.8046C58.0339 67.7984 57.9013 67.7646 57.7796 67.7052C57.6579 67.6458 57.5496 67.562 57.4616 67.4591C57.3735 67.3563 57.3074 67.2364 57.2675 67.107C57.2275 66.9776 57.2145 66.8413 57.2293 66.7067C57.2606 66.1415 57.6888 65.7407 58.2998 65.7237C58.7723 65.7107 59.2449 65.7237 59.7174 65.7237C60.143 65.7237 60.5424 65.8974 60.6495 66.2994C60.78 66.785 61.0411 66.8333 61.4471 66.785C61.6097 66.7752 61.7727 66.7752 61.9353 66.785C62.1964 66.785 62.4575 66.7668 62.7186 66.785C63.0345 66.8151 63.1402 66.725 63.0971 66.3934C63.0184 65.7266 62.7407 65.099 62.3002 64.5923C61.8596 64.0856 61.2767 63.7234 60.6273 63.5528C60.2696 63.4615 60.1469 63.3361 60.1573 62.951C60.1887 61.7971 60.1678 61.7931 59.0164 61.7984C58.6444 61.7984 58.1496 61.6783 57.9316 61.8676C57.6705 62.0921 57.8442 62.6025 57.8546 62.985C57.8624 63.31 57.7854 63.4471 57.4447 63.5359C55.7777 63.968 54.7033 65.5423 54.924 67.1623C55.1642 68.9115 56.5401 70.119 58.2998 70.1256C58.8049 70.1256 59.3127 70.1047 59.8127 70.1543C60.4563 70.2183 60.8179 70.6765 60.7774 71.2769C60.7409 71.8422 60.314 72.2286 59.6952 72.2416C59.2553 72.2521 58.8154 72.2416 58.3755 72.2416C57.7789 72.2416 57.4134 71.9923 57.2606 71.4258C57.2032 71.2104 57.1171 71.179 56.9356 71.1803C56.3821 71.1869 55.826 71.2065 55.2738 71.1803C54.9109 71.1595 54.8731 71.3109 54.9253 71.6059C55.1864 73.0523 55.9774 74.0353 57.4055 74.4282C57.7489 74.5222 57.8533 74.6514 57.8468 75.0039C57.8259 76.1788 57.8468 76.1788 59.0216 76.1788C60.1587 76.1788 60.1769 76.1788 60.1495 75.0561C60.1391 74.6645 60.237 74.517 60.6325 74.4165C61.4063 74.2151 62.081 73.7402 62.5317 73.0798C62.9824 72.4193 63.1786 71.6179 63.0841 70.824C62.997 70.007 62.6116 69.2508 62.0018 68.7001C61.3919 68.1495 60.6004 67.8432 59.7788 67.8398Z" fill="#FEFEFE"/>
</svg>
