<svg width="43" height="60" viewBox="0 0 43 60" fill="none" xmlns="http://www.w3.org/2000/svg">
<path d="M23.0016 59.037L42.0677 39.9708C42.3509 39.6729 42.5415 39.2992 42.6166 38.8951C42.6917 38.491 42.6479 38.0738 42.4906 37.6941C42.3333 37.3143 42.0693 36.9883 41.7305 36.7556C41.3917 36.5229 40.9926 36.3935 40.5817 36.3831L32.0246 36.3831L32.0246 2.75415C32.0246 2.19672 31.8032 1.66211 31.409 1.26795C31.0149 0.873783 30.4803 0.652343 29.9228 0.652343L13.1084 0.652342C12.5509 0.652342 12.0163 0.873782 11.6222 1.26795C11.228 1.66211 11.0066 2.19672 11.0066 2.75415L11.0066 36.3831L2.44949 36.3831C1.07953 36.6364 0.378926 37.337 0.347679 38.4849C0.347612 38.7609 0.40197 39.0342 0.507641 39.2892C0.613312 39.5441 0.768224 39.7758 0.96351 39.9708L20.0296 59.037C20.4238 59.431 20.9583 59.6523 21.5156 59.6523C22.0729 59.6523 22.6074 59.431 23.0016 59.037Z" fill="#005DAA"/>
</svg>
