<svg width="90" height="51" viewBox="0 0 90 51" fill="none" xmlns="http://www.w3.org/2000/svg">
<path d="M89.5 25.1964C89.5 38.8337 78.3932 49.8929 64.6875 49.8929C50.9818 49.8929 39.875 38.8337 39.875 25.1964C39.875 11.5591 50.9818 0.5 64.6875 0.5C78.3932 0.5 89.5 11.5591 89.5 25.1964Z" stroke="#2D9687"/>
<path d="M83.072 13.1987C83.072 18.0007 79.1606 21.8974 74.3309 21.8974C69.5012 21.8974 65.5898 18.0007 65.5898 13.1987C65.5898 8.3967 69.5012 4.5 74.3309 4.5C79.1606 4.5 83.072 8.3967 83.072 13.1987Z" stroke="#2D9687"/>
<path d="M57.3571 25.1967C57.3571 29.9987 53.4458 33.8954 48.6161 33.8954C43.7863 33.8954 39.875 29.9987 39.875 25.1967C39.875 20.3947 43.7863 16.498 48.6161 16.498C53.4458 16.498 57.3571 20.3947 57.3571 25.1967Z" stroke="#2D9687"/>
<path d="M79.0525 39.5932C79.0525 44.3952 75.1411 48.2919 70.3114 48.2919C65.4817 48.2919 61.5703 44.3952 61.5703 39.5932C61.5703 34.7912 65.4817 30.8945 70.3114 30.8945C75.1411 30.8945 79.0525 34.7912 79.0525 39.5932Z" stroke="#2D9687"/>
<path d="M17.9821 25.9956C17.9821 30.7976 14.0708 34.6943 9.24107 34.6943C4.41134 34.6943 0.5 30.7976 0.5 25.9956C0.5 21.1936 4.41134 17.2969 9.24107 17.2969C14.0708 17.2969 17.9821 21.1936 17.9821 25.9956Z" stroke="#2D9687"/>
<path d="M36.5154 25.9493C36.7106 25.754 36.7106 25.4374 36.5154 25.2421L33.3334 22.0602C33.1381 21.8649 32.8216 21.8649 32.6263 22.0602C32.431 22.2554 32.431 22.572 32.6263 22.7673L35.4547 25.5957L32.6263 28.4241C32.431 28.6194 32.431 28.936 32.6263 29.1312C32.8216 29.3265 33.1381 29.3265 33.3334 29.1312L36.5154 25.9493ZM23.3047 26.0957H36.1618V25.0957H23.3047V26.0957Z" fill="#2D9687"/>
</svg>
