<svg width="71" height="70" viewBox="0 0 71 70" fill="none" xmlns="http://www.w3.org/2000/svg">
<g clip-path="url(#clip0_4_1521)">
<path d="M35.5124 0.00720252C21.508 0.00516128 8.85115 8.35282 3.33907 21.2268L2.90283 21.3714L3.07196 21.8788C-4.18553 39.7785 4.44149 60.1724 22.3411 67.4298C26.5217 69.1249 30.9907 69.9951 35.502 69.9926C54.8279 69.9955 70.4971 54.3311 70.5 35.0052C70.5029 15.6793 54.8384 0.00997278 35.5124 0.00720252ZM62.9602 52.6427L61.1634 50.8469V46.6642C61.1654 46.4836 61.1255 46.3052 61.0467 46.1428L56.4977 37.0575V32.6671C56.4977 32.2772 56.303 31.913 55.9786 31.6966L52.4793 29.3638C52.2051 29.1806 51.8661 29.1222 51.5462 29.2028L47.2608 30.2736L40.0628 27.1849L39.0725 20.247L41.8171 17.5036H47.7087L49.6916 20.4838C49.8706 20.7518 50.1528 20.9339 50.4708 20.9865L57.4693 22.1529C57.6568 22.1844 57.849 22.1691 58.0292 22.1086L64.4748 19.96C69.8811 30.3347 69.3028 42.8126 62.9602 52.6427ZM58.1493 11.5011L56.2527 12.7655L50.9653 11.7076L47.5349 10.5657C47.3249 10.4944 47.0989 10.4853 46.884 10.54L42.5472 11.6236L40.646 10.9902L42.055 8.17217H45.9999C46.1808 8.17231 46.3593 8.13047 46.5212 8.04969L50.5571 6.03178C53.3364 7.48252 55.8932 9.3243 58.1493 11.5011ZM22.7262 4.94467L25.5256 6.81095C25.6633 6.90252 25.8187 6.96375 25.9817 6.99058L31.6342 7.93305L31.0825 9.58354L28.1372 10.5668C27.8735 10.6546 27.6497 10.8337 27.5062 11.0719L24.1562 16.6544L18.7755 19.8831L10.8438 21.0157C10.2689 21.0969 9.84145 21.5887 9.84072 22.1693V25.6685C9.84072 25.9779 9.96378 26.2745 10.1825 26.4932L12.1736 28.4843V30.4882L7.32124 27.2525L5.56111 21.9721C8.90991 14.3204 15.0478 8.23166 22.7262 4.94467ZM19.4054 43.1882L14.1332 42.1326L12.1736 38.2239V35.4828L16.5197 31.1367L18.1282 34.3549C18.3257 34.7503 18.73 35.0001 19.1721 34.9999H26.6769L29.8367 40.2663C30.0476 40.6173 30.4269 40.8319 30.8363 40.832H34.079L33.2625 44.9227L28.8464 49.3388C28.6273 49.5573 28.5039 49.8539 28.5035 50.1634V53.0795L24.3044 56.2288C24.0107 56.4491 23.8378 56.7948 23.8378 57.162V61.3751L22.3868 60.8945L20.3385 55.7716V44.3313C20.3387 43.777 19.9485 43.299 19.4054 43.1882ZM15.8991 61.1192C4.90135 52.8684 0.250383 38.6123 4.26638 25.4632L5.23568 28.37C5.31733 28.6159 5.47859 28.8278 5.69408 28.9718L11.5087 32.8479L10.1825 34.1753C9.96378 34.394 9.84072 34.6905 9.84072 34.9999V38.4992C9.84057 38.6801 9.88242 38.8586 9.96319 39.0206L12.296 43.6863C12.4576 44.0085 12.759 44.238 13.1125 44.308L18.0115 45.2866V55.9955C18.0114 56.1437 18.0395 56.2906 18.0943 56.4283L20.4272 62.2604C20.5549 62.579 20.8165 62.8252 21.1422 62.9334L24.6415 64.0999C24.7584 64.1395 24.8809 64.1599 25.0042 64.1605C25.6484 64.1605 26.1706 63.6382 26.1706 62.9941V57.7452L30.3698 54.5958C30.6634 54.3755 30.8363 54.0298 30.8363 53.6627V50.6463L35.1603 46.3224C35.3228 46.1595 35.4337 45.952 35.4787 45.7263L36.6451 39.8942C36.7714 39.2625 36.3617 38.648 35.7299 38.5218C35.6548 38.5068 35.5786 38.4992 35.502 38.4992H31.4965L28.3367 33.2328C28.1259 32.8818 27.7465 32.6672 27.3371 32.6671H19.893L17.889 28.6464C17.7212 28.3108 17.4022 28.0763 17.0317 28.0165C16.6614 27.9525 16.2833 28.0747 16.0204 28.3431L14.5064 29.8513V28.0014C14.5064 27.692 14.3834 27.3954 14.1647 27.1767L12.1736 25.1856V23.1805L19.3377 22.1576C19.4916 22.1353 19.6396 22.0825 19.7728 22.0025L25.6049 18.5032C25.7685 18.4049 25.9056 18.2679 26.0039 18.1043L29.2815 12.6419L32.3714 11.6108C32.7203 11.4963 32.9941 11.2227 33.1085 10.8736L34.275 7.37433C34.477 6.76269 34.1451 6.10293 33.5334 5.90085C33.477 5.88219 33.4191 5.8679 33.3605 5.85798L26.6092 4.73238L25.423 3.94155C32.7631 1.55242 40.7132 1.84811 47.8556 4.77554L45.7246 5.83932H41.3342C40.8899 5.83684 40.483 6.08704 40.2844 6.48435L37.9515 11.15C37.6642 11.7266 37.8985 12.427 38.475 12.7144C38.5241 12.7389 38.5748 12.7599 38.6269 12.7772L42.1262 13.9436C42.3361 14.0149 42.5621 14.024 42.777 13.9693L47.1138 12.8857L50.2911 13.9436C50.3366 13.96 50.3834 13.9725 50.4311 13.981L56.2632 15.1474C56.5665 15.2092 56.882 15.1471 57.1392 14.9748L59.794 13.2041C61.1005 14.6594 62.2747 16.2282 63.3026 17.892L57.5638 19.8049L51.3502 18.7691L49.2973 15.6898C49.0821 15.3671 48.7205 15.1726 48.3327 15.1707H41.3342C41.0248 15.1707 40.7282 15.2938 40.5095 15.5125L37.0102 19.0117C36.7504 19.2714 36.6281 19.6384 36.6801 20.002L37.8465 28.167C37.9053 28.5707 38.1707 28.9144 38.5464 29.0733L46.7114 32.5726C46.9452 32.6739 47.2062 32.6948 47.4532 32.6321L51.6185 31.5905L54.1648 33.2911V37.3328C54.1628 37.5133 54.2027 37.6917 54.2815 37.8542L58.8305 46.9394V51.3298C58.8305 51.6392 58.9536 51.9358 59.1723 52.1545L61.6124 54.5958C50.7905 69.0206 30.3238 71.9413 15.8991 61.1192Z" fill="#DBAA02"/>
</g>
<defs>
<clipPath id="clip0_4_1521">
<rect width="70" height="70" fill="white" transform="translate(0.5)"/>
</clipPath>
</defs>
</svg>
