<svg width="114" height="120" viewBox="0 0 114 120" fill="none" xmlns="http://www.w3.org/2000/svg">
<path d="M113.958 93.1567V40.9751L6.95887e-08 26.8433V79.0251C-0.000234305 80.2209 0.591562 81.4164 1.77492 82.0996L65.1578 118.978C67.5175 120.341 70.4246 120.341 72.7843 118.978L112.183 96.2313C113.367 95.5483 113.958 94.3525 113.958 93.1567Z" fill="url(#paint0_linear_39_3640)"/>
<path d="M1.77486 23.7686L41.1737 1.02181C43.5334 -0.340605 46.4406 -0.340605 48.8 1.02181L112.183 37.9004C114.55 39.2668 114.55 42.6826 112.183 44.049L72.784 66.7958C70.4243 68.1582 67.5172 68.1582 65.1575 66.7958L1.77486 29.9172C-0.59162 28.5507 -0.59162 25.135 1.77486 23.7686Z" fill="#58A66F"/>
<path d="M35.1133 97.6742L39.2291 100.05V55.7713L35.1133 53.395V97.6742Z" fill="#4FA75F"/>
<path d="M59.8096 67.6523V111.932L64.3595 114.558V70.2792L59.8096 67.6523Z" fill="#4FA75F"/>
<path d="M43.3447 58.147V102.426L47.4606 104.803V60.5233L43.3447 58.147Z" fill="#4FA75F"/>
<path d="M26.8828 92.9213L30.9987 95.2976V51.0184L26.8828 48.6421V92.9213Z" fill="#4FA75F"/>
<path d="M51.5771 62.8994V107.178L55.693 109.555V65.2755L51.5771 62.8994Z" fill="#4FA75F"/>
<path d="M22.7659 46.2657L18.8418 44V88.2794L22.7659 90.5451V46.2657Z" fill="#4FA75F"/>
<path d="M6.36284 36.7369L2.43848 34.4712V78.7504L6.36284 81.0161V36.7369Z" fill="#4FA75F"/>
<path d="M10.4189 83.2836L14.5348 85.6599V41.3807L10.4189 39.0044V83.2836Z" fill="#4FA75F"/>
<path d="M6.30304 36.6285L2.37891 34.3628V78.6422L6.30304 80.9079V36.6285Z" fill="#4FA75F"/>
<path d="M92.1256 59.4419L73.4307 70.2789V114.558L92.1256 103.721V59.4419Z" fill="#2F760E"/>
<path d="M93.9023 58.4143V102.694L110.821 92.9213V48.6421L93.9023 58.4143Z" fill="#2F760E"/>
<path d="M96.7881 81.4612L89.0587 85.9239C88.2798 86.3735 87.6484 85.8963 87.6484 84.858C87.6484 83.8197 88.2798 82.6134 89.0587 82.1636L96.7881 77.7009C97.5669 77.2514 98.1983 77.7286 98.1983 78.7668C98.1983 79.8054 97.5669 81.0117 96.7881 81.4612Z" fill="#58A66F"/>
<defs>
<linearGradient id="paint0_linear_39_3640" x1="65.2192" y1="73.4217" x2="76.4603" y2="73.4217" gradientUnits="userSpaceOnUse">
<stop stop-color="#438267"/>
<stop offset="1" stop-color="#1B9954"/>
</linearGradient>
</defs>
</svg>
