<svg width="683" height="683" viewBox="0 0 683 683" fill="none" xmlns="http://www.w3.org/2000/svg">
<path d="M664.261 296.927C664.246 296.911 664.23 296.896 664.214 296.88L385.74 18.4167C373.87 6.54167 358.089 0 341.303 0C324.516 0 308.735 6.53646 296.86 18.4115L18.532 296.734C18.4382 296.828 18.3445 296.927 18.2507 297.021C-6.1243 321.536 -6.08263 361.313 18.3705 385.766C29.5424 396.943 44.2976 403.417 60.0736 404.094C60.7142 404.156 61.3601 404.188 62.0111 404.188H73.1101V609.12C73.1101 649.672 106.105 682.667 146.667 682.667H255.615C266.657 682.667 275.615 673.714 275.615 662.667V502C275.615 483.495 290.667 468.443 309.173 468.443H373.433C391.938 468.443 406.99 483.495 406.99 502V662.667C406.99 673.714 415.943 682.667 426.99 682.667H535.938C576.501 682.667 609.496 649.672 609.496 609.12V404.188H619.787C636.568 404.188 652.35 397.651 664.23 385.776C688.709 361.281 688.719 321.438 664.261 296.927Z" fill="white"/>
</svg>
