<svg width="13" height="13" viewBox="0 0 13 13" fill="none" xmlns="http://www.w3.org/2000/svg">
<path d="M12.6509 5.65437C12.6505 5.65408 12.6502 5.65368 12.6499 5.65338L7.34638 0.350609C7.12032 0.124474 6.81977 0 6.50007 0C6.18038 0 5.87983 0.124474 5.65367 0.350609L0.352939 5.6507C0.351154 5.65249 0.349269 5.65437 0.347583 5.65616C-0.116637 6.12301 -0.115843 6.88046 0.349864 7.34612C0.562631 7.55897 0.843543 7.68215 1.144 7.69514C1.1563 7.69633 1.1686 7.69693 1.181 7.69693H1.39227V11.5993C1.39227 12.3717 2.02076 13 2.79317 13H4.86807C5.07845 13 5.24896 12.8294 5.24896 12.6191V9.55957C5.24896 9.20718 5.53573 8.92054 5.88816 8.92054H7.11199C7.46442 8.92054 7.75109 9.20718 7.75109 9.55957V12.6191C7.75109 12.8294 7.9216 13 8.13198 13H10.2069C10.9794 13 11.6078 12.3717 11.6078 11.5993V7.69693H11.8038C12.1234 7.69693 12.4239 7.57246 12.6502 7.34622C13.1164 6.87987 13.1166 6.12103 12.6509 5.65437ZM12.1115 6.80766C12.0292 6.88988 11.9199 6.93521 11.8038 6.93521H11.2269C11.0165 6.93521 10.846 7.10571 10.846 7.31607V11.5993C10.846 11.9516 10.5593 12.2383 10.2069 12.2383H8.51288V9.55957C8.51288 8.78724 7.8845 8.15882 7.11199 8.15882H5.88816C5.11565 8.15882 4.48717 8.78724 4.48717 9.55957V12.2383H2.79317C2.44083 12.2383 2.15407 11.9516 2.15407 11.5993V7.31607C2.15407 7.10571 1.98356 6.93521 1.77317 6.93521H1.20619C1.20024 6.93481 1.19439 6.93452 1.18834 6.93442C1.07486 6.93243 0.968426 6.88741 0.888676 6.80756C0.719057 6.63796 0.719057 6.36194 0.888676 6.19224C0.888775 6.19224 0.888775 6.19214 0.888874 6.19204L0.889172 6.19174L6.19248 0.889168C6.27461 0.806946 6.38382 0.761719 6.50007 0.761719C6.61623 0.761719 6.72544 0.806946 6.80767 0.889168L12.1098 6.19065C12.1106 6.19144 12.1115 6.19224 12.1123 6.19303C12.281 6.36293 12.2807 6.63836 12.1115 6.80766Z" fill="#F7F7F7"/>
</svg>
