<svg width="63" height="63" viewBox="0 0 63 63" fill="none" xmlns="http://www.w3.org/2000/svg">
<circle cx="31.5" cy="31.5" r="31" stroke="white"/>
<circle cx="43.5" cy="16.5" r="11" stroke="white"/>
<circle cx="11.5" cy="31.5" r="11" stroke="white"/>
<circle cx="38.5" cy="49.5" r="11" stroke="white"/>
<path d="M20.5431 25.7969C20.4309 26.0493 20.5446 26.3448 20.7969 26.4569L24.9091 28.2845C25.1614 28.3967 25.4569 28.283 25.5691 28.0307C25.6812 27.7784 25.5676 27.4829 25.3152 27.3707L21.66 25.7462L23.2845 22.0909C23.3967 21.8386 23.283 21.5431 23.0307 21.4309C22.7784 21.3188 22.4829 21.4324 22.3707 21.6848L20.5431 25.7969ZM34.4569 21.2031C34.5691 20.9507 34.4554 20.6552 34.2031 20.5431L30.0909 18.7155C29.8386 18.6033 29.5431 18.717 29.4309 18.9693C29.3188 19.2216 29.4324 19.5171 29.6848 19.6293L33.34 21.2538L31.7155 24.9091C31.6033 25.1614 31.717 25.4569 31.9693 25.5691C32.2216 25.6812 32.5171 25.5676 32.6293 25.3152L34.4569 21.2031ZM21.1795 26.4667L34.1795 21.4667L33.8205 20.5333L20.8205 25.5333L21.1795 26.4667Z" fill="white"/>
<path d="M21 37.5C20.7239 37.5 20.5 37.7239 20.5 38L20.5 42.5C20.5 42.7761 20.7239 43 21 43C21.2761 43 21.5 42.7761 21.5 42.5L21.5 38.5L25.5 38.5C25.7761 38.5 26 38.2761 26 38C26 37.7239 25.7761 37.5 25.5 37.5L21 37.5ZM28 45.5C28.2761 45.5 28.5 45.2761 28.5 45L28.5 40.5C28.5 40.2239 28.2761 40 28 40C27.7239 40 27.5 40.2239 27.5 40.5L27.5 44.5L23.5 44.5C23.2239 44.5 23 44.7239 23 45C23 45.2761 23.2239 45.5 23.5 45.5L28 45.5ZM20.6464 38.3536L27.6464 45.3536L28.3536 44.6464L21.3536 37.6464L20.6464 38.3536Z" fill="white"/>
<path d="M46.3536 27.6464C46.1583 27.4512 45.8417 27.4512 45.6464 27.6464L42.4645 30.8284C42.2692 31.0237 42.2692 31.3403 42.4645 31.5355C42.6597 31.7308 42.9763 31.7308 43.1716 31.5355L46 28.7071L48.8284 31.5355C49.0237 31.7308 49.3403 31.7308 49.5355 31.5355C49.7308 31.3403 49.7308 31.0237 49.5355 30.8284L46.3536 27.6464ZM45.6464 40.3536C45.8417 40.5488 46.1583 40.5488 46.3536 40.3536L49.5355 37.1716C49.7308 36.9763 49.7308 36.6597 49.5355 36.4645C49.3403 36.2692 49.0237 36.2692 48.8284 36.4645L46 39.2929L43.1716 36.4645C42.9763 36.2692 42.6597 36.2692 42.4645 36.4645C42.2692 36.6597 42.2692 36.9763 42.4645 37.1716L45.6464 40.3536ZM45.5 28L45.5 40L46.5 40L46.5 28L45.5 28Z" fill="white"/>
</svg>
