<svg width="51" height="49" viewBox="0 0 51 49" fill="none" xmlns="http://www.w3.org/2000/svg">
<circle cx="7" cy="7" r="6.5" stroke="white"/>
<path d="M32.5 7C32.5 10.5579 29.399 13.5 25.5 13.5C21.601 13.5 18.5 10.5579 18.5 7C18.5 3.44208 21.601 0.5 25.5 0.5C29.399 0.5 32.5 3.44208 32.5 7Z" stroke="white"/>
<circle cx="44" cy="7" r="6.5" stroke="white"/>
<circle cx="7" cy="25" r="6.5" stroke="white"/>
<path d="M32.5 25C32.5 28.5579 29.399 31.5 25.5 31.5C21.601 31.5 18.5 28.5579 18.5 25C18.5 21.4421 21.601 18.5 25.5 18.5C29.399 18.5 32.5 21.4421 32.5 25Z" stroke="white"/>
<circle cx="44" cy="25" r="6.5" fill="white" stroke="white"/>
<circle cx="7" cy="42" r="6.5" stroke="white"/>
<path d="M32.5 42C32.5 45.5579 29.399 48.5 25.5 48.5C21.601 48.5 18.5 45.5579 18.5 42C18.5 38.4421 21.601 35.5 25.5 35.5C29.399 35.5 32.5 38.4421 32.5 42Z" fill="white" stroke="white"/>
<circle cx="44" cy="42" r="6.5" fill="white" stroke="white"/>
</svg>
