<svg width="26" height="26" viewBox="0 0 26 26" fill="none" xmlns="http://www.w3.org/2000/svg">
<path fill-rule="evenodd" clip-rule="evenodd" d="M3.52075 3.24996C3.52075 2.20292 4.36954 1.35413 5.41659 1.35413H20.5833C21.6303 1.35413 22.4791 2.20293 22.4791 3.24996V8.88205C22.4791 9.33077 22.1153 9.69455 21.6666 9.69455C21.2179 9.69455 20.8541 9.33077 20.8541 8.88205V3.24996C20.8541 3.10037 20.7329 2.97913 20.5833 2.97913H5.41659C5.26701 2.97913 5.14575 3.10038 5.14575 3.24996V22.75C5.14575 22.8996 5.267 23.0208 5.41659 23.0208H10.8333C11.282 23.0208 11.6458 23.3846 11.6458 23.8333C11.6458 24.282 11.282 24.6458 10.8333 24.6458H5.41659C4.36955 24.6458 3.52075 23.797 3.52075 22.75V3.24996Z" fill="#585858"/>
<path fill-rule="evenodd" clip-rule="evenodd" d="M7.854 7.58325C7.854 7.13452 8.21778 6.77075 8.6665 6.77075H15.7082C16.1569 6.77075 16.5207 7.13452 16.5207 7.58325C16.5207 8.03198 16.1569 8.39575 15.7082 8.39575H8.6665C8.21778 8.39575 7.854 8.03198 7.854 7.58325Z" fill="#585858"/>
<path fill-rule="evenodd" clip-rule="evenodd" d="M7.854 11.375C7.854 10.9263 8.21778 10.5625 8.6665 10.5625H11.3748C11.8236 10.5625 12.1873 10.9263 12.1873 11.375C12.1873 11.8237 11.8236 12.1875 11.3748 12.1875H8.6665C8.21778 12.1875 7.854 11.8237 7.854 11.375Z" fill="#585858"/>
<path fill-rule="evenodd" clip-rule="evenodd" d="M23.0208 18.4167C23.0208 15.8739 20.9595 13.8125 18.4167 13.8125C15.8739 13.8125 13.8125 15.8739 13.8125 18.4167C13.8125 20.9595 15.8739 23.0208 18.4167 23.0208C20.9595 23.0208 23.0208 20.9595 23.0208 18.4167ZM18.4167 12.1875C21.8569 12.1875 24.6458 14.9764 24.6458 18.4167C24.6458 21.8569 21.8569 24.6458 18.4167 24.6458C14.9764 24.6458 12.1875 21.8569 12.1875 18.4167C12.1875 14.9764 14.9764 12.1875 18.4167 12.1875Z" fill="#585858"/>
<path fill-rule="evenodd" clip-rule="evenodd" d="M18.4165 18.6875C18.8652 18.6875 19.229 19.0513 19.229 19.5V21.125C19.229 21.5737 18.8652 21.9375 18.4165 21.9375C17.9678 21.9375 17.604 21.5737 17.604 21.125V19.5C17.604 19.0513 17.9678 18.6875 18.4165 18.6875Z" fill="#585858"/>
<path d="M18.4166 17.3333C19.0149 17.3333 19.4999 16.8483 19.4999 16.25C19.4999 15.6516 19.0149 15.1666 18.4166 15.1666C17.8183 15.1666 17.3333 15.6516 17.3333 16.25C17.3333 16.8483 17.8183 17.3333 18.4166 17.3333Z" fill="#585858"/>
</svg>
