<svg width="19" height="24" viewBox="0 0 19 24" fill="none" xmlns="http://www.w3.org/2000/svg">
<path d="M16.5776 0H2.42269C1.08691 0 0 1.26297 0 2.81513V21.1849C0 22.7373 1.08691 24 2.42269 24H16.5773C17.9134 24 19 22.7373 19 21.1849V2.81513C19 1.26297 17.9133 0 16.5776 0ZM17.4637 21.1849C17.4637 21.7528 17.0661 22.2149 16.5773 22.2149H2.42269C1.9339 22.2149 1.53626 21.7528 1.53626 21.1849V2.81513C1.53626 2.24716 1.9339 1.78512 2.42269 1.78512H16.5773C17.0661 1.78512 17.4637 2.24716 17.4637 2.81513V21.1849Z" fill="#585858"/>
<path d="M13.1544 4.5H5.84587C5.41538 4.5 5.06665 4.84368 5.06665 5.26736V9.73264C5.06665 10.1566 5.41538 10.5 5.84587 10.5H13.1541C13.5846 10.5 13.9333 10.1566 13.9333 9.73264V5.26762C13.9336 4.84394 13.5846 4.5 13.1544 4.5ZM12.346 8.93688H6.65419V6.06338H12.346V8.93688Z" fill="#585858"/>
<path d="M13.1544 13.5H5.84587C5.41538 13.5 5.06665 13.9296 5.06665 14.4592V20.0408C5.06665 20.5707 5.41538 21 5.84587 21H13.1541C13.5846 21 13.9333 20.5707 13.9333 20.0408V14.4592C13.9336 13.9296 13.5846 13.5 13.1544 13.5ZM12.346 19.0461H6.65419V15.4542H12.346V19.0461Z" fill="#585858"/>
<path d="M2.53345 4.5H3.80011V6H2.53345V4.5Z" fill="#585858"/>
<path d="M2.53345 7.5H3.80011V9H2.53345V7.5Z" fill="#585858"/>
<path d="M2.53345 12H3.80011V13.5H2.53345V12Z" fill="#585858"/>
<path d="M2.53345 15H3.80011V16.5H2.53345V15Z" fill="#585858"/>
<path d="M2.53345 18H3.80011V21H2.53345V18Z" fill="#585858"/>
<path d="M15.2 4.5H16.4666V6H15.2V4.5Z" fill="#585858"/>
<path d="M15.2 7.5H16.4666V9H15.2V7.5Z" fill="#585858"/>
<path d="M15.2 12H16.4666V13.5H15.2V12Z" fill="#585858"/>
<path d="M15.2 15H16.4666V16.5H15.2V15Z" fill="#585858"/>
<path d="M15.2 18H16.4666V21H15.2V18Z" fill="#585858"/>
</svg>
