<svg width="90" height="51" viewBox="0 0 90 51" fill="none" xmlns="http://www.w3.org/2000/svg">
<path d="M89.5 25.5C89.5 39.3106 78.3876 50.5 64.6875 50.5C50.9874 50.5 39.875 39.3106 39.875 25.5C39.875 11.6894 50.9874 0.5 64.6875 0.5C78.3876 0.5 89.5 11.6894 89.5 25.5Z" stroke="white"/>
<path d="M83.0713 13.3571C83.0713 18.226 79.1543 22.1667 74.3302 22.1667C69.5062 22.1667 65.5892 18.226 65.5892 13.3571C65.5892 8.48828 69.5062 4.54761 74.3302 4.54761C79.1543 4.54761 83.0713 8.48828 83.0713 13.3571Z" stroke="white"/>
<path d="M57.3571 25.5C57.3571 30.3688 53.4402 34.3095 48.6161 34.3095C43.792 34.3095 39.875 30.3688 39.875 25.5C39.875 20.6311 43.792 16.6904 48.6161 16.6904C53.4402 16.6904 57.3571 20.6311 57.3571 25.5Z" stroke="white"/>
<path d="M79.0536 40.0715C79.0536 44.9403 75.1366 48.881 70.3125 48.881C65.4884 48.881 61.5714 44.9403 61.5714 40.0715C61.5714 35.2026 65.4884 31.262 70.3125 31.262C75.1366 31.262 79.0536 35.2026 79.0536 40.0715Z" stroke="white"/>
<path d="M17.9821 26.3095C17.9821 31.1784 14.0652 35.119 9.24107 35.119C4.41698 35.119 0.5 31.1784 0.5 26.3095C0.5 21.4407 4.41698 17.5 9.24107 17.5C14.0652 17.5 17.9821 21.4407 17.9821 26.3095Z" stroke="white"/>
<path d="M36.5143 26.2583C36.7095 26.0631 36.7095 25.7465 36.5143 25.5512L33.3323 22.3693C33.137 22.174 32.8205 22.174 32.6252 22.3693C32.4299 22.5645 32.4299 22.8811 32.6252 23.0764L35.4536 25.9048L32.6252 28.7332C32.4299 28.9285 32.4299 29.2451 32.6252 29.4403C32.8205 29.6356 33.137 29.6356 33.3323 29.4403L36.5143 26.2583ZM23.3036 26.4048H36.1607V25.4048H23.3036V26.4048Z" fill="white"/>
</svg>
