<svg width="22" height="22" viewBox="0 0 22 22" fill="none" xmlns="http://www.w3.org/2000/svg">
<path d="M15.1445 9.45312C15.1445 8.97849 14.7598 8.59375 14.2852 8.59375H5.43359C4.95896 8.59375 4.57422 8.97849 4.57422 9.45312C4.57422 9.92776 4.95896 10.3125 5.43359 10.3125H14.2852C14.7598 10.3125 15.1445 9.92776 15.1445 9.45312Z" fill="#585858"/>
<path d="M5.43359 12.0312C4.95896 12.0312 4.57422 12.416 4.57422 12.8906C4.57422 13.3653 4.95896 13.75 5.43359 13.75H10.8095C11.2841 13.75 11.6688 13.3653 11.6688 12.8906C11.6688 12.416 11.2841 12.0312 10.8095 12.0312H5.43359Z" fill="#585858"/>
<path d="M7.45324 20.2812H4.5791C3.63138 20.2812 2.86035 19.5102 2.86035 18.5625V3.4375C2.86035 2.48978 3.63138 1.71875 4.5791 1.71875H15.1446C16.0924 1.71875 16.8634 2.48978 16.8634 3.4375V8.72266C16.8634 9.19729 17.2481 9.58203 17.7228 9.58203C18.1974 9.58203 18.5821 9.19729 18.5821 8.72266V3.4375C18.5821 1.54206 17.0401 0 15.1446 0H4.5791C2.68366 0 1.1416 1.54206 1.1416 3.4375V18.5625C1.1416 20.4579 2.68366 22 4.5791 22H7.45324C7.92787 22 8.31261 21.6153 8.31261 21.1406C8.31261 20.666 7.92787 20.2812 7.45324 20.2812Z" fill="#585858"/>
<path d="M20.1043 12.4425C19.0991 11.4373 17.4635 11.4372 16.4589 12.4418L11.7408 17.1495C11.6406 17.2494 11.5667 17.3726 11.5256 17.508L10.4981 20.8907C10.407 21.1907 10.4863 21.5163 10.7052 21.7407C10.8692 21.9087 11.0919 21.9999 11.3204 21.9999C11.3968 21.9999 11.474 21.9897 11.5498 21.9687L15.0184 21.0079C15.1612 20.9683 15.2913 20.8926 15.3961 20.7879L20.1043 16.0886C21.1095 15.0833 21.1095 13.4478 20.1043 12.4425ZM14.3418 19.4118L12.5968 19.8952L13.1075 18.2139L16.291 15.0375L17.5066 16.253L14.3418 19.4118ZM18.8896 14.8727L18.7231 15.0389L17.5077 13.8235L17.6737 13.6579C18.0087 13.3228 18.5539 13.3228 18.889 13.6579C19.2241 13.993 19.2241 14.5382 18.8896 14.8727Z" fill="#585858"/>
<path d="M14.2852 5.15625H5.43359C4.95896 5.15625 4.57422 5.54099 4.57422 6.01562C4.57422 6.49026 4.95896 6.875 5.43359 6.875H14.2852C14.7598 6.875 15.1445 6.49026 15.1445 6.01562C15.1445 5.54099 14.7598 5.15625 14.2852 5.15625Z" fill="#585858"/>
</svg>
