<svg width="63" height="63" viewBox="0 0 63 63" fill="none" xmlns="http://www.w3.org/2000/svg">
<path d="M62.5 31.125C62.5 48.0331 48.6265 61.75 31.5 61.75C14.3735 61.75 0.5 48.0331 0.5 31.125C0.5 14.2169 14.3735 0.5 31.5 0.5C48.6265 0.5 62.5 14.2169 62.5 31.125Z" stroke="#2D9687"/>
<path d="M54.5 16.3045C54.5 22.2984 49.5808 27.1676 43.5 27.1676C37.4192 27.1676 32.5 22.2984 32.5 16.3045C32.5 10.3106 37.4192 5.44141 43.5 5.44141C49.5808 5.44141 54.5 10.3106 54.5 16.3045Z" stroke="#2D9687"/>
<path d="M22.5 31.1248C22.5 37.1187 17.5808 41.9879 11.5 41.9879C5.41921 41.9879 0.5 37.1187 0.5 31.1248C0.5 25.1309 5.41921 20.2617 11.5 20.2617C17.5808 20.2617 22.5 25.1309 22.5 31.1248Z" stroke="#2D9687"/>
<path d="M49.5 48.91C49.5 54.9039 44.5808 59.7731 38.5 59.7731C32.4192 59.7731 27.5 54.9039 27.5 48.91C27.5 42.9161 32.4192 38.0469 38.5 38.0469C44.5808 38.0469 49.5 42.9161 49.5 48.91Z" stroke="#2D9687"/>
<path d="M20.5413 25.4875C20.4296 25.7389 20.5444 26.0339 20.7978 26.1465L24.9264 27.9813C25.1798 28.0939 25.4757 27.9815 25.5874 27.7301C25.6991 27.4788 25.5843 27.1838 25.3309 27.0712L21.661 25.4402L23.2789 21.7996C23.3906 21.5483 23.2758 21.2533 23.0224 21.1407C22.7691 21.0281 22.4732 21.1406 22.3615 21.3919L20.5413 25.4875ZM34.4587 20.9548C34.5704 20.7035 34.4556 20.4085 34.2022 20.2959L30.0736 18.461C29.8202 18.3484 29.5243 18.4609 29.4126 18.7122C29.3009 18.9635 29.4157 19.2585 29.6691 19.3711L33.339 21.0021L31.7211 24.6427C31.6094 24.894 31.7242 25.1891 31.9776 25.3017C32.2309 25.4143 32.5268 25.3018 32.6385 25.0505L34.4587 20.9548ZM21.1814 26.1574L34.1814 21.2169L33.8186 20.285L20.8186 25.2255L21.1814 26.1574Z" fill="#2D9687"/>
<path d="M21 37.0499C20.7222 37.0499 20.497 37.2724 20.497 37.5469V42.0198C20.497 42.2943 20.7222 42.5168 21 42.5168C21.2778 42.5168 21.503 42.2943 21.503 42.0198V38.0439L25.5269 38.0439C25.8047 38.0439 26.0299 37.8214 26.0299 37.5469C26.0299 37.2724 25.8047 37.0499 25.5269 37.0499L21 37.0499ZM28 44.9605C28.2778 44.9605 28.503 44.738 28.503 44.4635V39.9906C28.503 39.7161 28.2778 39.4936 28 39.4936C27.7222 39.4936 27.497 39.7161 27.497 39.9906L27.497 43.9665H23.4731C23.1953 43.9665 22.9701 44.1891 22.9701 44.4635C22.9701 44.738 23.1953 44.9605 23.4731 44.9605L28 44.9605ZM20.6443 37.8983L27.6443 44.815L28.3557 44.1121L21.3557 37.1954L20.6443 37.8983Z" fill="#2D9687"/>
<path d="M46.3536 27.3125C46.1583 27.1172 45.8417 27.1172 45.6464 27.3125L42.4645 30.4944C42.2692 30.6897 42.2692 31.0063 42.4645 31.2015C42.6597 31.3968 42.9763 31.3968 43.1716 31.2015L46 28.3731L48.8284 31.2015C49.0237 31.3968 49.3403 31.3968 49.5355 31.2015C49.7308 31.0063 49.7308 30.6897 49.5355 30.4944L46.3536 27.3125ZM45.6464 39.8767C45.8417 40.072 46.1583 40.072 46.3536 39.8767L49.5355 36.6947C49.7308 36.4995 49.7308 36.1829 49.5355 35.9876C49.3403 35.7924 49.0237 35.7924 48.8284 35.9876L46 38.8161L43.1716 35.9876C42.9763 35.7924 42.6597 35.7924 42.4645 35.9876C42.2692 36.1829 42.2692 36.4995 42.4645 36.6947L45.6464 39.8767ZM45.5 27.666L45.5 39.5232L46.5 39.5232L46.5 27.666L45.5 27.666Z" fill="#2D9687"/>
</svg>
