<svg width="80" height="80" viewBox="0 0 80 80" fill="none" xmlns="http://www.w3.org/2000/svg">
<g clip-path="url(#clip0_39_64)">
<path d="M40 0C17.9444 0 0 17.9444 0 40C0 62.0556 17.9444 80 40 80C62.0556 80 80 62.0556 80 40C80 17.9444 62.0556 0 40 0ZM40 76.6667C19.7819 76.6667 3.33328 60.2181 3.33328 40C3.33328 19.7819 19.7819 3.33328 40 3.33328C60.2181 3.33328 76.6667 19.7819 76.6667 40C76.6667 60.2181 60.2181 76.6667 40 76.6667Z" fill="black"/>
<path d="M40 43.3333C41.8375 43.3333 43.3333 41.8375 43.3333 40C43.3333 38.1625 41.8375 36.6667 40 36.6667C38.1625 36.6667 36.6667 38.1625 36.6667 40C36.6667 41.8375 38.1625 43.3333 40 43.3333Z" fill="black"/>
<path d="M59.2887 18.4751L32.5879 31.8426C32.2654 32.0039 32.0038 32.2655 31.8425 32.588L18.475 59.2888C18.3185 59.6017 18.2645 59.9559 18.3206 60.3012C18.3767 60.6465 18.54 60.9654 18.7875 61.2127C18.9422 61.3676 19.1259 61.4904 19.3281 61.5742C19.5303 61.658 19.747 61.7011 19.9659 61.701C20.2247 61.7015 20.48 61.6413 20.7114 61.5252L47.4122 48.1577C47.7347 47.9964 47.9963 47.7348 48.1576 47.4123L61.5251 20.7115C61.6815 20.3986 61.7355 20.0444 61.6795 19.6991C61.6234 19.3538 61.46 19.0349 61.2126 18.7876C60.7064 18.2798 59.9267 18.156 59.2887 18.4751ZM45.4248 45.4249L23.6979 56.3023L34.5753 34.5754L56.3022 23.698L45.4248 45.4249Z" fill="black"/>
</g>
<defs>
<clipPath id="clip0_39_64">
<rect width="80" height="80" fill="white"/>
</clipPath>
</defs>
</svg>
