<svg width="82" height="82" viewBox="0 0 82 82" fill="none" xmlns="http://www.w3.org/2000/svg">
<g clip-path="url(#clip0_4_1653)">
<path d="M80.4322 48.0427C80.0722 45.5983 79.7627 43.4823 79.6616 42.1243C79.3269 37.5892 78.1015 35.1763 75.556 33.9573C74.4627 33.4452 73.2633 33.2006 72.0567 33.2435C71.6904 31.7024 70.9451 29.2074 69.8081 28.0831C67.8501 26.1503 65.1656 26.0934 63.5928 26.2766C63.3735 25.5544 62.986 24.8946 62.4623 24.3511C61.9386 23.8076 61.2935 23.396 60.58 23.15C58.8499 22.6467 56.9951 22.7973 55.369 23.5732C54.8763 16.0252 54.2447 9.08354 53.5246 7.66236C53.2739 7.08292 52.8774 6.57826 52.3738 6.19749C51.8701 5.81673 51.2765 5.57283 50.6507 5.48954C48.7116 5.24952 46.8103 6.62017 46.2292 7.28338C45.825 7.75079 45.5344 8.08556 45.5597 21.811C45.5597 28.2473 45.6734 35.549 45.7681 36.8439C45.8502 37.9492 45.6987 41.8969 45.5218 45.6867C45.2133 45.2087 44.945 44.7059 44.7196 44.1834C43.2921 41.0253 40.2982 38.4419 36.3757 36.9323C33.7924 35.9469 31.3858 36.2122 29.9268 37.6397C29.403 38.1443 29.0375 38.7905 28.8749 39.4994C28.7122 40.2083 28.7595 40.9492 29.0109 41.6316C29.4972 42.9833 30.6026 44.3035 31.8785 45.832C33.0609 47.1614 34.1181 48.5971 35.0367 50.1208C35.8645 51.7104 36.5677 53.3618 37.14 55.0602C37.7956 57.0326 38.6418 58.9365 39.6666 60.7449C40.1403 61.5281 40.6582 62.3555 41.1888 63.2083C42.8071 65.6999 44.2833 68.2811 45.6102 70.9395C47.183 74.3692 52.893 77.2558 53.5372 77.6095C53.6872 77.6872 53.8511 77.734 54.0195 77.7473C54.1878 77.7605 54.3571 77.7398 54.5173 77.6865C54.6775 77.6332 54.8254 77.5483 54.9523 77.4368C55.0791 77.3254 55.1823 77.1896 55.2558 77.0376C55.3293 76.8856 55.3715 76.7204 55.3801 76.5517C55.3886 76.3831 55.3632 76.2144 55.3055 76.0558C55.2477 75.8971 55.1588 75.7516 55.0438 75.6279C54.9289 75.5042 54.7903 75.4048 54.6363 75.3356C53.1014 74.5714 48.901 72.1017 47.8778 69.872C46.4986 67.1084 44.959 64.4278 43.2669 61.8439C42.7426 61.0038 42.231 60.1827 41.7636 59.4058C40.8374 57.7521 40.0717 56.0135 39.4771 54.2138C38.8621 52.3903 38.1039 50.6183 37.2095 48.9144C36.2194 47.2527 35.0754 45.6878 33.7924 44.2403C32.7123 42.977 31.6953 41.7137 31.3606 40.8042C31.2734 40.5775 31.2563 40.3299 31.3115 40.0934C31.3667 39.8569 31.4916 39.6425 31.6701 39.4778C32.2385 38.9219 33.5271 38.5935 35.4599 39.3262C39.9445 41.0379 41.732 43.7476 42.4078 45.2572C43.0485 46.8065 44.054 48.1782 45.3386 49.2555C45.2755 50.405 45.2249 51.422 45.1807 52.1673C45.1617 52.5014 45.2761 52.8294 45.4988 53.0793C45.7214 53.3292 46.0341 53.4805 46.3682 53.5H46.425C46.7473 53.5006 47.0577 53.378 47.2925 53.1572C47.5274 52.9365 47.669 52.6343 47.6883 52.3126C47.6883 51.7694 48.4463 39.0483 48.2694 36.6607C48.0673 33.6983 47.9473 11.7554 48.3199 8.78667C48.8836 8.30676 49.5948 8.03476 50.3349 8.01608C50.4864 8.01608 50.8907 8.08556 51.257 8.81825C51.8318 9.99309 52.5203 17.9896 53.0761 27.8178V27.9883C53.0761 27.9883 53.0761 28.0199 53.0761 28.0389C53.3793 33.2562 53.6446 38.9851 53.8531 44.4614C53.8656 44.7964 54.0108 45.1127 54.2565 45.3407C54.5023 45.5688 54.8287 45.6898 55.1637 45.6773C55.4987 45.6647 55.8151 45.5195 56.0431 45.2738C56.2711 45.028 56.3922 44.7017 56.3796 44.3666C56.2848 41.8401 56.0006 34.7216 55.5711 27.4009C55.5592 27.1377 55.6102 26.8754 55.7201 26.6359C55.83 26.3964 55.9954 26.1866 56.2027 26.024C57.1375 25.285 58.9061 25.285 59.7778 25.5629C61.1674 26.0113 61.3569 27.7736 61.3632 27.8431C61.3632 27.9568 62.4875 39.5851 62.6264 42.2254C62.6442 42.5482 62.7851 42.852 63.0201 43.0741C63.2552 43.2961 63.5664 43.4197 63.8897 43.4192H63.9655C64.2996 43.3996 64.6123 43.2483 64.8349 42.9984C65.0576 42.7486 65.172 42.4205 65.153 42.0864C65.0267 39.8757 64.2687 31.8224 63.9845 28.7779C65.0835 28.6705 66.8268 28.7274 68.008 29.8896C68.7343 30.6033 69.4923 33.2372 69.8018 34.8795V34.9237C69.8018 34.9237 69.8018 34.9553 69.8018 34.9742C70.4482 37.6452 70.674 40.4007 70.4713 43.1412C70.4548 43.3063 70.4708 43.473 70.5187 43.6319C70.5665 43.7907 70.6452 43.9386 70.7502 44.067C70.8552 44.1955 70.9844 44.302 71.1306 44.3805C71.2767 44.459 71.4369 44.5079 71.602 44.5245H71.7283C72.0426 44.5261 72.3461 44.4105 72.5797 44.2002C72.8133 43.99 72.9601 43.7003 72.9916 43.3876C73.1978 40.8536 73.0555 38.3033 72.5684 35.808C73.2244 35.8392 73.868 35.9979 74.4633 36.2754C75.8402 36.907 76.8129 38.1703 77.1224 42.3391C77.2298 43.7855 77.5456 45.9394 77.912 48.4343C78.5878 53.0579 79.4342 58.8121 79.2511 62.3303C78.9731 67.6613 76.7814 75.8093 76.7624 75.8915C76.7168 76.0616 76.7073 76.2394 76.7345 76.4135C76.7617 76.5875 76.825 76.7539 76.9203 76.9021L79.4469 80.8687C79.6326 81.1381 79.9156 81.3248 80.2363 81.3897C80.557 81.4546 80.8904 81.3925 81.1662 81.2165C81.4421 81.0405 81.6389 80.7644 81.7152 80.4462C81.7915 80.1281 81.7414 79.7927 81.5755 79.5107L79.3395 76.0115C79.8448 74.0534 81.5186 67.3076 81.7713 62.4629C81.9923 58.6858 81.127 52.78 80.4322 48.0427Z" fill="#DBAA02"/>
<path d="M2.21066 10.6816H38.9844C39.2886 12.416 40.1227 14.0136 41.372 15.2546C41.609 15.4916 41.9305 15.6248 42.2657 15.6248C42.601 15.6248 42.9224 15.4916 43.1595 15.2546C43.3965 15.0176 43.5297 14.6961 43.5297 14.3608C43.5297 14.0256 43.3965 13.7041 43.1595 13.4671C42.1735 12.4772 41.5601 11.1768 41.4231 9.78641C41.2861 8.39598 41.634 7.00095 42.4078 5.83764C43.1816 4.67434 44.3337 3.81429 45.669 3.40321C47.0044 2.99213 48.4407 3.0553 49.7348 3.582C49.8882 3.64504 50.0526 3.67724 50.2185 3.67676C50.3844 3.67627 50.5486 3.64312 50.7017 3.57919C51.0108 3.45007 51.256 3.20343 51.3834 2.89352C51.4464 2.74007 51.4786 2.5757 51.4781 2.40981C51.4776 2.24391 51.4445 2.07973 51.3806 1.92665C51.3166 1.77357 51.2232 1.63457 51.1055 1.51761C50.9879 1.40064 50.8483 1.308 50.6949 1.24496C49.4721 0.741882 48.1495 0.528309 46.8306 0.620921C45.5116 0.713532 44.2318 1.10982 43.0914 1.77883C41.9509 2.44784 40.9805 3.37146 40.256 4.47754C39.5315 5.58362 39.0725 6.84222 38.9149 8.15503H2.21066C1.87562 8.15503 1.5543 8.28813 1.31739 8.52503C1.08048 8.76194 0.947388 9.08326 0.947388 9.4183C0.947388 9.75334 1.08048 10.0747 1.31739 10.3116C1.5543 10.5485 1.87562 10.6816 2.21066 10.6816Z" fill="#DBAA02"/>
<path d="M57.7945 8.15503C57.4594 8.15503 57.1381 8.28812 56.9012 8.52503C56.6643 8.76194 56.5312 9.08326 56.5312 9.4183C56.5312 9.75334 56.6643 10.0747 56.9012 10.3116C57.1381 10.5485 57.4594 10.6816 57.7945 10.6816H80.5333C80.8683 10.6816 81.1896 10.5485 81.4265 10.3116C81.6635 10.0747 81.7965 9.75334 81.7965 9.4183C81.7965 9.08326 81.6635 8.76194 81.4265 8.52503C81.1896 8.28812 80.8683 8.15503 80.5333 8.15503H57.7945Z" fill="#DBAA02"/>
<path d="M9.79026 49.843C11.9149 49.8405 13.9676 49.0731 15.5728 47.6813C17.1781 46.2895 18.2286 44.3662 18.5321 42.2634H24.9495C25.2845 42.2634 25.6058 42.1303 25.8427 41.8934C26.0796 41.6565 26.2127 41.3351 26.2127 41.0001C26.2127 40.6651 26.0796 40.3437 25.8427 40.1068C25.6058 39.8699 25.2845 39.7368 24.9495 39.7368H18.5321C18.2899 38.0588 17.5704 36.4857 16.4593 35.2051C15.3482 33.9244 13.8924 32.9902 12.2652 32.5137C10.6381 32.0372 8.90833 32.0384 7.28193 32.5174C5.65553 32.9963 4.2011 33.9327 3.09191 35.215C1.98273 36.4973 1.26556 38.0714 1.02585 39.7498C0.786134 41.4283 1.03398 43.1402 1.73987 44.6817C2.44575 46.2233 3.57991 47.5294 5.00721 48.4444C6.43452 49.3595 8.0948 49.845 9.79026 49.843ZM9.79026 34.6838C11.0395 34.6838 12.2607 35.0542 13.2994 35.7482C14.3381 36.4423 15.1477 37.4288 15.6258 38.5829C16.1039 39.7371 16.2289 41.0071 15.9852 42.2324C15.7415 43.4576 15.1399 44.5831 14.2566 45.4664C13.3732 46.3498 12.2478 46.9514 11.0225 47.1951C9.79726 47.4388 8.52726 47.3137 7.3731 46.8356C6.21894 46.3576 5.23246 45.548 4.53841 44.5093C3.84436 43.4705 3.47392 42.2493 3.47392 41.0001C3.47392 39.3249 4.13938 37.7183 5.32393 36.5338C6.50847 35.3492 8.11506 34.6838 9.79026 34.6838Z" fill="#DBAA02"/>
<path d="M2.21066 73.8449H19.9975C20.3162 75.935 21.3732 77.8417 22.977 79.2195C24.5807 80.5972 26.625 81.3547 28.7393 81.3547C30.8535 81.3547 32.8978 80.5972 34.5016 79.2195C36.1053 77.8417 37.1624 75.935 37.4811 73.8449H42.0036C42.3386 73.8449 42.66 73.7118 42.8969 73.4749C43.1338 73.238 43.2669 72.9167 43.2669 72.5816C43.2669 72.2466 43.1338 71.9253 42.8969 71.6884C42.66 71.4515 42.3386 71.3184 42.0036 71.3184H37.4811C37.1624 69.2283 36.1053 67.3216 34.5016 65.9438C32.8978 64.5661 30.8535 63.8086 28.7393 63.8086C26.625 63.8086 24.5807 64.5661 22.977 65.9438C21.3732 67.3216 20.3162 69.2283 19.9975 71.3184H2.21066C1.87562 71.3184 1.5543 71.4515 1.31739 71.6884C1.08048 71.9253 0.947388 72.2466 0.947388 72.5816C0.947388 72.9167 1.08048 73.238 1.31739 73.4749C1.5543 73.7118 1.87562 73.8449 2.21066 73.8449ZM28.7393 66.2653C29.9885 66.2653 31.2097 66.6358 32.2485 67.3298C33.2872 68.0239 34.0968 69.0103 34.5748 70.1645C35.0529 71.3186 35.178 72.5887 34.9343 73.8139C34.6905 75.0392 34.089 76.1646 33.2056 77.048C32.3223 77.9313 31.1968 78.5329 29.9715 78.7766C28.7463 79.0203 27.4763 78.8953 26.3221 78.4172C25.168 77.9391 24.1815 77.1295 23.4874 76.0908C22.7934 75.0521 22.4229 73.8309 22.4229 72.5816C22.4229 70.9065 23.0884 69.2999 24.273 68.1153C25.4575 66.9308 27.0641 66.2653 28.7393 66.2653Z" fill="#DBAA02"/>
</g>
<defs>
<clipPath id="clip0_4_1653">
<rect width="80.8492" height="80.8492" fill="white" transform="translate(0.947388 0.575439)"/>
</clipPath>
</defs>
</svg>
