<svg width="81" height="82" viewBox="0 0 81 82" fill="none" xmlns="http://www.w3.org/2000/svg">
<path d="M75.0875 9.46703L72.181 6.56053C68.5787 2.95885 63.7884 0.841273 58.6916 0.598859C53.6305 0.358295 48.6933 1.97748 44.79 5.15847C44.283 5.57175 44.2071 6.3175 44.6204 6.82453C45.0331 7.33157 45.7794 7.40805 46.2865 6.99416C49.7364 4.18265 54.1066 2.7516 58.5787 2.96502C63.0859 3.17968 67.3216 5.05114 70.5057 8.23522L73.4122 11.1417C80.4681 18.1977 80.4681 29.6787 73.4122 36.734L58.4387 51.7076C58.3344 51.8118 58.2277 51.9136 58.121 52.0154C59.2381 48.3718 59.317 44.4759 58.3591 40.7965L67.9169 31.2387C69.8642 29.2914 70.9369 26.6988 70.9369 23.9379C70.9369 21.1776 69.8642 18.5844 67.9169 16.6371L65.0104 13.7306C63.063 11.7832 60.4705 10.7112 57.7096 10.7112C54.9492 10.7112 52.3561 11.7832 50.4094 13.7306L35.4358 28.7041C33.486 30.6546 32.4115 33.2471 32.4115 36.0049C32.4115 38.7628 33.486 41.3553 35.4358 43.3058L38.3423 46.2123C40.2989 48.1688 42.9186 49.2316 45.6295 49.2316C45.698 49.2316 45.7665 49.2279 45.8343 49.2267C45.4439 50.1045 44.8931 50.9125 44.1942 51.6114L39.7789 56.0273C37.1814 55.1403 34.7962 53.6574 32.8463 51.7076L29.9398 48.8011C26.522 45.3832 24.64 40.8384 24.64 36.0049C24.64 31.1715 26.522 26.6266 29.9405 23.2088L42.3295 10.8191C42.7921 10.3565 42.7921 9.60705 42.3295 9.14443C41.8669 8.68181 41.1174 8.68181 40.6548 9.14443L28.2651 21.5341C27.0543 22.7449 26.0143 24.081 25.1563 25.5127C23.7191 26.375 22.3855 27.4137 21.1907 28.6085L6.21777 43.5815C-1.76155 51.5608 -1.76155 64.5445 6.21777 72.5238L9.12427 75.4303C12.9893 79.296 18.1288 81.4247 23.5951 81.4247C27.8858 81.4247 31.9846 80.1188 35.4488 77.6484C35.9811 77.2684 36.1051 76.5289 35.7251 75.9965C35.3457 75.4642 34.6062 75.3396 34.0732 75.7196C31.0131 77.9025 27.3899 79.056 23.5951 79.056C18.7616 79.056 14.2168 77.1735 10.799 73.7556L7.89246 70.8491C0.836537 63.7932 0.836537 52.3127 7.89246 45.2562L22.866 30.2832C22.9635 30.1851 23.064 30.0902 23.164 29.9945C22.5761 31.9172 22.2708 33.9373 22.2708 36.0049C22.2708 37.7839 22.4978 39.5277 22.9351 41.2048L13.3878 50.7521C11.4405 52.6995 10.3678 55.292 10.3678 58.0523C10.3678 60.8133 11.4405 63.4058 13.3878 65.3531L16.2943 68.2596C18.2447 70.2101 20.8373 71.284 23.5951 71.284C26.3524 71.284 28.9455 70.2101 30.8953 68.2596L45.8689 53.2867C47.8162 51.3394 48.8883 48.7462 48.8883 45.9859C48.8883 43.2256 47.8162 40.6324 45.8689 38.6851L42.9624 35.7786C41.012 33.8288 38.4194 32.7549 35.6616 32.7549C35.598 32.7549 35.5339 32.7586 35.4697 32.7598C35.8614 31.8839 36.4116 31.0777 37.1105 30.3794L41.535 25.9549C44.1195 26.8407 46.5011 28.3266 48.4583 30.2832L51.3642 33.1897C53.5552 35.3801 55.0652 37.9979 55.8955 40.7774C55.8973 40.7835 55.8998 40.7897 55.9016 40.7959C57.7367 46.9629 56.2248 53.922 51.3648 58.782L37.9445 72.2018C37.4824 72.6644 37.4824 73.4145 37.9445 73.8771C38.1758 74.1078 38.4792 74.2238 38.7821 74.2238C39.085 74.2238 39.3885 74.1084 39.6198 73.8771L53.0395 60.4567C54.2615 59.2354 55.2953 57.8956 56.1422 56.4757C57.585 55.6134 58.921 54.5752 60.114 53.3823L75.0875 38.4093C83.0662 30.43 83.0662 17.4464 75.0875 9.46703ZM29.2206 66.5849C27.718 68.0875 25.7201 68.9153 23.5951 68.9153C21.4701 68.9153 19.4722 68.0875 17.969 66.5849L15.0625 63.6784C13.563 62.1783 12.7371 60.1804 12.7371 58.0529C12.7371 55.9249 13.563 53.927 15.0625 52.4268L23.7703 43.7196C24.7856 46.2178 26.3005 48.5118 28.2651 50.4758L31.1717 53.3823C33.1048 55.3154 35.4167 56.844 37.9377 57.8679L29.2206 66.5849ZM35.6622 35.1229C37.7872 35.1229 39.7851 35.9507 41.2877 37.4533L44.1942 40.3598C45.6943 41.8599 46.5202 43.8578 46.5202 45.9859C46.5202 46.2647 46.5048 46.541 46.4771 46.8143C44.0936 47.0666 41.7262 46.2462 40.017 44.5376L37.1105 41.6304C35.6079 40.1278 34.7801 38.1299 34.7801 36.0049C34.7801 35.7237 34.7955 35.4442 34.8245 35.1679C35.1033 35.1383 35.3828 35.1229 35.6622 35.1229ZM53.0395 31.515L50.133 28.6085C48.1943 26.6698 45.8855 25.1389 43.375 24.1149L52.0841 15.4059C53.5836 13.9057 55.5815 13.0798 57.7096 13.0798C59.8376 13.0798 61.8355 13.9057 63.3351 15.4059L66.2416 18.3124C67.7417 19.8119 68.5676 21.8104 68.5676 23.9379C68.5676 26.0659 67.7417 28.0639 66.2416 29.564L57.527 38.2786C56.5296 35.8156 55.0337 33.5086 53.0395 31.515Z" fill="#DBAA02"/>
</svg>
