<svg width="81" height="81" viewBox="0 0 81 81" fill="none" xmlns="http://www.w3.org/2000/svg">
<mask id="mask0_55_23" style="mask-type:luminance" maskUnits="userSpaceOnUse" x="0" y="0" width="81" height="81">
<path d="M79.3496 79.3492V1.49956H1.5V79.3492H79.3496Z" fill="white" stroke="white" stroke-width="3"/>
</mask>
<g mask="url(#mask0_55_23)">
<path d="M14.0809 15.6115C15.4165 14.083 16.8733 12.6643 18.4363 11.3706" stroke="#DBAA02" stroke-width="3" stroke-miterlimit="10" stroke-linecap="round" stroke-linejoin="round"/>
<path d="M5.74554 31.919C6.68842 27.8193 8.29814 23.9759 10.4534 20.5106" stroke="#DBAA02" stroke-width="3" stroke-miterlimit="10" stroke-linecap="round" stroke-linejoin="round"/>
<path d="M18.2019 69.2831C10.0004 62.3815 4.78473 52.0151 4.78473 40.4245C4.78473 39.9842 4.79231 39.5457 4.80715 39.1093" stroke="#DBAA02" stroke-width="3" stroke-miterlimit="10" stroke-linecap="round" stroke-linejoin="round"/>
<path d="M60.3673 73.3434C54.9928 76.3409 48.8071 78.0479 42.2247 78.0479C35.6647 78.0479 29.4988 76.3525 24.1372 73.3739" stroke="#DBAA02" stroke-width="3" stroke-miterlimit="10" stroke-linecap="round" stroke-linejoin="round"/>
<path d="M73.9717 20.4715C77.5791 26.2552 79.6648 33.0952 79.6648 40.4247C79.6648 51.9984 74.4644 62.3515 66.2834 69.2531" stroke="#DBAA02" stroke-width="3" stroke-miterlimit="10" stroke-linecap="round" stroke-linejoin="round"/>
<path d="M65.6813 11.0987C67.0668 12.2192 68.3714 13.437 69.5846 14.7415" stroke="#DBAA02" stroke-width="3" stroke-miterlimit="10" stroke-linecap="round" stroke-linejoin="round"/>
<path d="M24.3712 7.34625C29.6779 4.44784 35.7601 2.80133 42.2248 2.80133C48.5236 2.80133 54.4593 4.36447 59.6683 7.12565" stroke="#DBAA02" stroke-width="3" stroke-miterlimit="10" stroke-linecap="round" stroke-linejoin="round"/>
<path d="M45.3602 15.9536C49.5771 13.3293 54.2225 11.2667 59.2146 9.88988" stroke="#DBAA02" stroke-width="3" stroke-miterlimit="10" stroke-linecap="round" stroke-linejoin="round"/>
<path d="M30.0187 30.461C32.7163 26.6328 35.9165 23.1577 39.5473 20.145" stroke="#DBAA02" stroke-width="3" stroke-miterlimit="10" stroke-linecap="round" stroke-linejoin="round"/>
<path d="M20.6559 67.7137C19.3081 56.695 21.4389 45.9397 26.2521 36.6584" stroke="#DBAA02" stroke-width="3" stroke-miterlimit="10" stroke-linecap="round" stroke-linejoin="round"/>
<path d="M39.0894 15.9536C34.7299 13.2405 29.9126 11.1279 24.7275 9.7525" stroke="#DBAA02" stroke-width="3" stroke-miterlimit="10" stroke-linecap="round" stroke-linejoin="round"/>
<path d="M59.576 39.5214C56.2454 32.0448 51.2275 25.3935 44.9026 20.1452" stroke="#DBAA02" stroke-width="3" stroke-miterlimit="10" stroke-linecap="round" stroke-linejoin="round"/>
<path d="M63.6197 53.4215C63.2642 51.0173 62.7434 48.6381 62.0635 46.305" stroke="#DBAA02" stroke-width="3" stroke-miterlimit="10" stroke-linecap="round" stroke-linejoin="round"/>
<path d="M63.7715 67.8931C64.0846 65.3986 64.2239 62.8828 64.1849 60.3689" stroke="#DBAA02" stroke-width="3" stroke-miterlimit="10" stroke-linecap="round" stroke-linejoin="round"/>
<path d="M24.6125 32.8058C19.219 32.7783 13.7442 33.3571 8.27264 34.5918" stroke="#DBAA02" stroke-width="3" stroke-miterlimit="10" stroke-linecap="round" stroke-linejoin="round"/>
<path d="M57.8171 41.0968C49.7875 36.8873 40.9654 34.17 31.788 33.2017" stroke="#DBAA02" stroke-width="3" stroke-miterlimit="10" stroke-linecap="round" stroke-linejoin="round"/>
<path d="M76.6427 55.2561C72.8306 51.2755 68.5933 47.7559 64.0262 44.7535" stroke="#DBAA02" stroke-width="3" stroke-miterlimit="10" stroke-linecap="round" stroke-linejoin="round"/>
<path d="M62.7569 39.729C66.2887 34.0438 69.0732 27.8139 70.9591 21.164" stroke="#DBAA02" stroke-width="3" stroke-miterlimit="10" stroke-linecap="round" stroke-linejoin="round"/>
<path d="M24.6127 70.2069C38.1483 65.5388 49.9931 56.9438 58.6628 45.6466" stroke="#DBAA02" stroke-width="3" stroke-miterlimit="10" stroke-linecap="round" stroke-linejoin="round"/>
<path d="M42.2247 21.3472C40.2394 21.3472 38.6243 19.7242 38.6243 17.729C38.6243 15.734 40.2394 14.111 42.2247 14.111C44.2101 14.111 45.8252 15.734 45.8252 17.729C45.8252 19.7242 44.2101 21.3472 42.2247 21.3472Z" stroke="#DBAA02" stroke-width="3" stroke-miterlimit="10" stroke-linecap="round" stroke-linejoin="round"/>
<path d="M28.2131 37.2443C26.2277 37.2443 24.6126 35.6212 24.6126 33.6262C24.6126 31.6311 26.2277 30.008 28.2131 30.008C30.1985 30.008 31.8136 31.6311 31.8136 33.6262C31.8136 35.6212 30.1985 37.2443 28.2131 37.2443Z" stroke="#DBAA02" stroke-width="3" stroke-miterlimit="10" stroke-linecap="round" stroke-linejoin="round"/>
<path d="M60.9586 46.4798C58.9732 46.4798 57.3581 44.8566 57.3581 42.8616C57.3581 40.8666 58.9732 39.2435 60.9586 39.2435C62.9439 39.2435 64.559 40.8666 64.559 42.8616C64.559 44.8566 62.9439 46.4798 60.9586 46.4798Z" stroke="#DBAA02" stroke-width="3" stroke-miterlimit="10" stroke-linecap="round" stroke-linejoin="round"/>
<path d="M21.1956 74.9092C19.2102 74.9092 17.5952 73.2862 17.5952 71.2911C17.5952 69.2961 19.2102 67.6731 21.1956 67.6731C23.181 67.6731 24.7963 69.2961 24.7963 71.2911C24.7963 73.2862 23.181 74.9092 21.1956 74.9092Z" stroke="#DBAA02" stroke-width="3" stroke-miterlimit="10" stroke-linecap="round" stroke-linejoin="round"/>
<path d="M63.462 75.1151C61.4766 75.1151 59.8615 73.4919 59.8615 71.4969C59.8615 69.5019 61.4766 67.8787 63.462 67.8787C65.4474 67.8787 67.0626 69.5019 67.0626 71.4969C67.0626 73.4919 65.4474 75.1151 63.462 75.1151Z" stroke="#DBAA02" stroke-width="3" stroke-miterlimit="10" stroke-linecap="round" stroke-linejoin="round"/>
<path d="M71.8567 21.1639C69.8713 21.1639 68.256 19.5408 68.256 17.5458C68.256 15.5507 69.8713 13.9276 71.8567 13.9276C73.8421 13.9276 75.4571 15.5507 75.4571 17.5458C75.4571 19.5408 73.8421 21.1639 71.8567 21.1639Z" stroke="#DBAA02" stroke-width="3" stroke-miterlimit="10" stroke-linecap="round" stroke-linejoin="round"/>
<path d="M62.7161 12.6676C60.7307 12.6676 59.1156 11.0446 59.1156 9.04948C59.1156 7.05446 60.7307 5.43148 62.7161 5.43148C64.7015 5.43148 66.3167 7.05446 66.3167 9.04948C66.3167 11.0446 64.7015 12.6676 62.7161 12.6676Z" stroke="#DBAA02" stroke-width="3" stroke-miterlimit="10" stroke-linecap="round" stroke-linejoin="round"/>
<path d="M21.1956 12.6676C19.2102 12.6676 17.5952 11.0446 17.5952 9.04948C17.5952 7.05446 19.2102 5.43148 21.1956 5.43148C23.181 5.43148 24.7963 7.05446 24.7963 9.04948C24.7963 11.0446 23.181 12.6676 21.1956 12.6676Z" stroke="#DBAA02" stroke-width="3" stroke-miterlimit="10" stroke-linecap="round" stroke-linejoin="round"/>
<path d="M4.7848 39.1084C2.79941 39.1084 1.18433 37.4854 1.18433 35.4903C1.18433 33.4953 2.79941 31.8723 4.7848 31.8723C6.77018 31.8723 8.38527 33.4953 8.38527 35.4903C8.38527 37.4854 6.77018 39.1084 4.7848 39.1084Z" stroke="#DBAA02" stroke-width="3" stroke-miterlimit="10" stroke-linecap="round" stroke-linejoin="round"/>
</g>
</svg>
