<svg width="81" height="82" viewBox="0 0 81 82" fill="none" xmlns="http://www.w3.org/2000/svg">
<path d="M21.3063 30.1073C12.9764 44.7524 23.6116 63.0651 40.5 63.0651C52.6668 63.0651 62.5651 53.1666 62.5651 41C62.5651 23.42 42.9299 12.9664 28.3713 22.5642C27.7501 22.9744 26.9143 22.8026 26.5045 22.181C26.0949 21.5598 26.2665 20.7241 26.8879 20.3144C43.2256 9.54262 65.2601 21.2718 65.2601 41C65.2601 54.6527 54.1527 65.7601 40.5 65.7601C21.5198 65.7601 9.63248 45.1803 18.9638 28.775C19.3319 28.1282 20.1543 27.9019 20.8013 28.2698C21.4483 28.6377 21.6743 29.4605 21.3063 30.1073ZM37.805 41C37.805 42.486 39.0141 43.695 40.5 43.695C41.986 43.695 43.195 42.486 43.195 41C43.195 39.5141 41.986 38.305 40.5 38.305C39.0141 38.305 37.805 39.5141 37.805 41ZM79.5771 39.6525H75.5062C74.8124 21.404 60.096 6.68764 41.8475 5.99385V1.92293C41.8475 1.17878 41.2442 0.575439 40.5 0.575439C39.7559 0.575439 39.1525 1.17878 39.1525 1.92293V5.99385C20.904 6.68764 6.18764 21.404 5.49385 39.6525H1.42293C0.678776 39.6525 0.0754395 40.2559 0.0754395 41C0.0754395 41.7442 0.678776 42.3475 1.42293 42.3475H5.49385C6.1878 60.596 20.904 75.3124 39.1525 76.0062V80.0771C39.1525 80.8213 39.7559 81.4246 40.5 81.4246C41.2442 81.4246 41.8475 80.8213 41.8475 80.0771V74.6872C41.8475 73.943 41.2442 73.3397 40.5 73.3397C22.6679 73.3397 8.16035 58.8321 8.16035 41C8.16035 23.1679 22.6679 8.66035 40.5 8.66035C58.3321 8.66035 72.8397 23.1679 72.8397 41C72.8397 54.0268 65.0866 65.7235 53.0876 70.7988C52.4022 71.0889 52.0815 71.8793 52.3715 72.5647C52.6614 73.2499 53.452 73.5704 54.1374 73.2809C66.7207 67.9587 74.9931 55.914 75.5089 42.3475H79.5771C80.3213 42.3475 80.9246 41.7442 80.9246 41C80.9246 40.2559 80.3213 39.6525 79.5771 39.6525ZM40.5 24.4933C39.7559 24.4933 39.1525 25.0967 39.1525 25.8408V28.1642C33.1099 28.794 28.294 33.6099 27.6642 39.6525H25.3408C24.5967 39.6525 23.9933 40.2559 23.9933 41C23.9933 41.7442 24.5967 42.3475 25.3408 42.3475H27.6642C28.294 48.3901 33.1099 53.206 39.1525 53.8358V56.1592C39.1525 56.9034 39.7559 57.5067 40.5 57.5067C41.2442 57.5067 41.8475 56.9034 41.8475 56.1592V53.8357C45.2152 53.4858 48.3089 51.8323 50.4849 49.1784C50.9567 48.6029 50.8726 47.754 50.2972 47.282C49.7219 46.8104 48.8728 46.8943 48.4008 47.4696C46.7396 49.4957 44.4023 50.7821 41.8475 51.1195V48.9586C41.8475 48.2145 41.2442 47.6111 40.5 47.6111C39.7559 47.6111 39.1525 48.2145 39.1525 48.9586V51.1198C34.5982 50.5163 30.9837 46.9018 30.3802 42.3475H32.5414C33.2856 42.3475 33.8889 41.7442 33.8889 41C33.8889 40.2559 33.2856 39.6525 32.5414 39.6525H30.3802C30.9837 35.0982 34.5982 31.4837 39.1525 30.8802V33.0414C39.1525 33.7856 39.7559 34.3889 40.5 34.3889C41.2442 34.3889 41.8475 33.7856 41.8475 33.0414V30.8802C46.4018 31.4837 50.0163 35.0982 50.6198 39.6525H48.4586C47.7145 39.6525 47.1111 40.2559 47.1111 41C47.1111 41.7442 47.7145 42.3475 48.4586 42.3475H55.6592C56.4034 42.3475 57.0067 41.7442 57.0067 41C57.0067 40.2559 56.4034 39.6525 55.6592 39.6525H53.3358C52.706 33.6099 47.8901 28.794 41.8475 28.1642V25.8408C41.8475 25.0967 41.2442 24.4933 40.5 24.4933Z" fill="#DBAA02"/>
</svg>
