<svg width="71" height="70" viewBox="0 0 71 70" fill="none" xmlns="http://www.w3.org/2000/svg">
<g clip-path="url(#clip0_4_1529)">
<path d="M32.5834 35.9596V4.37501C32.5834 3.57 31.93 2.91663 31.125 2.91663C14.2375 2.91663 0.5 17.9638 0.5 36.4582C0.5 54.9527 15.5471 70 34.0416 70C42.3162 70 46.7932 68.5009 52.4691 63.8341C53.0788 63.3325 53.1779 62.437 52.6938 61.8129L32.5834 35.9596ZM34.0416 67.0834C17.1541 67.0834 3.41662 53.3459 3.41662 36.4584C3.41662 20.1134 15.0629 6.71713 29.6666 5.87426V36.4584C29.6666 36.7821 29.7745 37.0971 29.9757 37.3538L49.5057 62.4634C44.9004 65.9809 41.0591 67.0834 34.0416 67.0834Z" fill="#DBAA02"/>
<path d="M36.9584 35H69.0418C69.8468 35 70.5001 34.3466 70.5001 33.5416C70.5 15.0471 55.4529 0 36.9584 0C36.1534 0 35.5 0.653379 35.5 1.45838V33.5418C35.5 34.3466 36.1534 35 36.9584 35ZM38.4166 2.95162C54.1463 3.6925 66.8075 16.3538 67.5482 32.0832H38.4166V2.95162Z" fill="#DBAA02"/>
<path d="M69.0416 37.9166H39.875C39.315 37.9166 38.7988 38.2404 38.5566 38.7479C38.3145 39.2554 38.3875 39.8563 38.7404 40.2907L57.6988 63.7611C57.9525 64.079 58.3259 64.2715 58.7313 64.3007C58.7663 64.3036 58.7984 64.3036 58.8334 64.3036C59.2009 64.3036 59.5568 64.1636 59.828 63.9127C66.6091 57.5866 70.5 48.6441 70.5 39.375C70.5 38.57 69.8466 37.9166 69.0416 37.9166ZM58.9588 60.6784L42.9288 40.8334H67.5484C67.1896 48.2475 64.1213 55.3379 58.9588 60.6784Z" fill="#DBAA02"/>
</g>
<defs>
<clipPath id="clip0_4_1529">
<rect width="70" height="70" fill="white" transform="translate(0.5)"/>
</clipPath>
</defs>
</svg>
