<svg width="59" height="43" viewBox="0 0 59 43" fill="none" xmlns="http://www.w3.org/2000/svg">
<path d="M58.3846 19.6508L39.3185 0.584641C39.0206 0.301475 38.6469 0.110804 38.2428 0.0357362C37.8387 -0.0393313 37.4215 0.00442815 37.0417 0.16171C36.662 0.318992 36.336 0.583044 36.1033 0.921864C35.8706 1.26068 35.7412 1.65972 35.7307 2.07062V10.6277H2.10181C1.54437 10.6277 1.00977 10.8491 0.615605 11.2433C0.22144 11.6375 0 12.1721 0 12.7295V29.544C0 30.1014 0.22144 30.636 0.615605 31.0302C1.00977 31.4243 1.54437 31.6458 2.10181 31.6458H35.7307V40.2029C35.9841 41.5728 36.6847 42.2734 37.8325 42.3047C38.1085 42.3047 38.3818 42.2504 38.6368 42.1447C38.8918 42.039 39.1234 41.8841 39.3185 41.6888L58.3846 22.6227C58.7786 22.2286 59 21.6941 59 21.1367C59 20.5794 58.7786 20.0449 58.3846 19.6508Z" fill="#005DAA"/>
</svg>
