<svg width="35" height="36" viewBox="0 0 35 36" fill="none" xmlns="http://www.w3.org/2000/svg">
<mask id="mask0_4_1776" style="mask-type:luminance" maskUnits="userSpaceOnUse" x="0" y="0" width="35" height="36">
<path d="M34.5 1V35H0.5V1H34.5Z" fill="white" stroke="white"/>
</mask>
<g mask="url(#mask0_4_1776)">
<path d="M6.0957 28.7421C6.67389 29.4038 7.30457 30.0179 7.98119 30.578" stroke="#333333" stroke-miterlimit="10" stroke-linecap="round" stroke-linejoin="round"/>
<path d="M2.48718 21.682C2.89536 23.4568 3.59221 25.1206 4.52525 26.6208" stroke="#333333" stroke-miterlimit="10" stroke-linecap="round" stroke-linejoin="round"/>
<path d="M7.87971 5.50714C4.32926 8.49486 2.07135 12.9825 2.07135 18.0002C2.07135 18.1907 2.07463 18.3806 2.08106 18.5695" stroke="#333333" stroke-miterlimit="10" stroke-linecap="round" stroke-linejoin="round"/>
<path d="M26.1333 3.74945C23.8067 2.45186 21.1289 1.71289 18.2793 1.71289C15.4395 1.71289 12.7702 2.4468 10.4492 3.73626" stroke="#333333" stroke-miterlimit="10" stroke-linecap="round" stroke-linejoin="round"/>
<path d="M32.0227 26.6379C33.5844 24.1341 34.4873 21.1731 34.4873 18.0001C34.4873 12.9898 32.236 8.50786 28.6945 5.52014" stroke="#333333" stroke-miterlimit="10" stroke-linecap="round" stroke-linejoin="round"/>
<path d="M28.4337 30.6956C29.0335 30.2106 29.5983 29.6834 30.1235 29.1187" stroke="#333333" stroke-miterlimit="10" stroke-linecap="round" stroke-linejoin="round"/>
<path d="M10.5505 32.3198C12.8478 33.5746 15.4808 34.2873 18.2794 34.2873C21.0062 34.2873 23.5757 33.6107 25.8308 32.4153" stroke="#333333" stroke-miterlimit="10" stroke-linecap="round" stroke-linejoin="round"/>
<path d="M19.6365 28.5939C21.4621 29.73 23.4731 30.6229 25.6342 31.2189" stroke="#333333" stroke-miterlimit="10" stroke-linecap="round" stroke-linejoin="round"/>
<path d="M12.9952 22.3134C14.163 23.9707 15.5484 25.475 17.1202 26.7793" stroke="#333333" stroke-miterlimit="10" stroke-linecap="round" stroke-linejoin="round"/>
<path d="M8.94173 6.18658C8.35828 10.9566 9.28072 15.6127 11.3644 19.6306" stroke="#333333" stroke-miterlimit="10" stroke-linecap="round" stroke-linejoin="round"/>
<path d="M16.9219 28.5939C15.0347 29.7684 12.9492 30.683 10.7046 31.2784" stroke="#333333" stroke-miterlimit="10" stroke-linecap="round" stroke-linejoin="round"/>
<path d="M25.7909 18.3913C24.349 21.628 22.1768 24.5073 19.4387 26.7793" stroke="#333333" stroke-miterlimit="10" stroke-linecap="round" stroke-linejoin="round"/>
<path d="M27.5411 12.3738C27.3872 13.4146 27.1618 14.4445 26.8674 15.4545" stroke="#333333" stroke-miterlimit="10" stroke-linecap="round" stroke-linejoin="round"/>
<path d="M27.6071 6.10876C27.7426 7.18864 27.8029 8.27774 27.786 9.36602" stroke="#333333" stroke-miterlimit="10" stroke-linecap="round" stroke-linejoin="round"/>
<path d="M10.6549 21.2985C8.32004 21.3104 5.94995 21.0598 3.5813 20.5253" stroke="#333333" stroke-miterlimit="10" stroke-linecap="round" stroke-linejoin="round"/>
<path d="M25.0293 17.709C21.5532 19.5313 17.7341 20.7076 13.7611 21.1268" stroke="#333333" stroke-miterlimit="10" stroke-linecap="round" stroke-linejoin="round"/>
<path d="M33.179 11.5794C31.5287 13.3026 29.6944 14.8263 27.7173 16.1261" stroke="#333333" stroke-miterlimit="10" stroke-linecap="round" stroke-linejoin="round"/>
<path d="M27.1678 18.3011C28.6967 20.7622 29.9022 23.4592 30.7186 26.338" stroke="#333333" stroke-miterlimit="10" stroke-linecap="round" stroke-linejoin="round"/>
<path d="M10.6549 5.10712C16.5145 7.12796 21.6422 10.8488 25.3954 15.7394" stroke="#333333" stroke-miterlimit="10" stroke-linecap="round" stroke-linejoin="round"/>
<path d="M18.2792 26.259C17.4197 26.259 16.7205 26.9616 16.7205 27.8253C16.7205 28.6889 17.4197 29.3915 18.2792 29.3915C19.1387 29.3915 19.8378 28.6889 19.8378 27.8253C19.8378 26.9616 19.1387 26.259 18.2792 26.259Z" stroke="#333333" stroke-miterlimit="10" stroke-linecap="round" stroke-linejoin="round"/>
<path d="M12.2136 19.3768C11.3541 19.3768 10.6549 20.0795 10.6549 20.9431C10.6549 21.8068 11.3541 22.5095 12.2136 22.5095C13.0731 22.5095 13.7722 21.8068 13.7722 20.9431C13.7722 20.0795 13.0731 19.3768 12.2136 19.3768Z" stroke="#333333" stroke-miterlimit="10" stroke-linecap="round" stroke-linejoin="round"/>
<path d="M26.3892 15.3787C25.5297 15.3787 24.8306 16.0814 24.8306 16.945C24.8306 17.8087 25.5297 18.5114 26.3892 18.5114C27.2487 18.5114 27.9479 17.8087 27.9479 16.945C27.9479 16.0814 27.2487 15.3787 26.3892 15.3787Z" stroke="#333333" stroke-miterlimit="10" stroke-linecap="round" stroke-linejoin="round"/>
<path d="M9.17567 3.07153C8.31618 3.07153 7.617 3.77413 7.617 4.63785C7.617 5.5015 8.31618 6.2041 9.17567 6.2041C10.0351 6.2041 10.7344 5.5015 10.7344 4.63785C10.7344 3.77413 10.0351 3.07153 9.17567 3.07153Z" stroke="#333333" stroke-miterlimit="10" stroke-linecap="round" stroke-linejoin="round"/>
<path d="M27.4729 2.9826C26.6134 2.9826 25.9142 3.68527 25.9142 4.54892C25.9142 5.41258 26.6134 6.11524 27.4729 6.11524C28.3324 6.11524 29.0316 5.41258 29.0316 4.54892C29.0316 3.68527 28.3324 2.9826 27.4729 2.9826Z" stroke="#333333" stroke-miterlimit="10" stroke-linecap="round" stroke-linejoin="round"/>
<path d="M31.1071 26.3381C30.2476 26.3381 29.5483 27.0407 29.5483 27.9044C29.5483 28.768 30.2476 29.4707 31.1071 29.4707C31.9666 29.4707 32.6657 28.768 32.6657 27.9044C32.6657 27.0407 31.9666 26.3381 31.1071 26.3381Z" stroke="#333333" stroke-miterlimit="10" stroke-linecap="round" stroke-linejoin="round"/>
<path d="M27.1501 30.0162C26.2906 30.0162 25.5914 30.7188 25.5914 31.5825C25.5914 32.4461 26.2906 33.1487 27.1501 33.1487C28.0096 33.1487 28.7088 32.4461 28.7088 31.5825C28.7088 30.7188 28.0096 30.0162 27.1501 30.0162Z" stroke="#333333" stroke-miterlimit="10" stroke-linecap="round" stroke-linejoin="round"/>
<path d="M9.17567 30.0162C8.31618 30.0162 7.617 30.7188 7.617 31.5825C7.617 32.4461 8.31618 33.1487 9.17567 33.1487C10.0351 33.1487 10.7344 32.4461 10.7344 31.5825C10.7344 30.7188 10.0351 30.0162 9.17567 30.0162Z" stroke="#333333" stroke-miterlimit="10" stroke-linecap="round" stroke-linejoin="round"/>
<path d="M2.07136 18.5698C1.21188 18.5698 0.512695 19.2724 0.512695 20.1361C0.512695 20.9997 1.21188 21.7023 2.07136 21.7023C2.93084 21.7023 3.63002 20.9997 3.63002 20.1361C3.63002 19.2724 2.93084 18.5698 2.07136 18.5698Z" stroke="#333333" stroke-miterlimit="10" stroke-linecap="round" stroke-linejoin="round"/>
</g>
</svg>
