<svg width="35" height="35" viewBox="0 0 35 35" fill="none" xmlns="http://www.w3.org/2000/svg">
<mask id="mask0_55_88" style="mask-type:luminance" maskUnits="userSpaceOnUse" x="0" y="0" width="35" height="35">
<path d="M34.5 0.5V34.5H0.5V0.5H34.5Z" fill="white" stroke="white"/>
</mask>
<g mask="url(#mask0_55_88)">
<path d="M6.0957 28.242C6.67389 28.9037 7.30457 29.5179 7.98119 30.0779" stroke="#005DAA" stroke-miterlimit="10" stroke-linecap="round" stroke-linejoin="round"/>
<path d="M2.48718 21.182C2.89536 22.9568 3.59221 24.6206 4.52525 26.1208" stroke="#005DAA" stroke-miterlimit="10" stroke-linecap="round" stroke-linejoin="round"/>
<path d="M7.87971 5.0071C4.32926 7.99482 2.07135 12.4825 2.07135 17.5001C2.07135 17.6907 2.07463 17.8805 2.08106 18.0695" stroke="#005DAA" stroke-miterlimit="10" stroke-linecap="round" stroke-linejoin="round"/>
<path d="M26.1333 3.2494C23.8067 1.9518 21.1289 1.21284 18.2793 1.21284C15.4395 1.21284 12.7702 1.94674 10.4492 3.23621" stroke="#005DAA" stroke-miterlimit="10" stroke-linecap="round" stroke-linejoin="round"/>
<path d="M32.0227 26.1379C33.5844 23.6341 34.4873 20.673 34.4873 17.5001C34.4873 12.4897 32.236 8.00783 28.6945 5.02011" stroke="#005DAA" stroke-miterlimit="10" stroke-linecap="round" stroke-linejoin="round"/>
<path d="M28.4337 30.1956C29.0335 29.7105 29.5983 29.1833 30.1235 28.6186" stroke="#005DAA" stroke-miterlimit="10" stroke-linecap="round" stroke-linejoin="round"/>
<path d="M10.5505 31.8198C12.8478 33.0745 15.4808 33.7873 18.2794 33.7873C21.0062 33.7873 23.5757 33.1106 25.8308 31.9153" stroke="#005DAA" stroke-miterlimit="10" stroke-linecap="round" stroke-linejoin="round"/>
<path d="M19.6365 28.0939C21.4621 29.23 23.4731 30.1229 25.6342 30.7189" stroke="#005DAA" stroke-miterlimit="10" stroke-linecap="round" stroke-linejoin="round"/>
<path d="M12.9952 21.8134C14.163 23.4706 15.5484 24.975 17.1202 26.2792" stroke="#005DAA" stroke-miterlimit="10" stroke-linecap="round" stroke-linejoin="round"/>
<path d="M8.94173 5.68657C8.35828 10.4566 9.28072 15.1126 11.3644 19.1306" stroke="#005DAA" stroke-miterlimit="10" stroke-linecap="round" stroke-linejoin="round"/>
<path d="M16.9219 28.0939C15.0347 29.2684 12.9492 30.183 10.7046 30.7784" stroke="#005DAA" stroke-miterlimit="10" stroke-linecap="round" stroke-linejoin="round"/>
<path d="M25.7909 17.8913C24.349 21.128 22.1768 24.0073 19.4387 26.2793" stroke="#005DAA" stroke-miterlimit="10" stroke-linecap="round" stroke-linejoin="round"/>
<path d="M27.5411 11.8737C27.3872 12.9145 27.1618 13.9445 26.8674 14.9545" stroke="#005DAA" stroke-miterlimit="10" stroke-linecap="round" stroke-linejoin="round"/>
<path d="M27.6071 5.60873C27.7426 6.68861 27.8029 7.77771 27.786 8.86599" stroke="#005DAA" stroke-miterlimit="10" stroke-linecap="round" stroke-linejoin="round"/>
<path d="M10.6549 20.7984C8.32004 20.8103 5.94995 20.5598 3.5813 20.0253" stroke="#005DAA" stroke-miterlimit="10" stroke-linecap="round" stroke-linejoin="round"/>
<path d="M25.0293 17.2089C21.5532 19.0313 17.7341 20.2076 13.7611 20.6268" stroke="#005DAA" stroke-miterlimit="10" stroke-linecap="round" stroke-linejoin="round"/>
<path d="M33.179 11.0794C31.5287 12.8026 29.6944 14.3262 27.7173 15.626" stroke="#005DAA" stroke-miterlimit="10" stroke-linecap="round" stroke-linejoin="round"/>
<path d="M27.1678 17.8011C28.6967 20.2622 29.9022 22.9592 30.7186 25.8379" stroke="#005DAA" stroke-miterlimit="10" stroke-linecap="round" stroke-linejoin="round"/>
<path d="M10.6549 4.60708C16.5145 6.62792 21.6422 10.3487 25.3954 15.2394" stroke="#005DAA" stroke-miterlimit="10" stroke-linecap="round" stroke-linejoin="round"/>
<path d="M18.2792 25.7589C17.4197 25.7589 16.7205 26.4615 16.7205 27.3252C16.7205 28.1889 17.4197 28.8915 18.2792 28.8915C19.1387 28.8915 19.8378 28.1889 19.8378 27.3252C19.8378 26.4615 19.1387 25.7589 18.2792 25.7589Z" stroke="#005DAA" stroke-miterlimit="10" stroke-linecap="round" stroke-linejoin="round"/>
<path d="M12.2136 18.8768C11.3541 18.8768 10.6549 19.5795 10.6549 20.4431C10.6549 21.3068 11.3541 22.0094 12.2136 22.0094C13.0731 22.0094 13.7722 21.3068 13.7722 20.4431C13.7722 19.5795 13.0731 18.8768 12.2136 18.8768Z" stroke="#005DAA" stroke-miterlimit="10" stroke-linecap="round" stroke-linejoin="round"/>
<path d="M26.3892 14.8787C25.5297 14.8787 24.8306 15.5814 24.8306 16.445C24.8306 17.3087 25.5297 18.0114 26.3892 18.0114C27.2487 18.0114 27.9479 17.3087 27.9479 16.445C27.9479 15.5814 27.2487 14.8787 26.3892 14.8787Z" stroke="#005DAA" stroke-miterlimit="10" stroke-linecap="round" stroke-linejoin="round"/>
<path d="M9.17567 2.57146C8.31618 2.57146 7.617 3.27406 7.617 4.13778C7.617 5.00144 8.31618 5.70403 9.17567 5.70403C10.0351 5.70403 10.7344 5.00144 10.7344 4.13778C10.7344 3.27406 10.0351 2.57146 9.17567 2.57146Z" stroke="#005DAA" stroke-miterlimit="10" stroke-linecap="round" stroke-linejoin="round"/>
<path d="M27.4729 2.48255C26.6134 2.48255 25.9142 3.18522 25.9142 4.04887C25.9142 4.91252 26.6134 5.61519 27.4729 5.61519C28.3324 5.61519 29.0316 4.91252 29.0316 4.04887C29.0316 3.18522 28.3324 2.48255 27.4729 2.48255Z" stroke="#005DAA" stroke-miterlimit="10" stroke-linecap="round" stroke-linejoin="round"/>
<path d="M31.1071 25.838C30.2476 25.838 29.5483 26.5407 29.5483 27.4044C29.5483 28.268 30.2476 28.9707 31.1071 28.9707C31.9666 28.9707 32.6657 28.268 32.6657 27.4044C32.6657 26.5407 31.9666 25.838 31.1071 25.838Z" stroke="#005DAA" stroke-miterlimit="10" stroke-linecap="round" stroke-linejoin="round"/>
<path d="M27.1501 29.5162C26.2906 29.5162 25.5914 30.2188 25.5914 31.0825C25.5914 31.9461 26.2906 32.6487 27.1501 32.6487C28.0096 32.6487 28.7088 31.9461 28.7088 31.0825C28.7088 30.2188 28.0096 29.5162 27.1501 29.5162Z" stroke="#005DAA" stroke-miterlimit="10" stroke-linecap="round" stroke-linejoin="round"/>
<path d="M9.17567 29.5162C8.31618 29.5162 7.617 30.2188 7.617 31.0825C7.617 31.9461 8.31618 32.6487 9.17567 32.6487C10.0351 32.6487 10.7344 31.9461 10.7344 31.0825C10.7344 30.2188 10.0351 29.5162 9.17567 29.5162Z" stroke="#005DAA" stroke-miterlimit="10" stroke-linecap="round" stroke-linejoin="round"/>
<path d="M2.07136 18.0698C1.21188 18.0698 0.512695 18.7724 0.512695 19.6361C0.512695 20.4997 1.21188 21.2023 2.07136 21.2023C2.93084 21.2023 3.63002 20.4997 3.63002 19.6361C3.63002 18.7724 2.93084 18.0698 2.07136 18.0698Z" stroke="#005DAA" stroke-miterlimit="10" stroke-linecap="round" stroke-linejoin="round"/>
</g>
</svg>
