<svg width="4106" height="1153" viewBox="0 0 4106 1153" fill="none" xmlns="http://www.w3.org/2000/svg">
<path d="M959.064 484.367C1010.73 517.428 1040.67 556.716 1040.67 598.865L1040.66 600.242C1038.85 717.171 806.588 811.73 520.337 811.73L516.972 811.726C232.267 810.988 1.81433 716.712 0.0107422 600.242L0 598.865C0 557.267 29.1681 518.456 79.5938 485.667L75.5 502.5L73.5303 527.111C69.3059 530.573 65.3764 534.062 61.7471 537.572C39.1561 559.422 30 580.129 30 598.865C30 617.602 39.1561 638.308 61.7471 660.158C84.4264 682.094 118.815 703.23 163.762 721.617C253.508 758.331 379.561 781.73 520.337 781.73C661.113 781.73 787.166 758.331 876.912 721.617C921.858 703.23 956.247 682.094 978.927 660.158C1001.52 638.308 1010.67 617.602 1010.67 598.865C1010.67 580.129 1001.52 559.422 978.927 537.572C974.65 533.435 969.956 529.328 964.854 525.261L962 501L959.064 484.367ZM133.5 473.5L129.022 491.905C116.416 498.285 104.944 504.895 94.6445 511.67L98 492.5L103.37 471.505C114.605 465.359 126.632 459.47 139.391 453.863L133.5 473.5ZM899.472 453.072C912.152 458.589 924.121 464.382 935.318 470.428L939.75 490.25L943.846 510.246C933.59 503.629 922.21 497.176 909.742 490.946L905 471.5L899.472 453.072ZM520.337 386C656.653 386 780.726 407.444 873.499 442.536L885.596 479.757C882.746 478.531 879.852 477.316 876.912 476.113C787.166 439.399 661.113 416 520.337 416C379.561 416 253.508 439.399 163.762 476.113C160.348 477.51 156.996 478.922 153.705 480.35L165.438 443.196C258.396 407.713 383.168 386 520.337 386Z" fill="white"/>
<path d="M579.452 796.556L456.952 845.567L462.23 735.998L579.452 796.556Z" fill="white"/>
<path d="M530.417 168.731C461.827 219.976 327.012 378.285 336.473 601.557C345.934 824.829 455.519 951.602 509.128 987.079" stroke="white" stroke-width="30"/>
<path d="M530.417 168.731C461.827 219.976 327.012 378.285 336.473 601.557C345.934 824.829 455.519 951.602 509.128 987.079" stroke="white" stroke-width="30"/>
<path d="M509.127 982.348C577.717 931.103 712.532 772.794 703.071 549.522C693.61 326.25 584.025 199.477 530.416 164" stroke="white" stroke-width="30"/>
<path d="M509.127 982.348C577.717 931.103 712.532 772.794 703.071 549.522C693.61 326.25 584.025 199.477 530.416 164" stroke="white" stroke-width="30"/>
<path d="M705.173 507.025L748.767 607.543L657.692 605.767L705.173 507.025Z" fill="white"/>
<path d="M332.925 623.443L292.28 520.793L383.948 525.537L332.925 623.443Z" fill="white"/>
<path d="M284.017 926.241L176.759 883.741L241.517 818.983L284.017 926.241Z" fill="white"/>
<path d="M778.481 248.491L878.673 291.252L811.71 352.234L778.481 248.491Z" fill="white"/>
<path d="M462.044 403.084L570.077 358.386L566.537 455.526L462.044 403.084Z" fill="white"/>
<path d="M1040.66 600.242C1038.85 717.171 806.588 811.73 520.337 811.73L516.972 811.726C232.267 810.988 1.81433 716.712 0.0107422 600.242L0.000976562 599H30.001C30.0448 617.701 39.2102 638.361 61.7471 660.158C84.4264 682.094 118.815 703.23 163.762 721.617C253.508 758.331 379.561 781.73 520.337 781.73C661.113 781.73 787.166 758.331 876.912 721.617C921.858 703.23 956.247 682.094 978.927 660.158C1001.46 638.361 1010.63 617.701 1010.67 599H1040.67L1040.66 600.242Z" fill="white"/>
<path d="M172.141 773.974C240.886 894.638 370.691 976 519.5 976C665.802 976 793.735 897.356 863.333 780.038L905.293 765.485C835.379 907.937 688.892 1006 519.5 1006C349.107 1006 201.889 906.776 132.475 762.956L172.141 773.974ZM519.5 147C756.706 147 949 339.294 949 576.5C949 606.255 945.973 635.302 940.213 663.353L906.378 676.511C914.617 644.548 919 611.036 919 576.5C919 355.862 740.138 177 519.5 177C298.862 177 120 355.862 120 576.5C120 610.313 124.202 643.145 132.11 674.503L96.9102 653.644C92.3714 628.617 90 602.835 90 576.5C90 339.294 282.294 147 519.5 147Z" fill="white"/>
<path d="M1246.82 143.969H1538.47C1598.27 143.969 1649.66 152.921 1692.62 170.824C1735.95 188.728 1769.25 215.225 1792.53 250.316C1815.8 285.408 1827.44 328.555 1827.44 379.76C1827.44 421.654 1820.28 457.641 1805.96 487.719C1791.99 517.439 1772.12 542.325 1746.34 562.377C1720.91 582.071 1691.01 597.826 1656.64 609.643L1605.61 636.498H1352.1L1351.02 510.814H1539.55C1567.84 510.814 1591.29 505.801 1609.91 495.775C1628.53 485.749 1642.49 471.785 1651.8 453.881C1661.47 435.977 1666.31 415.209 1666.31 391.576C1666.31 366.511 1661.65 344.848 1652.34 326.586C1643.03 308.324 1628.89 294.359 1609.91 284.691C1590.93 275.023 1567.12 270.189 1538.47 270.189H1407.96V926H1246.82V143.969ZM1684.03 926L1505.71 577.416L1675.97 576.342L1856.44 918.48V926H1684.03ZM2122.85 143.969V926H1962.25V143.969H2122.85Z" fill="white"/>
<path d="M2555.76 762.719L2739.99 143.969H2919.38L2647.07 926H2528.9L2555.76 762.719ZM2386.03 143.969L2569.72 762.719L2597.65 926H2478.42L2207.71 143.969H2386.03ZM3269.58 277.709L3056.88 926H2885.54L3176.12 143.969H3285.15L3269.58 277.709ZM3446.29 926L3233.05 277.709L3215.87 143.969H3325.97L3618.16 926H3446.29ZM3436.62 634.887V761.107H3023.58V634.887H3436.62Z" fill="#E0D04E"/>
</svg>
