<svg width="28" height="28" viewBox="0 0 28 28" fill="none" xmlns="http://www.w3.org/2000/svg">
<circle cx="14" cy="14" r="14" fill="#E377C2"/>
<path d="M8.43466 21V6.45455H13.8892C15.0066 6.45455 15.9441 6.64867 16.7017 7.03693C17.464 7.42519 18.0393 7.9697 18.4276 8.67045C18.8205 9.36648 19.017 10.1785 19.017 11.1065C19.017 12.0393 18.8182 12.849 18.4205 13.5355C18.0275 14.2173 17.4474 14.7453 16.6804 15.1193C15.9134 15.4886 14.9711 15.6733 13.8537 15.6733H9.96875V13.4858H13.4986C14.152 13.4858 14.687 13.3958 15.1037 13.2159C15.5204 13.0312 15.8281 12.7637 16.027 12.4134C16.2306 12.0582 16.3324 11.6226 16.3324 11.1065C16.3324 10.5904 16.2306 10.1501 16.027 9.78551C15.8234 9.41619 15.5133 9.13684 15.0966 8.94744C14.6799 8.75331 14.1425 8.65625 13.4844 8.65625H11.0696V21H8.43466ZM15.9489 14.4091L19.5497 21H16.6094L13.0724 14.4091H15.9489Z" fill="white"/>
</svg>
