<svg width="30" height="30" viewBox="0 0 30 30" fill="none" xmlns="http://www.w3.org/2000/svg">
<g clip-path="url(#clip0_11_36)">
<path d="M13.75 15.4113V1.87502C13.75 1.53002 13.47 1.25 13.125 1.25C5.8875 1.25 0 7.69877 0 15.625C0 23.5512 6.44877 30 14.375 30C17.9212 30 19.84 29.3575 22.2725 27.3575C22.5338 27.1425 22.5762 26.7587 22.3688 26.4912L13.75 15.4113ZM14.375 28.75C7.13748 28.75 1.24998 22.8625 1.24998 15.625C1.24998 8.62004 6.24123 2.87879 12.5 2.51756V15.625C12.5 15.7638 12.5462 15.8988 12.6325 16.0088L21.0025 26.77C19.0287 28.2775 17.3825 28.75 14.375 28.75Z" fill="white"/>
<path d="M15.625 15H29.375C29.72 15 30.0001 14.72 30.0001 14.375C30 6.44877 23.5512 0 15.625 0C15.28 0 15 0.28002 15 0.62502V14.375C15 14.72 15.28 15 15.625 15ZM16.25 1.26498C22.9913 1.5825 28.4175 7.00875 28.735 13.75H16.25V1.26498Z" fill="white"/>
<path d="M29.375 16.25H16.875C16.635 16.25 16.4137 16.3887 16.31 16.6062C16.2062 16.8237 16.2375 17.0813 16.3887 17.2675L24.5137 27.3262C24.6225 27.4624 24.7825 27.5449 24.9562 27.5575C24.9712 27.5587 24.985 27.5587 25 27.5587C25.1575 27.5587 25.31 27.4987 25.4263 27.3912C28.3324 24.68 30 20.8475 30 16.875C30 16.53 29.72 16.25 29.375 16.25ZM25.0537 26.005L18.1837 17.5H28.735C28.5812 20.6775 27.2662 23.7162 25.0537 26.005Z" fill="white"/>
</g>
<defs>
<clipPath id="clip0_11_36">
<rect width="30" height="30" fill="white"/>
</clipPath>
</defs>
</svg>
