<svg width="14" height="14" viewBox="0 0 14 14" fill="none" xmlns="http://www.w3.org/2000/svg">
<path d="M10.7431 9.07812C9.92656 9.07812 9.20705 9.47682 8.75512 10.0831L4.84787 8.09714C4.91274 7.87765 4.95833 7.65018 4.95833 7.41016C4.95833 7.0846 4.89109 6.7751 4.77493 6.49042L8.86404 4.04786C9.3191 4.578 9.98798 4.92188 10.7431 4.92188C12.1102 4.92188 13.2222 3.81798 13.2222 2.46094C13.2222 1.10389 12.1102 0 10.7431 0C9.37596 0 8.26389 1.10389 8.26389 2.46094C8.26389 2.77367 8.32876 3.07032 8.43638 3.34573L4.3351 5.79545C3.88042 5.28106 3.22118 4.94922 2.47917 4.94922C1.11207 4.94922 0 6.05311 0 7.41016C0 8.7672 1.11207 9.87109 2.47917 9.87109C3.30914 9.87109 4.04079 9.46069 4.49101 8.83734L8.3854 10.8169C8.31367 11.0467 8.26389 11.2861 8.26389 11.5391C8.26389 12.8961 9.37596 14 10.7431 14C12.1102 14 13.2222 12.8961 13.2222 11.5391C13.2222 10.182 12.1102 9.07812 10.7431 9.07812Z" fill="#F7F7F7"/>
</svg>
