<svg width="21" height="23" viewBox="0 0 21 23" fill="none" xmlns="http://www.w3.org/2000/svg">
<path d="M17.0625 14.4683C15.7657 14.4683 14.623 15.1037 13.9052 16.07L7.69956 12.9048C7.80259 12.555 7.875 12.1925 7.875 11.8099C7.875 11.2911 7.76821 10.7978 7.58371 10.3441L14.0782 6.45128C14.8009 7.29619 15.8633 7.84424 17.0625 7.84424C19.2338 7.84424 21 6.08491 21 3.92212C21 1.75933 19.2338 0 17.0625 0C14.8912 0 13.125 1.75933 13.125 3.92212C13.125 4.42053 13.228 4.89332 13.399 5.33225L6.88516 9.2365C6.16302 8.41669 5.11599 7.88782 3.9375 7.88782C1.76623 7.88782 0 9.64715 0 11.8099C0 13.9727 1.76623 15.7321 3.9375 15.7321C5.25569 15.7321 6.41773 15.078 7.13278 14.0845L13.318 17.2394C13.2041 17.6057 13.125 17.9873 13.125 18.3904C13.125 20.5532 14.8912 22.3125 17.0625 22.3125C19.2338 22.3125 21 20.5532 21 18.3904C21 16.2276 19.2338 14.4683 17.0625 14.4683Z" fill="#333333"/>
</svg>
