<svg width="17" height="15" viewBox="0 0 17 15" fill="none" xmlns="http://www.w3.org/2000/svg">
<path fill-rule="evenodd" clip-rule="evenodd" d="M11.6111 10.7537C11.6111 10.8293 11.5508 10.8907 11.4766 10.8907H9.88072V4.13049C9.88072 4.05531 9.94087 3.99361 10.0149 3.99361H11.4766C11.5508 3.99361 11.6111 4.05531 11.6111 4.13049V10.7537ZM7.6349 10.8907V6.40514C7.6349 6.32954 7.69485 6.26805 7.76905 6.26805H9.36551V10.8907H7.6349ZM5.38912 10.7537V8.70647C5.38912 8.63087 5.44927 8.56938 5.52348 8.56938H7.11973V10.8907H5.52352C5.44931 10.8907 5.38912 10.8293 5.38912 10.7537ZM11.4766 3.46904H10.0149C9.65662 3.46904 9.36559 3.76556 9.36559 4.13049V5.74302H7.76914C7.41109 5.74302 7.11986 6.04017 7.11986 6.40514V8.0446H5.52352C5.16527 8.0446 4.874 8.34154 4.874 8.70647V10.7537C4.874 11.1186 5.16527 11.4156 5.52352 11.4156H11.4766C11.8348 11.4156 12.1265 11.1186 12.1265 10.7537V4.13049C12.1265 3.76556 11.8348 3.46904 11.4766 3.46904ZM14.1461 13.2521C13.8023 13.6024 13.2429 13.6024 12.899 13.2521C12.5554 12.9019 12.5554 12.3318 12.899 11.9819C13.243 11.6312 13.8023 11.6312 14.1461 11.9819C14.4898 12.3318 14.4898 12.9019 14.1461 13.2521ZM4.70118 13.3023C7.0036 14.871 9.99665 14.871 12.2989 13.3023C12.0076 12.7617 12.0859 12.0678 12.5347 11.6106C12.9839 11.1532 13.6646 11.0731 14.1953 11.3699C14.6908 10.6126 15.0393 9.7565 15.2135 8.86654C14.6324 8.69427 14.2062 8.14718 14.2062 7.50021C14.2062 6.85282 14.6324 6.30573 15.2135 6.13346C15.0393 5.2435 14.6907 4.38722 14.1953 3.63014C13.6576 3.93113 12.9788 3.842 12.5347 3.38944C12.0859 2.93222 12.0072 2.23834 12.2989 1.69773C9.99665 0.129042 7.0036 0.129042 4.70118 1.69773C4.99287 2.23834 4.91429 2.93222 4.46532 3.38944C4.02105 3.84191 3.34235 3.93108 2.80475 3.63014C2.30924 4.38722 1.96071 5.2435 1.78647 6.13346C2.36796 6.30573 2.7938 6.85282 2.7938 7.50021C2.7938 8.14713 2.36796 8.69427 1.78647 8.86654C1.96075 9.7565 2.30928 10.6126 2.80475 11.3699C3.3354 11.0731 4.01652 11.1532 4.46532 11.6106C4.91429 12.0677 4.99287 12.7617 4.70118 13.3023ZM2.85395 13.2521C2.51016 12.9019 2.51016 12.3318 2.85395 11.9819C3.19773 11.6314 3.75707 11.6312 4.10086 11.9819C4.44464 12.3319 4.44464 12.9019 4.10086 13.2521C3.75711 13.6024 3.19773 13.6024 2.85395 13.2521ZM0.515166 7.50021C0.515166 7.00469 0.910807 6.60159 1.397 6.60159C1.88299 6.60159 2.27863 7.00465 2.27863 7.50021C2.27863 7.99531 1.88299 8.39837 1.397 8.39837C0.910807 8.39841 0.515166 7.99531 0.515166 7.50021ZM2.85395 1.74785C3.19798 1.39733 3.75683 1.39758 4.10086 1.74785C4.44464 2.09809 4.44464 2.66791 4.10086 3.01835C3.75707 3.36879 3.19773 3.36879 2.85395 3.01835C2.51021 2.66796 2.51021 2.09809 2.85395 1.74785ZM13.5228 1.48505C13.7484 1.48505 13.9743 1.57284 14.1461 1.74785C14.4899 2.09809 14.4899 2.66791 14.1461 3.01835C13.8023 3.36858 13.2429 3.36858 12.899 3.01835C12.5554 2.66791 12.5554 2.09804 12.899 1.74785C13.0711 1.57284 13.2967 1.48505 13.5228 1.48505ZM16.4849 7.50021C16.4849 7.99531 16.0892 8.39837 15.603 8.39837C15.1171 8.39837 14.7214 7.99531 14.7214 7.50021C14.7214 7.00469 15.1171 6.60159 15.603 6.60159C16.0892 6.60159 16.4849 7.00469 16.4849 7.50021ZM17 7.50021C17 6.75849 16.4406 6.1482 15.7293 6.08292C15.542 5.08976 15.1534 4.13411 14.5949 3.29469C15.0531 2.73639 15.0252 1.90118 14.5105 1.37702C13.9958 0.85265 13.176 0.8238 12.6277 1.29089C10.1393 -0.430295 6.86066 -0.430295 4.37227 1.29089C3.82405 0.8238 3.00424 0.85265 2.48949 1.37702C1.97477 1.90118 1.94686 2.73639 2.40494 3.29469C1.84658 4.13411 1.45777 5.08976 1.27069 6.08292C0.559381 6.1482 0 6.75853 0 7.50021C0 8.24151 0.559381 8.8518 1.27069 8.91708C1.45777 9.91003 1.84662 10.8659 2.40494 11.7054C1.94686 12.2639 1.97477 13.0988 2.48949 13.623C3.00241 14.1456 3.82217 14.1784 4.37227 13.7091C6.86062 15.4303 10.1394 15.4303 12.6277 13.7091C13.1788 14.1784 13.9974 14.1456 14.5105 13.623C15.0252 13.0988 15.0531 12.2638 14.5949 11.7054C15.1534 10.8659 15.542 9.91003 15.7293 8.91708C16.4406 8.8518 17 8.24151 17 7.50021Z" fill="#666666"/>
</svg>
