<svg width="16" height="17" viewBox="0 0 16 17" fill="none" xmlns="http://www.w3.org/2000/svg">
<path d="M6.16663 5.38312H1.16663C0.523313 5.38312 0 4.85492 0 4.20548V1.17751C0 0.528193 0.523313 0 1.16663 0H6.16663C6.81006 0 7.33337 0.528193 7.33337 1.17751V4.20548C7.33337 4.85492 6.81006 5.38312 6.16663 5.38312ZM1.16663 1.00933C1.12244 1.00936 1.08008 1.02709 1.04884 1.05862C1.0176 1.09015 1.00003 1.13291 1 1.17751V4.20548C1.00001 4.2501 1.01756 4.29288 1.0488 4.32444C1.08005 4.356 1.12242 4.37375 1.16663 4.37379H6.16663C6.21084 4.37377 6.25325 4.35604 6.28452 4.32448C6.31578 4.29292 6.33336 4.25012 6.33337 4.20548V1.17751C6.33333 1.13289 6.31575 1.09012 6.28448 1.05859C6.25322 1.02705 6.21083 1.00933 6.16663 1.00933H1.16663ZM6.16663 16.1492H1.16663C0.523313 16.1492 0 15.621 0 14.9717V7.90643C0 7.25699 0.523313 6.7288 1.16663 6.7288H6.16663C6.81006 6.7288 7.33337 7.25699 7.33337 7.90643V14.9717C7.33337 15.621 6.81006 16.1492 6.16663 16.1492ZM1.16663 7.73813C1.12242 7.73817 1.08005 7.75592 1.0488 7.78748C1.01756 7.81903 1.00001 7.86182 1 7.90643V14.9717C1.00003 15.0163 1.0176 15.0591 1.04884 15.0906C1.08008 15.1221 1.12244 15.1399 1.16663 15.1399H6.16663C6.21083 15.1399 6.25322 15.1222 6.28448 15.0906C6.31575 15.0591 6.33333 15.0163 6.33337 14.9717V7.90643C6.33336 7.8618 6.31578 7.819 6.28452 7.78744C6.25325 7.75588 6.21084 7.73814 6.16663 7.73813H1.16663ZM14.8334 16.1492H9.83337C9.18994 16.1492 8.66663 15.621 8.66663 14.9717V11.9437C8.66663 11.2943 9.18994 10.7661 9.83337 10.7661H14.8334C15.4767 10.7661 16 11.2943 16 11.9437V14.9717C16 15.621 15.4767 16.1492 14.8334 16.1492ZM9.83337 11.7754C9.78916 11.7754 9.74675 11.7932 9.71548 11.8247C9.68422 11.8563 9.66664 11.8991 9.66663 11.9437V14.9717C9.66667 15.0163 9.68425 15.0591 9.71552 15.0906C9.74678 15.1222 9.78917 15.1399 9.83337 15.1399H14.8334C14.8776 15.1399 14.9199 15.1221 14.9512 15.0906C14.9824 15.0591 15 15.0163 15 14.9717V11.9437C15 11.8991 14.9824 11.8563 14.9512 11.8248C14.92 11.7932 14.8776 11.7755 14.8334 11.7754H9.83337ZM14.8334 9.42042H9.83337C9.18994 9.42042 8.66663 8.89223 8.66663 8.24279V1.17751C8.66663 0.528193 9.18994 0 9.83337 0H14.8334C15.4767 0 16 0.528193 16 1.17751V8.24279C16 8.89223 15.4767 9.42042 14.8334 9.42042ZM9.83337 1.00933C9.78917 1.00933 9.74678 1.02705 9.71552 1.05859C9.68425 1.09012 9.66667 1.13289 9.66663 1.17751V8.24279C9.66664 8.28742 9.68422 8.33022 9.71548 8.36178C9.74675 8.39334 9.78916 8.41108 9.83337 8.41109H14.8334C14.8776 8.41105 14.92 8.3933 14.9512 8.36175C14.9824 8.33019 15 8.2874 15 8.24279V1.17751C15 1.13291 14.9824 1.09015 14.9512 1.05862C14.9199 1.02709 14.8776 1.00936 14.8334 1.00933H9.83337Z" fill="#757575"/>
</svg>
