<svg width="25" height="25" viewBox="0 0 25 25" fill="none" xmlns="http://www.w3.org/2000/svg">
<path d="M9.63535 8.3334H1.82285C0.817676 8.3334 0 7.51572 0 6.51035V1.82285C0 0.817676 0.817676 0 1.82285 0H9.63535C10.6407 0 11.4584 0.817676 11.4584 1.82285V6.51035C11.4584 7.51572 10.6407 8.3334 9.63535 8.3334ZM1.82285 1.5625C1.75382 1.56255 1.68763 1.59 1.63881 1.63881C1.59 1.68763 1.56255 1.75382 1.5625 1.82285V6.51035C1.56251 6.57942 1.58994 6.64565 1.63876 6.6945C1.68757 6.74336 1.75379 6.77083 1.82285 6.7709H9.63535C9.70444 6.77087 9.7707 6.74341 9.81956 6.69456C9.86841 6.6457 9.89587 6.57944 9.8959 6.51035V1.82285C9.89583 1.75379 9.86836 1.68757 9.8195 1.63876C9.77065 1.58994 9.70442 1.56251 9.63535 1.5625H1.82285ZM9.63535 25H1.82285C0.817676 25 0 24.1823 0 23.1771V12.2396C0 11.2343 0.817676 10.4166 1.82285 10.4166H9.63535C10.6407 10.4166 11.4584 11.2343 11.4584 12.2396V23.1771C11.4584 24.1823 10.6407 25 9.63535 25ZM1.82285 11.9791C1.75379 11.9792 1.68757 12.0066 1.63876 12.0555C1.58994 12.1044 1.56251 12.1706 1.5625 12.2396V23.1771C1.56255 23.2462 1.59 23.3124 1.63881 23.3612C1.68763 23.41 1.75382 23.4374 1.82285 23.4375H9.63535C9.70442 23.4375 9.77065 23.4101 9.8195 23.3612C9.86836 23.3124 9.89583 23.2462 9.8959 23.1771V12.2396C9.89587 12.1706 9.86841 12.1043 9.81956 12.0554C9.7707 12.0066 9.70444 11.9791 9.63535 11.9791H1.82285ZM23.1771 25H15.3646C14.3593 25 13.5416 24.1823 13.5416 23.1771V18.4896C13.5416 17.4843 14.3593 16.6666 15.3646 16.6666H23.1771C24.1823 16.6666 25 17.4843 25 18.4896V23.1771C25 24.1823 24.1823 25 23.1771 25ZM15.3646 18.2291C15.2956 18.2291 15.2293 18.2566 15.1804 18.3054C15.1316 18.3543 15.1041 18.4206 15.1041 18.4896V23.1771C15.1042 23.2462 15.1316 23.3124 15.1805 23.3612C15.2294 23.4101 15.2956 23.4375 15.3646 23.4375H23.1771C23.2462 23.4374 23.3124 23.41 23.3612 23.3612C23.41 23.3124 23.4374 23.2462 23.4375 23.1771V18.4896C23.4375 18.4206 23.4101 18.3544 23.3612 18.3055C23.3124 18.2566 23.2462 18.2292 23.1771 18.2291H15.3646ZM23.1771 14.5834H15.3646C14.3593 14.5834 13.5416 13.7657 13.5416 12.7604V1.82285C13.5416 0.817676 14.3593 0 15.3646 0H23.1771C24.1823 0 25 0.817676 25 1.82285V12.7604C25 13.7657 24.1823 14.5834 23.1771 14.5834ZM15.3646 1.5625C15.2956 1.56251 15.2294 1.58994 15.1805 1.63876C15.1316 1.68757 15.1042 1.75379 15.1041 1.82285V12.7604C15.1041 12.8294 15.1316 12.8957 15.1804 12.9446C15.2293 12.9934 15.2956 13.0209 15.3646 13.0209H23.1771C23.2462 13.0208 23.3124 12.9934 23.3612 12.9445C23.4101 12.8956 23.4375 12.8294 23.4375 12.7604V1.82285C23.4374 1.75382 23.41 1.68763 23.3612 1.63881C23.3124 1.59 23.2462 1.56255 23.1771 1.5625H15.3646Z" fill="white"/>
</svg>
