<svg width="15" height="15" viewBox="0 0 15 15" fill="none" xmlns="http://www.w3.org/2000/svg">
<path d="M13 6.5625H1.75C1.375 6.5625 1.125 6.3125 1.125 5.9375C1.125 5.5625 1.375 5.3125 1.75 5.3125H13C13.375 5.3125 13.625 5.5625 13.625 5.9375C13.625 6.3125 13.375 6.5625 13 6.5625Z" fill="#757575"/>
<path d="M13 6.5625C12.8125 6.5625 12.6875 6.5 12.5625 6.375L8.8125 2.625C8.5625 2.375 8.5625 2 8.8125 1.75C9.0625 1.5 9.4375 1.5 9.6875 1.75L13.4375 5.5C13.6875 5.75 13.6875 6.125 13.4375 6.375C13.3125 6.5 13.1875 6.5625 13 6.5625Z" fill="#757575"/>
<path d="M13.25 9.6875H2C1.625 9.6875 1.375 9.4375 1.375 9.0625C1.375 8.6875 1.625 8.4375 2 8.4375H13.25C13.625 8.4375 13.875 8.6875 13.875 9.0625C13.875 9.4375 13.625 9.6875 13.25 9.6875Z" fill="#757575"/>
<path d="M5.75 13.4375C5.5625 13.4375 5.4375 13.375 5.3125 13.25L1.5625 9.5C1.3125 9.25 1.3125 8.875 1.5625 8.625C1.8125 8.375 2.1875 8.375 2.4375 8.625L6.1875 12.375C6.4375 12.625 6.4375 13 6.1875 13.25C6.0625 13.375 5.9375 13.4375 5.75 13.4375Z" fill="#757575"/>
</svg>
