<svg width="16" height="16" viewBox="0 0 16 16" fill="none" xmlns="http://www.w3.org/2000/svg">
<path d="M13.5 7.0625H2.25C1.875 7.0625 1.625 6.8125 1.625 6.4375C1.625 6.0625 1.875 5.8125 2.25 5.8125H13.5C13.875 5.8125 14.125 6.0625 14.125 6.4375C14.125 6.8125 13.875 7.0625 13.5 7.0625Z" fill="#333333"/>
<path d="M13.5 7.0625C13.3125 7.0625 13.1875 7 13.0625 6.875L9.3125 3.125C9.0625 2.875 9.0625 2.5 9.3125 2.25C9.5625 2 9.9375 2 10.1875 2.25L13.9375 6C14.1875 6.25 14.1875 6.625 13.9375 6.875C13.8125 7 13.6875 7.0625 13.5 7.0625Z" fill="#333333"/>
<path d="M13.75 10.1875H2.5C2.125 10.1875 1.875 9.9375 1.875 9.5625C1.875 9.1875 2.125 8.9375 2.5 8.9375H13.75C14.125 8.9375 14.375 9.1875 14.375 9.5625C14.375 9.9375 14.125 10.1875 13.75 10.1875Z" fill="#333333"/>
<path d="M6.25 13.9375C6.0625 13.9375 5.9375 13.875 5.8125 13.75L2.0625 10C1.8125 9.75 1.8125 9.375 2.0625 9.125C2.3125 8.875 2.6875 8.875 2.9375 9.125L6.6875 12.875C6.9375 13.125 6.9375 13.5 6.6875 13.75C6.5625 13.875 6.4375 13.9375 6.25 13.9375Z" fill="#333333"/>
</svg>
