<svg width="15" height="17" viewBox="0 0 15 17" fill="none" xmlns="http://www.w3.org/2000/svg">
<path d="M10.0997 9.27586L11.6472 9.58298C11.7016 10.4526 12.4507 11.1135 13.3203 11.0591C14.1899 11.0047 14.8508 10.2557 14.7964 9.38603C14.742 8.51639 13.993 7.85555 13.1234 7.90992C12.5596 7.94518 12.0577 8.27914 11.8074 8.78557L10.206 8.46775C10.1886 7.86116 9.95389 7.281 9.54462 6.83292L11.7034 3.78336C12.7031 4.21691 13.8649 3.75798 14.2984 2.75837C14.7319 1.75877 14.273 0.5969 13.2734 0.163386C12.2738 -0.270129 11.1119 0.188762 10.6784 1.18837C10.3674 1.90562 10.5091 2.73885 11.0399 3.31283L8.90675 6.32629C7.88616 5.75353 6.60615 5.9539 5.80944 6.81113L3.01408 4.64026C3.38318 3.84895 3.04088 2.90831 2.24961 2.53922C1.45831 2.17012 0.517669 2.51242 0.148572 3.30368C-0.220526 4.09499 0.121772 5.03563 0.913038 5.40472C1.42638 5.64417 2.02863 5.59066 2.49175 5.26446L5.35551 7.4884C4.89548 8.49317 5.13907 9.68017 5.95771 10.4225L4.24228 12.8485C3.22958 12.2839 1.95091 12.6471 1.38633 13.6598C0.82174 14.6725 1.18498 15.9512 2.19768 16.5158C3.21038 17.0804 4.48905 16.7171 5.05363 15.7044C5.46759 14.9619 5.39292 14.0431 4.86449 13.3772L6.63958 10.8666C7.25809 11.1409 7.96066 11.1564 8.59064 10.9095L10.7127 14.0442C10.0637 14.7833 10.1369 15.9085 10.8759 16.5574C11.615 17.2063 12.7402 17.1332 13.3891 16.3941C14.038 15.655 13.9649 14.5298 13.2258 13.881C12.7177 13.4348 12.0006 13.3149 11.3749 13.5716L9.29199 10.4946C9.67451 10.1759 9.95532 9.75228 10.0997 9.27586ZM13.2211 8.72018C13.643 8.72018 13.985 9.06219 13.985 9.48407C13.985 9.90596 13.643 10.248 13.2211 10.248C12.7992 10.248 12.4572 9.90596 12.4572 9.48407C12.4575 9.06231 12.7994 8.7205 13.2211 8.72018ZM12.4831 0.82293C13.1205 0.822971 13.6373 1.33973 13.6372 1.97715C13.6372 2.61457 13.1204 3.13133 12.483 3.13129C11.8456 3.13125 11.3289 2.61453 11.3289 1.97711C11.3296 1.33993 11.8459 0.823621 12.4831 0.82293ZM1.58417 4.73932C1.16249 4.73884 0.820763 4.39711 0.820275 3.97543C0.820275 3.55354 1.16229 3.21153 1.58417 3.21153C2.00606 3.21153 2.34807 3.55354 2.34807 3.97543C2.34807 4.39731 2.0061 4.73932 1.58417 4.73932ZM3.22527 15.9578C2.51814 15.9577 1.94493 15.3845 1.94497 14.6774C1.94501 13.9703 2.51822 13.3971 3.22535 13.3971C3.93243 13.3971 4.50564 13.9703 4.50564 14.6774C4.50487 15.3842 3.93207 15.957 3.22527 15.9578ZM12.0505 14.2518C12.5863 14.2524 13.0204 14.6865 13.021 15.2223C13.021 15.7583 12.5865 16.1928 12.0505 16.1928C11.5145 16.1928 11.0801 15.7583 11.0801 15.2223C11.0801 14.6863 11.5146 14.2518 12.0505 14.2518ZM7.66651 10.2709C6.71266 10.2699 5.93965 9.49684 5.9386 8.54299C5.9386 7.58869 6.71221 6.81507 7.66651 6.81507C8.62082 6.81507 9.39443 7.58869 9.39443 8.54299C9.39443 9.49729 8.62082 10.2709 7.66651 10.2709Z" fill="#666666"/>
</svg>
