<svg width="107" height="107" viewBox="0 0 107 107" fill="none" xmlns="http://www.w3.org/2000/svg">
<path d="M103.497 86.5484L91.5832 74.6342C91.0942 74.1452 90.3001 74.1452 89.809 74.6342L78.2626 86.1806H72.342L65.2554 79.0939C64.7664 78.6049 63.9722 78.6049 63.4811 79.0939C62.9921 79.5829 62.9921 80.3771 63.4811 80.8682L68.7956 86.1827H25.8911C17.2266 86.1827 10.1775 79.1336 10.1775 70.4691C10.1775 61.8046 17.2266 54.7535 25.8911 54.7535H41.0675L52.6139 66.2999C52.848 66.534 53.1677 66.6677 53.5 66.6677C53.8323 66.6677 54.152 66.536 54.3861 66.2999L65.9346 54.7535H71.8551L79.0358 61.9342C79.2803 62.1787 79.6021 62.302 79.9219 62.302C80.2416 62.302 80.5635 62.1787 80.808 61.9342C81.297 61.4452 81.297 60.651 80.808 60.1599L75.4016 54.7535H81.1089C91.1569 54.7535 99.3303 46.5801 99.3303 36.5322C99.3303 26.4842 91.1569 18.3108 81.1089 18.3108H28.7374L17.189 6.76234C16.9549 6.52828 16.6352 6.39453 16.3029 6.39453C15.9706 6.39453 15.6508 6.52619 15.4168 6.76234L3.50258 18.6765C3.26643 18.9127 3.13477 19.2304 3.13477 19.5626C3.13477 19.8949 3.26643 20.2147 3.50258 20.4487L15.4168 32.3629C15.6613 32.6074 15.9831 32.7307 16.3029 32.7307C16.6226 32.7307 16.9445 32.6074 17.189 32.3629L28.7354 20.8165H81.1068C89.7713 20.8165 96.8204 27.8656 96.8204 36.5301C96.8204 45.1946 89.7734 52.2457 81.1089 52.2457H75.4016L80.716 46.9312C81.2051 46.4422 81.2051 45.6481 80.716 45.1569C80.227 44.6679 79.4329 44.6679 78.9418 45.1569L71.8551 52.2457H65.9346L54.3882 40.6993C54.1541 40.4653 53.8344 40.3315 53.5021 40.3315C53.1698 40.3315 52.8501 40.4632 52.616 40.6993L41.0654 52.2457H25.889C15.841 52.2457 7.66764 60.4191 7.66764 70.467C7.66764 80.515 15.841 88.6884 25.889 88.6884H68.7935L63.3871 94.0948C62.898 94.5838 62.898 95.378 63.3871 95.8691C63.6316 96.1136 63.9534 96.2369 64.2731 96.2369C64.595 96.2369 64.9147 96.1136 65.1592 95.8691L72.3399 88.6884H78.2605L89.8069 100.235C90.0409 100.469 90.3607 100.603 90.693 100.603C91.0252 100.603 91.345 100.471 91.579 100.235L103.493 88.3206C103.727 88.0865 103.861 87.7668 103.861 87.4345C103.861 87.1022 103.734 86.7845 103.497 86.5484ZM16.3029 29.7046L6.16295 19.5626L16.3029 9.42062L26.4428 19.5626L16.3029 29.7046ZM53.5 43.3597L63.6399 53.4996L53.5 63.6395L43.3601 53.4996L53.5 43.3597ZM90.6971 97.5765L80.5572 87.4366L90.6971 77.2967L100.837 87.4366L90.6971 97.5765Z" fill="#F7F7F7"/>
</svg>
