<svg width="35" height="35" viewBox="0 0 35 35" fill="none" xmlns="http://www.w3.org/2000/svg">
<path d="M33.8543 28.3103L29.9571 24.4132C29.7972 24.2532 29.5374 24.2532 29.3768 24.4132L25.5999 28.19H23.6633L21.3452 25.872C21.1853 25.712 20.9255 25.712 20.7648 25.872C20.6049 26.0319 20.6049 26.2917 20.7648 26.4523L22.5032 28.1907H8.46904C5.63486 28.1907 3.3291 25.885 3.3291 23.0508C3.3291 20.2166 5.63486 17.9102 8.46904 17.9102H13.4333L17.2102 21.687C17.2867 21.7636 17.3913 21.8073 17.5 21.8073C17.6087 21.8073 17.7133 21.7643 17.7898 21.687L21.5674 17.9102H23.504L25.8528 20.259C25.9328 20.339 26.0381 20.3793 26.1427 20.3793C26.2473 20.3793 26.3525 20.339 26.4325 20.259C26.5925 20.099 26.5925 19.8393 26.4325 19.6786L24.6641 17.9102H26.531C29.8177 17.9102 32.4912 15.2366 32.4912 11.9499C32.4912 8.66318 29.8177 5.98965 26.531 5.98965H9.4001L5.62256 2.21211C5.546 2.13555 5.44141 2.0918 5.33272 2.0918C5.22402 2.0918 5.11943 2.13486 5.04287 2.21211L1.1457 6.10928C1.06846 6.18652 1.02539 6.29043 1.02539 6.39912C1.02539 6.50781 1.06846 6.6124 1.1457 6.68896L5.04287 10.5861C5.12285 10.6661 5.22813 10.7064 5.33272 10.7064C5.4373 10.7064 5.54258 10.6661 5.62256 10.5861L9.39941 6.80928H26.5303C29.3645 6.80928 31.6702 9.11504 31.6702 11.9492C31.6702 14.7834 29.3651 17.0898 26.531 17.0898H24.6641L26.4024 15.3515C26.5624 15.1915 26.5624 14.9317 26.4024 14.7711C26.2425 14.6111 25.9827 14.6111 25.8221 14.7711L23.504 17.0898H21.5674L17.7905 13.313C17.714 13.2364 17.6094 13.1927 17.5007 13.1927C17.392 13.1927 17.2874 13.2357 17.2108 13.313L13.4326 17.0898H8.46836C5.18164 17.0898 2.50811 19.7634 2.50811 23.0501C2.50811 26.3368 5.18164 29.0103 8.46836 29.0103H22.5025L20.7341 30.7788C20.5741 30.9388 20.5741 31.1985 20.7341 31.3592C20.8141 31.4392 20.9193 31.4795 21.0239 31.4795C21.1292 31.4795 21.2338 31.4392 21.3138 31.3592L23.6626 29.0103H25.5992L29.3761 32.7872C29.4526 32.8638 29.5572 32.9075 29.6659 32.9075C29.7746 32.9075 29.8792 32.8645 29.9558 32.7872L33.8529 28.89C33.9295 28.8135 33.9732 28.7089 33.9732 28.6002C33.9732 28.4915 33.9315 28.3876 33.8543 28.3103ZM5.33272 9.7166L2.01592 6.39912L5.33272 3.08164L8.64951 6.39912L5.33272 9.7166ZM17.5 14.1832L20.8168 17.5L17.5 20.8168L14.1832 17.5L17.5 14.1832ZM29.6673 31.9177L26.3505 28.6009L29.6673 25.2841L32.9841 28.6009L29.6673 31.9177Z" fill="#333333"/>
</svg>
