<svg width="33" height="31" viewBox="0 0 33 31" fill="none" xmlns="http://www.w3.org/2000/svg">
<path d="M32.8289 26.2186L28.9317 22.3214C28.7718 22.1614 28.512 22.1614 28.3514 22.3214L24.5745 26.0982H22.6379L20.3198 23.7802C20.1599 23.6202 19.9001 23.6202 19.7395 23.7802C19.5795 23.9401 19.5795 24.1999 19.7395 24.3605L21.4778 26.0989H7.44365C4.60947 26.0989 2.30371 23.7932 2.30371 20.959C2.30371 18.1248 4.60947 15.8184 7.44365 15.8184H12.4079L16.1848 19.5952C16.2613 19.6718 16.3659 19.7155 16.4746 19.7155C16.5833 19.7155 16.6879 19.6725 16.7645 19.5952L20.542 15.8184H22.4786L24.8274 18.1672C24.9074 18.2472 25.0127 18.2875 25.1173 18.2875C25.2219 18.2875 25.3271 18.2472 25.4071 18.1672C25.5671 18.0072 25.5671 17.7475 25.4071 17.5868L23.6387 15.8184H25.5056C28.7923 15.8184 31.4658 13.1448 31.4658 9.8581C31.4658 6.57139 28.7923 3.89785 25.5056 3.89785H8.37471L4.59717 0.120313C4.52061 0.04375 4.41602 0 4.30732 0C4.19863 0 4.09404 0.0430664 4.01748 0.120313L0.120313 4.01748C0.0430664 4.09473 0 4.19863 0 4.30732C0 4.41602 0.0430664 4.5206 0.120313 4.59717L4.01748 8.49434C4.09746 8.57432 4.20273 8.61465 4.30732 8.61465C4.41191 8.61465 4.51719 8.57432 4.59717 8.49434L8.37402 4.71748H25.5049C28.3391 4.71748 30.6448 7.02324 30.6448 9.85742C30.6448 12.6916 28.3397 14.998 25.5056 14.998H23.6387L25.3771 13.2597C25.537 13.0997 25.537 12.8399 25.3771 12.6793C25.2171 12.5193 24.9573 12.5193 24.7967 12.6793L22.4786 14.998H20.542L16.7651 11.2212C16.6886 11.1446 16.584 11.1009 16.4753 11.1009C16.3666 11.1009 16.262 11.1439 16.1854 11.2212L12.4072 14.998H7.44297C4.15625 14.998 1.48271 17.6716 1.48271 20.9583C1.48271 24.245 4.15625 26.9186 7.44297 26.9186H21.4771L19.7087 28.687C19.5487 28.847 19.5487 29.1067 19.7087 29.2674C19.7887 29.3474 19.8939 29.3877 19.9985 29.3877C20.1038 29.3877 20.2084 29.3474 20.2884 29.2674L22.6372 26.9186H24.5738L28.3507 30.6954C28.4272 30.772 28.5318 30.8157 28.6405 30.8157C28.7492 30.8157 28.8538 30.7727 28.9304 30.6954L32.8275 26.7982C32.9041 26.7217 32.9479 26.6171 32.9479 26.5084C32.9479 26.3997 32.9062 26.2958 32.8289 26.2186ZM4.30732 7.6248L0.990527 4.30732L4.30732 0.989844L7.62412 4.30732L4.30732 7.6248ZM16.4746 12.0914L19.7914 15.4082L16.4746 18.725L13.1578 15.4082L16.4746 12.0914ZM28.6419 29.8259L25.3251 26.5091L28.6419 23.1923L31.9587 26.5091L28.6419 29.8259Z" fill="#005DAA"/>
</svg>
