<svg width="23" height="23" viewBox="0 0 23 23" fill="none" xmlns="http://www.w3.org/2000/svg">
<path d="M23 11.4994C23 10.9526 22.71 10.4544 22.223 10.1654L20.9423 9.41197C21.4357 9.11901 21.8753 8.85771 22.224 8.65022C22.71 8.36026 23 7.86201 23 7.31731C23 6.77262 22.71 6.27437 22.224 5.98387C20.6232 5.03178 15.1948 1.80588 12.5189 0.271851C11.8991 -0.0839799 11.1457 -0.0982405 10.4759 0.274939C10.4759 0.274939 3.1986 4.54942 0.776886 5.98343C0.289966 6.27232 0 6.77056 0 7.31731C0 7.86201 0.289966 8.36026 0.775906 8.65076C1.12458 8.85811 1.56416 9.11936 2.0574 9.41217L0.776935 10.1654C0.289966 10.4544 0 10.9526 0 11.4994C0 12.0441 0.289966 12.5423 0.775906 12.8328C1.12458 13.0402 1.56416 13.3014 2.0574 13.5942L0.776935 14.3475C0.289966 14.6364 0 15.1347 0 15.6814C0 16.2261 0.289966 16.7244 0.775906 17.0149C2.84742 18.2467 7.93891 21.2694 10.4811 22.7269C10.7925 22.9056 11.1457 23 11.5 23C11.8543 23 12.2075 22.9056 12.52 22.7264C15.0611 21.2694 20.1526 18.2467 22.2241 17.0143C22.7101 16.7244 23 16.2261 23 15.6814C23 15.1347 22.71 14.6364 22.2231 14.3475L20.9424 13.594C21.4357 13.3011 21.8754 13.0398 22.2241 12.8323C22.71 12.5423 23 12.0441 23 11.4994ZM1.3109 7.75361C1.23127 7.70564 1.04544 7.56778 1.04544 7.3182C1.04544 7.06753 1.23024 6.93076 1.30987 6.88376C3.72849 5.45137 10.9956 1.18326 10.9946 1.18375C11.3275 0.996402 11.6909 1.00356 11.9992 1.18017C14.668 2.71008 20.0913 5.93222 21.6891 6.88273C21.7687 6.93071 21.9545 7.06856 21.9545 7.31815C21.9545 7.56773 21.7687 7.70559 21.6891 7.75307C19.6206 8.98332 14.5353 12.0028 12.0002 13.4556C11.6858 13.6353 11.3131 13.6348 11.0007 13.4561C8.46469 12.0028 3.37933 8.98336 1.3109 7.75361ZM21.6901 15.2474C21.7697 15.2943 21.9545 15.4312 21.9545 15.6818C21.9545 15.9315 21.7687 16.0693 21.6891 16.1167C19.6206 17.347 14.5353 20.3665 12.0002 21.8193C11.6858 21.999 11.3131 21.9985 11.0007 21.8198C8.46469 20.3665 3.37933 17.347 1.3109 16.1172C1.23127 16.0693 1.04544 15.9314 1.04544 15.6818C1.04544 15.4312 1.23024 15.2944 1.30987 15.2474L3.08383 14.2035C5.48157 15.6247 8.64449 17.4921 10.4811 18.545C10.7925 18.7237 11.1457 18.8181 11.5 18.8181C11.8543 18.8181 12.2075 18.7237 12.52 18.5445C14.3558 17.492 17.5184 15.6249 19.916 14.2035L21.6901 15.2474ZM21.6891 11.9349C19.6206 13.1652 14.5353 16.1847 12.0002 17.6375C11.6858 17.8172 11.3131 17.8167 11.0007 17.638C8.46469 16.1846 3.37933 13.1652 1.3109 11.9354C1.23127 11.8874 1.04544 11.7496 1.04544 11.5C1.04544 11.2493 1.23024 11.1126 1.30987 11.0656L3.08383 10.0217C5.48157 11.4429 8.64449 13.3103 10.4811 14.3632C10.7925 14.5419 11.1457 14.6363 11.5 14.6363C11.8543 14.6363 12.2075 14.5419 12.52 14.3627C14.3558 13.3102 17.5184 11.4431 19.916 10.0217L21.6901 11.0656C21.7698 11.1125 21.9546 11.2493 21.9546 11.5C21.9545 11.7496 21.7687 11.8874 21.6891 11.9349Z" fill="#F7F7F7"/>
</svg>
