<svg width="20" height="20" viewBox="0 0 20 20" fill="none" xmlns="http://www.w3.org/2000/svg">
<path d="M20 9.99945C20 9.52401 19.7478 9.09076 19.3244 8.83951L18.2107 8.18432C18.6397 7.92958 19.022 7.70236 19.3253 7.52193C19.7479 7.26979 20 6.83653 20 6.36288C20 5.88923 19.7478 5.45598 19.3253 5.20336C17.9332 4.37546 13.2128 1.57033 10.886 0.236392C10.3471 -0.073026 9.6919 -0.0854265 9.1095 0.239077C9.1095 0.239077 2.78139 3.95602 0.675553 5.20298C0.252145 5.45419 0 5.88744 0 6.36288C0 6.83653 0.252145 7.26979 0.674701 7.5224C0.977896 7.7027 1.36014 7.92987 1.78905 8.18449L0.675596 8.83951C0.252145 9.09076 0 9.52401 0 9.99945C0 10.4731 0.252145 10.9064 0.674701 11.159C0.977896 11.3393 1.36014 11.5664 1.78905 11.8211L0.675596 12.4761C0.252145 12.7273 0 13.1606 0 13.636C0 14.1097 0.252145 14.5429 0.674701 14.7955C2.47602 15.8667 6.9034 18.4951 9.11398 19.7625C9.38474 19.9179 9.69195 20 10 20C10.3081 20 10.6153 19.9179 10.8869 19.762C13.0966 18.4951 17.524 15.8667 19.3253 14.7951C19.7479 14.5429 20 14.1097 20 13.636C20 13.1606 19.7479 12.7273 19.3244 12.4761L18.2107 11.8209C18.6398 11.5661 19.0221 11.3389 19.3253 11.1585C19.7479 10.9064 20 10.4731 20 9.99945ZM1.13991 6.74227C1.07067 6.70055 0.909075 6.58068 0.909075 6.36365C0.909075 6.14568 1.06977 6.02675 1.13902 5.98588C3.24217 4.74032 9.56142 1.02892 9.56053 1.02935C9.84996 0.866436 10.166 0.872658 10.4341 1.02624C12.7548 2.3566 17.4707 5.15845 18.86 5.98498C18.9293 6.0267 19.0909 6.14657 19.0909 6.36361C19.0909 6.58064 18.9293 6.70051 18.86 6.7418C17.0614 7.81158 12.6394 10.4372 10.435 11.7005C10.1615 11.8568 9.83751 11.8563 9.56585 11.701C7.3606 10.4372 2.93855 7.81162 1.13991 6.74227ZM18.8609 13.2586C18.9302 13.2994 19.0909 13.4184 19.0909 13.6364C19.0909 13.8534 18.9293 13.9733 18.86 14.0146C17.0614 15.0843 12.6394 17.71 10.435 18.9733C10.1615 19.1296 9.83751 19.1291 9.56585 18.9737C7.3606 17.71 2.93855 15.0843 1.13991 14.015C1.07067 13.9733 0.909075 13.8534 0.909075 13.6364C0.909075 13.4184 1.06977 13.2995 1.13902 13.2586L2.68159 12.3509C4.76658 13.5867 7.51695 15.2106 9.11398 16.1261C9.38474 16.2815 9.69195 16.3636 10 16.3636C10.3081 16.3636 10.6153 16.2815 10.8869 16.1257C12.4833 15.2104 15.2334 13.5868 17.3183 12.3508L18.8609 13.2586ZM18.86 10.3782C17.0614 11.448 12.6394 14.0736 10.435 15.337C10.1615 15.4932 9.83751 15.4927 9.56585 15.3374C7.3606 14.0736 2.93855 11.448 1.13991 10.3786C1.07067 10.3369 0.909075 10.217 0.909075 10C0.909075 9.78204 1.06977 9.6631 1.13902 9.62224L2.68159 8.71452C4.76658 9.95036 7.51695 11.5742 9.11398 12.4898C9.38474 12.6451 9.69195 12.7272 10 12.7272C10.3081 12.7272 10.6153 12.6451 10.8869 12.4893C12.4833 11.5741 15.2334 9.95049 17.3183 8.71448L18.861 9.62224C18.9302 9.66306 19.0909 9.78204 19.0909 10C19.0909 10.217 18.9293 10.3369 18.86 10.3782Z" fill="#333333"/>
</svg>
