<svg width="15" height="15" viewBox="0 0 15 15" fill="none" xmlns="http://www.w3.org/2000/svg">
<path d="M15.0001 7.49959C15.0001 7.14301 14.811 6.81807 14.4934 6.62963L13.6581 6.13824C13.9799 5.94718 14.2666 5.77677 14.494 5.64145C14.811 5.45234 15.0001 5.1274 15.0001 4.77216C15.0001 4.41692 14.811 4.09198 14.494 3.90252C13.45 3.2816 9.90971 1.17775 8.16454 0.177294C7.76037 -0.0547695 7.26898 -0.0640699 6.83218 0.179308C6.83218 0.179308 2.08606 2.96701 0.506668 3.90223C0.18911 4.09064 0 4.41558 0 4.77216C0 5.1274 0.18911 5.45234 0.506029 5.6418C0.733427 5.77703 1.02011 5.94741 1.34179 6.13837L0.5067 6.62963C0.18911 6.81807 0 7.14301 0 7.49959C0 7.85483 0.18911 8.17977 0.506029 8.36923C0.733427 8.50445 1.02011 8.67483 1.34179 8.8658L0.5067 9.35706C0.18911 9.5455 0 9.87044 0 10.227C0 10.5823 0.18911 10.9072 0.506029 11.0967C1.85703 11.9 5.17759 13.8714 6.83553 14.8219C7.03861 14.9384 7.26901 15 7.50005 15C7.7311 15 7.9615 14.9384 8.16525 14.8215C9.82252 13.8713 13.1431 11.9 14.4941 11.0963C14.811 10.9072 15.0001 10.5823 15.0001 10.227C15.0001 9.87044 14.811 9.5455 14.4934 9.35706L13.6582 8.86567C13.9799 8.67461 14.2666 8.5042 14.4941 8.36888C14.811 8.17977 15.0001 7.85483 15.0001 7.49959ZM0.854941 5.0567C0.803005 5.02541 0.681811 4.93551 0.681811 4.77274C0.681811 4.60926 0.802334 4.52006 0.85427 4.48941C2.43164 3.55524 7.17112 0.771692 7.17045 0.772011C7.38752 0.649827 7.62454 0.654493 7.82563 0.769678C9.56613 1.76745 13.1031 3.86884 14.1451 4.48874C14.1971 4.52003 14.3183 4.60993 14.3183 4.7727C14.3183 4.93548 14.1971 5.02538 14.1451 5.05635C12.7961 5.85868 9.47959 7.82792 7.82631 8.77541C7.62122 8.89261 7.37819 8.89226 7.17444 8.77573C5.52049 7.82792 2.20393 5.85872 0.854941 5.0567ZM14.1458 9.94394C14.1977 9.97456 14.3183 10.0638 14.3183 10.2273C14.3183 10.3901 14.1971 10.48 14.1451 10.5109C12.7961 11.3133 9.47959 13.2825 7.82631 14.23C7.62122 14.3472 7.37819 14.3468 7.17444 14.2303C5.52049 13.2825 2.20393 11.3133 0.854941 10.5112C0.803005 10.48 0.681811 10.39 0.681811 10.2273C0.681811 10.0638 0.802334 9.97459 0.85427 9.94394L2.0112 9.26316C3.57496 10.19 5.63775 11.4079 6.83553 12.0946C7.03861 12.2111 7.26901 12.2727 7.50005 12.2727C7.7311 12.2727 7.9615 12.2111 8.16525 12.0943C9.36251 11.4078 11.4251 10.1901 12.9888 9.26313L14.1458 9.94394ZM14.1451 7.78365C12.7961 8.58598 9.47959 10.5552 7.82631 11.5027C7.62122 11.6199 7.37819 11.6196 7.17444 11.503C5.52049 10.5552 2.20393 8.58598 0.854941 7.78397C0.803005 7.75268 0.681811 7.66278 0.681811 7.50001C0.681811 7.33653 0.802334 7.24733 0.85427 7.21668L2.0112 6.53589C3.57496 7.46277 5.63775 8.68065 6.83553 9.36732C7.03861 9.48384 7.26901 9.54543 7.50005 9.54543C7.7311 9.54543 7.9615 9.48384 8.16525 9.367C9.36251 8.68055 11.4251 7.46287 12.9888 6.53586L14.1458 7.21668C14.1978 7.24729 14.3183 7.33653 14.3183 7.50001C14.3183 7.66278 14.1971 7.75268 14.1451 7.78365Z" fill="#666666"/>
</svg>
