<svg width="37" height="37" viewBox="0 0 37 37" fill="none" xmlns="http://www.w3.org/2000/svg">
<g clip-path="url(#clip0_1_1914)">
<path d="M37.0011 18.5C37.0011 18.7659 36.9953 19.0319 36.9837 19.2978C36.9664 19.6736 36.9433 20.0552 36.897 20.4252C36.8508 20.8992 36.7872 21.3617 36.7062 21.8242C36.224 24.4524 35.1783 26.945 33.641 29.1306C32.1037 31.3161 30.1112 33.1428 27.8007 34.485C25.4902 35.8273 22.9164 36.6531 20.2563 36.9059C17.5962 37.1586 14.9129 36.8323 12.391 35.9492C9.86901 35.0662 7.56823 33.6474 5.64682 31.7905C3.72541 29.9335 2.22896 27.6825 1.26039 25.1921C0.291812 22.7018 -0.125917 20.0312 0.0359278 17.364C0.197772 14.6969 0.93535 12.0964 2.19794 9.74141C2.24997 9.64313 2.30778 9.53906 2.37138 9.44078C3.59546 7.26492 5.24505 5.35776 7.22185 3.83297C7.51669 3.6075 7.81732 3.38781 8.12372 3.18547C8.2856 3.06984 8.45903 2.96 8.62669 2.85016C9.00825 2.60734 9.40138 2.38188 9.80028 2.16797C10.3944 1.84975 11.0063 1.566 11.6329 1.31813C13.6545 0.508409 15.8038 0.0640653 17.9808 0.00578125C18.1542 0 18.3276 0 18.5011 0C18.9751 0 19.4434 0.0173438 19.9059 0.0520313L20.432 0.104063H20.4378C21.9831 0.262565 23.5022 0.616106 24.9587 1.15625C25.427 1.32969 25.8837 1.52625 26.3347 1.73438C27.7388 2.39347 29.0554 3.22464 30.2543 4.20875C30.2543 4.20875 30.2543 4.21453 30.2601 4.20875C30.7458 4.61344 31.2025 5.03547 31.6418 5.48062H31.6476C33.6169 7.46714 35.1093 9.87485 36.0125 12.5222C36.0125 12.5337 36.0183 12.5395 36.0183 12.5511C36.4837 13.9113 36.7845 15.3223 36.9143 16.7541C36.949 17.0547 36.9722 17.3669 36.9837 17.6733C36.9953 17.9508 37.0011 18.2225 37.0011 18.5Z" fill="#0071BC"/>
<path d="M19.8016 22.4834C18.6222 24.5473 19.2234 23.3968 19.0847 24.9173C19.0677 25.0928 19.0117 25.2624 18.9207 25.4134C18.8296 25.5645 18.7059 25.6932 18.5586 25.7902C17.2578 26.6343 16.8242 27.5766 15.1072 29.3515C14.24 30.2187 14.8181 31.3749 14.6736 32.4618C14.5291 33.5487 15.3963 34.2655 14.8181 34.4101C11.4477 33.9765 13.5116 24.7554 11.28 23.5702C10.4417 22.5874 10.7944 21.8763 11.1759 21.1826C11.2567 21.0317 11.3032 20.8649 11.3121 20.6941C11.321 20.5232 11.2922 20.3525 11.2276 20.194C11.163 20.0356 11.0643 19.8934 10.9384 19.7774C10.8126 19.6615 10.6627 19.5748 10.4995 19.5234C9.11203 19.0724 6.97297 18.292 6.11156 17.1357C5.9567 16.9428 5.7491 16.7992 5.51404 16.7222C5.27898 16.6452 5.02661 16.6382 4.78766 16.7021C3.53312 16.9391 3.325 11.8748 2.37109 9.44086C3.59517 7.265 5.24477 5.35784 7.22156 3.83305C7.51641 3.60758 7.81703 3.38789 8.12344 3.18555C9.44777 3.20804 10.7545 3.49296 11.968 4.02383C12.1584 4.1088 12.3226 4.24326 12.4434 4.41321C12.5642 4.58316 12.6373 4.78239 12.655 4.99016C12.6727 5.19794 12.6344 5.40666 12.5441 5.59461C12.4538 5.78256 12.3147 5.94286 12.1414 6.05883C10.8869 6.89133 9.45312 7.7932 11.3494 8.53898C11.9275 8.82805 12.5056 9.9843 13.0144 9.04773C13.5231 8.11117 13.6619 6.51555 13.9509 6.73523C14.24 6.95492 14.8181 8.82805 15.905 8.18055C16.9514 7.54461 17.6625 9.83398 16.2577 9.77617C16.1631 9.76847 16.068 9.77235 15.9744 9.78773C10.3839 10.7127 18.5933 11.1405 15.6853 12.3662C13.685 13.5802 13.6619 10.6318 12.8872 12.8634C12.8698 12.9096 12.8467 12.9674 12.8236 13.0195C10.858 16.8524 11.8292 13.0195 11.1297 16.5634C10.7828 16.6559 10.6672 16.5113 10.6556 16.2859C10.6512 16.1014 10.6034 15.9205 10.516 15.758C10.4286 15.5955 10.304 15.4559 10.1525 15.3505C10.001 15.2452 9.82672 15.1771 9.64392 15.1518C9.46112 15.1264 9.27493 15.1446 9.10047 15.2048C7.64937 15.7655 6.15203 17.3265 8.10031 17.8584C10.673 15.754 8.63219 19.4598 11.5691 19.1649C13.2514 18.6041 14.6389 19.7488 16.6219 21.1884C17.8533 22.5585 20.0213 20.9687 19.8016 22.4834Z" fill="#85BF4B"/>
<path d="M17.9806 0.00585938C17.806 0.182147 17.6856 0.404875 17.6337 0.647578C17.3447 1.87898 15.0322 2.31258 15.6103 2.53227C16.1884 2.75195 16.1884 3.46883 13.8759 2.60164C12.2861 2.00617 11.7889 1.54367 11.6328 1.3182C13.6544 0.508488 15.8037 0.0641434 17.9806 0.00585938Z" fill="#85BF4B"/>
<path d="M26.335 1.73508C26.2136 2.81617 25.7684 3.78742 25.358 3.6718C24.7105 3.49258 24.2653 3.75852 22.6119 4.82805C20.9584 5.89758 22.9241 7.15789 21.4152 7.00758C19.9063 6.85727 20.7966 3.57352 21.3631 2.5907C21.8661 1.69461 20.6405 0.827422 19.9062 0.0527344L20.4323 0.104766H20.4381C21.9835 0.263268 23.5025 0.616809 24.9591 1.15695C25.4273 1.33039 25.8841 1.52695 26.335 1.73508Z" fill="#85BF4B"/>
<path d="M33.9874 18.9107C33.9917 18.9226 33.9998 18.9328 34.0105 18.9396C34.0715 19.021 34.1511 19.0865 34.2426 19.1308C34.3342 19.1751 34.435 19.1967 34.5366 19.194C37.9129 19.194 35.4327 20.778 34.3805 22.2349C34.3127 22.3296 34.2744 22.4423 34.2707 22.5587C33.8197 28.8602 28.3275 30.8895 28.9346 22.813C28.7438 19.327 21.5519 22.7957 23.876 17.4654C24.165 15.4882 25.4716 15.2916 26.7261 14.8349C27.4391 14.5702 28.222 14.562 28.9404 14.8118C31.0968 15.5691 35.2304 15.5345 31.5361 14.2163C30.0908 14.1412 28.3565 11.3951 28.9346 12.4068C29.5127 13.4185 29.5127 14.2857 29.004 14.2857C27.3043 10.5568 28.3622 13.511 26.0729 14.4649C26.0069 14.4937 25.9365 14.5113 25.8647 14.517C24.1708 14.6788 24.3154 13.6902 24.7432 12.9849C25.1768 12.2623 26.044 13.1295 25.7549 12.4068C26.1307 10.1001 32.9815 9.9093 30.4608 6.99555C30.3846 6.91231 30.2884 6.85002 30.1812 6.81462C30.0741 6.77923 29.9596 6.77191 29.8488 6.79337C29.738 6.81483 29.6346 6.86435 29.5484 6.9372C29.4623 7.01005 29.3962 7.10379 29.3566 7.20945C29.1889 7.67508 29.101 8.16566 29.0965 8.66055C29.0996 8.79478 29.0614 8.92674 28.9869 9.03846C28.9124 9.15018 28.8053 9.23624 28.6802 9.28492C25.1305 10.6262 27.4372 4.93164 30.2527 4.20898C30.2527 4.20898 30.2527 4.21477 30.2585 4.20898C30.7441 4.61367 31.2008 5.0357 31.6402 5.48086H31.646C33.6152 7.46737 35.1077 9.87509 36.0108 12.5224C36.0108 12.534 36.0166 12.5398 36.0166 12.5513C36.2864 13.5052 36.1701 14.5269 35.6929 15.3957C35.6098 15.5294 35.5771 15.6883 35.6003 15.844C35.6236 15.9997 35.7015 16.142 35.82 16.2455C37.1729 17.3902 36.641 18.8587 34.8083 17.9337C34.6764 17.8659 34.5254 17.8449 34.3801 17.8742C34.2347 17.9035 34.1036 17.9812 34.0082 18.0948C33.9128 18.2083 33.8588 18.3509 33.855 18.4991C33.8512 18.6473 33.8979 18.7925 33.9874 18.9107Z" fill="#85BF4B"/>
</g>
<defs>
<clipPath id="clip0_1_1914">
<rect width="37" height="37" fill="white"/>
</clipPath>
</defs>
</svg>
