<svg width="25" height="25" viewBox="0 0 25 25" fill="none" xmlns="http://www.w3.org/2000/svg">
<g clip-path="url(#clip0_4_1493)">
<path d="M13.336 12.0731L18.9619 20.1202H16.653L12.0621 13.5538V13.5534L11.3881 12.5894L6.02527 4.9183H8.33415L12.662 11.1092L13.336 12.0731Z" fill="#F7F7F7"/>
<path d="M22.2987 0H2.7013C1.20945 0 0 1.20945 0 2.7013V22.2987C0 23.7905 1.20945 25 2.7013 25H22.2987C23.7905 25 25 23.7905 25 22.2987V2.7013C25 1.20945 23.7905 0 22.2987 0ZM15.9458 21.2005L11.3001 14.4393L5.4837 21.2005H3.98044L10.6326 13.4682L3.98044 3.78667H9.0542L13.4533 10.1891L18.9611 3.78667H20.4643L14.121 11.1603L21.0196 21.2005H15.9458Z" fill="#F7F7F7"/>
</g>
<defs>
<clipPath id="clip0_4_1493">
<rect width="25" height="25" fill="white"/>
</clipPath>
</defs>
</svg>
