<svg width="65" height="65" viewBox="0 0 65 65" fill="none" xmlns="http://www.w3.org/2000/svg">
<path d="M58.3556 23.1644V13.4032C58.9498 12.8314 59.3207 12.029 59.3207 11.1411C59.3207 9.40905 57.9116 8 56.1795 8C55.2917 8 54.4893 8.37093 53.9175 8.96508H29.9237C28.7238 8.96508 27.7477 9.94122 27.7477 11.1411C27.7477 12.341 28.7238 13.3172 29.9237 13.3172H30.0499V20.5489H29.2001C28.4596 20.5489 27.8573 21.1512 27.8573 21.8917V25.0931C27.8573 25.8335 28.4596 26.4358 29.2001 26.4358H35.7999C36.5404 26.4358 37.1427 25.8335 37.1427 25.0931V21.8917C37.1427 21.1512 36.5404 20.5489 35.7999 20.5489H34.9501V13.3172H44.209C44.654 13.3172 45.0146 12.9566 45.0146 12.5115C45.0146 12.0665 44.654 11.7058 44.209 11.7058H29.9238C29.6125 11.7058 29.3591 11.4525 29.3591 11.1411C29.3591 10.8297 29.6124 10.5764 29.9238 10.5764H53.0903C53.0569 10.7598 53.0385 10.9483 53.0385 11.1411C53.0385 11.3341 53.057 11.5225 53.0905 11.7058H47.9688C47.5237 11.7058 47.1631 12.0665 47.1631 12.5115C47.1631 12.9566 47.5237 13.3172 47.9688 13.3172H53.9183C53.9463 13.3463 53.9744 13.3753 54.0035 13.4032V23.1644C53.078 23.2809 52.3591 24.0713 52.3591 25.0279V30.5251H42.7914C42.1695 30.5251 41.6635 31.031 41.6635 31.653V41.5975H39.061V31.653C39.061 31.031 38.555 30.5251 37.9331 30.5251H27.0668C26.4448 30.5251 25.9389 31.031 25.9389 31.653V41.5975H23.3364V37.9961C23.3364 37.551 22.9758 37.1904 22.5307 37.1904C22.0857 37.1904 21.725 37.551 21.725 37.9961V41.5975H11.8255V32.1364H21.725V34.2363C21.725 34.6813 22.0857 35.042 22.5307 35.042C22.9758 35.042 23.3364 34.6813 23.3364 34.2363V31.653C23.3364 31.031 22.8304 30.5251 22.2084 30.5251H11.3421C10.7201 30.5251 10.2142 31.031 10.2142 31.653V41.6205C7.297 41.8733 5 44.3271 5 47.3086V48.022C5 50.6157 6.73852 52.8095 9.11104 53.5033V56.3368C9.11104 57.0773 9.71335 57.6796 10.4538 57.6796H42.7051C43.1501 57.6796 43.5107 57.319 43.5107 56.8739C43.5107 56.4289 43.1501 56.0683 42.7051 56.0683H10.7224V53.733H54.2776V56.0683H46.4648C46.0198 56.0683 45.6592 56.4289 45.6592 56.8739C45.6592 57.319 46.0198 57.6796 46.4648 57.6796H54.5462C55.2867 57.6796 55.889 57.0773 55.889 56.3368V53.5033C58.2615 52.8095 60 50.6157 60 48.022V25.0279C60 24.0713 59.2811 23.2809 58.3556 23.1644ZM35.5313 24.8245H29.4687V22.1602H35.5313V24.8245ZM33.3388 20.5489H31.6614V13.3172H33.3388V20.5489ZM56.7443 23.148H55.6148V14.2305C55.7982 14.2639 55.9867 14.2822 56.1795 14.2822C56.3724 14.2822 56.5609 14.2639 56.7443 14.2305V23.148ZM57.7094 11.1411C57.7094 11.9847 57.0231 12.6709 56.1796 12.6709C55.3362 12.6709 54.6499 11.9846 54.6499 11.1411C54.6499 10.2976 55.3362 9.61133 56.1796 9.61133C57.0231 9.61133 57.7094 10.2975 57.7094 11.1411ZM47.2832 32.1364H49.1662V35.5715H47.2832V32.1364ZM43.275 32.1364H45.6719V36.0549C45.6719 36.6769 46.1778 37.1829 46.7998 37.1829H49.6496C50.2716 37.1829 50.7775 36.6769 50.7775 36.0549V32.1364H53.1744V41.5975H43.2748V32.1364H43.275ZM31.5584 32.1364H33.4414V35.5715H31.5584V32.1364ZM27.5502 32.1364H29.9471V36.0549C29.9471 36.6769 30.4531 37.1829 31.075 37.1829H33.9248C34.5468 37.1829 35.0528 36.6769 35.0528 36.0549V32.1364H37.4497V41.5975H27.5501L27.5502 32.1364ZM58.3887 48.022C58.3887 50.2825 56.5495 52.1217 54.2889 52.1217H10.7111C8.4505 52.1217 6.61133 50.2825 6.61133 48.022V47.3086C6.61133 45.048 8.4505 43.2088 10.7111 43.2088H54.2889C56.5495 43.2088 58.3887 45.048 58.3887 47.3086V48.022ZM58.3887 43.3395C57.458 42.3791 56.1948 41.7426 54.7858 41.6205V31.653C54.7858 31.1395 54.4407 30.7061 53.9705 30.5701V25.0279C53.9705 24.8797 54.0909 24.7593 54.2391 24.7593H58.1201C58.2683 24.7593 58.3887 24.8797 58.3887 25.0279V43.3395Z" fill="#7E57C2"/>
<path d="M11.4302 44.5242C9.69811 44.5242 8.28906 45.9332 8.28906 47.6653C8.28906 49.3974 9.69811 50.8064 11.4302 50.8064C13.1623 50.8064 14.5713 49.3974 14.5713 47.6653C14.5713 45.9332 13.1623 44.5242 11.4302 44.5242ZM11.4302 49.1951C10.5866 49.1951 9.90039 48.5088 9.90039 47.6653C9.90039 46.8218 10.5867 46.1355 11.4302 46.1355C12.2737 46.1355 12.96 46.8218 12.96 47.6653C12.96 48.5088 12.2738 49.1951 11.4302 49.1951Z" fill="#7E57C2"/>
<path d="M28.2857 44.5244C26.5536 44.5244 25.1445 45.9335 25.1445 47.6655C25.1445 49.3976 26.5536 50.8067 28.2857 50.8067C30.0177 50.8067 31.4268 49.3976 31.4268 47.6655C31.4268 45.9335 30.0178 44.5244 28.2857 44.5244ZM28.2857 49.1953C27.4421 49.1953 26.7559 48.509 26.7559 47.6655C26.7559 46.8221 27.4422 46.1357 28.2857 46.1357C29.1291 46.1357 29.8154 46.8221 29.8154 47.6655C29.8154 48.509 29.1292 49.1953 28.2857 49.1953Z" fill="#7E57C2"/>
<path d="M36.7153 44.5244C34.9833 44.5244 33.5742 45.9335 33.5742 47.6655C33.5742 49.3976 34.9833 50.8067 36.7153 50.8067C38.4474 50.8067 39.8565 49.3976 39.8565 47.6655C39.8565 45.9335 38.4474 44.5244 36.7153 44.5244ZM36.7153 49.1953C35.8718 49.1953 35.1855 48.509 35.1855 47.6655C35.1855 46.8221 35.8719 46.1357 36.7153 46.1357C37.5588 46.1357 38.2451 46.8221 38.2451 47.6655C38.2451 48.509 37.5588 49.1953 36.7153 49.1953Z" fill="#7E57C2"/>
<path d="M45.1411 44.5242C43.4091 44.5242 42 45.9332 42 47.6653C42 49.3974 43.4091 50.8064 45.1411 50.8064C46.8732 50.8064 48.2822 49.3974 48.2822 47.6653C48.2822 45.9332 46.8732 44.5242 45.1411 44.5242ZM45.1411 49.1951C44.2975 49.1951 43.6113 48.5088 43.6113 47.6653C43.6113 46.8218 44.2976 46.1355 45.1411 46.1355C45.9846 46.1355 46.6709 46.8218 46.6709 47.6653C46.6709 48.5088 45.9846 49.1951 45.1411 49.1951Z" fill="#7E57C2"/>
<path d="M19.8599 44.5242C18.1278 44.5242 16.7188 45.9332 16.7188 47.6653C16.7188 49.3974 18.1278 50.8064 19.8599 50.8064C21.5919 50.8064 23.001 49.3974 23.001 47.6653C23.001 45.9332 21.5919 44.5242 19.8599 44.5242ZM19.8599 49.1951C19.0163 49.1951 18.3301 48.5088 18.3301 47.6653C18.3301 46.8218 19.0164 46.1355 19.8599 46.1355C20.7033 46.1355 21.3897 46.8218 21.3897 47.6653C21.3897 48.5088 20.7035 49.1951 19.8599 49.1951Z" fill="#7E57C2"/>
<path d="M53.5708 44.5242C51.8387 44.5242 50.4297 45.9332 50.4297 47.6653C50.4297 49.3974 51.8387 50.8064 53.5708 50.8064C55.3029 50.8064 56.7119 49.3974 56.7119 47.6653C56.7119 45.9332 55.3029 44.5242 53.5708 44.5242ZM53.5708 49.1951C52.7272 49.1951 52.041 48.5088 52.041 47.6653C52.041 46.8218 52.7273 46.1355 53.5708 46.1355C54.4143 46.1355 55.1006 46.8218 55.1006 47.6653C55.1006 48.5088 54.4143 49.1951 53.5708 49.1951Z" fill="#7E57C2"/>
</svg>
