<svg width="65" height="65" viewBox="0 0 65 65" fill="none" xmlns="http://www.w3.org/2000/svg">
<mask id="mask0_37_355" style="mask-type:luminance" maskUnits="userSpaceOnUse" x="5" y="5" width="55" height="55">
<path d="M5 5H60V60H5V5Z" fill="white"/>
</mask>
<g mask="url(#mask0_37_355)">
<path d="M32.5 6.07422L38.0859 15.7465C38.6327 16.6929 38.9453 17.7929 38.9453 18.9648C38.9453 22.5248 36.06 25.4102 32.5 25.4102C28.94 25.4102 26.0547 22.5248 26.0547 18.9648C26.0547 17.7929 26.3673 16.6929 26.9141 15.7465L32.5 6.07422Z" stroke="#7E57C2" stroke-width="2" stroke-miterlimit="10" stroke-linecap="round" stroke-linejoin="round"/>
<path d="M49.2578 17.0312L57.6356 31.5396C58.4563 32.9598 58.9258 34.6087 58.9258 36.3672C58.9258 41.7071 54.5978 46.0352 49.2578 46.0352C43.9179 46.0352 39.5898 41.7071 39.5898 36.3672C39.5898 34.6087 40.0593 32.9598 40.88 31.5396L49.2578 17.0312Z" stroke="#7E57C2" stroke-width="2" stroke-miterlimit="10" stroke-linecap="round" stroke-linejoin="round"/>
<path d="M49.2578 39.5898C51.0378 39.5898 52.4805 38.1472 52.4805 36.3672V36.3511C52.4805 35.7946 52.3344 35.2479 52.0551 34.7655" stroke="#7E57C2" stroke-width="2" stroke-miterlimit="10" stroke-linecap="round" stroke-linejoin="round"/>
<path d="M18.9648 52.4805C22.5248 52.4805 25.4102 49.5951 25.4102 46.0352V46.018C25.4102 44.8954 25.1147 43.7933 24.554 42.82" stroke="#7E57C2" stroke-width="2" stroke-miterlimit="10" stroke-linecap="round" stroke-linejoin="round"/>
<path d="M20.0391 58.9258C20.0391 59.519 19.558 60 18.9648 60C18.3717 60 17.8906 59.519 17.8906 58.9258C17.8906 58.3326 18.3717 57.8516 18.9648 57.8516C19.558 57.8516 20.0391 58.3326 20.0391 58.9258Z" fill="#7E57C2"/>
<path d="M14.2154 58.0224C9.44662 56.1314 6.07422 51.4767 6.07422 46.0351C6.07422 43.6901 6.70049 41.4922 7.79404 39.5984L18.9648 20.2538L30.1356 39.5984C31.2292 41.4922 31.8555 43.6901 31.8555 46.0351C31.8555 51.4768 28.4829 56.1314 23.7142 58.0225" stroke="#7E57C2" stroke-width="2" stroke-miterlimit="10" stroke-linecap="round" stroke-linejoin="round"/>
</g>
</svg>
