<svg width="65" height="65" viewBox="0 0 65 65" fill="none" xmlns="http://www.w3.org/2000/svg">
<path d="M27 52.6667H23.3333V21.5H38.9167V27H38C36.4812 27 35.25 28.2312 35.25 29.75V30.6667C35.25 31.6792 36.0708 32.5 37.0833 32.5H42.5833C43.5959 32.5 44.4167 31.6792 44.4167 30.6667V29.75C44.4167 28.2312 43.1855 27 41.6667 27H40.75V21.5H51.75C52.7625 21.5 53.5833 20.6792 53.5833 19.6667V18.75C53.5803 16.22 51.53 14.1697 49 14.1667H43.6714L23.2004 6.15592C22.9233 5.45912 22.2499 5.0013 21.5 5H16C15.1583 5.00254 14.4265 5.57787 14.2253 6.39517L8.28717 12.3333H7.75C6.23122 12.3333 5 13.5646 5 15.0833V20.5833C5 22.1021 6.23122 23.3333 7.75 23.3333H8.66667C9.82789 23.3285 10.8609 22.5948 11.248 21.5H14.1667V52.6667H10.5C8.47496 52.6667 6.83333 54.3083 6.83333 56.3333V58.1667C6.83333 59.1792 7.65414 60 8.66667 60H28.8333C29.8459 60 30.6667 59.1792 30.6667 58.1667V56.3333C30.6667 54.3083 29.025 52.6667 27 52.6667ZM42.5833 29.75V30.6667H37.0833V29.75C37.0833 29.2437 37.4937 28.8333 38 28.8333H41.6667C42.1729 28.8333 42.5833 29.2437 42.5833 29.75ZM16 26.4628L21.1205 31.5833L16 36.7038V26.4628ZM21.5 33.7962V44.0372L16.3795 38.9167L21.5 33.7962ZM21.1205 46.25L16 51.3705V41.1295L21.1205 46.25ZM21.5 48.4628V52.6667H17.2962L21.5 48.4628ZM11.248 14.1667C11.0684 13.6615 10.7446 13.2201 10.3167 12.8971L14.1667 9.04708V14.1667H11.248ZM16 9.96283L20.2038 14.1667H16V9.96283ZM38.6417 14.1667H23.3333V8.17717L38.6417 14.1667ZM21.5 6.83333V12.8705L16 7.3705V6.83333H21.5ZM8.66667 21.5H7.75C7.24374 21.5 6.83333 21.0896 6.83333 20.5833V15.0833C6.83333 14.5771 7.24374 14.1667 7.75 14.1667H8.66667C9.17293 14.1667 9.58333 14.5771 9.58333 15.0833V20.5833C9.58333 21.0896 9.17293 21.5 8.66667 21.5ZM11.4167 16H49C50.5188 16 51.75 17.2312 51.75 18.75V19.6667H11.4167V16ZM21.5 21.5V29.3705L16 23.8705V21.5H21.5ZM8.66667 58.1667V56.3333C8.66667 55.3208 9.48748 54.5 10.5 54.5H27C28.0125 54.5 28.8333 55.3208 28.8333 56.3333V58.1667H8.66667Z" fill="#7E57C2"/>
<path d="M58.1667 40.75H47.1667V37.0833C47.1667 36.0708 46.3459 35.25 45.3333 35.25H34.3333C33.3208 35.25 32.5 36.0708 32.5 37.0833V58.1667C32.5 59.1792 33.3208 60 34.3333 60H58.1667C59.1792 60 60 59.1792 60 58.1667V42.5833C60 41.5708 59.1792 40.75 58.1667 40.75ZM34.3333 37.0833H45.3333V58.1667H43.5V54.5C43.5 53.4875 42.6792 52.6667 41.6667 52.6667H38C36.9875 52.6667 36.1667 53.4875 36.1667 54.5V58.1667H34.3333V37.0833ZM38 58.1667V54.5H41.6667V58.1667H38ZM50.8333 58.1667V54.5H54.5V58.1667H50.8333ZM58.1667 58.1667H56.3333V54.5C56.3333 53.4875 55.5125 52.6667 54.5 52.6667H50.8333C49.8208 52.6667 49 53.4875 49 54.5V58.1667H47.1667V42.5833H58.1667V58.1667Z" fill="#7E57C2"/>
<path d="M37.9987 50.8335C38.505 50.8335 38.9154 50.4231 38.9154 49.9168V49.0002C38.9154 48.4939 38.505 48.0835 37.9987 48.0835C37.4924 48.0835 37.082 48.4939 37.082 49.0002V49.9168C37.082 50.4231 37.4924 50.8335 37.9987 50.8335Z" fill="#7E57C2"/>
<path d="M41.6667 50.8333C42.1729 50.8333 42.5833 50.4229 42.5833 49.9166V49C42.5833 48.4937 42.1729 48.0833 41.6667 48.0833C41.1604 48.0833 40.75 48.4937 40.75 49V49.9166C40.75 50.4229 41.1604 50.8333 41.6667 50.8333Z" fill="#7E57C2"/>
<path d="M37.9987 46.25C38.505 46.25 38.9154 45.8396 38.9154 45.3333V44.4167C38.9154 43.9104 38.505 43.5 37.9987 43.5C37.4924 43.5 37.082 43.9104 37.082 44.4167V45.3333C37.082 45.8396 37.4924 46.25 37.9987 46.25Z" fill="#7E57C2"/>
<path d="M41.6667 46.25C42.1729 46.25 42.5833 45.8396 42.5833 45.3333V44.4167C42.5833 43.9104 42.1729 43.5 41.6667 43.5C41.1604 43.5 40.75 43.9104 40.75 44.4167V45.3333C40.75 45.8396 41.1604 46.25 41.6667 46.25Z" fill="#7E57C2"/>
<path d="M37.9987 41.6665C38.505 41.6665 38.9154 41.2561 38.9154 40.7498V39.8332C38.9154 39.3269 38.505 38.9165 37.9987 38.9165C37.4924 38.9165 37.082 39.3269 37.082 39.8332V40.7498C37.082 41.2561 37.4924 41.6665 37.9987 41.6665Z" fill="#7E57C2"/>
<path d="M41.6667 41.6667C42.1729 41.6667 42.5833 41.2563 42.5833 40.75V39.8334C42.5833 39.3271 42.1729 38.9167 41.6667 38.9167C41.1604 38.9167 40.75 39.3271 40.75 39.8334V40.75C40.75 41.2563 41.1604 41.6667 41.6667 41.6667Z" fill="#7E57C2"/>
<path d="M49.9167 50.8333H55.4167C55.9229 50.8333 56.3333 50.4229 56.3333 49.9167C56.3333 49.4104 55.9229 49 55.4167 49H49.9167C49.4104 49 49 49.4104 49 49.9167C49 50.4229 49.4104 50.8333 49.9167 50.8333Z" fill="#7E57C2"/>
<path d="M49.9167 47.1666H55.4167C55.9229 47.1666 56.3333 46.7562 56.3333 46.25C56.3333 45.7437 55.9229 45.3333 55.4167 45.3333H49.9167C49.4104 45.3333 49 45.7437 49 46.25C49 46.7562 49.4104 47.1666 49.9167 47.1666Z" fill="#7E57C2"/>
</svg>
