<svg width="65" height="65" viewBox="0 0 65 65" fill="none" xmlns="http://www.w3.org/2000/svg">
<path d="M11.4167 40.0833C10.9104 40.0833 10.5 40.4937 10.5 41V43.75C10.5 44.2562 10.9104 44.6666 11.4167 44.6666H14.1667C14.6729 44.6666 15.0833 44.2562 15.0833 43.75C15.0833 43.2437 14.6729 42.8333 14.1667 42.8333H12.3333V41C12.3333 40.4937 11.9229 40.0833 11.4167 40.0833Z" fill="#7E57C2"/>
<path d="M6.83333 32.2807V44.6667C6.83333 46.6917 8.47496 48.3333 10.5 48.3333H15.0833C15.5896 48.3333 16 47.9229 16 47.4167C16 46.9104 15.5896 46.5 15.0833 46.5H10.5C9.48748 46.5 8.66667 45.6792 8.66667 44.6667V33.1167L25.5379 40.45C26.4707 40.8546 27.5293 40.8546 28.4621 40.45L45.3333 33.1167V35.5C45.3333 36.0063 45.7437 36.4167 46.25 36.4167C46.7563 36.4167 47.1667 36.0063 47.1667 35.5V32.2807C48.2997 31.6283 48.9985 30.421 49 29.1136V19C49 16.975 47.3584 15.3333 45.3333 15.3333H37.5133L33.3782 10.3723C33.1903 9.01716 32.0348 8.00619 30.6667 8H23.3333C21.9652 8.00619 20.8097 9.01716 20.6218 10.3723L16.4868 15.3333H8.66667C6.64162 15.3333 5 16.975 5 19V29.1136C5.00147 30.421 5.70034 31.6283 6.83333 32.2807ZM23.3333 9.83333H30.6667C31.1729 9.83333 31.5833 10.2437 31.5833 10.75C31.5833 11.2563 31.1729 11.6667 30.6667 11.6667H23.3333C22.8271 11.6667 22.4167 11.2563 22.4167 10.75C22.4167 10.2437 22.8271 9.83333 23.3333 9.83333ZM21.2323 12.5036C21.7496 13.1317 22.5197 13.4969 23.3333 13.5H30.6667C31.4803 13.4969 32.2504 13.1317 32.7677 12.5036L35.1263 15.3333H18.8738L21.2323 12.5036ZM6.83333 19C6.83333 17.9875 7.65414 17.1667 8.66667 17.1667H45.3333C46.3459 17.1667 47.1667 17.9875 47.1667 19V29.1136C47.167 29.8429 46.7351 30.503 46.0667 30.7948L27.7333 38.7698C27.2655 38.9725 26.7345 38.9725 26.2667 38.7698L7.93333 30.7948C7.26492 30.503 6.83298 29.8429 6.83333 29.1136V19Z" fill="#7E57C2"/>
<path d="M9.58464 25.4167C10.0909 25.4167 10.5013 25.0063 10.5013 24.5V20.8333H20.5846C21.0909 20.8333 21.5013 20.4229 21.5013 19.9167C21.5013 19.4104 21.0909 19 20.5846 19H9.58464C9.07837 19 8.66797 19.4104 8.66797 19.9167V24.5C8.66797 25.0063 9.07837 25.4167 9.58464 25.4167Z" fill="#7E57C2"/>
<path d="M24.25 35.5H29.75C31.2688 35.5 32.5 34.2688 32.5 32.75C32.5 31.2312 31.2688 30 29.75 30H24.25C22.7312 30 21.5 31.2312 21.5 32.75C21.5 34.2688 22.7312 35.5 24.25 35.5ZM24.25 31.8333H29.75C30.2563 31.8333 30.6667 32.2437 30.6667 32.75C30.6667 33.2563 30.2563 33.6667 29.75 33.6667H24.25C23.7437 33.6667 23.3333 33.2563 23.3333 32.75C23.3333 32.2437 23.7437 31.8333 24.25 31.8333Z" fill="#7E57C2"/>
<path d="M58.4159 38.525C57.501 38.0708 56.406 38.1858 55.6054 38.8202C54.9883 39.3282 54.5088 39.9832 54.2112 40.725C53.6832 41.9918 52.4504 42.8215 51.078 42.8334H50.55C48.8587 42.7241 47.4725 41.4504 47.2207 39.7744C47.0727 38.8952 46.3119 38.2511 45.4203 38.25H43.7483C42.0937 38.252 40.7528 39.5929 40.7508 41.2475C40.7028 42.2852 39.8472 43.1016 38.8084 43.101L38.3125 43.1404C37.5874 43.1991 36.855 43.2578 36.1207 43.3238L34.9822 42.1853C34.6226 41.8379 34.0508 41.8428 33.6972 42.1964C33.3437 42.55 33.3387 43.1218 33.6861 43.4814L33.7713 43.5667C33.192 43.6364 32.6117 43.7271 32.0297 43.8179L31.3137 43.1019C30.9558 42.7441 30.3755 42.7441 30.0176 43.1019C29.7218 43.4022 29.6731 43.8671 29.9002 44.2221C29.5977 44.2881 29.2925 44.3385 28.9909 44.4137L28.2337 44.6053L27.6471 44.0186C27.2891 43.6608 26.7089 43.6608 26.3509 44.0186C26.0591 44.3156 26.0076 44.7734 26.2262 45.1278C22.9419 45.8816 19.8213 47.2242 17.0156 49.0905C14.8431 50.6489 12.2682 53.2384 12.3332 56.7071C12.3892 58.1824 13.6079 59.3458 15.0842 59.3334H27.9175C30.4499 59.3346 32.9629 58.8918 35.3425 58.0253L38.5343 56.8648C40.4253 56.1825 42.409 55.7918 44.4175 55.7061V56.5834C44.4175 58.1021 45.6487 59.3334 47.1675 59.3334H57.2508C58.7696 59.3334 60.0008 58.1021 60.0008 56.5834V41.0303C60.0025 39.9587 59.385 38.9825 58.4159 38.525ZM18.0826 50.5792C20.8885 48.5625 24.271 47.5221 27.6746 46.6375L29.0991 48.062C29.4588 48.4094 30.0305 48.4044 30.3841 48.0509C30.7377 47.6973 30.7426 47.1255 30.3952 46.7659L29.7536 46.1242C30.2975 45.994 30.8475 45.8788 31.4036 45.7786L32.7722 47.1472C33.1318 47.4946 33.7036 47.4896 34.0572 47.136C34.4107 46.7824 34.4157 46.2107 34.0683 45.851L33.6503 45.433C34.248 45.3579 34.842 45.2937 35.4433 45.235L36.4388 46.2305C36.7784 46.5761 37.3294 46.5943 37.6911 46.272C38.0528 45.9497 38.0979 45.4003 37.7937 45.0233C38.0155 45.0049 38.2401 44.9848 38.461 44.9674L38.9578 44.9279C40.9547 44.8647 42.5504 43.2452 42.5842 41.2475C42.5847 40.6048 43.1056 40.0839 43.7483 40.0834H45.4139C45.8049 42.6442 47.9586 44.5671 50.5472 44.6667H51.0752C53.1815 44.6557 55.0776 43.3878 55.8923 41.4455C56.0725 40.984 56.3645 40.5746 56.7421 40.2539C56.9929 40.0574 57.3356 40.0265 57.6175 40.175C57.9506 40.3295 58.1647 40.6622 58.1675 41.0294V50.1667H45.3342C42.3731 50.1653 39.4347 50.6831 36.6524 51.6966L33.4597 52.8534C31.6842 53.5032 29.8081 53.8349 27.9175 53.8334L14.9595 53.8334C15.7668 52.5451 16.8313 51.4373 18.0862 50.5792H18.0826ZM37.9092 55.1414L34.7173 56.3019C32.5383 57.0961 30.2367 57.5016 27.9175 57.5H15.0842C14.6085 57.5109 14.2067 57.1492 14.1675 56.675C14.1632 56.3366 14.1939 55.9987 14.2592 55.6667H27.9175C30.022 55.6689 32.1103 55.2999 34.0867 54.5768L37.2785 53.4199C39.86 52.4791 42.5866 51.9985 45.3342 52L58.1675 52V53.8334H45.3342C42.8017 53.8321 40.2887 54.2749 37.9092 55.1414ZM58.1675 56.5834C58.1675 57.0896 57.7571 57.5 57.2508 57.5H47.1675C46.6612 57.5 46.2508 57.0896 46.2508 56.5834V55.6667H58.1675V56.5834Z" fill="#7E57C2"/>
</svg>
