<svg width="65" height="65" viewBox="0 0 65 65" fill="none" xmlns="http://www.w3.org/2000/svg">
<path d="M56.8814 40.4181C55.5595 38.5059 53.7579 37.0123 51.649 36.0747V26.5196C52.6171 26.2993 53.3424 25.4332 53.3424 24.3994V22.9535C53.3424 21.7537 52.3663 20.7775 51.1665 20.7775H41.9279C40.7281 20.7775 39.7518 21.7537 39.7518 22.9535V24.3994C39.7518 25.4332 40.4773 26.2993 41.4454 26.5196V36.0747C40.1779 36.6382 39.0225 37.4039 38.0146 38.3393V30.1491C38.0146 29.8985 37.8874 29.665 37.677 29.5291C37.4664 29.393 37.2014 29.3731 36.9728 29.4761L24.2538 35.2099C23.9892 35.3292 23.819 35.5926 23.819 35.8829V44.8886H19.4759V25.8147C19.4759 25.4069 19.1454 25.0764 18.7376 25.0764H12.052C11.6442 25.0764 11.3137 25.4069 11.3137 25.8147V44.8886H7.73828C7.33054 44.8886 7 45.2191 7 45.6269V59.3634C7 59.7712 7.33054 60.1017 7.73828 60.1017H46.5472C53.4696 60.1017 59.1016 54.4699 59.1016 47.5474C59.1016 44.9843 58.3339 42.5189 56.8814 40.4181ZM41.2284 24.3994V22.9535C41.2284 22.5678 41.5422 22.254 41.9279 22.254H51.1665C51.5522 22.254 51.8659 22.5678 51.8659 22.9535V24.3994C51.8659 24.7851 51.5521 25.0989 51.1665 25.0989H41.9279C41.5422 25.0989 41.2284 24.7851 41.2284 24.3994ZM42.4564 37.2509C42.7375 37.1391 42.9219 36.8673 42.9219 36.5648V26.5754H50.1726V36.5648C50.1726 36.8673 50.357 37.1391 50.6381 37.2509C52.4485 37.9707 53.9842 39.1198 55.1519 40.5542C51.4422 39.6825 49.4291 40.3034 47.475 40.9083C45.2168 41.6072 43.0757 42.2694 38.0147 40.5636V40.467C39.173 39.0733 40.6829 37.956 42.4564 37.2509ZM25.2956 42.5339H32.0547C32.4625 42.5339 32.793 42.2034 32.793 41.7956C32.793 41.3879 32.4625 41.0573 32.0547 41.0573H25.2956V38.7306H32.0547C32.4625 38.7306 32.793 38.4 32.793 37.9923C32.793 37.5846 32.4625 37.254 32.0547 37.254H25.2956V36.3599L36.538 31.2917V39.9714C36.427 40.1179 36.318 40.2661 36.2129 40.418C35.272 41.7792 34.6204 43.2938 34.2767 44.8885H25.2955L25.2956 42.5339ZM12.7902 26.553H17.9993V28.3613H14.5394C14.1317 28.3613 13.8012 28.6919 13.8012 29.0996C13.8012 29.5073 14.1317 29.8379 14.5394 29.8379H17.9993V44.8886H12.7902V26.553ZM8.47656 49.5293H22.198C22.6058 49.5293 22.9363 49.1988 22.9363 48.791C22.9363 48.3833 22.6058 48.0528 22.198 48.0528H8.47656V46.3652H34.05C34.0135 46.7563 33.9928 47.1505 33.9928 47.5474C33.9928 47.5636 33.9934 47.5796 33.9935 47.5959H27.2232C26.8155 47.5959 26.4849 47.9264 26.4849 48.3341V58.6252H8.47656V49.5293ZM27.9616 58.6252V52.8758H32.0462C32.4539 52.8758 32.7845 52.5453 32.7845 52.1376C32.7845 51.7298 32.4539 51.3993 32.0462 51.3993H27.9616V49.0724H34.0857C34.5895 53.2128 37.1165 56.7374 40.6455 58.6252H27.9616ZM46.5472 58.6252C40.4389 58.6252 35.4694 53.6557 35.4694 47.5474C35.4694 45.4634 36.0419 43.4898 37.0661 41.7984C39.8605 42.7835 41.8985 43.12 43.5324 43.12C45.3227 43.12 46.6283 42.7159 47.9113 42.3188C50.0154 41.6676 52.0069 41.0531 56.3804 42.4237C57.1828 43.9685 57.6249 45.7154 57.6249 47.5474C57.625 53.6557 52.6555 58.6252 46.5472 58.6252ZM48.3239 13.4917C48.8043 11.9424 49.2191 10.6043 48.355 9.10758C48.1512 8.75447 48.2721 8.30296 48.6252 8.09908C48.9784 7.89511 49.4299 8.01619 49.6337 8.3693C50.8206 10.425 50.2435 12.2865 49.7342 13.929C49.2913 15.3578 48.9087 16.5919 49.6337 17.8476C49.8376 18.2007 49.7166 18.6522 49.3635 18.8561C49.2473 18.9232 49.1203 18.9551 48.995 18.9551C48.7399 18.9551 48.4917 18.8227 48.355 18.5858C47.3073 16.771 47.8474 15.0288 48.3239 13.4917ZM43.3368 13.4917C43.8171 11.9424 44.2319 10.6043 43.3679 9.10758C43.1641 8.75447 43.285 8.30296 43.6382 8.09908C43.9915 7.89511 44.4429 8.01619 44.6466 8.3693C45.8335 10.425 45.2564 12.2865 44.7472 13.9289C44.3042 15.3578 43.9217 16.5917 44.6466 17.8475C44.8505 18.2006 44.7295 18.6521 44.3764 18.8559C44.2602 18.9231 44.1332 18.955 44.0079 18.955C43.7528 18.955 43.5046 18.8226 43.3679 18.5857C42.3202 16.771 42.8603 15.0288 43.3368 13.4917ZM15.3602 23.1441C16.8609 23.1441 18.2328 22.4206 19.0778 21.2189C20.1325 21.539 21.286 21.4649 22.2914 21.0109C23.542 22.1801 25.2001 22.8407 26.9242 22.8407C29.0457 22.8407 31.0065 21.8687 32.2869 20.2109C32.7941 20.4001 33.3347 20.4985 33.8797 20.4985C36.388 20.4985 38.4287 18.4578 38.4287 15.9495C38.4287 13.4412 36.388 11.4005 33.8797 11.4005C33.2845 11.4005 32.6977 11.5169 32.1523 11.7406C30.8696 10.1883 28.9592 9.27865 26.9243 9.27865C26.1061 9.27865 25.3125 9.42124 24.5579 9.70316C23.561 8.6278 22.1455 8.00026 20.6669 8.00026C17.7451 8.00026 15.368 10.3773 15.368 13.2991C15.368 13.5508 15.3855 13.8003 15.4203 14.0466C15.4004 14.0464 15.3803 14.0462 15.3603 14.0462C12.8519 14.0462 10.8113 16.0869 10.8113 18.5951C10.8113 21.1034 12.8518 23.1441 15.3602 23.1441ZM15.3602 15.5226C15.6474 15.5226 15.9314 15.5621 16.2045 15.6399C16.4733 15.7168 16.7626 15.6347 16.9514 15.4284C17.1403 15.2221 17.1963 14.9269 17.0963 14.6658C16.9292 14.2298 16.8446 13.7698 16.8446 13.299C16.8446 11.1914 18.5592 9.47672 20.6669 9.47672C21.8761 9.47672 23.0271 10.0589 23.7459 11.0342C23.9555 11.3184 24.337 11.4145 24.6563 11.2634C25.368 10.9262 26.1311 10.7552 26.9243 10.7552C28.6865 10.7552 30.3295 11.6275 31.3193 13.0887C31.5388 13.4126 31.9727 13.509 32.3087 13.3087C32.7822 13.0264 33.3254 12.8771 33.8797 12.8771C35.5738 12.8771 36.9522 14.2554 36.9522 15.9497C36.9522 17.6438 35.5739 19.0221 33.8797 19.0221C33.3593 19.0221 32.8452 18.8896 32.393 18.639C32.051 18.4494 31.6202 18.5596 31.4111 18.8901C30.4315 20.4392 28.7542 21.3642 26.9242 21.3642C25.4228 21.3642 23.9852 20.7236 22.9801 19.6066C22.7402 19.3399 22.3433 19.2842 22.0391 19.4748C21.156 20.0284 20.0238 20.0925 19.0842 19.642C18.7216 19.4683 18.2866 19.6165 18.1058 19.9755C17.5798 21.0192 16.5277 21.6676 15.3601 21.6676C13.6659 21.6676 12.2877 20.2894 12.2877 18.5951C12.2878 16.9009 13.666 15.5226 15.3602 15.5226ZM53.33 45.646C53.33 46.2331 52.8511 46.7119 52.264 46.7119C51.677 46.7119 51.198 46.2331 51.198 45.646C51.198 45.0588 51.677 44.58 52.264 44.58C52.8511 44.58 53.33 45.0588 53.33 45.646ZM42.4272 51.4663C42.4272 52.0534 41.9482 52.5322 41.3612 52.5322C40.7742 52.5322 40.2952 52.0533 40.2952 51.4663C40.2952 50.8792 40.7742 50.4002 41.3612 50.4002C41.9482 50.4002 42.4272 50.8791 42.4272 51.4663ZM51.3496 53.6508C51.3496 54.0618 51.0144 54.397 50.6034 54.397C50.1924 54.397 49.8572 54.0618 49.8572 53.6508C49.8572 53.2398 50.1924 52.9046 50.6034 52.9046C51.0144 52.9046 51.3496 53.2398 51.3496 53.6508ZM40.7463 45.7034C40.3353 45.7034 40.0001 45.3682 40.0001 44.9572C40.0001 44.5463 40.3353 44.2111 40.7463 44.2111C41.1573 44.2111 41.4925 44.5462 41.4925 44.9572C41.4925 45.3683 41.1573 45.7034 40.7463 45.7034ZM47.4276 48.3244C47.4276 48.7355 47.0925 49.0706 46.6815 49.0706C46.2704 49.0706 45.9353 48.7355 45.9353 48.3244C45.9353 47.9134 46.2704 47.5783 46.6815 47.5783C47.0925 47.5783 47.4276 47.9134 47.4276 48.3244Z" fill="#7E57C2"/>
</svg>
