<svg width="65" height="65" viewBox="0 0 65 65" fill="none" xmlns="http://www.w3.org/2000/svg">
<path d="M5.94554 41.9691H59.0617C59.2995 41.9614 59.525 41.8616 59.6905 41.6907C59.856 41.5198 59.9486 41.2912 59.9486 41.0533C59.9486 40.8154 59.856 40.5869 59.6905 40.416C59.525 40.2451 59.2995 40.1452 59.0617 40.1376H55.9887C57.3174 39.0678 58.2815 37.6122 58.748 35.9713C59.2145 34.3305 59.1604 32.5854 58.5933 30.9766C58.0261 29.3677 56.9738 27.9745 55.5814 26.989C54.189 26.0035 52.5252 25.4743 50.8194 25.4743C49.1135 25.4743 47.4497 26.0035 46.0573 26.989C44.6649 27.9745 43.6126 29.3677 43.0454 30.9766C42.4783 32.5854 42.4242 34.3305 42.8907 35.9713C43.3572 37.6122 44.3213 39.0678 45.6501 40.1376H35.6717C36.5793 39.1335 37.0821 37.8283 37.0827 36.4748H38.9141V37.39C38.9141 37.6328 39.0105 37.8657 39.1821 38.0375C39.3537 38.2093 39.5865 38.3059 39.8294 38.3062H40.4615C40.6794 38.3057 40.89 38.2277 41.0555 38.0859C41.221 37.9442 41.3306 37.7481 41.3646 37.5329C41.3986 37.3177 41.3547 37.0974 41.2409 36.9115C41.1271 36.7257 40.9508 36.5865 40.7437 36.519V26.4757L41.15 24.0696C41.1537 24.0478 41.1562 24.0258 41.1575 24.0037L42.4415 16.3271H50.897L51.1387 19.2055C51.1589 19.4475 51.2744 19.6715 51.4598 19.8284C51.6452 19.9852 51.8853 20.0619 52.1273 20.0417C52.3693 20.0215 52.5934 19.906 52.7502 19.7206C52.907 19.5352 52.9838 19.2951 52.9636 19.0531L52.656 15.3724V10.8319H55.4026C55.5254 10.8358 55.6476 10.8151 55.7622 10.7708C55.8767 10.7266 55.9812 10.6597 56.0694 10.5743C56.1576 10.4889 56.2277 10.3866 56.2756 10.2736C56.3235 10.1605 56.3482 10.039 56.3482 9.91619C56.3482 9.7934 56.3235 9.67187 56.2756 9.55881C56.2277 9.44575 56.1576 9.34347 56.0694 9.25805C55.9812 9.17263 55.8767 9.10581 55.7622 9.06156C55.6476 9.01731 55.5254 8.99654 55.4026 9.00047H51.7351C51.4921 9.00047 51.2591 9.097 51.0872 9.26881C50.9154 9.44063 50.8189 9.67367 50.8189 9.91666V14.4957H37.9979C37.7601 14.5033 37.5347 14.6031 37.3691 14.774C37.2036 14.9449 37.1111 15.1735 37.1111 15.4114C37.1111 15.6493 37.2036 15.8779 37.3691 16.0488C37.5347 16.2197 37.7601 16.3195 37.9979 16.3271H40.58L39.3383 23.7497C39.3383 23.7695 39.3327 23.7921 39.3308 23.8156L39.0317 25.6188L27.5747 27.771C26.6522 27.9416 25.8306 28.4603 25.2801 29.2199C24.7296 29.9795 24.4923 30.9218 24.6173 31.8515L25.0208 34.8888C25.0629 35.1992 25.1843 35.4935 25.3733 35.7433C25.5623 35.9931 25.8125 36.1899 26.0997 36.3148C26.0997 36.3685 26.0913 36.4202 26.0913 36.4748C26.0919 37.8283 26.5946 39.1335 27.5022 40.1376H15.1027V34.6424H16.0189C17.2328 34.6411 18.3966 34.1584 19.255 33.3002C20.1135 32.4419 20.5964 31.2782 20.5979 30.0643C20.5979 29.944 20.5742 29.8248 20.5282 29.7137C20.4821 29.6025 20.4147 29.5015 20.3296 29.4164C20.2445 29.3314 20.1435 29.2639 20.0323 29.2178C19.9212 29.1718 19.8021 29.1481 19.6817 29.1481H17.8503C17.1365 29.1504 16.4333 29.3202 15.7971 29.6438C15.1609 29.9675 14.6096 30.4359 14.1874 31.0115C13.7648 30.4367 13.2133 29.9691 12.5772 29.6461C11.941 29.3231 11.238 29.1538 10.5246 29.1519H8.69221C8.44939 29.1521 8.2166 29.2487 8.04498 29.4205C7.87337 29.5923 7.77697 29.8252 7.77697 30.068C7.77946 31.2813 8.26284 32.4441 9.12118 33.3015C9.97951 34.159 11.1428 34.6411 12.356 34.6424H13.2713V40.1357H5.94554C5.82282 40.1318 5.70055 40.1526 5.58602 40.1968C5.47148 40.2411 5.36701 40.3079 5.27881 40.3933C5.1906 40.4787 5.12047 40.581 5.07258 40.6941C5.02468 40.8071 5 40.9287 5 41.0515C5 41.1742 5.02468 41.2958 5.07258 41.4088C5.12047 41.5219 5.1906 41.6242 5.27881 41.7096C5.36701 41.795 5.47148 41.8618 5.58602 41.9061C5.70055 41.9503 5.82282 41.9711 5.94554 41.9672V41.9691ZM44.4084 33.7271C44.408 32.4592 44.7837 31.2196 45.4879 30.1652C46.192 29.1107 47.1931 28.2888 48.3644 27.8033C49.5357 27.3178 50.8247 27.1906 52.0684 27.4377C53.312 27.6849 54.4544 28.2953 55.3511 29.1917C56.2478 30.0881 56.8585 31.2304 57.1061 32.4739C57.3536 33.7175 57.2267 35.0065 56.7416 36.178C56.2564 37.3495 55.4348 38.3508 54.3806 39.0552C53.3263 39.7597 52.0868 40.1357 50.8189 40.1357C49.1196 40.134 47.4903 39.4583 46.2886 38.2569C45.0868 37.0555 44.4106 35.4264 44.4084 33.7271ZM26.4327 31.6098C26.3701 31.1455 26.4886 30.6749 26.7635 30.2956C27.0385 29.9163 27.4488 29.6573 27.9095 29.5723L38.9151 27.5029V34.6424H36.7619C36.4073 33.6366 35.7674 32.756 34.9203 32.1081C34.0732 31.4602 33.0556 31.0732 31.9921 30.9944C30.9286 30.9155 29.8651 31.1483 28.9317 31.6642C27.9984 32.1801 27.2356 32.9568 26.7366 33.8993L26.4327 31.6098ZM27.9246 36.4748C27.9242 35.7502 28.1387 35.0419 28.541 34.4393C28.9432 33.8367 29.5152 33.3669 30.1844 33.0894C30.8537 32.8119 31.5902 32.739 32.3009 32.8802C33.0115 33.0213 33.6644 33.37 34.1768 33.8822C34.6893 34.3944 35.0383 35.047 35.1798 35.7576C35.3213 36.4682 35.2489 37.2047 34.9717 37.8742C34.6945 38.5436 34.225 39.1157 33.6226 39.5183C33.0202 39.9209 32.312 40.1357 31.5875 40.1357C30.6168 40.1342 29.6863 39.7481 28.9997 39.0619C28.3132 38.3757 27.9266 37.4454 27.9246 36.4748ZM17.8503 30.9795H18.6094C18.4192 31.5147 18.0682 31.978 17.6044 32.3059C17.1407 32.6337 16.5868 32.8102 16.0189 32.811H15.2598C15.4499 32.2758 15.801 31.8125 16.2647 31.4846C16.7285 31.1567 17.2823 30.9803 17.8503 30.9795ZM12.356 32.811C11.788 32.8103 11.2341 32.6339 10.7703 32.306C10.3065 31.9781 9.95553 31.5148 9.76549 30.9795H10.5246C11.0933 30.9791 11.6481 31.155 12.1127 31.483C12.5773 31.811 12.9289 32.2749 13.1189 32.811H12.356Z" fill="#42A5F5"/>
<path d="M5.83648 43.8042C5.71572 43.8167 5.59867 43.8531 5.49213 43.9113C5.38559 43.9695 5.29169 44.0483 5.2159 44.1432C5.14011 44.238 5.08394 44.347 5.05067 44.4637C5.0174 44.5805 5.00769 44.7027 5.0221 44.8232C5.03651 44.9438 5.07476 45.0602 5.13462 45.1658C5.19448 45.2715 5.27475 45.3641 5.37076 45.4384C5.46677 45.5127 5.57661 45.5672 5.69386 45.5986C5.81112 45.63 5.93346 45.6378 6.05376 45.6215C10.2498 45.2524 14.4737 45.347 18.649 45.9037C18.6882 45.909 18.7279 45.9115 18.7675 45.9112C19.0013 45.9128 19.2268 45.8249 19.3978 45.6655C19.5689 45.5061 19.6724 45.2873 19.6872 45.054C19.702 44.8206 19.6269 44.5905 19.4774 44.4107C19.3279 44.231 19.1153 44.1153 18.8832 44.0873C14.5589 43.5004 10.1821 43.4054 5.83648 43.8042Z" fill="#42A5F5"/>
<path d="M5.80161 47.4728C5.68284 47.4913 5.56889 47.5331 5.46625 47.5956C5.36361 47.6582 5.2743 47.7404 5.20341 47.8375C5.13253 47.9345 5.08147 48.0446 5.05313 48.1615C5.0248 48.2783 5.01975 48.3995 5.03828 48.5183C5.05681 48.6371 5.09855 48.751 5.16112 48.8537C5.22369 48.9563 5.30587 49.0456 5.40295 49.1165C5.59903 49.2597 5.84394 49.3191 6.08381 49.2817C6.25689 49.26 23.3126 46.7203 37.4806 56.4606C37.5789 56.5384 37.6921 56.5951 37.8133 56.6273C37.9344 56.6595 38.0609 56.6665 38.1848 56.6478C38.3087 56.6291 38.4275 56.5851 38.5338 56.5187C38.64 56.4522 38.7315 56.3646 38.8025 56.2613C38.8735 56.158 38.9226 56.0412 38.9466 55.9182C38.9706 55.7952 38.9691 55.6685 38.9422 55.5461C38.9153 55.4237 38.8635 55.3081 38.79 55.2065C38.7166 55.105 38.6231 55.0196 38.5153 54.9556C23.7321 44.7882 6.52591 47.3609 5.80161 47.4728Z" fill="#42A5F5"/>
<path d="M31.0567 54.8745C19.0466 49.3303 6.34789 51.0601 5.81736 51.141C5.58114 51.1801 5.3696 51.3102 5.22804 51.5033C5.08649 51.6964 5.02615 51.9373 5.05996 52.1743C5.09378 52.4113 5.21904 52.6257 5.40894 52.7716C5.59885 52.9174 5.8383 52.9831 6.07604 52.9546C6.20115 52.9358 18.7813 51.2304 30.2901 56.5422C30.5106 56.6439 30.7625 56.6538 30.9903 56.5697C31.2181 56.4856 31.4032 56.3145 31.5049 56.094C31.6066 55.8735 31.6165 55.6216 31.5324 55.3937C31.4483 55.1659 31.2772 54.9808 31.0567 54.8792V54.8745Z" fill="#42A5F5"/>
<path d="M20.726 54.7997C15.7788 54.2705 10.7894 54.2705 5.84221 54.7997C5.72192 54.8119 5.60524 54.8478 5.49891 54.9054C5.39259 54.963 5.29873 55.0411 5.22275 55.1351C5.14678 55.2292 5.0902 55.3374 5.05628 55.4535C5.02236 55.5695 5.01178 55.6912 5.02513 55.8113C5.03849 55.9315 5.07554 56.0478 5.13412 56.1536C5.1927 56.2594 5.27166 56.3525 5.36644 56.4276C5.46121 56.5027 5.56993 56.5582 5.68631 56.5911C5.80268 56.6239 5.92441 56.6333 6.04445 56.6189C6.12629 56.6113 14.2516 55.729 20.4664 56.6189C20.5097 56.6248 20.5534 56.6279 20.5971 56.6283C20.8286 56.6277 21.0513 56.5396 21.2204 56.3817C21.3896 56.2237 21.4927 56.0076 21.509 55.7767C21.5253 55.5458 21.4536 55.3173 21.3084 55.1371C21.1631 54.9569 20.9551 54.8384 20.726 54.8053V54.7997Z" fill="#42A5F5"/>
<path d="M59.0608 54.7903H43.8318C43.4367 54.4272 43.0238 54.0801 42.609 53.7339C48.0181 52.8037 53.5211 52.5428 58.994 52.9569C59.2349 52.9715 59.4718 52.8905 59.6533 52.7314C59.8348 52.5723 59.9462 52.3481 59.9633 52.1073C59.9804 51.8666 59.9018 51.6289 59.7446 51.4457C59.5875 51.2626 59.3644 51.1489 59.1238 51.1293C52.9589 50.6521 46.7577 51.0259 40.6948 52.2402C40.0156 51.7441 39.3161 51.2688 38.5962 50.8142C45.3007 49.4156 52.16 48.9046 58.9978 49.2941C59.1197 49.3055 59.2426 49.2924 59.3593 49.2555C59.4761 49.2187 59.5842 49.1588 59.6774 49.0794C59.7706 49 59.8469 48.9028 59.9019 48.7934C59.9569 48.684 59.9894 48.5647 59.9975 48.4426C60.0056 48.3205 59.9892 48.1979 59.9491 48.0822C59.9091 47.9666 59.8463 47.8601 59.7644 47.7691C59.6825 47.6781 59.5832 47.6044 59.4724 47.5524C59.3616 47.5004 59.2415 47.4712 59.1191 47.4664C51.4454 47.035 43.7493 47.7024 36.2643 49.4484C35.054 48.7955 33.7948 48.1948 32.4867 47.6461C37.5276 46.4355 46.2201 45.1063 59.0222 45.6322C59.256 45.6283 59.4793 45.5352 59.6467 45.372C59.814 45.2088 59.9126 44.9878 59.9224 44.7543C59.9321 44.5207 59.8522 44.2923 59.699 44.1157C59.5459 43.9392 59.331 43.8278 59.0984 43.8045C43.6615 43.1639 34.0444 45.2032 29.5434 46.538C27.2745 45.7676 24.9554 45.1534 22.6024 44.7C22.4829 44.6735 22.3593 44.6713 22.2389 44.6934C22.1185 44.7155 22.0038 44.7616 21.9015 44.8288C21.7992 44.896 21.7114 44.983 21.6432 45.0847C21.5751 45.1864 21.5281 45.3007 21.5049 45.4209C21.4817 45.5411 21.4828 45.6647 21.5082 45.7845C21.5336 45.9042 21.5827 46.0177 21.6526 46.1181C21.7226 46.2186 21.812 46.304 21.9155 46.3693C22.019 46.4346 22.1346 46.4786 22.2553 46.4985C30.6713 48.1211 37.6057 51.4453 42.8658 56.3752C42.9105 56.4113 42.9587 56.4428 43.0097 56.4693C43.0532 56.5023 43.0995 56.5316 43.148 56.5568C43.2573 56.6017 43.3741 56.6253 43.4922 56.6264H59.0608C59.3038 56.6264 59.5368 56.5299 59.7086 56.3581C59.8805 56.1862 59.977 55.9532 59.977 55.7102C59.977 55.4672 59.8805 55.2342 59.7086 55.0624C59.5368 54.8905 59.3038 54.794 59.0608 54.794V54.7903Z" fill="#42A5F5"/>
<path d="M50.8182 30.0645C50.0938 30.0647 49.3857 30.2797 48.7835 30.6823C48.1812 31.0849 47.7119 31.657 47.4348 32.3263C47.1577 32.9956 47.0853 33.7321 47.2267 34.4425C47.3682 35.153 47.7171 35.8056 48.2294 36.3177C48.7417 36.8299 49.3944 37.1787 50.1049 37.3199C50.8154 37.4612 51.5518 37.3886 52.221 37.1113C52.8903 36.8341 53.4623 36.3646 53.8647 35.7623C54.2672 35.1599 54.482 34.4518 54.482 33.7274C54.4805 32.7562 54.094 31.8253 53.4072 31.1387C52.7204 30.452 51.7893 30.0658 50.8182 30.0645ZM50.8182 35.5588C50.456 35.5586 50.102 35.4511 49.8009 35.2497C49.4999 35.0483 49.2653 34.7622 49.1268 34.4276C48.9884 34.0929 48.9522 33.7247 49.023 33.3695C49.0938 33.0143 49.2683 32.6881 49.5244 32.432C49.7806 32.176 50.1069 32.0017 50.4622 31.9311C50.8174 31.8605 51.1856 31.8968 51.5202 32.0354C51.8548 32.1741 52.1408 32.4088 52.342 32.71C52.5432 33.0111 52.6505 33.3652 52.6505 33.7274C52.65 34.2131 52.4568 34.6788 52.1132 35.0222C51.7697 35.3656 51.3039 35.5586 50.8182 35.5588Z" fill="#42A5F5"/>
<path d="M31.5881 37.391C32.0941 37.391 32.5042 36.9808 32.5042 36.4748C32.5042 35.9688 32.0941 35.5586 31.5881 35.5586C31.0821 35.5586 30.6719 35.9688 30.6719 36.4748C30.6719 36.9808 31.0821 37.391 31.5881 37.391Z" fill="#42A5F5"/>
<path d="M42.9424 24.7978C42.8522 24.8776 42.7786 24.9744 42.7257 25.0827C42.6729 25.1909 42.6419 25.3085 42.6345 25.4287C42.6196 25.6716 42.7018 25.9104 42.863 26.0926C43.0241 26.2748 43.2511 26.3856 43.4939 26.4005C43.7367 26.4154 43.9755 26.3332 44.1577 26.1721C45.1498 25.2968 46.3045 24.6256 47.556 24.1967C48.8075 23.7678 50.1313 23.5898 51.4516 23.6727C52.772 23.7556 54.063 24.0978 55.2511 24.6798C56.4391 25.2619 57.5008 26.0723 58.3756 27.0648C58.4552 27.155 58.5518 27.2287 58.6599 27.2816C58.768 27.3345 58.8854 27.3656 59.0055 27.3731C59.1256 27.3806 59.246 27.3644 59.3598 27.3253C59.4737 27.2863 59.5787 27.2253 59.6689 27.1457C59.7592 27.066 59.8329 26.9694 59.8858 26.8613C59.9387 26.7533 59.9697 26.6358 59.9773 26.5157C59.9848 26.3956 59.9686 26.2752 59.9295 26.1614C59.8905 26.0475 59.8295 25.9425 59.7498 25.8523C57.6613 23.4842 54.7177 22.0428 51.5664 21.845C48.4151 21.6473 45.3144 22.7094 42.9462 24.7978H42.9424Z" fill="#42A5F5"/>
</svg>
