<svg width="65" height="65" viewBox="0 0 65 65" fill="none" xmlns="http://www.w3.org/2000/svg">
<path d="M6.91842 60.1054H49.1659C49.6731 60.1054 50.0843 59.6942 50.0843 59.1869V52.758C50.0843 52.7424 50.076 52.7304 50.0751 52.7148C50.0714 52.6169 50.0521 52.5202 50.0182 52.4283C50.0182 52.4173 50.0127 52.4053 50.0081 52.3952C49.9728 52.3119 49.9255 52.2342 49.8676 52.1647L40.316 40.8754C39.792 40.2563 39.022 39.8995 38.2109 39.9001H32.0658C32.9008 38.281 33.8818 36.7415 34.9964 35.3006C35.1801 35.3282 35.3822 35.3465 35.5925 35.3585L39.798 35.7672C40.1772 36.4531 40.8476 36.9296 41.6201 37.0621C41.6908 37.0732 41.7606 37.0732 41.8314 37.0787C41.8543 37.0787 41.8736 37.0924 41.8975 37.0924L47.3079 37.1448H47.3795C47.9683 37.1338 48.5435 36.9658 49.0456 36.658L50.2689 36.7903C50.3021 36.794 50.3356 36.7958 50.369 36.7958H50.4177H50.4847C54.6176 36.4845 58.6422 32.2524 60.2714 26.5095C61.8254 21.0237 60.839 15.6611 57.8321 13.0206C57.582 12.0313 56.8986 11.2077 55.9723 10.7796C55.9668 10.7796 55.964 10.7732 55.9585 10.7705L52.2288 9.10535C51.5275 8.67925 50.6644 8.61538 49.908 8.9336L44.4075 6.1866C44.3819 6.17476 44.3555 6.16463 44.3285 6.15629C43.7712 5.80795 43.1681 5.53872 42.5367 5.35635C39.798 4.58028 36.7966 5.45554 34.0872 7.82231C32.8016 8.96807 31.6941 10.2991 30.8011 11.7715L14.5873 5.07256H14.5817C14.5329 5.05754 14.4828 5.04709 14.432 5.04133C14.3662 5.01966 14.2981 5.00579 14.2291 5H6.91842C6.41119 5 6 5.41119 6 5.91842V8.85187C6.00022 8.97203 6.02425 9.09096 6.07072 9.20178C6.10151 9.26213 6.13943 9.31856 6.18368 9.36986C6.20853 9.41393 6.23678 9.456 6.26818 9.49568C6.35345 9.58085 6.45453 9.64855 6.56575 9.69498L28.0568 18.5816C27.1965 22.0499 27.3113 25.6885 28.3884 29.0957C27.0722 32.5749 26.1935 36.2042 25.7727 39.9001H17.8743C17.0636 39.8998 16.2939 40.2566 15.7702 40.8754L6.21675 52.1647C6.15881 52.2342 6.11146 52.3119 6.07623 52.3952C6.07164 52.4053 6.07072 52.4173 6.06704 52.4274C6.03235 52.5194 6.01281 52.6165 6.00918 52.7148C6.00918 52.7304 6 52.7424 6 52.758V59.1869C6 59.4305 6.09676 59.6641 6.269 59.8364C6.44124 60.0086 6.67484 60.1054 6.91842 60.1054ZM48.2475 58.2685H7.83685V53.6764H48.2475V58.2685ZM21.8722 46.329C22.9773 45.8856 24.1462 45.6217 25.3346 45.5474C25.3163 46.0581 25.3135 46.5825 25.3062 47.1033C24.1273 47.0315 22.9678 46.77 21.8722 46.329ZM30.2069 29.4604C30.8032 27.9442 31.5552 26.4939 32.4506 25.1327C32.6996 24.7462 32.9758 24.3779 33.2772 24.0306C33.3268 23.993 35.1471 22.687 42.0747 25.2154C41.3143 26.6273 40.2515 27.8538 38.9622 28.8074C37.9692 29.4563 37.0486 30.2097 36.2161 31.0547C35.3895 31.9263 34.6125 32.8227 33.9017 33.7182C32.2403 35.7745 30.8526 38.0377 29.7734 40.4511L29.766 40.4677C28.8065 42.6092 28.2388 44.9055 28.0899 47.2474C27.766 47.2474 27.4495 47.2429 27.1403 47.2337C27.2266 40.3235 28.2506 34.3418 30.2069 29.4613V29.4604ZM43.6434 21.4554C43.4359 22.1722 43.1803 22.8743 42.8784 23.5567C36.409 21.1688 33.6115 21.7585 32.5332 22.3242C32.589 21.0216 32.7961 19.7299 33.1504 18.4751C34.6282 13.2658 38.2881 9.54895 41.1251 10.3461C43.9667 11.1534 45.1248 16.2443 43.6434 21.4554ZM47.554 9.80978L51.912 11.9883C52.139 13.1214 52.2009 14.2815 52.0956 15.4324C51.7374 18.8836 50.8444 22.2582 49.4487 25.4349C48.3592 28.3146 46.7959 30.992 44.8236 33.3563C44.5197 33.6986 44.1906 34.0175 43.839 34.3105L40.7164 34.0084C44.0227 32.0329 46.8882 28.0616 48.3081 23.0589C49.7105 18.0903 49.3064 13.2263 47.554 9.80978ZM30.1279 45.4887C31.528 45.5363 32.91 45.821 34.2149 46.3309C32.8397 46.8572 31.3849 47.1451 29.913 47.1822C29.9538 46.6142 30.0256 46.0489 30.1279 45.4887ZM47.3648 35.308H47.3382L45.506 35.2896C45.7879 35.0223 46.0239 34.7716 46.1966 34.5778C48.2919 32.052 49.9626 29.2023 51.1432 26.1403C52.6138 22.7888 53.5524 19.2284 53.9251 15.5876C54.0395 14.322 53.9833 13.0469 53.758 11.7963L55.2164 12.4457C55.2223 12.4452 55.2281 12.4452 55.2339 12.4457C55.2394 12.4457 55.2431 12.453 55.2486 12.4548C55.7252 12.7123 56.0546 13.1772 56.1395 13.7122C56.1468 13.7452 56.156 13.7764 56.1661 13.804C56.3649 14.8771 56.4107 15.973 56.302 17.0589C56.0553 19.8555 55.3977 22.6005 54.3504 25.2053C53.4386 27.7315 52.1806 30.1189 50.6124 32.2992C50.5123 32.4351 50.4039 32.5876 50.2882 32.7483C49.5571 33.7678 48.4569 35.308 47.3648 35.308ZM58.5044 26.0016C57.192 30.6304 54.096 34.2288 50.9963 34.8699C51.2884 34.5025 51.5473 34.1351 51.7825 33.8137L52.0892 33.3894C53.7574 31.073 55.0967 28.5367 56.0687 25.8528C57.1776 23.0818 57.8727 20.1627 58.1315 17.1893C58.1444 17.0056 58.1591 16.7769 58.1719 16.5225C59.378 19.5482 59.4955 22.8989 58.5044 26.0016ZM35.2977 9.20546C37.523 7.26116 39.9137 6.52275 42.0371 7.12339C46.5649 8.40919 48.5836 15.3304 46.5373 22.5575C44.7923 28.7109 40.5676 33.2525 36.454 33.5225C36.8067 33.1166 37.171 32.7143 37.5469 32.3157C38.2905 31.5654 39.1115 30.8961 39.9963 30.3191C41.811 28.9697 43.2551 27.1834 44.1945 25.1263C44.2055 25.1024 44.2147 25.0776 44.2257 25.0538C44.7129 24.0595 45.1094 23.0233 45.4104 21.9578C47.2179 15.5784 45.5565 9.70324 41.6256 8.58093C37.6948 7.45862 33.1899 11.5989 31.3825 17.9764C30.7775 20.0534 30.5596 22.2239 30.7396 24.3796C30.3144 25.0412 29.9235 25.7242 29.5686 26.4259C29.1086 23.582 29.2922 20.6711 30.1058 17.9075C30.9734 14.572 32.7745 11.5532 35.2977 9.20546ZM14.0463 6.83685L29.8983 13.3889C29.3534 14.4858 28.8982 15.625 28.5372 16.7953L7.83685 8.23377V6.83685H14.0463ZM17.1689 42.062C17.3442 41.8549 17.6021 41.7359 17.8734 41.7369H25.5881C25.5269 42.3798 25.4767 43.0316 25.4375 43.6922C23.0202 43.9062 19.7763 44.5289 19.7763 46.329C19.7763 48.2311 23.4335 48.8161 25.8223 48.9925C25.9417 49.0507 26.0725 49.082 26.2053 49.0843C26.2887 49.0796 26.371 49.0629 26.4496 49.0347C26.941 49.065 27.4599 49.0843 28.0421 49.0843C28.3269 49.0843 28.6024 49.076 28.8779 49.0678C28.9052 49.0747 28.9328 49.0802 28.9606 49.0843C28.9971 49.0793 29.0333 49.072 29.0689 49.0623C31.309 48.9925 36.308 48.5727 36.308 46.329C36.308 44.5289 33.088 43.897 30.554 43.6785C30.7456 43.0202 30.9706 42.3722 31.2282 41.7369H38.2082C38.4785 41.7367 38.7352 41.8557 38.9098 42.062L47.1858 51.8396H8.89854L17.1689 42.062Z" fill="#42A5F5"/>
<path d="M20.6928 34.3894C22.2145 34.3894 23.448 33.1559 23.448 31.6342C23.448 30.1125 22.2145 28.8789 20.6928 28.8789C19.1711 28.8789 17.9375 30.1125 17.9375 31.6342C17.9375 33.1559 19.1711 34.3894 20.6928 34.3894ZM20.6928 30.7158C21.2 30.7158 21.6112 31.1269 21.6112 31.6342C21.6112 32.1414 21.2 32.5526 20.6928 32.5526C20.1855 32.5526 19.7743 32.1414 19.7743 31.6342C19.7743 31.1269 20.1855 30.7158 20.6928 30.7158Z" fill="#42A5F5"/>
<path d="M15.184 27.9605C15.6913 27.9605 16.1025 27.5493 16.1025 27.0421C16.1025 26.5348 15.6913 26.1237 15.184 26.1237C14.6768 26.1237 14.2656 26.5348 14.2656 27.0421C14.2656 27.5493 14.6768 27.9605 15.184 27.9605Z" fill="#42A5F5"/>
<path d="M17.9419 23.3686C18.4491 23.3686 18.8603 22.9574 18.8603 22.4502C18.8603 21.9429 18.4491 21.5317 17.9419 21.5317C17.4346 21.5317 17.0234 21.9429 17.0234 22.4502C17.0234 22.9574 17.4346 23.3686 17.9419 23.3686Z" fill="#42A5F5"/>
</svg>
