<svg width="65" height="65" viewBox="0 0 65 65" fill="none" xmlns="http://www.w3.org/2000/svg">
<path d="M20.5832 36.9995H13.25V38.8328H20.5832V36.9995Z" fill="#42A5F5"/>
<path d="M59.9041 47.5893L57.1542 42.0894C56.9989 41.7788 56.6814 41.5827 56.3342 41.5827H50.8343V38.8328C50.8343 38.3266 50.4239 37.9161 49.9176 37.9161H31.5846C31.0784 37.9161 30.668 38.3266 30.668 38.8328V55.3325C30.668 55.8387 31.0784 56.2492 31.5846 56.2492H35.3814C35.8778 58.2023 37.8636 59.3832 39.8166 58.8868C41.1128 58.5574 42.1248 57.5453 42.4543 56.2492H49.1312C49.6275 58.2023 51.6133 59.3832 53.5664 58.8868C54.8625 58.5574 55.8746 57.5453 56.204 56.2492H59.0842C59.5904 56.2492 60.0008 55.8387 60.0008 55.3325V47.9993C60.0008 47.857 59.9677 47.7166 59.9041 47.5893ZM38.9178 57.1658C37.9053 57.1658 37.0845 56.3451 37.0845 55.3325C37.0845 54.32 37.9053 53.4992 38.9178 53.4992C39.9304 53.4992 40.7511 54.32 40.7511 55.3325C40.7501 56.3446 39.9299 57.1648 38.9178 57.1658ZM49.001 54.4159H42.4543C42.0387 52.8012 40.5851 51.671 38.9178 51.6659C37.2506 51.671 35.797 52.8012 35.3814 54.4159H32.5013V39.7494H49.001V54.4159ZM54.5009 43.416H55.7676L57.601 47.0827H54.5009V43.416ZM52.6676 57.1658C51.655 57.1658 50.8343 56.3451 50.8343 55.3325C50.8343 54.32 51.655 53.4992 52.6676 53.4992C53.6802 53.4992 54.5009 54.32 54.5009 55.3325C54.4999 56.3446 53.6797 57.1648 52.6676 57.1658ZM58.1675 54.4159H56.204C55.7885 52.8012 54.3349 51.671 52.6676 51.6659C52.0219 51.6696 51.3891 51.8457 50.8343 52.176V43.416H52.6676V47.9993C52.6676 48.5055 53.078 48.916 53.5843 48.916H58.1675V54.4159Z" fill="#42A5F5"/>
<path d="M27.0004 16.8331H25.168V18.6664H27.0004V16.8331Z" fill="#42A5F5"/>
<path d="M30.6683 16.833H28.8359V18.6663H30.6683V16.833Z" fill="#42A5F5"/>
<path d="M34.3324 16.8331H32.5V18.6664H34.3324V16.8331Z" fill="#42A5F5"/>
<path d="M38.0004 16.833H36.168V18.6663H38.0004V16.833Z" fill="#42A5F5"/>
<path d="M55.4969 19.3109L52.657 16.4706C50.5456 14.3618 47.6857 13.1741 44.7016 13.1665H37.5923L33.2784 6.26436C33.1108 5.99635 32.8171 5.83342 32.501 5.8333H29.751C29.2446 5.83353 28.8342 6.24431 28.8344 6.75087C28.8344 6.82558 28.8436 6.89994 28.8617 6.97247L30.4102 13.1665H23.0999L20.546 4.65346C20.4297 4.2656 20.0727 4 19.6679 4H15.0846C14.5784 4 14.168 4.41043 14.168 4.91665V14.0832H14.1766C14.1736 14.3252 14.2671 14.5584 14.4365 14.7312L20.1656 20.4603C22.5293 22.8395 25.7465 24.1739 29.1002 24.1663H29.3499L27.0722 29.2943C26.8668 29.7569 27.0752 30.2985 27.5378 30.5041C27.5647 30.516 27.5921 30.5266 27.6201 30.5359L30.3682 31.4526C30.7532 31.5808 31.1766 31.4408 31.4093 31.1084L36.2657 24.1663H53.4833C55.0535 24.1692 56.3287 22.8987 56.3316 21.3285C56.333 20.5717 56.0326 19.8456 55.4969 19.3109ZM31.9929 7.66661L35.4304 13.1665H32.3001L30.925 7.66661H31.9929ZM16.0013 5.8333H18.9858L21.1857 13.1665H16.0013V5.8333ZM30.2993 29.497L29.1575 29.1161L32.1702 22.333H35.3109L30.2993 29.497ZM54.4236 21.7047C54.2709 22.089 53.8967 22.339 53.4833 22.333H37.5482L37.8218 21.9418C38.1119 21.5269 38.0108 20.9553 37.5959 20.6652C37.4419 20.5576 37.2586 20.4997 37.0707 20.4997H31.5744C31.212 20.4997 30.8836 20.7132 30.7366 21.0444L30.1642 22.333H29.1002C26.233 22.3393 23.4825 21.1982 21.4618 19.1642L17.2974 14.9998H44.7016C46.7002 15.0084 48.6445 15.6503 50.2554 16.8331H43.5008V18.6664H52.2595L54.2029 20.6098C54.4965 20.8937 54.5844 21.3293 54.4236 21.7047Z" fill="#42A5F5"/>
<path d="M27.4701 56.4919C26.8929 55.8722 26.1188 55.4715 25.2795 55.3582L28.7798 45.5574C28.9498 45.08 28.7006 44.5552 28.2231 44.3851C28.2176 44.3832 28.212 44.3813 28.2064 44.3794L25.9711 43.6343L24.235 34.0854C24.1558 33.6494 23.7761 33.3326 23.3331 33.3326H19.6665V30.5827C19.6665 30.0764 19.2561 29.666 18.7499 29.666H15.0833C14.577 29.666 14.1666 30.0764 14.1666 30.5827V33.3326H10.5C10.0569 33.3326 9.67731 33.6496 9.59814 34.0854L7.862 43.6343L5.62674 44.3794C5.14608 44.5402 4.88689 45.0601 5.04765 45.5407C5.04948 45.5463 5.05143 45.5518 5.05338 45.5574L8.55361 55.3585C7.71568 55.4726 6.94294 55.8731 6.3666 56.4919C6.03488 56.9097 5.53348 57.157 5.0001 57.1656V58.9989C5.99341 58.9935 6.93928 58.5732 7.60912 57.8396C7.94083 57.4215 8.44247 57.1742 8.97607 57.1656C9.16972 57.164 9.36187 57.1998 9.54199 57.2711C9.54967 57.2745 9.5546 57.2819 9.56239 57.2851C9.84987 57.4283 10.1109 57.6193 10.3344 57.85C11.0112 58.5772 11.9581 58.9929 12.9515 58.9989C13.9446 58.9934 14.8902 58.5728 15.5596 57.8392C16.1363 57.0859 17.2144 56.9427 17.9676 57.5193C18.0877 57.6112 18.1952 57.7186 18.2872 57.8387C18.9559 58.5726 19.9011 58.9932 20.8939 58.9989C21.8868 58.9929 22.833 58.577 23.5087 57.8495C23.7303 57.6206 23.9889 57.4305 24.2736 57.2874C24.2819 57.2839 24.2871 57.2761 24.2952 57.2725C24.4757 57.2003 24.6686 57.1641 24.863 57.1657C25.3954 57.1743 25.8957 57.4215 26.226 57.8393C26.895 58.5728 27.8403 58.9932 28.833 58.999V57.1657C28.3007 57.157 27.8003 56.9097 27.4701 56.4919ZM15.9999 31.4993H17.8332V33.3326H15.9999V31.4993ZM15.9999 55.4518C15.3594 55.6499 14.78 56.0078 14.3161 56.4919C13.738 57.246 12.6579 57.3885 11.9039 56.8104C11.7842 56.7187 11.6772 56.6116 11.5854 56.4919C11.3009 56.214 10.9855 55.9694 10.6453 55.7633L7.09476 45.8225L15.9999 42.8543V55.4518ZM16.6266 40.7128L9.84552 42.9732L11.265 35.1659H22.5682L23.9876 42.9732L17.2066 40.7128C17.0183 40.6501 16.8148 40.6501 16.6266 40.7128ZM23.186 55.7693C22.8498 55.9745 22.5379 56.2171 22.2563 56.4924C21.6807 57.2448 20.6041 57.3882 19.8517 56.8126C19.7313 56.7205 19.6236 56.6128 19.5314 56.4924C19.0649 56.0034 18.4799 55.6431 17.8333 55.4466V42.8543L26.7385 45.8225L23.186 55.7693Z" fill="#42A5F5"/>
<path d="M41.6644 16.833H39.832V18.6663H41.6644V16.833Z" fill="#42A5F5"/>
</svg>
