<svg width="65" height="65" viewBox="0 0 65 65" fill="none" xmlns="http://www.w3.org/2000/svg">
<g clip-path="url(#clip0_37_794)">
<path d="M57.4919 39.3399L59.0655 37.7667C60.0558 36.776 60.0558 35.1643 59.0655 34.1735C58.5855 33.6939 57.9476 33.4296 57.2687 33.4296C56.7593 33.4296 56.2725 33.5785 55.8588 33.8559L55.5273 32.7431L57.2305 31.0394C58.2212 30.0487 58.2212 28.437 57.2305 27.4467C56.3187 26.5344 54.8811 26.4643 53.8853 27.2318L51.867 20.4558C52.6731 19.6795 53.4452 18.9242 54.1728 18.1966C56.2696 16.0994 57.9745 13.88 58.9736 11.9464C60.6617 8.67844 59.9551 6.93157 59.0651 6.04156C58.1755 5.15155 56.4286 4.44534 53.1602 6.13346C51.2271 7.13215 49.0073 8.83705 46.9105 10.9343C46.1828 11.6619 45.4271 12.4336 44.6512 13.2397L37.8748 11.2213C38.6423 10.226 38.5722 8.78838 37.6604 7.87613C36.6697 6.88583 35.0579 6.88541 34.0676 7.87613L32.364 9.57977L31.2508 9.24828C31.5281 8.83411 31.6771 8.34736 31.6771 7.83794C31.6771 7.15942 31.4127 6.52118 30.9331 6.04156C29.9428 5.05084 28.3306 5.05084 27.3403 6.04156L25.7672 7.61471L17.7487 5.22624C17.463 5.14148 17.1541 5.21953 16.9439 5.43018L14.8798 7.49428C14.5332 7.84046 14.5789 8.43254 14.9742 8.72166L35.2056 23.5304C30.644 28.6736 26.2498 33.8232 23.1475 37.5024L17.1965 35.2134C16.8973 35.0984 16.5587 35.1701 16.3321 35.3967L13.8857 37.8431C13.5693 38.1599 13.5693 38.6731 13.8857 38.9895L26.1172 51.2209C26.4294 51.5335 26.9514 51.5335 27.264 51.2209L29.7099 48.775C29.9365 48.5484 30.0087 48.2093 29.8933 47.9101L27.6047 41.9595C31.2839 38.8573 36.433 34.4631 41.5767 29.901L43.1838 32.0973C43.4692 32.4871 44.0478 32.5375 44.3978 32.2051C44.6894 31.9282 44.7297 31.4637 44.4926 31.1397L42.7936 28.8184C45.4833 26.4178 48.1395 23.9957 50.5494 21.7134L58.1885 47.3583L57.1348 48.4116L46.6356 34.0674C46.3712 33.7061 45.8639 33.6276 45.5026 33.892C45.1409 34.1568 45.0625 34.6641 45.3272 35.0254L56.3854 50.1328C56.6745 50.5281 57.2666 50.5739 57.6128 50.2273L59.6769 48.1632C59.8875 47.9529 59.9656 47.6437 59.8808 47.3583L57.4919 39.3399ZM35.2145 9.02294C35.5686 8.66878 36.1599 8.66878 36.514 9.02294C36.8724 9.38129 36.8724 9.96414 36.514 10.3225L36.1338 10.7027L34.131 10.106L35.2145 9.02294ZM28.4872 7.18837C28.8451 6.83002 29.4284 6.83002 29.7867 7.18837C30.1451 7.54673 30.1451 8.12958 29.7867 8.48793L29.5366 8.7376L27.5342 8.14133L28.4872 7.18837ZM16.6951 7.9718L17.7487 6.91856L43.3936 14.5573C41.1113 16.9676 38.6893 19.6237 36.2883 22.3135L16.6951 7.9718ZM17.1063 36.9162L22.0431 38.8149C20.8048 40.2895 19.8552 41.4304 19.295 42.1056L15.6057 38.4163L17.1063 36.9162ZM20.4469 43.2574C23.2734 39.8472 38.2139 21.9241 48.0573 12.0807C50.0102 10.1274 52.1418 8.48499 53.9046 7.57442C55.2281 6.89045 56.9989 6.26857 57.9187 7.18837C58.8385 8.10818 58.2162 9.87896 57.5326 11.2024C56.6221 12.9652 54.9793 15.0965 53.026 17.0498C43.1834 26.8923 25.2599 41.8332 21.8496 44.6602L20.4469 43.2574ZM28.1909 48.0008L26.6908 49.5009L23.0015 45.8116C23.6762 45.2519 24.8176 44.3023 26.2921 43.064L28.1909 48.0008ZM56.6191 35.3204C56.9775 34.962 57.5603 34.962 57.9187 35.3204C58.277 35.6787 58.277 36.2616 57.9187 36.6199L56.9657 37.5729L56.369 35.5704L56.6191 35.3204ZM54.7846 28.5931C55.1425 28.2347 55.7258 28.2351 56.0841 28.5931C56.4383 28.9472 56.4383 29.5384 56.0841 29.8926L55.0007 30.9761L54.404 28.9732L54.7846 28.5931Z" fill="#42A5F5"/>
<path d="M53.6694 51.8042L46.7503 58.7233C46.4553 59.0187 46.4356 59.5063 46.7071 59.8235C47.0105 60.1776 47.5673 60.1999 47.8971 59.8701L54.8162 52.951C55.133 52.6342 55.133 52.121 54.8162 51.8042C54.4998 51.4878 53.9862 51.4878 53.6694 51.8042Z" fill="#42A5F5"/>
<path d="M51.358 49.4911C51.6748 49.1747 51.6748 48.6611 51.358 48.3447C51.0416 48.0279 50.528 48.0279 50.2116 48.3447L45.887 52.6689C45.592 52.9643 45.5723 53.4519 45.8438 53.7691C46.1472 54.1233 46.704 54.1455 47.0339 53.8157L51.358 49.4911Z" fill="#42A5F5"/>
<path d="M48.764 45.1671C49.0808 44.8503 49.0808 44.3367 48.764 44.0203C48.4472 43.7035 47.934 43.7035 47.6172 44.0203L44.5901 47.0474C44.2951 47.3424 44.2754 47.8304 44.5473 48.1477C44.8503 48.5018 45.4071 48.5241 45.7369 48.1943L48.764 45.1671Z" fill="#42A5F5"/>
<path d="M13.3035 10.7219C12.9867 10.4055 12.4731 10.4055 12.1567 10.7219L5.23761 17.6413C4.9208 17.9577 4.9208 18.4713 5.23761 18.7877C5.5498 19.0999 6.07181 19.0999 6.38442 18.7877L13.3035 11.8687C13.6199 11.5519 13.6199 11.0387 13.3035 10.7219Z" fill="#42A5F5"/>
<path d="M16.7605 14.1815C16.4437 13.8646 15.9305 13.8646 15.6141 14.1815L11.2895 18.506C10.9941 18.801 10.9748 19.2886 11.2463 19.6058C11.5497 19.96 12.1061 19.9822 12.4359 19.6524L16.7605 15.3283C17.0773 15.0115 17.0773 14.4978 16.7605 14.1815Z" fill="#42A5F5"/>
<path d="M16.9131 20.9498C17.2257 21.262 17.7473 21.262 18.0599 20.9498L21.087 17.9227C21.4034 17.6059 21.4034 17.0927 21.087 16.7759C20.7702 16.4595 20.257 16.4595 19.9402 16.7759L16.9131 19.803C16.5967 20.1198 16.5967 20.633 16.9131 20.9498Z" fill="#42A5F5"/>
</g>
<defs>
<clipPath id="clip0_37_794">
<rect width="55" height="55" fill="white" transform="translate(5 5)"/>
</clipPath>
</defs>
</svg>
