<svg width="65" height="65" viewBox="0 0 65 65" fill="none" xmlns="http://www.w3.org/2000/svg">
<path d="M32.5 42.5156C34.3958 42.5156 35.9375 40.9739 35.9375 39.0781C35.9375 37.5089 33.6988 33.4415 33.2494 32.6414C32.9452 32.1 32.0548 32.1 31.7506 32.6414C31.3012 33.4415 29.0625 37.5089 29.0625 39.0781C29.0625 40.9739 30.6042 42.5156 32.5 42.5156ZM32.5 34.8775C33.4204 36.6624 34.2188 38.4938 34.2188 39.0781C34.2188 40.026 33.4479 40.7969 32.5 40.7969C31.5521 40.7969 30.7812 40.026 30.7812 39.0781C30.7812 38.4938 31.5796 36.6633 32.5 34.8775Z" fill="#42A5F5"/>
<path d="M60 22.75C60 22.2756 59.615 21.8906 59.1406 21.8906V14.1562C59.615 14.1562 60 13.7712 60 13.2969C60 12.8225 59.615 12.4375 59.1406 12.4375H56.5625V10.7188C56.5625 9.77086 55.7916 9 54.8438 9H51.4062C50.4584 9 49.6875 9.77086 49.6875 10.7188V12.4375H33.3594C32.885 12.4375 32.5 12.8225 32.5 13.2969C32.5 13.7712 32.885 14.1562 33.3594 14.1562V19.3125H31.6406V14.1562C32.115 14.1562 32.5 13.7712 32.5 13.2969C32.5 12.8225 32.115 12.4375 31.6406 12.4375H28.2031V10.7188C28.2031 9.77086 27.4323 9 26.4844 9H23.0469C22.099 9 21.3281 9.77086 21.3281 10.7188V12.4375H5.85938C5.385 12.4375 5 12.8225 5 13.2969C5 13.7712 5.385 14.1562 5.85938 14.1562V21.8906C5.385 21.8906 5 22.2756 5 22.75C5 23.2244 5.385 23.6094 5.85938 23.6094V37.3594C5.385 37.3594 5 37.7444 5 38.2188C5 38.6931 5.385 39.0781 5.85938 39.0781V46.8125C5.385 46.8125 5 47.1975 5 47.6719C5 48.1462 5.385 48.5312 5.85938 48.5312H19.6094V53.6875C19.135 53.6875 18.75 54.0725 18.75 54.5469C18.75 55.0212 19.135 55.4062 19.6094 55.4062H45.3906C45.865 55.4062 46.25 55.0212 46.25 54.5469C46.25 54.0725 45.865 53.6875 45.3906 53.6875V48.5312H59.1406C59.615 48.5312 60 48.1462 60 47.6719C60 47.1975 59.615 46.8125 59.1406 46.8125V39.0781C59.615 39.0781 60 38.6931 60 38.2188C60 37.7444 59.615 37.3594 59.1406 37.3594V23.6094C59.615 23.6094 60 23.2244 60 22.75ZM51.4062 10.7188H54.8438V12.4375H51.4062V10.7188ZM35.0781 14.1562H50.5469H55.7031H57.4219V21.8906H45.3906V21.0312C45.865 21.0312 46.25 20.6462 46.25 20.1719C46.25 19.6975 45.865 19.3125 45.3906 19.3125H42.8125V17.5938C42.8125 16.6459 42.0416 15.875 41.0938 15.875H37.6562C36.7084 15.875 35.9375 16.6459 35.9375 17.5938V19.3125H35.0781V14.1562ZM43.6719 44.2344H21.3281V30.4844H43.6719V44.2344ZM43.6719 46.8125H21.3281V45.9531H43.6719V46.8125ZM21.3281 28.7656V27.9062H43.6719V28.7656H21.3281ZM21.3281 26.1875V21.0312H36.7969H41.9531H43.6719V26.1875H21.3281ZM41.0938 19.3125H37.6562V17.5938H41.0938V19.3125ZM23.0469 10.7188H26.4844V12.4375H23.0469V10.7188ZM7.57812 14.1562H22.1875H27.3438H29.9219V19.3125H19.6094C19.135 19.3125 18.75 19.6975 18.75 20.1719C18.75 20.6462 19.135 21.0312 19.6094 21.0312V21.8906H7.57812V14.1562ZM7.57812 23.6094H19.6094V26.1875C19.135 26.1875 18.75 26.5725 18.75 27.0469C18.75 27.5212 19.135 27.9062 19.6094 27.9062V28.7656C19.135 28.7656 18.75 29.1506 18.75 29.625C18.75 30.0994 19.135 30.4844 19.6094 30.4844V37.3594H7.57812V23.6094ZM7.57812 46.8125V39.0781H19.6094V44.2344C19.135 44.2344 18.75 44.6194 18.75 45.0938C18.75 45.5681 19.135 45.9531 19.6094 45.9531V46.8125H7.57812ZM21.3281 53.6875V48.5312H43.6719V53.6875H21.3281ZM57.4219 46.8125H45.3906V45.9531C45.865 45.9531 46.25 45.5681 46.25 45.0938C46.25 44.6194 45.865 44.2344 45.3906 44.2344V39.0781H57.4219V46.8125ZM57.4219 37.3594H45.3906V30.4844C45.865 30.4844 46.25 30.0994 46.25 29.625C46.25 29.1506 45.865 28.7656 45.3906 28.7656V27.9062C45.865 27.9062 46.25 27.5212 46.25 27.0469C46.25 26.5725 45.865 26.1875 45.3906 26.1875V23.6094H57.4219V37.3594Z" fill="#42A5F5"/>
<path d="M31.8898 50.4992C31.7352 50.6625 31.6406 50.8859 31.6406 51.1094C31.6406 51.3328 31.7352 51.5562 31.8898 51.7195C32.0531 51.8742 32.2766 51.9687 32.5 51.9687C32.7234 51.9687 32.9469 51.8742 33.1102 51.7195C33.2648 51.5562 33.3594 51.3328 33.3594 51.1094C33.3594 50.8859 33.2648 50.6625 33.1102 50.4992C32.7836 50.1812 32.2078 50.1812 31.8898 50.4992Z" fill="#42A5F5"/>
<path d="M36.5477 50.4992C36.2297 50.1812 35.6453 50.1812 35.3273 50.4992C35.1727 50.6625 35.0781 50.8859 35.0781 51.1094C35.0781 51.3328 35.1727 51.5562 35.3273 51.7195C35.4906 51.8742 35.7141 51.9687 35.9375 51.9687C36.1609 51.9687 36.3844 51.8742 36.5477 51.7195C36.7023 51.5562 36.7969 51.3328 36.7969 51.1094C36.7969 50.8859 36.7023 50.6625 36.5477 50.4992Z" fill="#42A5F5"/>
<path d="M28.4523 50.4992C28.2977 50.6625 28.2031 50.8773 28.2031 51.1094C28.2031 51.3328 28.2977 51.5562 28.4523 51.7195C28.6156 51.8742 28.8391 51.9687 29.0625 51.9687C29.2859 51.9687 29.5094 51.8742 29.6727 51.7195C29.8273 51.5562 29.9219 51.3328 29.9219 51.1094C29.9219 50.8859 29.8273 50.6625 29.6727 50.4992C29.3547 50.1812 28.7789 50.1812 28.4523 50.4992Z" fill="#42A5F5"/>
<path d="M31.8898 22.9992C31.7352 23.1625 31.6406 23.3859 31.6406 23.6094C31.6406 23.8328 31.7352 24.0563 31.8898 24.2195C32.0531 24.3742 32.2766 24.4688 32.5 24.4688C32.7234 24.4688 32.9469 24.3742 33.1102 24.2195C33.2648 24.0563 33.3594 23.8414 33.3594 23.6094C33.3594 23.3773 33.2648 23.1625 33.1102 23.0078C32.7922 22.6813 32.2078 22.6813 31.8898 22.9992Z" fill="#42A5F5"/>
<path d="M35.3273 22.9992C35.1727 23.1625 35.0781 23.3859 35.0781 23.6094C35.0781 23.8328 35.1727 24.0562 35.3273 24.2195C35.4906 24.3742 35.7141 24.4687 35.9375 24.4687C36.1609 24.4687 36.3844 24.3742 36.5477 24.2195C36.7023 24.0562 36.7969 23.8414 36.7969 23.6094C36.7969 23.3773 36.7023 23.1625 36.5477 22.9992C36.2297 22.6812 35.6453 22.6812 35.3273 22.9992Z" fill="#42A5F5"/>
<path d="M28.4523 22.9992C28.2977 23.1625 28.2031 23.3773 28.2031 23.6094C28.2031 23.8414 28.2977 24.0562 28.4523 24.2195C28.6156 24.3742 28.8391 24.4687 29.0625 24.4687C29.2859 24.4687 29.5094 24.3742 29.6727 24.2195C29.8273 24.0562 29.9219 23.8328 29.9219 23.6094C29.9219 23.3859 29.8273 23.1625 29.6727 22.9992C29.3547 22.6812 28.7703 22.6812 28.4523 22.9992Z" fill="#42A5F5"/>
<path d="M10.1562 27.9062C9.68188 27.9062 9.29688 28.2913 9.29688 28.7656V33.0625C9.29688 33.5369 9.68188 33.9219 10.1562 33.9219C10.6306 33.9219 11.0156 33.5369 11.0156 33.0625V28.7656C11.0156 28.2913 10.6306 27.9062 10.1562 27.9062Z" fill="#42A5F5"/>
<path d="M9.54609 25.5773C9.39141 25.7406 9.29688 25.9555 9.29688 26.1875C9.29688 26.4195 9.39141 26.6344 9.54609 26.7977C9.70937 26.9523 9.93281 27.0469 10.1562 27.0469C10.3797 27.0469 10.6031 26.9523 10.7664 26.7977C10.9211 26.6344 11.0156 26.4109 11.0156 26.1875C11.0156 25.9641 10.9211 25.7406 10.7664 25.5773C10.4484 25.2594 9.86406 25.2594 9.54609 25.5773Z" fill="#42A5F5"/>
</svg>
