<svg width="65" height="65" viewBox="0 0 65 65" fill="none" xmlns="http://www.w3.org/2000/svg">
<path d="M56.8413 32.8559C56.8247 32.6401 56.7272 32.4384 56.5683 32.2913C56.4094 32.1442 56.2009 32.0625 55.9844 32.0625H43.6534L43.0927 20.8477C43.0817 20.6275 42.9864 20.4199 42.8267 20.268C42.6669 20.116 42.4549 20.0313 42.2344 20.0313H36.2188V15.7344C36.2192 14.4969 35.9226 13.2774 35.3539 12.1784C34.7852 11.0793 33.9609 10.1329 32.9505 9.41848C31.9401 8.70409 30.7729 8.24268 29.5471 8.07302C28.3213 7.90335 27.0727 8.03039 25.9062 8.44345C24.7398 8.03039 23.4912 7.90335 22.2654 8.07302C21.0396 8.24268 19.8724 8.70409 18.862 9.41848C17.8516 10.1329 17.0273 11.0793 16.4586 12.1784C15.8899 13.2774 15.5933 14.4969 15.5938 15.7344V20.0313H9.57813C9.35764 20.0313 9.1456 20.116 8.98584 20.268C8.82609 20.4199 8.73085 20.6275 8.71982 20.8477L7.00107 55.2227C6.99525 55.339 7.01314 55.4553 7.05364 55.5645C7.09414 55.6737 7.15643 55.7735 7.2367 55.8579C7.31697 55.9423 7.41356 56.0095 7.5206 56.0554C7.62765 56.1013 7.7429 56.125 7.85938 56.125H57.7031C57.8215 56.125 57.9387 56.1006 58.0472 56.0532C58.1557 56.0058 58.2533 55.9364 58.3337 55.8495C58.4142 55.7627 58.4758 55.6601 58.5148 55.5483C58.5537 55.4364 58.5691 55.3177 58.56 55.1997L56.8413 32.8559ZM54.2656 51.6586L56.0974 54.4063H52.4343L54.2656 51.6586ZM56.5941 52.0528L55.0994 49.8109L53.4965 33.7813H55.1886L56.5941 52.0528ZM51.7691 33.7813L53.3805 49.8887L51.4941 52.7176L50.0374 33.7813H51.7691ZM41.9325 32.0625H40.3151L39.7083 21.75H41.4164L41.9325 32.0625ZM37.9866 21.75L38.5933 32.0625H36.7779L36.2623 21.75H37.9866ZM28.4844 9.71876C30.0793 9.72058 31.6083 10.355 32.7361 11.4827C33.8638 12.6105 34.4982 14.1395 34.5 15.7344V20.0313H31.0625V15.7344C31.0625 14.5822 30.8047 13.4445 30.3079 12.4049C29.8111 11.3653 29.0879 10.45 28.1914 9.72618C28.2885 9.72156 28.3861 9.71876 28.4844 9.71876ZM25.9062 10.3003C26.9341 10.7889 27.8024 11.5586 28.4108 12.5203C29.0192 13.482 29.3427 14.5964 29.3438 15.7344V20.0313H22.4688V15.7344C22.4698 14.5964 22.7933 13.482 23.4017 12.5203C24.0101 11.5586 24.8784 10.7889 25.9062 10.3003ZM17.3125 15.7344C17.3143 14.1395 17.9487 12.6105 19.0764 11.4827C20.2042 10.355 21.7332 9.72058 23.3281 9.71876C23.4264 9.71876 23.524 9.72156 23.6211 9.72618C22.7246 10.45 22.0014 11.3653 21.5046 12.4049C21.0078 13.4445 20.75 14.5822 20.75 15.7344V20.0313H17.3125V15.7344ZM27.6886 54.4063H8.76279L10.3956 21.75H15.5938V27.3058L13.3983 28.7694C13.2806 28.8479 13.1841 28.9542 13.1173 29.0789C13.0506 29.2036 13.0156 29.3429 13.0156 29.4844V36.3594C13.0156 36.5873 13.1062 36.8059 13.2673 36.9671C13.4285 37.1282 13.6471 37.2188 13.875 37.2188H19.0313C19.2592 37.2188 19.4778 37.1282 19.6389 36.9671C19.8001 36.8059 19.8906 36.5873 19.8906 36.3594V29.4844C19.8906 29.3429 19.8557 29.2036 19.7889 29.0789C19.7222 28.9542 19.6257 28.8479 19.508 28.7694L17.3125 27.3058V21.75H29.3438V24.3281C29.3438 24.5561 29.4343 24.7746 29.5955 24.9358C29.7566 25.097 29.9752 25.1875 30.2031 25.1875C30.431 25.1875 30.6496 25.097 30.8108 24.9358C30.972 24.7746 31.0625 24.5561 31.0625 24.3281V21.75H34.5419L35.0575 32.0625H30.2031C29.9866 32.0625 29.7781 32.1442 29.6192 32.2913C29.4603 32.4384 29.3628 32.6401 29.3462 32.8559L27.6886 54.4063ZM16.4531 28.7985L18.1719 29.9443V35.5H14.7344V29.9443L16.4531 28.7985ZM30.9989 33.7813H48.3136L49.9001 54.4063H29.4124L30.9989 33.7813Z" fill="#EC407A"/>
<path d="M43.9531 37.2188C43.7252 37.2188 43.5066 37.3093 43.3455 37.4705C43.1843 37.6316 43.0938 37.8502 43.0938 38.0781V44.9531C43.093 45.6367 42.8211 46.292 42.3378 46.7753C41.8545 47.2586 41.1992 47.5305 40.5156 47.5312H38.7969C38.1133 47.5305 37.458 47.2586 36.9747 46.7753C36.4914 46.292 36.2195 45.6367 36.2188 44.9531V38.0781C36.2188 37.8502 36.1282 37.6316 35.967 37.4705C35.8059 37.3093 35.5873 37.2188 35.3594 37.2188C35.1315 37.2188 34.9129 37.3093 34.7517 37.4705C34.5905 37.6316 34.5 37.8502 34.5 38.0781V44.9531C34.5013 46.0923 34.9544 47.1845 35.7599 47.9901C36.5655 48.7956 37.6577 49.2487 38.7969 49.25H40.5156C41.6548 49.2487 42.747 48.7956 43.5526 47.9901C44.3581 47.1845 44.8112 46.0923 44.8125 44.9531V38.0781C44.8125 37.8502 44.722 37.6316 44.5608 37.4705C44.3996 37.3093 44.181 37.2188 43.9531 37.2188Z" fill="#EC407A"/>
</svg>
