<svg width="65" height="65" viewBox="0 0 65 65" fill="none" xmlns="http://www.w3.org/2000/svg">
<g clip-path="url(#clip0_37_3362)">
<path d="M52.219 47.7258C51.287 47.7265 50.3757 47.4507 49.6004 46.9334C48.8251 46.4161 48.2207 45.6805 47.8636 44.8196C47.5064 43.9587 47.4126 43.0113 47.594 42.0971C47.7754 41.1829 48.2239 40.343 48.8827 39.6837C49.5415 39.0244 50.381 38.5754 51.2951 38.3933C52.2092 38.2112 53.1567 38.3043 54.0179 38.6608C54.879 39.0173 55.6151 39.6212 56.1329 40.3961C56.6508 41.171 56.9272 42.0821 56.9272 43.0142C56.9266 44.263 56.4305 45.4605 55.5478 46.3439C54.665 47.2273 53.4678 47.7243 52.219 47.7258ZM52.219 40.0212C51.6269 40.0206 51.0479 40.1955 50.5553 40.524C50.0627 40.8524 49.6785 41.3196 49.4515 41.8664C49.2244 42.4133 49.1647 43.0151 49.2797 43.5959C49.3948 44.1767 49.6796 44.7103 50.098 45.1293C50.5165 45.5482 51.0498 45.8336 51.6304 45.9493C52.2111 46.0651 52.813 46.006 53.3601 45.7796C53.9072 45.5532 54.3748 45.1695 54.7039 44.6773C55.0329 44.185 55.2085 43.6062 55.2085 43.0142C55.2082 42.2211 54.8932 41.4605 54.3328 40.8994C53.7723 40.3383 53.0121 40.0225 52.219 40.0212Z" fill="#EC407A"/>
<path d="M27.392 47.7258C26.46 47.7267 25.5486 47.4512 24.7731 46.934C23.9977 46.4168 23.3931 45.6813 23.0358 44.8204C22.6784 43.9595 22.5845 43.012 22.7658 42.0978C22.947 41.1835 23.3954 40.3435 24.0542 39.6841C24.7129 39.0247 25.5525 38.5755 26.4666 38.3934C27.3807 38.2112 28.3283 38.3042 29.1895 38.6607C30.0507 39.0172 30.7868 39.6211 31.3047 40.396C31.8227 41.1709 32.0991 42.0821 32.0991 43.0142C32.0982 44.2627 31.6021 45.4599 30.7197 46.3432C29.8373 47.2265 28.6406 47.7237 27.392 47.7258ZM27.392 40.0212C26.7999 40.0203 26.2208 40.1951 25.728 40.5234C25.2352 40.8517 24.8509 41.3188 24.6237 41.8656C24.3964 42.4124 24.3365 43.0144 24.4515 43.5952C24.5664 44.1761 24.8511 44.7098 25.2695 45.1288C25.6879 45.5479 26.2212 45.8334 26.8019 45.9492C27.3826 46.0651 27.9846 46.0061 28.5317 45.7797C29.0789 45.5533 29.5466 45.1697 29.8756 44.6774C30.2047 44.1851 30.3804 43.6063 30.3804 43.0142C30.3798 42.2214 30.0649 41.4612 29.5047 40.9001C28.9446 40.3391 28.1848 40.0231 27.392 40.0212Z" fill="#EC407A"/>
<path d="M58.4212 43.8734H56.0711C55.8432 43.8734 55.6246 43.7828 55.4635 43.6216C55.3023 43.4605 55.2118 43.2419 55.2118 43.014C55.2118 42.7861 55.3023 42.5675 55.4635 42.4063C55.6246 42.2451 55.8432 42.1546 56.0711 42.1546H58.1783V37.5976C58.1778 36.9815 58.02 36.3757 57.72 35.8376L53.0679 27.4971C53.0282 27.4259 52.9702 27.3666 52.8999 27.3253C52.8296 27.2841 52.7495 27.2623 52.668 27.2622H46.3281V42.158H48.3746C48.6025 42.158 48.8211 42.2486 48.9823 42.4097C49.1434 42.5709 49.234 42.7895 49.234 43.0174C49.234 43.2453 49.1434 43.4639 48.9823 43.6251C48.8211 43.7863 48.6025 43.8768 48.3746 43.8768H45.4688C45.2408 43.8768 45.0222 43.7863 44.8611 43.6251C44.6999 43.4639 44.6094 43.2453 44.6094 43.0174V26.4028C44.6094 26.1749 44.6999 25.9563 44.8611 25.7952C45.0222 25.634 45.2408 25.5435 45.4688 25.5435H52.668C53.0557 25.5433 53.4364 25.6466 53.7708 25.8428C54.1052 26.039 54.3811 26.321 54.5701 26.6595L59.221 35.0012C59.6632 35.7952 59.8955 36.6888 59.8959 37.5976V42.3987C59.8953 42.7896 59.7398 43.1643 59.4633 43.4408C59.1869 43.7172 58.8122 43.8727 58.4212 43.8734Z" fill="#EC407A"/>
<path d="M23.5444 43.8733H15.3047C15.0768 43.8733 14.8582 43.7828 14.697 43.6216C14.5359 43.4605 14.4453 43.2419 14.4453 43.0139V36.4048C14.4453 36.1769 14.5359 35.9583 14.697 35.7971C14.8582 35.636 15.0768 35.5454 15.3047 35.5454C15.5326 35.5454 15.7512 35.636 15.9124 35.7971C16.0735 35.9583 16.1641 36.1769 16.1641 36.4048V42.1546H23.5444C23.7723 42.1546 23.9909 42.2451 24.152 42.4063C24.3132 42.5674 24.4038 42.786 24.4038 43.0139C24.4038 43.2419 24.3132 43.4605 24.152 43.6216C23.9909 43.7828 23.7723 43.8733 23.5444 43.8733Z" fill="#EC407A"/>
<path d="M15.3047 33.3559C15.0768 33.3559 14.8582 33.2653 14.697 33.1042C14.5359 32.943 14.4453 32.7244 14.4453 32.4965V26.7261C14.4453 26.4982 14.5359 26.2796 14.697 26.1184C14.8582 25.9572 15.0768 25.8667 15.3047 25.8667C15.5326 25.8667 15.7512 25.9572 15.9124 26.1184C16.0735 26.2796 16.1641 26.4982 16.1641 26.7261V32.4999C16.1632 32.7273 16.0722 32.945 15.9111 33.1054C15.7501 33.2658 15.532 33.3559 15.3047 33.3559Z" fill="#EC407A"/>
<path d="M45.4688 43.8735H31.2409C31.013 43.8735 30.7944 43.783 30.6333 43.6218C30.4721 43.4606 30.3816 43.2421 30.3816 43.0141C30.3816 42.7862 30.4721 42.5676 30.6333 42.4065C30.7944 42.2453 31.013 42.1548 31.2409 42.1548H44.6094V19.6724H16.1641V23.2118C16.1641 23.4398 16.0735 23.6583 15.9124 23.8195C15.7512 23.9807 15.5326 24.0712 15.3047 24.0712C15.0768 24.0712 14.8582 23.9807 14.697 23.8195C14.5359 23.6583 14.4453 23.4398 14.4453 23.2118V19.5142C14.4459 19.1003 14.6107 18.7036 14.9035 18.411C15.1963 18.1184 15.5932 17.9539 16.0071 17.9536H44.7675C45.1812 17.9542 45.5778 18.1188 45.8704 18.4114C46.1629 18.7039 46.3275 19.1005 46.3281 19.5142V43.0141C46.3281 43.2421 46.2376 43.4606 46.0764 43.6218C45.9153 43.783 45.6967 43.8735 45.4688 43.8735Z" fill="#EC407A"/>
<path d="M18.7002 37.2642H7.79297C7.56505 37.2642 7.34646 37.1736 7.1853 37.0125C7.02413 36.8513 6.93359 36.6327 6.93359 36.4048C6.93359 36.1769 7.02413 35.9583 7.1853 35.7971C7.34646 35.636 7.56505 35.5454 7.79297 35.5454H18.7002C18.9281 35.5454 19.1467 35.636 19.3078 35.7971C19.469 35.9583 19.5595 36.1769 19.5595 36.4048C19.5595 36.6327 19.469 36.8513 19.3078 37.0125C19.1467 37.1736 18.9281 37.2642 18.7002 37.2642Z" fill="#EC407A"/>
<path d="M27.392 33.3559H12.1719C11.944 33.3559 11.7254 33.2654 11.5642 33.1042C11.403 32.9431 11.3125 32.7245 11.3125 32.4966C11.3125 32.2686 11.403 32.05 11.5642 31.8889C11.7254 31.7277 11.944 31.6372 12.1719 31.6372H27.392C27.6199 31.6372 27.8385 31.7277 27.9997 31.8889C28.1608 32.05 28.2514 32.2686 28.2514 32.4966C28.2514 32.7245 28.1608 32.9431 27.9997 33.1042C27.8385 33.2654 27.6199 33.3559 27.392 33.3559Z" fill="#EC407A"/>
<path d="M11.6973 28.8185H5.75391C5.52599 28.8185 5.3074 28.7279 5.14624 28.5667C4.98507 28.4056 4.89453 28.187 4.89453 27.9591C4.89453 27.7312 4.98507 27.5126 5.14624 27.3514C5.3074 27.1902 5.52599 27.0997 5.75391 27.0997H11.6973C11.9253 27.0997 12.1438 27.1902 12.305 27.3514C12.4662 27.5126 12.5567 27.7312 12.5567 27.9591C12.5567 28.187 12.4662 28.4056 12.305 28.5667C12.1438 28.7279 11.9253 28.8185 11.6973 28.8185Z" fill="#EC407A"/>
<path d="M21.2295 24.0713H10.7383C10.5104 24.0713 10.2918 23.9807 10.1306 23.8196C9.96945 23.6584 9.87891 23.4398 9.87891 23.2119C9.87891 22.984 9.96945 22.7654 10.1306 22.6042C10.2918 22.4431 10.5104 22.3525 10.7383 22.3525H21.2295C21.4575 22.3525 21.676 22.4431 21.8372 22.6042C21.9984 22.7654 22.0889 22.984 22.0889 23.2119C22.0889 23.4398 21.9984 23.6584 21.8372 23.8196C21.676 23.9807 21.4575 24.0713 21.2295 24.0713Z" fill="#EC407A"/>
</g>
<defs>
<clipPath id="clip0_37_3362">
<rect width="55" height="55" fill="white" transform="translate(5 5)"/>
</clipPath>
</defs>
</svg>
