<svg width="65" height="65" viewBox="0 0 65 65" fill="none" xmlns="http://www.w3.org/2000/svg">
<g clip-path="url(#clip0_37_3377)">
<path d="M32.5 31.2396C32.2721 31.2396 32.0535 31.3301 31.8923 31.4913C31.7312 31.6525 31.6406 31.871 31.6406 32.099V51.5346C31.6406 51.7625 31.7312 51.9811 31.8923 52.1423C32.0535 52.3034 32.2721 52.394 32.5 52.394C32.7279 52.394 32.9465 52.3034 33.1077 52.1423C33.2688 51.9811 33.3594 51.7625 33.3594 51.5346V32.1001C33.3595 31.9872 33.3374 31.8753 33.2943 31.7709C33.2512 31.6665 33.1879 31.5716 33.1081 31.4917C33.0283 31.4118 32.9335 31.3484 32.8291 31.3051C32.7248 31.2619 32.613 31.2396 32.5 31.2396Z" fill="#EC407A"/>
<path d="M59.1383 58.2812C57.4368 58.2812 56.0091 57.164 54.6272 56.0835C53.2866 55.0339 51.899 53.9477 50.2593 53.9477C48.6196 53.9477 47.2308 55.0339 45.8902 56.0835C44.5083 57.164 43.0806 58.2812 41.3791 58.2812C39.6775 58.2812 38.2486 57.164 36.8679 56.0835C35.5261 55.0339 34.1385 53.9477 32.4989 53.9477C30.8592 53.9477 29.4716 55.0339 28.1298 56.0835C26.7491 57.164 25.3202 58.2812 23.6186 58.2812C21.9171 58.2812 20.4894 57.164 19.1075 56.0835C17.7669 55.0339 16.3793 53.9477 14.7384 53.9477C13.0976 53.9477 11.7111 55.0339 10.3705 56.0835C8.98865 57.164 7.56094 58.2812 5.85938 58.2812C5.63145 58.2812 5.41287 58.3718 5.25171 58.5329C5.09054 58.6941 5 58.9127 5 59.1406C5 59.3685 5.09054 59.5871 5.25171 59.7483C5.41287 59.9094 5.63145 60 5.85938 60C8.15104 60 9.89385 58.6387 11.4293 57.4368C12.5923 56.527 13.6911 55.6664 14.7384 55.6664C15.7857 55.6664 16.8857 56.527 18.0487 57.4368C19.5842 58.6387 21.3247 60 23.6186 60C25.9126 60 27.6531 58.6387 29.1897 57.4368C30.3527 56.527 31.4516 55.6664 32.4989 55.6664C33.5461 55.6664 34.645 56.527 35.808 57.4368C37.3446 58.6387 39.0851 60 41.3791 60C43.673 60 45.4135 58.6387 46.949 57.4368C48.112 56.527 49.2108 55.6664 50.2593 55.6664C51.3077 55.6664 52.4054 56.527 53.5684 57.4368C55.1039 58.6387 56.8444 60 59.1383 60C59.3663 60 59.5848 59.9094 59.746 59.7483C59.9072 59.5871 59.9977 59.3685 59.9977 59.1406C59.9977 58.9127 59.9072 58.6941 59.746 58.5329C59.5848 58.3718 59.3663 58.2812 59.1383 58.2812Z" fill="#EC407A"/>
<path d="M29.4922 13.6889C29.7201 13.6889 29.9387 13.5983 30.0999 13.4371C30.261 13.276 30.3516 13.0574 30.3516 12.8295V6.71875H34.6565V12.8386C34.6565 13.0666 34.747 13.2852 34.9082 13.4463C35.0693 13.6075 35.2879 13.698 35.5158 13.698C35.7438 13.698 35.9623 13.6075 36.1235 13.4463C36.2847 13.2852 36.3752 13.0666 36.3752 12.8386V5.85938C36.3752 5.63145 36.2847 5.41287 36.1235 5.25171C35.9623 5.09054 35.7438 5 35.5158 5H29.4922C29.2643 5 29.0457 5.09054 28.8845 5.25171C28.7234 5.41287 28.6328 5.63145 28.6328 5.85938V12.8295C28.6328 13.0574 28.7234 13.276 28.8845 13.4371C29.0457 13.5983 29.2643 13.6889 29.4922 13.6889Z" fill="#EC407A"/>
<path d="M21.5189 22.2942L19.1654 23.1501C18.957 23.2322 18.7889 23.3925 18.6969 23.5968C18.6049 23.801 18.5963 24.0331 18.673 24.2436C18.7496 24.4541 18.9054 24.6264 19.1072 24.7237C19.3089 24.821 19.5407 24.8357 19.7532 24.7646L22.1056 23.9086C22.3124 23.8255 22.4788 23.6652 22.5696 23.4617C22.6605 23.2582 22.6687 23.0273 22.5926 22.8178C22.5165 22.6083 22.362 22.4366 22.1616 22.3389C21.9613 22.2412 21.7308 22.2252 21.5189 22.2942Z" fill="#EC407A"/>
<path d="M26.0358 20.4502L23.6834 21.3062C23.4934 21.3751 23.3338 21.5089 23.2326 21.6838C23.1314 21.8588 23.0952 22.0638 23.1302 22.2629C23.1652 22.462 23.2693 22.6423 23.4241 22.7723C23.5789 22.9022 23.7746 22.9734 23.9767 22.9734C24.0767 22.9731 24.1759 22.9556 24.27 22.9218L26.6236 22.0659C26.8378 21.9879 27.0123 21.8281 27.1087 21.6214C27.2051 21.4148 27.2154 21.1784 27.1375 20.9641C27.0595 20.7499 26.8997 20.5754 26.6931 20.479C26.4864 20.3826 26.25 20.3723 26.0358 20.4502Z" fill="#EC407A"/>
<path d="M42.8132 23.9063L45.1668 24.7622C45.2735 24.8043 45.3876 24.8245 45.5024 24.8218C45.6171 24.8191 45.7301 24.7934 45.8347 24.7463C45.9394 24.6992 46.0335 24.6316 46.1116 24.5475C46.1897 24.4634 46.2501 24.3645 46.2894 24.2567C46.3286 24.1489 46.3459 24.0343 46.3402 23.9196C46.3344 23.805 46.3058 23.6927 46.2559 23.5894C46.2061 23.486 46.136 23.3937 46.0499 23.3178C45.9638 23.242 45.8634 23.1841 45.7546 23.1477L43.401 22.2918C43.2943 22.2497 43.1802 22.2294 43.0654 22.2322C42.9507 22.2349 42.8377 22.2606 42.7331 22.3077C42.6284 22.3548 42.5343 22.4224 42.4562 22.5065C42.3781 22.5906 42.3177 22.6895 42.2784 22.7973C42.2392 22.9051 42.2219 23.0197 42.2276 23.1343C42.2334 23.2489 42.262 23.3612 42.3119 23.4646C42.3617 23.568 42.4318 23.6603 42.5179 23.7362C42.604 23.812 42.7044 23.8698 42.8132 23.9063Z" fill="#EC407A"/>
<path d="M38.2962 22.0659L40.6486 22.9218C40.7547 22.9604 40.8673 22.9777 40.9801 22.9728C41.0929 22.9678 41.2036 22.9407 41.3059 22.893C41.4082 22.8453 41.5001 22.7779 41.5763 22.6947C41.6526 22.6114 41.7117 22.514 41.7503 22.4079C41.7889 22.3018 41.8062 22.1892 41.8013 22.0764C41.7963 21.9636 41.7692 21.8529 41.7215 21.7506C41.6738 21.6483 41.6064 21.5564 41.5232 21.4801C41.4399 21.4039 41.3425 21.3448 41.2364 21.3062L38.884 20.4502C38.6697 20.3723 38.4333 20.3826 38.2267 20.479C38.0201 20.5754 37.8602 20.7499 37.7823 20.9641C37.7043 21.1784 37.7147 21.4148 37.8111 21.6214C37.9074 21.8281 38.0819 21.9879 38.2962 22.0659Z" fill="#EC407A"/>
<path d="M13.2397 52.5521C13.3098 52.699 13.4201 52.823 13.5578 52.9098C13.6955 52.9966 13.855 53.0426 14.0177 53.0425C14.1451 53.0427 14.2708 53.0141 14.3856 52.9589C14.4876 52.9105 14.5792 52.8424 14.6549 52.7586C14.7307 52.6749 14.7892 52.5769 14.8271 52.4705C14.865 52.3641 14.8815 52.2512 14.8757 52.1384C14.87 52.0256 14.842 51.915 14.7935 51.813L8.55211 38.6623L31.6407 26.1429V28.6363C31.6407 28.8642 31.7312 29.0828 31.8924 29.2439C32.0535 29.4051 32.2721 29.4956 32.5 29.4956C32.728 29.4956 32.9465 29.4051 33.1077 29.2439C33.2689 29.0828 33.3594 28.8642 33.3594 28.6363V26.1452L56.4479 38.6623L50.249 51.7168C50.2005 51.8187 50.1726 51.9292 50.1669 52.0419C50.1611 52.1547 50.1776 52.2674 50.2155 52.3738C50.2533 52.4801 50.3117 52.578 50.3873 52.6618C50.463 52.7455 50.5544 52.8136 50.6563 52.862C50.7583 52.9105 50.8688 52.9384 50.9815 52.9441C51.0942 52.9499 51.207 52.9334 51.3133 52.8956C51.4197 52.8577 51.5175 52.7993 51.6013 52.7237C51.6851 52.648 51.7531 52.5566 51.8016 52.4547L58.3546 38.6646C58.449 38.4659 58.4635 38.2386 58.3953 38.0295C58.3271 37.8204 58.1813 37.6454 57.9879 37.5405L50.1321 33.2826V21.0806C50.1314 20.9052 50.0768 20.7342 49.9758 20.5908C49.8748 20.4473 49.7322 20.3384 49.5672 20.2785L32.7922 14.1667C32.6023 14.098 32.3943 14.098 32.2044 14.1667L15.4397 20.274C15.2746 20.3336 15.1317 20.4425 15.0305 20.5859C14.9292 20.7294 14.8745 20.9005 14.8737 21.076V33.2803L7.0167 37.5417C6.82334 37.6465 6.67748 37.8215 6.60908 38.0305C6.54067 38.2396 6.55492 38.4669 6.64888 38.6657L13.2397 52.5521ZM16.5924 21.6833L32.5 15.8934L48.4134 21.6833V32.351L32.9079 23.9452C32.7822 23.877 32.6414 23.8413 32.4983 23.8413C32.3552 23.8413 32.2144 23.877 32.0887 23.9452L16.5924 32.3476V21.6833Z" fill="#EC407A"/>
</g>
<defs>
<clipPath id="clip0_37_3377">
<rect width="55" height="55" fill="white" transform="translate(5 5)"/>
</clipPath>
</defs>
</svg>
