<svg width="65" height="65" viewBox="0 0 65 65" fill="none" xmlns="http://www.w3.org/2000/svg">
<g clip-path="url(#clip0_37_3400)">
<path d="M49 14.2116V11.4166H52.6666C54.1854 11.4166 55.4166 10.1854 55.4166 8.66663V7.75C55.4166 6.23127 54.1854 5 52.6666 5H46.25C44.7313 5 43.5 6.23127 43.5 7.75V14.1666H21.5C15.64 14.1988 10.6629 18.464 9.73365 24.25H7.75C7.07442 24.2446 6.42227 24.4966 5.92587 24.9549C5.88741 24.9888 5.85895 25.031 5.82231 25.0667C5.82231 25.0713 5.81318 25.0732 5.80953 25.0777V25.085C5.29595 25.5905 5.00462 26.2795 5 27V45.3334C5 46.8521 6.23127 48.0834 7.75 48.0834H28.8334V57.25C28.8334 58.7687 30.0646 60 31.5834 60H37.0834C38.6021 60 39.8334 58.7687 39.8334 57.25V48.0834H57.25C58.7687 48.0834 60 46.8521 60 45.3334V26.0834C60.0119 19.8546 55.2116 14.6739 49 14.2116ZM46.25 25.1666C48.275 25.1666 49.9166 26.8083 49.9166 28.8333C49.9166 30.8583 48.275 32.5 46.25 32.5C44.225 32.5 42.5834 30.8584 42.5834 28.8334C42.5834 26.8084 44.225 25.1666 46.25 25.1666ZM45.3334 7.75C45.3334 7.24372 45.7438 6.83337 46.25 6.83337H52.6666C53.1729 6.83337 53.5833 7.24383 53.5833 7.75V8.66663C53.5833 9.17291 53.1728 9.58326 52.6666 9.58326H48.0833C47.577 9.58326 47.1666 9.99372 47.1666 10.4999V23.4158C46.5604 23.3058 45.9394 23.3058 45.3333 23.4158V7.75H45.3334ZM21.5 16C26.3647 15.9904 30.5389 19.4644 31.4128 24.25H11.5853C12.4916 19.4826 16.6473 16.0247 21.5 16ZM31.5834 26.0834V26.8653L21.116 35.0667C20.8043 35.318 20.3597 35.318 20.0481 35.0667L8.58048 26.0834H31.5834ZM7.75 46.25C7.24372 46.25 6.83337 45.8396 6.83337 45.3334V27.0431L18.916 36.5012C19.892 37.2748 21.2721 37.2748 22.2481 36.5012L31.5834 29.1936V45.3333C31.5834 45.8395 31.1729 46.2499 30.6667 46.2499H7.75V46.25ZM38 57.25C38 57.7563 37.5896 58.1666 37.0834 58.1666H31.5834C31.0771 58.1666 30.6667 57.7562 30.6667 57.25V48.0834H38V57.25ZM58.1666 45.3334C58.1666 45.8396 57.7563 46.25 57.25 46.25H33.248C33.3566 45.9564 33.4136 45.6463 33.4166 45.3334V26.0834C33.4166 25.7433 33.4065 25.4133 33.3772 25.0915C33.0771 21.3564 31.0257 17.9841 27.8469 16H43.5V24.0777C41.3441 25.3224 40.2931 27.8598 40.9375 30.2643C41.5818 32.6689 43.7607 34.3408 46.25 34.3408C48.7393 34.3408 50.9183 32.6688 51.5625 30.2643C52.2069 27.8598 51.1557 25.3224 49 24.0777V16.0449C54.1962 16.5079 58.1763 20.8664 58.1666 26.0834V45.3334Z" fill="#EC407A"/>
<path fill-rule="evenodd" clip-rule="evenodd" d="M12.3346 42.5835H10.5012V40.7501C10.5012 40.2438 10.0908 39.8335 9.5846 39.8335C9.07843 39.8335 8.66797 40.2438 8.66797 40.7501V43.5001C8.66797 44.0064 9.07843 44.4168 9.5846 44.4168H12.3346C12.8409 44.4168 13.2512 44.0064 13.2512 43.5001C13.2512 42.9938 12.8409 42.5835 12.3346 42.5835Z" fill="#EC407A"/>
</g>
<defs>
<clipPath id="clip0_37_3400">
<rect width="55" height="55" fill="white" transform="translate(5 5)"/>
</clipPath>
</defs>
</svg>
