<svg width="65" height="65" viewBox="0 0 65 65" fill="none" xmlns="http://www.w3.org/2000/svg">
<path d="M45.5696 30.6208H53.9889C54.1639 31.0624 54.4873 31.4291 54.9036 31.6579C55.3199 31.8867 55.803 31.9631 56.2696 31.8741C56.7361 31.785 57.1571 31.536 57.4598 31.17C57.7626 30.804 57.9282 30.3438 57.9282 29.8688C57.9282 29.3938 57.7626 28.9337 57.4598 28.5676C57.1571 28.2016 56.7361 27.9526 56.2696 27.8636C55.803 27.7745 55.3199 27.8509 54.9036 28.0797C54.4873 28.3085 54.1639 28.6752 53.9889 29.1169H45.5696V25.4258H50.9965C51.1959 25.4257 51.3871 25.3465 51.5281 25.2055C51.6691 25.0645 51.7484 24.8733 51.7485 24.6739V19.7196H53.9889C54.1639 20.1612 54.4873 20.528 54.9036 20.7567C55.3199 20.9855 55.803 21.0619 56.2696 20.9729C56.7361 20.8838 57.1571 20.6348 57.4598 20.2688C57.7626 19.9028 57.9282 19.4426 57.9282 18.9676C57.9282 18.4926 57.7626 18.0325 57.4598 17.6665C57.1571 17.3004 56.7361 17.0515 56.2696 16.9624C55.803 16.8733 55.3199 16.9498 54.9036 17.1785C54.4873 17.4073 54.1639 17.7741 53.9889 18.2157H50.9965C50.7971 18.2158 50.6059 18.2951 50.465 18.4361C50.324 18.577 50.2447 18.7682 50.2446 18.9676V23.9219H45.5696V20.1106C45.5695 19.9112 45.4902 19.72 45.3492 19.579C45.2082 19.438 45.017 19.3588 44.8176 19.3587H41.0063V14.6837H45.9606C46.16 14.6835 46.3512 14.6043 46.4922 14.4633C46.6332 14.3223 46.7124 14.1311 46.7126 13.9317V10.9394C47.1539 10.7644 47.5205 10.441 47.7491 10.0249C47.9777 9.60877 48.054 9.12595 47.965 8.6596C47.8759 8.19324 47.627 7.77254 47.2612 7.46994C46.8953 7.16734 46.4354 7.00178 45.9606 7.00178C45.4858 7.00178 45.0259 7.16734 44.66 7.46994C44.2942 7.77254 44.0453 8.19324 43.9562 8.6596C43.8672 9.12595 43.9435 9.60877 44.1721 10.0249C44.4007 10.441 44.7673 10.7644 45.2087 10.9394V13.1797H40.2544C40.055 13.1799 39.8638 13.2591 39.7228 13.4001C39.5818 13.5411 39.5025 13.7323 39.5024 13.9317V19.3587H35.8114V10.9398C36.2528 10.7648 36.6193 10.4414 36.8479 10.0253C37.0765 9.6092 37.1529 9.12638 37.0638 8.66003C36.9747 8.19367 36.7258 7.77297 36.36 7.47037C35.9941 7.16777 35.5342 7.00221 35.0594 7.00221C34.5847 7.00221 34.1247 7.16777 33.7589 7.47037C33.393 7.77297 33.1441 8.19367 33.0551 8.66003C32.966 9.12638 33.0424 9.6092 33.271 10.0253C33.4996 10.4414 33.8661 10.7648 34.3075 10.9398V19.3587H30.6208V10.9394C31.0624 10.7644 31.4291 10.4409 31.6579 10.0246C31.8867 9.60831 31.9631 9.12527 31.8741 8.65868C31.785 8.19209 31.536 7.77117 31.17 7.46841C30.804 7.16565 30.3438 7 29.8688 7C29.3938 7 28.9337 7.16565 28.5676 7.46841C28.2016 7.77117 27.9526 8.19209 27.8636 8.65868C27.7745 9.12527 27.8509 9.60831 28.0797 10.0246C28.3085 10.4409 28.6752 10.7644 29.1169 10.9394V19.3587H25.4258V13.9317C25.4257 13.7323 25.3465 13.5411 25.2055 13.4001C25.0645 13.2591 24.8733 13.1799 24.6739 13.1797H19.7196V10.9394C20.1612 10.7644 20.528 10.4409 20.7567 10.0246C20.9855 9.60831 21.0619 9.12527 20.9729 8.65868C20.8838 8.19209 20.6348 7.77117 20.2688 7.46841C19.9028 7.16565 19.4426 7 18.9676 7C18.4926 7 18.0325 7.16565 17.6665 7.46841C17.3004 7.77117 17.0515 8.19209 16.9624 8.65868C16.8733 9.12527 16.9498 9.60831 17.1785 10.0246C17.4073 10.4409 17.7741 10.7644 18.2157 10.9394V13.9317C18.2158 14.1311 18.2951 14.3223 18.4361 14.4633C18.577 14.6043 18.7682 14.6835 18.9676 14.6837H23.9219V19.3587H20.1106C19.9112 19.3588 19.72 19.438 19.579 19.579C19.438 19.72 19.3588 19.9112 19.3587 20.1106V23.9219H14.6837V18.9676C14.6835 18.7682 14.6043 18.577 14.4633 18.4361C14.3223 18.2951 14.1311 18.2158 13.9317 18.2157H10.9398C10.7648 17.7742 10.4414 17.4075 10.0252 17.1788C9.60897 16.9502 9.12604 16.8738 8.65957 16.9628C8.1931 17.0519 7.77229 17.3008 7.4696 17.6668C7.16692 18.0327 7.00132 18.4927 7.00132 18.9676C7.00132 19.4425 7.16692 19.9026 7.4696 20.2685C7.77229 20.6344 8.1931 20.8834 8.65957 20.9724C9.12604 21.0615 9.60897 20.9851 10.0252 20.7564C10.4414 20.5277 10.7648 20.1611 10.9398 19.7196H13.1797V24.6739C13.1799 24.8733 13.2591 25.0645 13.4001 25.2055C13.5411 25.3465 13.7323 25.4257 13.9317 25.4258H19.3587V29.1169H10.9398C10.7648 28.6755 10.4414 28.3089 10.0253 28.0803C9.6092 27.8517 9.12638 27.7754 8.66003 27.8644C8.19367 27.9535 7.77297 28.2024 7.47037 28.5682C7.16777 28.9341 7.00221 29.394 7.00221 29.8688C7.00221 30.3436 7.16777 30.8035 7.47037 31.1694C7.77297 31.5352 8.19367 31.7841 8.66003 31.8732C9.12638 31.9622 9.6092 31.8859 10.0253 31.6573C10.4414 31.4287 10.7648 31.0621 10.9398 30.6208H19.3587V34.3075H10.9394C10.7644 33.8659 10.4409 33.4991 10.0246 33.2703C9.60831 33.0416 9.12527 32.9651 8.65868 33.0542C8.19209 33.1433 7.77117 33.3922 7.46841 33.7583C7.16565 34.1243 7 34.5844 7 35.0594C7 35.5344 7.16565 35.9946 7.46841 36.3606C7.77117 36.7266 8.19209 36.9756 8.65868 37.0647C9.12527 37.1537 9.60831 37.0773 10.0246 36.8485C10.4409 36.6198 10.7644 36.253 10.9394 35.8114H19.3587V39.5024H13.9317C13.7323 39.5025 13.5411 39.5818 13.4001 39.7228C13.2591 39.8638 13.1799 40.055 13.1797 40.2544V45.2087H10.9394C10.7644 44.767 10.4409 44.4003 10.0246 44.1715C9.60831 43.9427 9.12527 43.8663 8.65868 43.9554C8.19209 44.0444 7.77117 44.2934 7.46841 44.6594C7.16565 45.0255 7 45.4856 7 45.9606C7 46.4356 7.16565 46.8958 7.46841 47.2618C7.77117 47.6278 8.19209 47.8768 8.65868 47.9658C9.12527 48.0549 9.60831 47.9785 10.0246 47.7497C10.4409 47.5209 10.7644 47.1542 10.9394 46.7126H13.9317C14.1311 46.7124 14.3223 46.6332 14.4633 46.4922C14.6043 46.3512 14.6835 46.16 14.6837 45.9606V41.0063H19.3587V44.8176C19.3588 45.017 19.438 45.2082 19.579 45.3492C19.72 45.4902 19.9112 45.5695 20.1106 45.5696H23.9219V50.2446H18.9676C18.7682 50.2447 18.577 50.324 18.4361 50.465C18.2951 50.6059 18.2158 50.7971 18.2157 50.9965V53.9889C17.7743 54.1638 17.4078 54.4872 17.1792 54.9034C16.9506 55.3195 16.8742 55.8023 16.9633 56.2686C17.0523 56.735 17.3012 57.1557 17.6671 57.4583C18.0329 57.7609 18.4929 57.9265 18.9676 57.9265C19.4424 57.9265 19.9023 57.7609 20.2682 57.4583C20.6341 57.1557 20.8829 56.735 20.972 56.2686C21.0611 55.8023 20.9847 55.3195 20.7561 54.9034C20.5275 54.4872 20.161 54.1638 19.7196 53.9889V51.7485H24.6739C24.8733 51.7484 25.0645 51.6691 25.2055 51.5281C25.3465 51.3871 25.4257 51.1959 25.4258 50.9965V45.5696H29.1169V53.9885C28.6755 54.1634 28.3089 54.4868 28.0803 54.9029C27.8517 55.319 27.7754 55.8019 27.8644 56.2682C27.9535 56.7346 28.2024 57.1553 28.5682 57.4579C28.9341 57.7605 29.394 57.926 29.8688 57.926C30.3436 57.926 30.8035 57.7605 31.1694 57.4579C31.5352 57.1553 31.7841 56.7346 31.8732 56.2682C31.9622 55.8019 31.8859 55.319 31.6573 54.9029C31.4287 54.4868 31.0621 54.1634 30.6208 53.9885V45.5696H34.3075V53.9889C33.8659 54.1639 33.4991 54.4873 33.2703 54.9036C33.0416 55.3199 32.9651 55.803 33.0542 56.2696C33.1433 56.7361 33.3922 57.1571 33.7583 57.4598C34.1243 57.7626 34.5844 57.9282 35.0594 57.9282C35.5344 57.9282 35.9946 57.7626 36.3606 57.4598C36.7266 57.1571 36.9756 56.7361 37.0647 56.2696C37.1537 55.803 37.0773 55.3199 36.8485 54.9036C36.6198 54.4873 36.253 54.1639 35.8114 53.9889V45.5696H39.5024V50.9965C39.5025 51.1959 39.5818 51.3871 39.7228 51.5281C39.8638 51.6691 40.055 51.7484 40.2544 51.7485H45.2087V53.9889C44.7672 54.1638 44.4005 54.4873 44.1718 54.9035C43.9431 55.3197 43.8667 55.8026 43.9558 56.2691C44.0449 56.7356 44.2938 57.1564 44.6597 57.4591C45.0257 57.7617 45.4857 57.9274 45.9606 57.9274C46.4355 57.9274 46.8955 57.7617 47.2615 57.4591C47.6274 57.1564 47.8763 56.7356 47.9654 56.2691C48.0545 55.8026 47.9781 55.3197 47.7494 54.9035C47.5207 54.4873 47.1541 54.1638 46.7126 53.9889V50.9965C46.7124 50.7971 46.6332 50.6059 46.4922 50.465C46.3512 50.324 46.16 50.2447 45.9606 50.2446H41.0063V45.5696H44.8176C45.017 45.5695 45.2082 45.4902 45.3492 45.3492C45.4902 45.2082 45.5695 45.017 45.5696 44.8176V41.0063H50.2446V45.9606C50.2447 46.16 50.324 46.3512 50.465 46.4922C50.6059 46.6332 50.7971 46.7124 50.9965 46.7126H53.9889C54.1638 47.1539 54.4872 47.5205 54.9034 47.7491C55.3195 47.9777 55.8023 48.054 56.2686 47.965C56.735 47.8759 57.1557 47.627 57.4583 47.2612C57.7609 46.8953 57.9265 46.4354 57.9265 45.9606C57.9265 45.4858 57.7609 45.0259 57.4583 44.66C57.1557 44.2942 56.735 44.0453 56.2686 43.9562C55.8023 43.8672 55.3195 43.9435 54.9034 44.1721C54.4872 44.4007 54.1638 44.7673 53.9889 45.2087H51.7485V40.2544C51.7484 40.055 51.6691 39.8638 51.5281 39.7228C51.3871 39.5818 51.1959 39.5025 50.9965 39.5024H45.5696V35.8114H53.9885C54.1634 36.2528 54.4868 36.6193 54.9029 36.8479C55.319 37.0765 55.8019 37.1529 56.2682 37.0638C56.7346 36.9747 57.1553 36.7258 57.4579 36.36C57.7605 35.9941 57.926 35.5342 57.926 35.0594C57.926 34.5847 57.7605 34.1247 57.4579 33.7589C57.1553 33.393 56.7346 33.1441 56.2682 33.0551C55.8019 32.966 55.319 33.0424 54.9029 33.271C54.4868 33.4996 54.1634 33.8661 53.9885 34.3075H45.5696V30.6208ZM55.8821 29.3317C55.9883 29.3317 56.0922 29.3632 56.1805 29.4222C56.2688 29.4812 56.3377 29.5651 56.3783 29.6633C56.419 29.7614 56.4296 29.8694 56.4089 29.9736C56.3882 30.0778 56.337 30.1735 56.2619 30.2486C56.1868 30.3237 56.0911 30.3749 55.9869 30.3956C55.8827 30.4163 55.7747 30.4057 55.6765 30.365C55.5784 30.3244 55.4945 30.2555 55.4355 30.1672C55.3765 30.0789 55.345 29.975 55.345 29.8688C55.345 29.7263 55.4015 29.5896 55.5022 29.4887C55.6029 29.3878 55.7396 29.3311 55.8821 29.3308V29.3317ZM55.8821 18.431C55.9883 18.431 56.0922 18.4625 56.1805 18.5215C56.2688 18.5805 56.3377 18.6644 56.3783 18.7625C56.419 18.8607 56.4296 18.9687 56.4089 19.0729C56.3882 19.177 56.337 19.2727 56.2619 19.3479C56.1868 19.423 56.0911 19.4741 55.9869 19.4949C55.8827 19.5156 55.7747 19.5049 55.6765 19.4643C55.5784 19.4236 55.4945 19.3548 55.4355 19.2665C55.3765 19.1781 55.345 19.0743 55.345 18.9681C55.345 18.8255 55.4015 18.6888 55.5022 18.588C55.6029 18.4871 55.7396 18.4303 55.8821 18.4301V18.431ZM45.961 8.50904C46.0673 8.50904 46.1711 8.54054 46.2594 8.59956C46.3478 8.65858 46.4166 8.74247 46.4573 8.84061C46.4979 8.93875 46.5085 9.04675 46.4878 9.15094C46.4671 9.25513 46.4159 9.35083 46.3408 9.42595C46.2657 9.50106 46.17 9.55222 46.0658 9.57294C45.9616 9.59367 45.8536 9.58303 45.7555 9.54238C45.6573 9.50172 45.5735 9.43288 45.5144 9.34456C45.4554 9.25623 45.4239 9.15238 45.4239 9.04615C45.4242 8.90377 45.4808 8.76729 45.5815 8.66661C45.6822 8.56593 45.8187 8.50927 45.961 8.50904ZM35.0603 8.50904C35.1665 8.50904 35.2704 8.54054 35.3587 8.59956C35.447 8.65858 35.5159 8.74247 35.5565 8.84061C35.5972 8.93875 35.6078 9.04675 35.5871 9.15094C35.5664 9.25513 35.5152 9.35083 35.4401 9.42595C35.365 9.50106 35.2693 9.55222 35.1651 9.57294C35.0609 9.59367 34.9529 9.58303 34.8547 9.54238C34.7566 9.50172 34.6727 9.43288 34.6137 9.34456C34.5547 9.25623 34.5232 9.15238 34.5232 9.04615C34.5234 8.90377 34.5801 8.76729 34.6807 8.66661C34.7814 8.56593 34.9179 8.50927 35.0603 8.50904ZM29.868 8.50904C29.9742 8.50904 30.078 8.54054 30.1664 8.59956C30.2547 8.65858 30.3235 8.74247 30.3642 8.84061C30.4048 8.93875 30.4155 9.04675 30.3947 9.15094C30.374 9.25513 30.3229 9.35083 30.2477 9.42595C30.1726 9.50106 30.0769 9.55222 29.9727 9.57294C29.8685 9.59367 29.7605 9.58303 29.6624 9.54238C29.5643 9.50172 29.4804 9.43288 29.4214 9.34456C29.3623 9.25623 29.3308 9.15238 29.3308 9.04615C29.331 8.90374 29.3876 8.76719 29.4883 8.66649C29.589 8.56578 29.7255 8.50916 29.868 8.50904ZM18.9672 8.50904C19.0734 8.50904 19.1773 8.54054 19.2656 8.59956C19.3539 8.65858 19.4228 8.74247 19.4634 8.84061C19.5041 8.93875 19.5147 9.04675 19.494 9.15094C19.4733 9.25513 19.4221 9.35083 19.347 9.42595C19.2719 9.50106 19.1762 9.55222 19.072 9.57294C18.9678 9.59367 18.8598 9.58303 18.7617 9.54238C18.6635 9.50172 18.5796 9.43288 18.5206 9.34456C18.4616 9.25623 18.4301 9.15238 18.4301 9.04615C18.4302 8.90374 18.4868 8.76719 18.5875 8.66649C18.6882 8.56578 18.8248 8.50916 18.9672 8.50904ZM9.04615 19.5043C8.93992 19.5043 8.83608 19.4728 8.74775 19.4138C8.65942 19.3548 8.59058 19.2709 8.54993 19.1728C8.50928 19.0746 8.49864 18.9666 8.51936 18.8624C8.54009 18.7582 8.59124 18.6625 8.66636 18.5874C8.74148 18.5123 8.83718 18.4611 8.94137 18.4404C9.04556 18.4197 9.15355 18.4303 9.2517 18.471C9.34984 18.5116 9.43372 18.5805 9.49274 18.6688C9.55176 18.7571 9.58326 18.861 9.58326 18.9672C9.58315 19.1096 9.52652 19.2462 9.42582 19.3469C9.32512 19.4476 9.18857 19.5042 9.04615 19.5043ZM9.04615 30.4051C8.93992 30.4051 8.83608 30.3736 8.74775 30.3145C8.65942 30.2555 8.59058 30.1716 8.54993 30.0735C8.50928 29.9753 8.49864 29.8674 8.51936 29.7632C8.54009 29.659 8.59124 29.5633 8.66636 29.4882C8.74148 29.413 8.83718 29.3619 8.94137 29.3412C9.04556 29.3204 9.15355 29.3311 9.2517 29.3717C9.34984 29.4124 9.43372 29.4812 9.49274 29.5695C9.55176 29.6579 9.58326 29.7617 9.58326 29.868C9.58315 30.0104 9.52652 30.1469 9.42582 30.2476C9.32512 30.3483 9.18857 30.4049 9.04615 30.4051ZM9.04615 35.5974C8.93992 35.5974 8.83608 35.5659 8.74775 35.5069C8.65942 35.4479 8.59058 35.364 8.54993 35.2658C8.50928 35.1677 8.49864 35.0597 8.51936 34.9555C8.54009 34.8513 8.59124 34.7556 8.66636 34.6805C8.74148 34.6054 8.83718 34.5542 8.94137 34.5335C9.04556 34.5128 9.15355 34.5234 9.2517 34.5641C9.34984 34.6047 9.43372 34.6736 9.49274 34.7619C9.55176 34.8502 9.58326 34.9541 9.58326 35.0603C9.58304 35.2027 9.52637 35.3392 9.4257 35.4398C9.32502 35.5405 9.18853 35.5972 9.04615 35.5974ZM9.04615 46.4981C8.93992 46.4981 8.83608 46.4666 8.74775 46.4076C8.65942 46.3486 8.59058 46.2647 8.54993 46.1666C8.50928 46.0684 8.49864 45.9604 8.51936 45.8563C8.54009 45.7521 8.59124 45.6564 8.66636 45.5812C8.74148 45.5061 8.83718 45.455 8.94137 45.4342C9.04556 45.4135 9.15355 45.4242 9.2517 45.4648C9.34984 45.5055 9.43372 45.5743 9.49274 45.6626C9.55176 45.751 9.58326 45.8548 9.58326 45.961C9.58304 46.1034 9.52637 46.2399 9.4257 46.3406C9.32502 46.4413 9.18853 46.4979 9.04615 46.4981ZM18.9672 56.4192C18.861 56.4192 18.7571 56.3877 18.6688 56.3287C18.5805 56.2697 18.5116 56.1858 18.471 56.0876C18.4303 55.9895 18.4197 55.8815 18.4404 55.7773C18.4611 55.6731 18.5123 55.5774 18.5874 55.5023C18.6625 55.4272 18.7582 55.376 18.8624 55.3553C18.9666 55.3346 19.0746 55.3452 19.1728 55.3859C19.2709 55.4265 19.3548 55.4954 19.4138 55.5837C19.4728 55.672 19.5043 55.7759 19.5043 55.8821C19.5041 56.0245 19.4474 56.161 19.3467 56.2616C19.2461 56.3623 19.1096 56.419 18.9672 56.4192ZM29.868 56.4192C29.7617 56.4192 29.6579 56.3877 29.5695 56.3287C29.4812 56.2697 29.4124 56.1858 29.3717 56.0876C29.3311 55.9895 29.3204 55.8815 29.3412 55.7773C29.3619 55.6731 29.413 55.5774 29.4882 55.5023C29.5633 55.4272 29.659 55.376 29.7632 55.3553C29.8674 55.3346 29.9753 55.3452 30.0735 55.3859C30.1716 55.4265 30.2555 55.4954 30.3145 55.5837C30.3736 55.672 30.4051 55.7759 30.4051 55.8821C30.4048 56.0245 30.3482 56.161 30.2475 56.2616C30.1468 56.3623 30.0103 56.419 29.868 56.4192ZM35.0603 56.4192C34.9541 56.4192 34.8502 56.3877 34.7619 56.3287C34.6736 56.2697 34.6047 56.1858 34.5641 56.0876C34.5234 55.9895 34.5128 55.8815 34.5335 55.7773C34.5542 55.6731 34.6054 55.5774 34.6805 55.5023C34.7556 55.4272 34.8513 55.376 34.9555 55.3553C35.0597 55.3346 35.1677 55.3452 35.2658 55.3859C35.364 55.4265 35.4479 55.4954 35.5069 55.5837C35.5659 55.672 35.5974 55.7759 35.5974 55.8821C35.5973 56.0245 35.5407 56.1611 35.44 56.2618C35.3393 56.3625 35.2027 56.4191 35.0603 56.4192ZM45.961 56.4192C45.8548 56.4192 45.751 56.3877 45.6626 56.3287C45.5743 56.2697 45.5055 56.1858 45.4648 56.0876C45.4242 55.9895 45.4135 55.8815 45.4342 55.7773C45.455 55.6731 45.5061 55.5774 45.5812 55.5023C45.6564 55.4272 45.7521 55.376 45.8563 55.3553C45.9604 55.3346 46.0684 55.3452 46.1666 55.3859C46.2647 55.4265 46.3486 55.4954 46.4076 55.5837C46.4666 55.672 46.4981 55.7759 46.4981 55.8821C46.498 56.0245 46.4414 56.1611 46.3407 56.2618C46.24 56.3625 46.1035 56.4191 45.961 56.4192ZM55.8821 45.4239C55.9883 45.4239 56.0922 45.4554 56.1805 45.5144C56.2688 45.5735 56.3377 45.6573 56.3783 45.7555C56.419 45.8536 56.4296 45.9616 56.4089 46.0658C56.3882 46.17 56.337 46.2657 56.2619 46.3408C56.1868 46.4159 56.0911 46.4671 55.9869 46.4878C55.8827 46.5085 55.7747 46.4979 55.6765 46.4573C55.5784 46.4166 55.4945 46.3478 55.4355 46.2594C55.3765 46.1711 55.345 46.0673 55.345 45.961C55.3451 45.8186 55.4017 45.6821 55.5024 45.5814C55.6031 45.4807 55.7397 45.424 55.8821 45.4239ZM55.8821 34.5232C55.9883 34.5232 56.0922 34.5547 56.1805 34.6137C56.2688 34.6727 56.3377 34.7566 56.3783 34.8547C56.419 34.9529 56.4296 35.0609 56.4089 35.1651C56.3882 35.2693 56.337 35.365 56.2619 35.4401C56.1868 35.5152 56.0911 35.5664 55.9869 35.5871C55.8827 35.6078 55.7747 35.5972 55.6765 35.5565C55.5784 35.5159 55.4945 35.447 55.4355 35.3587C55.3765 35.2704 55.345 35.1665 55.345 35.0603C55.3451 34.9179 55.4017 34.7813 55.5024 34.6806C55.6031 34.5799 55.7397 34.5233 55.8821 34.5232ZM44.0657 44.0657H20.8626V20.8626H44.0657V44.0657Z" fill="#585858"/>
<path d="M40.9512 23.2261H23.9785C23.7791 23.2262 23.5879 23.3054 23.4469 23.4464C23.3059 23.5874 23.2267 23.7786 23.2266 23.978V40.9507C23.2267 41.1501 23.3059 41.3413 23.4469 41.4823C23.5879 41.6233 23.7791 41.7025 23.9785 41.7026H40.9512C41.1506 41.7025 41.3418 41.6233 41.4828 41.4823C41.6238 41.3413 41.703 41.1501 41.7031 40.9507V23.978C41.703 23.7786 41.6238 23.5874 41.4828 23.4464C41.3418 23.3054 41.1506 23.2262 40.9512 23.2261ZM40.1992 40.1987H24.7305V24.73H40.1992V40.1987Z" fill="#585858"/>
<path d="M38.373 33.5742C38.5724 33.5741 38.7636 33.4948 38.9046 33.3539C39.0456 33.2129 39.1249 33.0217 39.125 32.8223V28.5791C39.125 28.3797 39.0458 28.1884 38.9048 28.0474C38.7637 27.9064 38.5725 27.8271 38.373 27.8271C38.1736 27.8271 37.9824 27.9064 37.8413 28.0474C37.7003 28.1884 37.6211 28.3797 37.6211 28.5791V32.8223C37.6212 33.0217 37.7005 33.2129 37.8415 33.3539C37.9825 33.4948 38.1737 33.5741 38.373 33.5742Z" fill="#585858"/>
</svg>
