<svg width="65" height="65" viewBox="0 0 65 65" fill="none" xmlns="http://www.w3.org/2000/svg">
<path d="M20.0698 41.6643C18.6712 41.6643 17.5325 42.8029 17.5325 44.2026C17.5325 45.6002 18.6712 46.7378 20.0698 46.7378C21.4684 46.7378 22.6071 45.6002 22.6071 44.2026C22.6071 42.8029 21.4684 41.6643 20.0698 41.6643ZM20.0698 45.019C19.6186 45.019 19.2512 44.6527 19.2512 44.2026C19.2512 43.7504 19.6186 43.383 20.0698 43.383C20.521 43.383 20.8883 43.7504 20.8883 44.2026C20.8883 44.6527 20.521 45.019 20.0698 45.019ZM24.372 23.7248H29.9075C30.3823 23.7248 30.7669 23.3402 30.7669 22.8654V17.3364C30.7669 16.8616 30.3823 16.477 29.9075 16.477H24.372C23.8972 16.477 23.5127 16.8616 23.5127 17.3364V22.8654C23.5127 23.3402 23.8983 23.7248 24.372 23.7248ZM25.2314 18.1969H29.0481V22.0071H25.2314V18.1969ZM33.1967 23.7248H38.73C39.2048 23.7248 39.5894 23.3402 39.5894 22.8654V17.3364C39.5894 16.8616 39.2048 16.477 38.73 16.477H33.1978C32.723 16.477 32.3384 16.8616 32.3384 17.3364V22.8654C32.3374 23.3402 32.7219 23.7248 33.1967 23.7248ZM34.0561 18.1969H37.8707V22.0071H34.0572V18.1969H34.0561ZM24.372 32.5355H29.9075C30.3823 32.5355 30.7669 32.151 30.7669 31.6762V26.1504C30.7669 25.6756 30.3823 25.291 29.9075 25.291H24.372C23.8972 25.291 23.5127 25.6756 23.5127 26.1504V31.6762C23.5127 32.151 23.8983 32.5355 24.372 32.5355ZM25.2314 27.0098H29.0481V30.8168H25.2314V27.0098ZM33.1967 32.5355H38.73C39.2048 32.5355 39.5894 32.151 39.5894 31.6762V26.1504C39.5894 25.6756 39.2048 25.291 38.73 25.291H33.1978C32.723 25.291 32.3384 25.6756 32.3384 26.1504V31.6762C32.3374 32.151 32.7219 32.5355 33.1967 32.5355ZM34.0561 27.0098H37.8707V30.8168H34.0572V27.0098H34.0561ZM52.6304 34.1007H47.095C46.6202 34.1007 46.2356 34.4853 46.2356 34.9601V40.4891C46.2356 40.9639 46.6202 41.3484 47.095 41.3484H52.6304C53.1052 41.3484 53.4898 40.9639 53.4898 40.4891V34.9601C53.4898 34.4853 53.1042 34.1007 52.6304 34.1007ZM51.771 39.6297H47.9544V35.8194H51.771V39.6297ZM59.1402 57.1652H57.5514V32.455C57.5514 32.1316 57.3699 31.8362 57.082 31.6891L43.8917 24.9763V12.2769C43.8917 11.8021 43.5071 11.4175 43.0323 11.4175H41.4188V6.97559C41.4188 6.50078 41.0342 6.11621 40.5594 6.11621H22.5426C22.0678 6.11621 21.6833 6.50078 21.6833 6.97559V11.4164H20.0698C19.595 11.4164 19.2104 11.801 19.2104 12.2758V21.8686H10.2837C9.80885 21.8686 9.42428 22.2531 9.42428 22.7279V41.9468L5.35299 44.9148C5.16822 45.0491 5.04469 45.2521 5.01031 45.4767C4.97486 45.7022 5.0318 45.9321 5.16607 46.1169L6.89234 48.4737C7.06099 48.7036 7.32203 48.825 7.58629 48.825C7.76246 48.825 7.93971 48.7713 8.09224 48.6596L9.42428 47.6885V57.1631H7.83551C7.3607 57.1631 6.97613 57.5476 6.97613 58.0225C6.97613 58.4973 7.3607 58.8818 7.83551 58.8818H59.1402C59.615 58.8818 59.9996 58.4973 59.9996 58.0225C59.9996 57.5476 59.615 57.1652 59.1402 57.1652ZM47.9533 46.3865L48.1499 46.118C48.2841 45.9343 48.34 45.7033 48.3056 45.4788C48.2712 45.2543 48.1477 45.0513 47.9629 44.917L47.9533 44.9105V44.6345H51.77V48.4415H47.9533V46.3865ZM46.2549 45.7978L45.546 46.7668L33.7553 38.1677C33.6049 38.0581 33.4266 38.0022 33.2494 38.0022C33.0721 38.0022 32.8938 38.057 32.7434 38.1677L29.1394 40.7963L28.1189 40.0508L33.2494 36.3114L46.2549 45.7978ZM23.402 7.83496H39.7001V11.4164H23.402V7.83496ZM20.9292 13.1362H42.1729V40.6942L33.7553 34.5551C33.4535 34.3349 33.0442 34.3349 32.7423 34.5551L26.658 38.9894L20.9292 34.8129V13.1362ZM19.2104 30.8168H14.9393V27.0098H19.2104V30.8168ZM11.143 23.5884H19.2104V25.291H14.0799C13.6051 25.291 13.2206 25.6756 13.2206 26.1504V31.6762C13.2206 32.151 13.6051 32.5355 14.0799 32.5355H19.2104V34.8129L11.143 40.6953V23.5884ZM7.77213 46.7679L7.06099 45.7978L20.0698 36.3136L33.0786 45.7989L32.3696 46.7679L20.5757 38.1677C20.2739 37.9475 19.8646 37.9475 19.5628 38.1677L7.77213 46.7679ZM17.5368 57.1652V51.2259H22.6028V57.1652H17.5368ZM24.3215 57.1652V50.3665C24.3215 49.8917 23.937 49.5071 23.4622 49.5071H16.6774C16.2026 49.5071 15.818 49.8917 15.818 50.3665V57.1652H11.143V46.437L20.0698 39.9262L28.9965 46.4349V57.1652H24.3215ZM30.7164 57.1652V47.6885L32.0516 48.6617C32.4351 48.941 32.9722 48.8572 33.2515 48.4748L34.9746 46.118C35.1088 45.9343 35.1647 45.7033 35.1303 45.4777C35.0949 45.2521 34.9713 45.0502 34.7877 44.9159L30.5971 41.8608L33.2494 39.9262L42.174 46.4349V57.1652H30.7164ZM43.8917 57.1652V47.6885L45.2269 48.6617C45.3795 48.7734 45.5567 48.8271 45.7329 48.8271C45.9112 48.8271 46.0874 48.7702 46.2356 48.6639V49.2998C46.2356 49.7746 46.6202 50.1592 47.095 50.1592H52.6304C53.1052 50.1592 53.4898 49.7746 53.4898 49.2998V43.774C53.4898 43.2992 53.1052 42.9146 52.6304 42.9146H47.095C46.6588 42.9146 46.299 43.2401 46.2442 43.6623L43.8927 41.9478V26.9045L55.8337 32.9813V57.1652H43.8917Z" fill="#585858"/>
</svg>
