<svg width="65" height="65" viewBox="0 0 65 65" fill="none" xmlns="http://www.w3.org/2000/svg">
<path d="M59.5048 41.5996C58.5104 39.8763 56.2978 39.2748 54.4693 40.2308L42.9869 46.2282C42.9046 45.9626 42.7926 45.7046 42.65 45.4577C42.1539 44.5982 41.356 43.9847 40.4044 43.73L23.5858 39.2232C23.3926 39.1705 23.3915 39.1705 22.0931 39.592C20.5237 40.1024 17.5428 41.0705 16.0677 41.5172V39.2748C16.0677 38.9115 15.7724 38.6162 15.4092 38.6162H6.65852C6.29524 38.6162 6 38.9115 6 39.2748V59.3414C6 59.7047 6.29524 60 6.65852 60H15.4092C15.7724 60 16.0677 59.7047 16.0677 59.3414V57.0309L22.7253 58.3481C23.1973 58.4414 23.6264 58.4842 24.0972 58.4842C24.1477 58.4842 24.1993 58.4842 24.2509 58.4831L37.0745 58.2405C37.7297 58.2438 38.3784 58.0748 38.9469 57.7466L58.1483 46.6596C59.9175 45.6388 60.5255 43.3689 59.5048 41.5996ZM14.7506 58.6829H7.31704V39.9334H14.7506V58.6829ZM57.4908 45.5191L38.2884 56.6062C37.9207 56.818 37.5047 56.9322 37.0778 56.9234C37.0712 56.9234 37.0646 56.9234 37.058 56.9234L24.2257 57.166C23.7855 57.1747 23.4135 57.1418 22.9811 57.0562L16.0677 55.6886V42.8914C17.3759 42.5095 20.6554 41.4437 22.4992 40.8444C22.8823 40.7204 23.2302 40.6073 23.4267 40.5436L40.0631 45.0022C40.6755 45.1668 41.1891 45.562 41.5096 46.1162C41.8301 46.6705 41.9157 47.3137 41.7511 47.9262C41.5865 48.5387 41.1913 49.0524 40.6371 49.3729C40.0828 49.6934 39.4397 49.779 38.8273 49.6143L27.4809 46.574C27.1297 46.4807 26.7686 46.6881 26.6743 47.0393C26.5799 47.3906 26.7884 47.7517 27.1396 47.8461L38.4859 50.8865C39.4386 51.1411 40.4362 51.0094 41.2945 50.5133C42.1539 50.0172 42.7674 49.2192 43.022 48.2676C43.078 48.059 43.1153 47.8483 43.134 47.6375L55.0773 41.3998C56.2791 40.7719 57.7213 41.1506 58.3623 42.2603C59.0219 43.3985 58.6301 44.8617 57.4908 45.5191ZM18.7709 37.7305C19.537 37.9357 20.314 38.0367 21.0856 38.0367C22.6255 38.0367 24.1455 37.6328 25.5153 36.8425C29.7594 34.3915 31.2191 28.944 28.7684 24.6995C26.3176 20.4551 20.8705 18.9952 16.6263 21.4462C14.5706 22.6338 13.0989 24.5503 12.4853 26.8443C11.8707 29.1383 12.1857 31.5333 13.3732 33.5891C14.5608 35.645 16.4782 37.1158 18.7709 37.7305ZM13.7585 27.1846C14.282 25.2308 15.5343 23.5975 17.2859 22.5866C18.4757 21.8995 19.7752 21.5735 21.0593 21.5735C23.678 21.5735 26.2287 22.9324 27.6291 25.3581C29.7166 28.9737 28.4731 33.6144 24.8578 35.7021C23.6681 36.3892 22.3686 36.7152 21.0845 36.7152C18.4658 36.7152 15.9151 35.3563 14.5147 32.9306C13.5027 31.1788 13.2349 29.1383 13.7585 27.1846ZM22.5925 31.2567C22.5925 30.5938 22.3291 29.8024 21.0724 29.8024C19.3493 29.8024 18.2353 28.7146 18.2353 27.0309C18.2353 25.7247 19.166 24.6271 20.4139 24.3362V23.4395C20.4139 23.0762 20.7092 22.7809 21.0724 22.7809C21.4357 22.7809 21.731 23.0762 21.731 23.4395V24.3362C22.9789 24.6271 23.9096 25.7247 23.9096 27.0309C23.9096 27.3942 23.6143 27.6895 23.251 27.6895C22.8878 27.6895 22.5925 27.3942 22.5925 27.0309C22.5925 26.2296 21.911 25.5765 21.0724 25.5765C20.2339 25.5765 19.5524 26.2285 19.5524 27.0309C19.5524 27.6938 19.8158 28.4852 21.0724 28.4852C22.7956 28.4852 23.9096 29.573 23.9096 31.2567C23.9096 32.5629 22.9789 33.6605 21.731 33.9514V34.8481C21.731 35.2114 21.4357 35.5067 21.0724 35.5067C20.7092 35.5067 20.4139 35.2114 20.4139 34.8481V33.9514C19.166 33.6605 18.2353 32.5629 18.2353 31.2567C18.2353 30.8934 18.5306 30.5981 18.8938 30.5981C19.2571 30.5981 19.5524 30.8934 19.5524 31.2567C19.5524 32.058 20.2339 32.7111 21.0724 32.7111C21.911 32.7111 22.5925 32.058 22.5925 31.2567ZM43.2909 22.5383C42.9309 22.0565 42.2669 21.9204 41.7456 22.2211L39.7382 23.3802C39.2169 23.681 39.0029 24.3242 39.241 24.8774C39.3749 25.188 39.3222 25.5107 39.0972 25.762C38.7998 26.0957 38.5254 26.4535 38.2807 26.8256C38.0952 27.1077 37.7978 27.2416 37.4641 27.1933C36.8682 27.1066 36.3029 27.4809 36.1471 28.0615L35.5467 30.3018C35.3909 30.8824 35.6949 31.4894 36.2524 31.7122C36.5652 31.8373 36.7562 32.1019 36.776 32.4388C36.8023 32.8834 36.8605 33.3312 36.9516 33.7681C37.0196 34.0984 36.9044 34.4047 36.6333 34.6066C36.1515 34.9667 36.0154 35.6307 36.3161 36.1521L37.4751 38.1596C37.7758 38.681 38.419 38.895 38.9721 38.6568C39.2827 38.5229 39.6054 38.5756 39.8567 38.8006C40.1893 39.0981 40.5471 39.3725 40.9203 39.6173C41.2023 39.8028 41.3362 40.1002 41.2879 40.4339C41.2023 41.0288 41.5755 41.5952 42.1561 41.751L44.395 42.3514C44.4971 42.3789 44.6014 42.392 44.7024 42.392C45.1776 42.392 45.621 42.1045 45.8043 41.6446C45.9294 41.3317 46.1939 41.1407 46.5308 41.121C46.9753 41.0946 47.422 41.0365 47.86 40.9454C48.1903 40.8773 48.4965 40.9926 48.6985 41.2637C49.0585 41.7455 49.7225 41.8827 50.2438 41.582L52.2512 40.4229C52.7714 40.1233 52.9876 39.4844 52.7561 38.9389C52.6244 38.6305 52.677 38.3089 52.8998 38.0586C53.1995 37.7206 53.476 37.3584 53.7219 36.9808C53.9041 36.702 54.1971 36.567 54.5275 36.6087C55.1344 36.6888 55.6887 36.3222 55.8434 35.7416L56.4438 33.5013C56.6018 32.9108 56.2978 32.3038 55.737 32.0887C55.4187 31.9669 55.2233 31.7023 55.2014 31.361C55.1739 30.9219 55.1136 30.4796 55.0236 30.0471C54.9533 29.7146 55.0708 29.4072 55.3429 29.2053C55.8335 28.842 55.9751 28.1735 55.6733 27.651L54.5143 25.6435C54.2103 25.1177 53.5463 24.9015 53.0019 25.1518C52.688 25.2956 52.3588 25.2473 52.1008 25.0179C51.7749 24.7292 51.4258 24.4625 51.0637 24.2232C50.7761 24.0333 50.6433 23.7304 50.6993 23.3901C50.7992 22.7853 50.4271 22.2102 49.8344 22.051L47.5944 21.4506C47.0138 21.2947 46.4068 21.5988 46.184 22.1564C46.0589 22.4692 45.7944 22.6602 45.4575 22.6799C45.0119 22.7063 44.5652 22.7655 44.1283 22.8556C43.798 22.9258 43.4929 22.8095 43.2909 22.5383ZM44.3961 24.1463C44.7704 24.0684 45.1534 24.0179 45.5343 23.996C46.3377 23.9488 47.028 23.4757 47.3617 22.7524L49.3833 23.2935C49.2933 24.1013 49.6533 24.8708 50.3393 25.323C50.6499 25.5272 50.9484 25.7566 51.2272 26.0035C51.8418 26.5479 52.6748 26.6939 53.4299 26.3998L54.4759 28.2108C53.8503 28.7212 53.5671 29.5192 53.734 30.3172C53.8119 30.6881 53.8635 31.0668 53.8865 31.4422C53.937 32.249 54.4144 32.9372 55.1421 33.2664L54.5999 35.2905C53.7965 35.2202 53.0623 35.578 52.6178 36.2596C52.407 36.5823 52.17 36.893 51.9143 37.1827C51.3852 37.7787 51.2316 38.5932 51.4983 39.3352L49.683 40.3834C49.1726 39.7698 48.3835 39.491 47.5933 39.6546C47.2179 39.7325 46.836 39.783 46.4551 39.805C45.6517 39.8521 44.9614 40.3252 44.6277 41.0485L42.605 40.5063C42.6785 39.7127 42.3163 38.9576 41.6446 38.5153C41.3252 38.3056 41.019 38.0696 40.7337 37.8161C40.1322 37.2793 39.3091 37.1257 38.5606 37.4023L37.5135 35.5879C38.127 35.0775 38.4058 34.2883 38.2423 33.4991C38.1643 33.1249 38.1139 32.7418 38.0919 32.3609C38.0447 31.5575 37.5717 30.8671 36.8484 30.5334L37.3906 28.5105C38.1841 28.584 38.9392 28.2229 39.3815 27.5501C39.5911 27.2317 39.826 26.9255 40.0806 26.639C40.6173 26.0375 40.771 25.2143 40.4944 24.4658L42.3086 23.4186C42.8168 24.0322 43.607 24.3099 44.3961 24.1463ZM39.6339 31.901C39.6339 35.409 42.4875 38.2628 45.9953 38.2628C49.503 38.2628 52.3566 35.409 52.3566 31.901C52.3566 28.393 49.503 25.5392 45.9953 25.5392C42.4875 25.5392 39.6339 28.393 39.6339 31.901ZM42.9265 27.9013L43.0341 28.0868C43.1559 28.2975 43.3776 28.4161 43.6048 28.4161C43.7168 28.4161 43.8298 28.3875 43.933 28.3283C44.248 28.1461 44.3555 27.7432 44.1744 27.4282L44.0658 27.2405C44.4664 27.0737 44.8922 26.9584 45.3367 26.9003V27.1165C45.3367 27.4798 45.632 27.7751 45.9953 27.7751C46.3585 27.7751 46.6538 27.4798 46.6538 27.1165V26.9003C47.0983 26.9584 47.5241 27.0737 47.9247 27.2405L47.8161 27.4282C47.6339 27.7432 47.7425 28.1461 48.0575 28.3283C48.1607 28.3886 48.2748 28.4161 48.3857 28.4161C48.6129 28.4161 48.8346 28.2975 48.9564 28.0868L49.064 27.9013C49.413 28.1691 49.7258 28.4819 49.9936 28.831L49.8081 28.9385C49.4931 29.1207 49.3855 29.5236 49.5666 29.8386C49.6885 30.0493 49.9102 30.1679 50.1373 30.1679C50.2493 30.1679 50.3623 30.1393 50.4655 30.0801L50.6532 29.9714C50.82 30.372 50.9353 30.7979 50.9934 31.2424H50.7772C50.4139 31.2424 50.1187 31.5377 50.1187 31.901C50.1187 32.2643 50.4139 32.5596 50.7772 32.5596H50.9934C50.9353 33.0041 50.82 33.43 50.6532 33.8306L50.4655 33.722C50.1505 33.5398 49.7477 33.6484 49.5655 33.9634C49.3833 34.2785 49.492 34.6813 49.807 34.8635L49.9925 34.971C49.7247 35.3201 49.4119 35.6329 49.0629 35.9007L48.9553 35.7152C48.7731 35.4002 48.3703 35.2926 48.0553 35.4738C47.7403 35.656 47.6328 36.0588 47.8139 36.3738L47.9225 36.5615C47.5219 36.7283 47.0961 36.8436 46.6516 36.9018V36.6855C46.6516 36.3222 46.3563 36.027 45.9931 36.027C45.6298 36.027 45.3345 36.3222 45.3345 36.6855V36.9018C44.89 36.8436 44.4642 36.7283 44.0636 36.5615L44.1722 36.3738C44.3544 36.0588 44.2458 35.656 43.9308 35.4738C43.6158 35.2915 43.213 35.4002 43.0308 35.7152L42.9233 35.9007C42.5742 35.6329 42.2614 35.3201 41.9936 34.971L42.1791 34.8635C42.4941 34.6813 42.6017 34.2785 42.4206 33.9634C42.2395 33.6484 41.8356 33.5408 41.5206 33.722L41.3329 33.8306C41.1661 33.43 41.0509 33.0041 40.9927 32.5596H41.2089C41.5722 32.5596 41.8674 32.2643 41.8674 31.901C41.8674 31.5377 41.5722 31.2424 41.2089 31.2424H40.9927C41.0509 30.7979 41.1661 30.372 41.3329 29.9714L41.5206 30.0801C41.6249 30.1404 41.7379 30.1679 41.8488 30.1679C42.076 30.1679 42.2977 30.0493 42.4195 29.8386C42.6017 29.5236 42.493 29.1207 42.178 28.9385L41.9925 28.831C42.2647 28.483 42.5775 28.1702 42.9265 27.9013ZM45.3367 31.901V28.9188C45.3367 28.5555 45.632 28.2602 45.9953 28.2602C46.3585 28.2602 46.6538 28.5555 46.6538 28.9188V31.2424H48.0048C48.3681 31.2424 48.6634 31.5377 48.6634 31.901C48.6634 32.2643 48.3681 32.5596 48.0048 32.5596H45.9953C45.6309 32.5596 45.3367 32.2643 45.3367 31.901ZM34.5227 23.7743C36.799 23.7743 39.0753 22.9071 40.8094 21.174C42.4886 19.4946 43.4128 17.2621 43.4128 14.8869C43.4128 12.5116 42.4875 10.2791 40.8094 8.59971C37.3434 5.13343 31.7032 5.13343 28.2371 8.59971C26.5579 10.2791 25.6338 12.5116 25.6338 14.8869C25.6338 17.2621 26.559 19.4946 28.2371 21.174C29.9701 22.9082 32.2464 23.7743 34.5227 23.7743ZM29.9614 20.9325C30.3642 19.15 31.9633 17.846 33.8225 17.846H35.223C37.0822 17.846 38.6813 19.15 39.0841 20.9325C36.3951 22.9642 32.6503 22.9642 29.9614 20.9325ZM34.5227 16.2413C33.2518 16.2413 32.2179 15.2074 32.2179 13.9363C32.2179 12.6653 33.2518 11.6313 34.5227 11.6313C35.7937 11.6313 36.8275 12.6653 36.8275 13.9363C36.8275 15.2074 35.7937 16.2413 34.5227 16.2413ZM29.1679 9.53268C30.644 8.05639 32.5834 7.31769 34.5227 7.31769C36.4621 7.31769 38.4014 8.05639 39.8776 9.53268C41.3077 10.9629 42.0957 12.865 42.0957 14.888C42.0957 16.7737 41.4108 18.554 40.1597 19.9447C39.5835 18.4212 38.3246 17.2456 36.7804 16.7649C37.6112 16.1008 38.1446 15.08 38.1446 13.9363C38.1446 11.9398 36.5202 10.3142 34.5227 10.3142C32.5252 10.3142 30.9009 11.9387 30.9009 13.9363C30.9009 15.08 31.4343 16.1008 32.2651 16.7649C30.7198 17.2456 29.4609 18.4201 28.8858 19.9447C27.6346 18.5529 26.9497 16.7726 26.9497 14.888C26.9497 12.865 27.7378 10.9629 29.1679 9.53268Z" fill="#585858"/>
</svg>
